M48
;Layer_Color=6321
;FILE_FORMAT=2:4
INCH,LZ
;TYPE=PLATED
T1F00S00C0.0130
T2F00S00C0.0197
T3F00S00C0.0295
T4F00S00C0.0300
T5F00S00C0.0315
T6F00S00C0.0354
T7F00S00C0.0390
T8F00S00C0.0394
T9F00S00C0.0400
T10F00S00C0.0410
T11F00S00C0.0797
T12F00S00C0.0800
T13F00S00C0.1181
T14F00S00C0.1201
T15F00S00C0.1299
T16F00S00C0.1402
%
T01
X043765Y072965
X0437Y0777
X06385Y0781
X0655Y077
X0685Y0772
X0722Y0775
X074Y07705
X07505Y076
X0761Y075395
X07675Y07475
X0765Y07435
X0764Y0739
X07685Y0737
X0774Y0723
X0781Y07295
X0775Y0753
X076217Y07104
X07576Y07138
X07543Y0714
X0753Y0719
X07476Y072255
X074068Y0729
X074Y0711
X0735Y0714
X07863Y07162
X07908Y071601
X07935Y0726
X08045Y0715
X08015Y075
X079441Y0756
X07825Y076636
X0793Y078
X08155Y0764
X08715Y07675
X08732Y07577
X08748Y07478
X08764Y07376
X08778Y07273
X08695Y07775
X0862Y07805
X0867Y07851
X08647Y07889
X08405Y07845
X0834Y07825
X08445Y0819
X085Y08185
X08474Y08222
X08416
X08535Y0822
X07945Y0921
X0753Y0832
X074508Y083071
X073228Y083268
X0701Y0824
X07055Y08605
X0685Y087
X0665Y0871
X068Y0853
X06385Y08245
X0639Y0902
X06235Y0867
X05835Y08635
X05795Y08225
X059Y0822
X0569Y0823
X0559
X0549
X05395Y08225
X0531Y0819
X0524Y0818
X0542Y081
X0477Y0862
X04295Y08505
X055755Y099745
X06555Y0945
X08015Y09475
X079202Y0965
T02
X06675Y09625
X06775
Y09725
X06675
Y09825
X06775
T03
X0612Y0726
X0617
X0622
T04
X0888Y07075
Y07175
Y07275
Y07375
Y07475
Y07575
Y07675
Y07775
X0908
Y07675
Y07575
Y07475
Y07375
Y07275
Y07175
Y07075
X0968
Y07175
Y07275
Y07375
Y07475
Y07575
Y07675
Y07775
X0988
Y07675
Y07575
Y07475
Y07375
Y07275
Y07175
Y07075
X1048
Y07175
Y07275
Y07375
Y07475
Y07575
Y07675
Y07775
X1068
Y07675
Y07575
Y07475
Y07375
Y07275
Y07175
Y07075
Y07875
Y07975
Y08075
Y08175
Y08275
Y08375
Y08475
Y08575
Y08675
Y08775
Y08875
Y08975
Y09075
Y09175
Y09275
X1048
Y09175
Y09075
Y08975
Y08875
Y08775
Y08675
Y08575
Y08475
Y08375
Y08275
Y08175
Y08075
Y07975
Y07875
X0988
Y07975
Y08075
Y08175
Y08275
Y08375
Y08475
Y08575
Y08675
Y08775
Y08875
Y08975
Y09075
Y09175
Y09275
X0968
Y09175
Y09075
Y08975
Y08875
Y08775
Y08675
Y08575
Y08475
Y08375
Y08275
Y08175
Y08075
Y07975
Y07875
X0908
Y07975
Y08075
Y08175
Y08275
Y08375
Y08475
Y08575
Y08675
Y08775
Y08875
Y08975
Y09075
Y09175
Y09275
X0888
Y09175
Y09075
Y08975
Y08875
Y08775
Y08675
Y08575
Y08475
Y08375
Y08275
Y08175
Y08075
Y07975
Y07875
X061239Y100689
Y101674
X060412
X059378
X058561
Y100689
X0888Y10075
Y09975
Y09875
Y09775
Y09675
Y09575
Y09475
Y09375
X0908
Y09475
Y09575
Y09675
Y09775
Y09875
Y09975
Y10075
X0968
Y09975
Y09875
Y09775
Y09675
Y09575
Y09475
Y09375
X0988
Y09475
Y09575
Y09675
Y09775
Y09875
Y09975
Y10075
X1048
Y09975
Y09875
Y09775
Y09675
Y09575
Y09475
Y09375
X1068
Y09475
Y09575
Y09675
Y09775
Y09875
Y09975
Y10075
T05
X0506Y095816
Y097784
T06
X04537Y068972
X04637
Y071972
X04537
Y073894
X04637
Y076894
X04537
X04737
X04837
X04937
X05037
X05137
X05237
X05337
X05437
X05537
X05637
X05737
X05837
Y073894
X05737
X05637
X05537
X05437
X05337
X05237
X05137
X05037
X04937
X04837
X04737
Y071972
X04837
X04937
X05037
X05137
X05237
X05337
X05437
X05537
X05637
X05737
X05837
Y068972
X05737
X05637
X05537
X05437
X05337
X05237
X05137
X05037
X04937
X04837
X04737
X082Y07
X083
X084
X08475Y0723
X08175
Y0753
X08475
X0835Y079
X0825
X0815
X0805
X0795
X0785
Y085
X0795
X0805
X0815
X0825
X0835
X0815Y0877
X0805
X0795
X0785
Y0937
X0795
X0805
X0815
X0775
X0765
X0755
X0745
X0735
X0725
X0715
X0705
X0695
X0685
X0643
X0633
Y0877
X0643
X0645Y085
X0655
X0665
X0675
X0685
X0695
X0705
X0715
X0725
X0735
X0745
X0755
X0765
X0775
Y0877
X0765
X0755
X0745
X0735
X0725
X0715
X0705
X0695
X0685
Y079
X0695
X0705
X0715
X0725
X0735
X0745
X0755
X0765
X0775
X0675
X0665
X0655
X0645
X058406Y078997
X057406
X056406
X055406
X054406
X053406
X052406
X051406
X050406
X049406
X048406
X047406
Y084997
X048406
X049406
X050406
X051406
X052406
X053406
X054406
X055406
X056406
X057406
X058406
X0583Y0877
X0593
X0603
X0613
X0623
X0573
X0563
X0553
X0543
X0533
X0523
X0513
X0503
X0493
X0483
X0473
Y0937
X0483
X0493
X0503
X0513
X0523
X0533
X0543
X0553
X0563
X0573
X0583
X0593
X0603
X0613
X0623
X0463
X0453
Y0877
X0463
X046406Y084997
X045406
Y078997
X046406
X055341Y095361
X056341
X057341
X058341
X059341
X060341
X061341
X062341
Y098361
X061341
X060341
X059341
X058341
X057341
X056341
X055341
X063341
X064341
Y095361
X063341
X070467Y094995
X071467
X072467
X073467
X074467
X075467
X076467
X077467
Y097995
X076467
X075467
X074467
X073467
X072467
X071467
X070467
X0825Y0993
X0855
Y0963
X0825
T07
X0604Y0694
Y071172
X062959
Y0694
T08
X067Y0735
Y0745
X068
Y0735
X069
Y0745
X07
Y0735
X071
Y0745
X072122Y10125
X073217
X074311
X075406
X0765
X075953Y102368
X074858
X073764
X072669
T09
X043Y097
X044
X045
X0485Y10025
Y10125
X0495
Y10025
X0505
Y10125
X0515
Y10025
X0525
Y10125
X0535
Y10025
X0545
Y10125
T10
X04205Y0952
X04555
T11
X057333Y102894
X062467
T12
X0599Y10315
T13
X04Y068
X065
X086
X108Y068
X04Y103
X065
X086
X108Y103
T14
X04211Y100572
X044039Y101956
T15
X069392Y101809
X07923
T16
X044033Y099594
M30
