G04 Layer_Color=2752767*
%FSLAX24Y24*%
%MOIN*%
G70*
G01*
G75*
%ADD23C,0.0100*%
%ADD57C,0.0050*%
%ADD101C,0.0067*%
%ADD102C,0.0040*%
D23*
X38000Y105050D02*
X110000D01*
X38000Y66000D02*
X110000D01*
X38000D02*
Y105050D01*
X110000Y66000D02*
Y105050D01*
D57*
X58361Y100489D02*
Y100889D01*
X58761D01*
Y100489D01*
X58361D01*
Y101474D02*
Y101874D01*
X58761D01*
Y101474D01*
X58361D01*
X59178D02*
Y101874D01*
X59578D01*
Y101474D01*
X59178D01*
X60212D02*
Y101874D01*
X60612D01*
Y101474D01*
X60212D01*
X61039D02*
Y101874D01*
X61439D01*
Y101474D01*
X61039D01*
Y100489D02*
Y100889D01*
X61439D01*
Y100489D01*
X61039D01*
X59900Y102950D02*
X59700Y103350D01*
X60100D01*
X59900Y102950D01*
X45000Y96800D02*
X45100Y96900D01*
X45200D01*
X45100Y97000D01*
X45200Y97100D01*
X45100D01*
X45000Y97200D01*
X44900Y97100D01*
X44800D01*
X44900Y97000D01*
X44800Y96900D01*
X44900D01*
X45000Y96800D01*
X44000D02*
X44100Y96900D01*
X44200D01*
X44100Y97000D01*
X44200Y97100D01*
X44100D01*
X44000Y97200D01*
X43900Y97100D01*
X43800D01*
X43900Y97000D01*
X43800Y96900D01*
X43900D01*
X44000Y96800D01*
X43000D02*
X43100Y96900D01*
X43200D01*
X43100Y97000D01*
X43200Y97100D01*
X43100D01*
X43000Y97200D01*
X42900Y97100D01*
X42800D01*
X42900Y97000D01*
X42800Y96900D01*
X42900D01*
X43000Y96800D01*
X64100Y93500D02*
X64200Y93700D01*
X64100Y93900D01*
X64300Y93800D01*
X64500Y93900D01*
X64400Y93700D01*
X64500Y93500D01*
X64300Y93600D01*
X64100Y93500D01*
X63100D02*
X63200Y93700D01*
X63100Y93900D01*
X63300Y93800D01*
X63500Y93900D01*
X63400Y93700D01*
X63500Y93500D01*
X63300Y93600D01*
X63100Y93500D01*
X62100D02*
X62200Y93700D01*
X62100Y93900D01*
X62300Y93800D01*
X62500Y93900D01*
X62400Y93700D01*
X62500Y93500D01*
X62300Y93600D01*
X62100Y93500D01*
X61100D02*
X61200Y93700D01*
X61100Y93900D01*
X61300Y93800D01*
X61500Y93900D01*
X61400Y93700D01*
X61500Y93500D01*
X61300Y93600D01*
X61100Y93500D01*
X60100D02*
X60200Y93700D01*
X60100Y93900D01*
X60300Y93800D01*
X60500Y93900D01*
X60400Y93700D01*
X60500Y93500D01*
X60300Y93600D01*
X60100Y93500D01*
X59100D02*
X59200Y93700D01*
X59100Y93900D01*
X59300Y93800D01*
X59500Y93900D01*
X59400Y93700D01*
X59500Y93500D01*
X59300Y93600D01*
X59100Y93500D01*
X58100D02*
X58200Y93700D01*
X58100Y93900D01*
X58300Y93800D01*
X58500Y93900D01*
X58400Y93700D01*
X58500Y93500D01*
X58300Y93600D01*
X58100Y93500D01*
X57100D02*
X57200Y93700D01*
X57100Y93900D01*
X57300Y93800D01*
X57500Y93900D01*
X57400Y93700D01*
X57500Y93500D01*
X57300Y93600D01*
X57100Y93500D01*
X56100D02*
X56200Y93700D01*
X56100Y93900D01*
X56300Y93800D01*
X56500Y93900D01*
X56400Y93700D01*
X56500Y93500D01*
X56300Y93600D01*
X56100Y93500D01*
X55100D02*
X55200Y93700D01*
X55100Y93900D01*
X55300Y93800D01*
X55500Y93900D01*
X55400Y93700D01*
X55500Y93500D01*
X55300Y93600D01*
X55100Y93500D01*
X54100D02*
X54200Y93700D01*
X54100Y93900D01*
X54300Y93800D01*
X54500Y93900D01*
X54400Y93700D01*
X54500Y93500D01*
X54300Y93600D01*
X54100Y93500D01*
X53100D02*
X53200Y93700D01*
X53100Y93900D01*
X53300Y93800D01*
X53500Y93900D01*
X53400Y93700D01*
X53500Y93500D01*
X53300Y93600D01*
X53100Y93500D01*
X52100D02*
X52200Y93700D01*
X52100Y93900D01*
X52300Y93800D01*
X52500Y93900D01*
X52400Y93700D01*
X52500Y93500D01*
X52300Y93600D01*
X52100Y93500D01*
X51100D02*
X51200Y93700D01*
X51100Y93900D01*
X51300Y93800D01*
X51500Y93900D01*
X51400Y93700D01*
X51500Y93500D01*
X51300Y93600D01*
X51100Y93500D01*
X50100D02*
X50200Y93700D01*
X50100Y93900D01*
X50300Y93800D01*
X50500Y93900D01*
X50400Y93700D01*
X50500Y93500D01*
X50300Y93600D01*
X50100Y93500D01*
X49100D02*
X49200Y93700D01*
X49100Y93900D01*
X49300Y93800D01*
X49500Y93900D01*
X49400Y93700D01*
X49500Y93500D01*
X49300Y93600D01*
X49100Y93500D01*
X48100D02*
X48200Y93700D01*
X48100Y93900D01*
X48300Y93800D01*
X48500Y93900D01*
X48400Y93700D01*
X48500Y93500D01*
X48300Y93600D01*
X48100Y93500D01*
X47100D02*
X47200Y93700D01*
X47100Y93900D01*
X47300Y93800D01*
X47500Y93900D01*
X47400Y93700D01*
X47500Y93500D01*
X47300Y93600D01*
X47100Y93500D01*
X46100D02*
X46200Y93700D01*
X46100Y93900D01*
X46300Y93800D01*
X46500Y93900D01*
X46400Y93700D01*
X46500Y93500D01*
X46300Y93600D01*
X46100Y93500D01*
X45100D02*
X45200Y93700D01*
X45100Y93900D01*
X45300Y93800D01*
X45500Y93900D01*
X45400Y93700D01*
X45500Y93500D01*
X45300Y93600D01*
X45100Y93500D01*
X64100Y87500D02*
X64200Y87700D01*
X64100Y87900D01*
X64300Y87800D01*
X64500Y87900D01*
X64400Y87700D01*
X64500Y87500D01*
X64300Y87600D01*
X64100Y87500D01*
X63100D02*
X63200Y87700D01*
X63100Y87900D01*
X63300Y87800D01*
X63500Y87900D01*
X63400Y87700D01*
X63500Y87500D01*
X63300Y87600D01*
X63100Y87500D01*
X62100D02*
X62200Y87700D01*
X62100Y87900D01*
X62300Y87800D01*
X62500Y87900D01*
X62400Y87700D01*
X62500Y87500D01*
X62300Y87600D01*
X62100Y87500D01*
X61100D02*
X61200Y87700D01*
X61100Y87900D01*
X61300Y87800D01*
X61500Y87900D01*
X61400Y87700D01*
X61500Y87500D01*
X61300Y87600D01*
X61100Y87500D01*
X60100D02*
X60200Y87700D01*
X60100Y87900D01*
X60300Y87800D01*
X60500Y87900D01*
X60400Y87700D01*
X60500Y87500D01*
X60300Y87600D01*
X60100Y87500D01*
X59100D02*
X59200Y87700D01*
X59100Y87900D01*
X59300Y87800D01*
X59500Y87900D01*
X59400Y87700D01*
X59500Y87500D01*
X59300Y87600D01*
X59100Y87500D01*
X58100D02*
X58200Y87700D01*
X58100Y87900D01*
X58300Y87800D01*
X58500Y87900D01*
X58400Y87700D01*
X58500Y87500D01*
X58300Y87600D01*
X58100Y87500D01*
X57100D02*
X57200Y87700D01*
X57100Y87900D01*
X57300Y87800D01*
X57500Y87900D01*
X57400Y87700D01*
X57500Y87500D01*
X57300Y87600D01*
X57100Y87500D01*
X56100D02*
X56200Y87700D01*
X56100Y87900D01*
X56300Y87800D01*
X56500Y87900D01*
X56400Y87700D01*
X56500Y87500D01*
X56300Y87600D01*
X56100Y87500D01*
X55100D02*
X55200Y87700D01*
X55100Y87900D01*
X55300Y87800D01*
X55500Y87900D01*
X55400Y87700D01*
X55500Y87500D01*
X55300Y87600D01*
X55100Y87500D01*
X54100D02*
X54200Y87700D01*
X54100Y87900D01*
X54300Y87800D01*
X54500Y87900D01*
X54400Y87700D01*
X54500Y87500D01*
X54300Y87600D01*
X54100Y87500D01*
X53100D02*
X53200Y87700D01*
X53100Y87900D01*
X53300Y87800D01*
X53500Y87900D01*
X53400Y87700D01*
X53500Y87500D01*
X53300Y87600D01*
X53100Y87500D01*
X52100D02*
X52200Y87700D01*
X52100Y87900D01*
X52300Y87800D01*
X52500Y87900D01*
X52400Y87700D01*
X52500Y87500D01*
X52300Y87600D01*
X52100Y87500D01*
X51100D02*
X51200Y87700D01*
X51100Y87900D01*
X51300Y87800D01*
X51500Y87900D01*
X51400Y87700D01*
X51500Y87500D01*
X51300Y87600D01*
X51100Y87500D01*
X50100D02*
X50200Y87700D01*
X50100Y87900D01*
X50300Y87800D01*
X50500Y87900D01*
X50400Y87700D01*
X50500Y87500D01*
X50300Y87600D01*
X50100Y87500D01*
X49100D02*
X49200Y87700D01*
X49100Y87900D01*
X49300Y87800D01*
X49500Y87900D01*
X49400Y87700D01*
X49500Y87500D01*
X49300Y87600D01*
X49100Y87500D01*
X48100D02*
X48200Y87700D01*
X48100Y87900D01*
X48300Y87800D01*
X48500Y87900D01*
X48400Y87700D01*
X48500Y87500D01*
X48300Y87600D01*
X48100Y87500D01*
X47100D02*
X47200Y87700D01*
X47100Y87900D01*
X47300Y87800D01*
X47500Y87900D01*
X47400Y87700D01*
X47500Y87500D01*
X47300Y87600D01*
X47100Y87500D01*
X46100D02*
X46200Y87700D01*
X46100Y87900D01*
X46300Y87800D01*
X46500Y87900D01*
X46400Y87700D01*
X46500Y87500D01*
X46300Y87600D01*
X46100Y87500D01*
X45100D02*
X45200Y87700D01*
X45100Y87900D01*
X45300Y87800D01*
X45500Y87900D01*
X45400Y87700D01*
X45500Y87500D01*
X45300Y87600D01*
X45100Y87500D01*
X104600Y100550D02*
Y100950D01*
X105000D01*
Y100550D01*
X104600D01*
X106600D02*
Y100950D01*
X107000D01*
Y100550D01*
X106600D01*
X104600Y99550D02*
Y99950D01*
X105000D01*
Y99550D01*
X104600D01*
X106600D02*
Y99950D01*
X107000D01*
Y99550D01*
X106600D01*
X104600Y98550D02*
Y98950D01*
X105000D01*
Y98550D01*
X104600D01*
X106600D02*
Y98950D01*
X107000D01*
Y98550D01*
X106600D01*
X104600Y97550D02*
Y97950D01*
X105000D01*
Y97550D01*
X104600D01*
X106600D02*
Y97950D01*
X107000D01*
Y97550D01*
X106600D01*
X104600Y96550D02*
Y96950D01*
X105000D01*
Y96550D01*
X104600D01*
X106600D02*
Y96950D01*
X107000D01*
Y96550D01*
X106600D01*
X104600Y95550D02*
Y95950D01*
X105000D01*
Y95550D01*
X104600D01*
X106600D02*
Y95950D01*
X107000D01*
Y95550D01*
X106600D01*
X104600Y94550D02*
Y94950D01*
X105000D01*
Y94550D01*
X104600D01*
X106600D02*
Y94950D01*
X107000D01*
Y94550D01*
X106600D01*
X104600Y93550D02*
Y93950D01*
X105000D01*
Y93550D01*
X104600D01*
X106600D02*
Y93950D01*
X107000D01*
Y93550D01*
X106600D01*
X104600Y92550D02*
Y92950D01*
X105000D01*
Y92550D01*
X104600D01*
X106600D02*
Y92950D01*
X107000D01*
Y92550D01*
X106600D01*
X104600Y91550D02*
Y91950D01*
X105000D01*
Y91550D01*
X104600D01*
X106600D02*
Y91950D01*
X107000D01*
Y91550D01*
X106600D01*
X104600Y90550D02*
Y90950D01*
X105000D01*
Y90550D01*
X104600D01*
X106600D02*
Y90950D01*
X107000D01*
Y90550D01*
X106600D01*
X104600Y89550D02*
Y89950D01*
X105000D01*
Y89550D01*
X104600D01*
X106600D02*
Y89950D01*
X107000D01*
Y89550D01*
X106600D01*
X104600Y88550D02*
Y88950D01*
X105000D01*
Y88550D01*
X104600D01*
X106600D02*
Y88950D01*
X107000D01*
Y88550D01*
X106600D01*
X104600Y87550D02*
Y87950D01*
X105000D01*
Y87550D01*
X104600D01*
X106600D02*
Y87950D01*
X107000D01*
Y87550D01*
X106600D01*
X104600Y86550D02*
Y86950D01*
X105000D01*
Y86550D01*
X104600D01*
X106600D02*
Y86950D01*
X107000D01*
Y86550D01*
X106600D01*
X104600Y85550D02*
Y85950D01*
X105000D01*
Y85550D01*
X104600D01*
X106600D02*
Y85950D01*
X107000D01*
Y85550D01*
X106600D01*
X104600Y84550D02*
Y84950D01*
X105000D01*
Y84550D01*
X104600D01*
X106600D02*
Y84950D01*
X107000D01*
Y84550D01*
X106600D01*
X104600Y83550D02*
Y83950D01*
X105000D01*
Y83550D01*
X104600D01*
X106600D02*
Y83950D01*
X107000D01*
Y83550D01*
X106600D01*
X104600Y82550D02*
Y82950D01*
X105000D01*
Y82550D01*
X104600D01*
X106600D02*
Y82950D01*
X107000D01*
Y82550D01*
X106600D01*
X104600Y81550D02*
Y81950D01*
X105000D01*
Y81550D01*
X104600D01*
X106600D02*
Y81950D01*
X107000D01*
Y81550D01*
X106600D01*
X104600Y80550D02*
Y80950D01*
X105000D01*
Y80550D01*
X104600D01*
X106600D02*
Y80950D01*
X107000D01*
Y80550D01*
X106600D01*
X104600Y79550D02*
Y79950D01*
X105000D01*
Y79550D01*
X104600D01*
X106600D02*
Y79950D01*
X107000D01*
Y79550D01*
X106600D01*
X104600Y78550D02*
Y78950D01*
X105000D01*
Y78550D01*
X104600D01*
X106600D02*
Y78950D01*
X107000D01*
Y78550D01*
X106600D01*
X104600Y77550D02*
Y77950D01*
X105000D01*
Y77550D01*
X104600D01*
X106600D02*
Y77950D01*
X107000D01*
Y77550D01*
X106600D01*
X104600Y76550D02*
Y76950D01*
X105000D01*
Y76550D01*
X104600D01*
X106600D02*
Y76950D01*
X107000D01*
Y76550D01*
X106600D01*
X104600Y75550D02*
Y75950D01*
X105000D01*
Y75550D01*
X104600D01*
X106600D02*
Y75950D01*
X107000D01*
Y75550D01*
X106600D01*
X104600Y74550D02*
Y74950D01*
X105000D01*
Y74550D01*
X104600D01*
X106600D02*
Y74950D01*
X107000D01*
Y74550D01*
X106600D01*
X104600Y73550D02*
Y73950D01*
X105000D01*
Y73550D01*
X104600D01*
X106600D02*
Y73950D01*
X107000D01*
Y73550D01*
X106600D01*
X104600Y72550D02*
Y72950D01*
X105000D01*
Y72550D01*
X104600D01*
X106600D02*
Y72950D01*
X107000D01*
Y72550D01*
X106600D01*
X104600Y71550D02*
Y71950D01*
X105000D01*
Y71550D01*
X104600D01*
X106600D02*
Y71950D01*
X107000D01*
Y71550D01*
X106600D01*
X104600Y70550D02*
Y70950D01*
X105000D01*
Y70550D01*
X104600D01*
X106600D02*
Y70950D01*
X107000D01*
Y70550D01*
X106600D01*
X96600Y100550D02*
Y100950D01*
X97000D01*
Y100550D01*
X96600D01*
X98600D02*
Y100950D01*
X99000D01*
Y100550D01*
X98600D01*
X96600Y99550D02*
Y99950D01*
X97000D01*
Y99550D01*
X96600D01*
X98600D02*
Y99950D01*
X99000D01*
Y99550D01*
X98600D01*
X96600Y98550D02*
Y98950D01*
X97000D01*
Y98550D01*
X96600D01*
X98600D02*
Y98950D01*
X99000D01*
Y98550D01*
X98600D01*
X96600Y97550D02*
Y97950D01*
X97000D01*
Y97550D01*
X96600D01*
X98600D02*
Y97950D01*
X99000D01*
Y97550D01*
X98600D01*
X96600Y96550D02*
Y96950D01*
X97000D01*
Y96550D01*
X96600D01*
X98600D02*
Y96950D01*
X99000D01*
Y96550D01*
X98600D01*
X96600Y95550D02*
Y95950D01*
X97000D01*
Y95550D01*
X96600D01*
X98600D02*
Y95950D01*
X99000D01*
Y95550D01*
X98600D01*
X96600Y94550D02*
Y94950D01*
X97000D01*
Y94550D01*
X96600D01*
X98600D02*
Y94950D01*
X99000D01*
Y94550D01*
X98600D01*
X96600Y93550D02*
Y93950D01*
X97000D01*
Y93550D01*
X96600D01*
X98600D02*
Y93950D01*
X99000D01*
Y93550D01*
X98600D01*
X96600Y92550D02*
Y92950D01*
X97000D01*
Y92550D01*
X96600D01*
X98600D02*
Y92950D01*
X99000D01*
Y92550D01*
X98600D01*
X96600Y91550D02*
Y91950D01*
X97000D01*
Y91550D01*
X96600D01*
X98600D02*
Y91950D01*
X99000D01*
Y91550D01*
X98600D01*
X96600Y90550D02*
Y90950D01*
X97000D01*
Y90550D01*
X96600D01*
X98600D02*
Y90950D01*
X99000D01*
Y90550D01*
X98600D01*
X96600Y89550D02*
Y89950D01*
X97000D01*
Y89550D01*
X96600D01*
X98600D02*
Y89950D01*
X99000D01*
Y89550D01*
X98600D01*
X96600Y88550D02*
Y88950D01*
X97000D01*
Y88550D01*
X96600D01*
X98600D02*
Y88950D01*
X99000D01*
Y88550D01*
X98600D01*
X96600Y87550D02*
Y87950D01*
X97000D01*
Y87550D01*
X96600D01*
X98600D02*
Y87950D01*
X99000D01*
Y87550D01*
X98600D01*
X96600Y86550D02*
Y86950D01*
X97000D01*
Y86550D01*
X96600D01*
X98600D02*
Y86950D01*
X99000D01*
Y86550D01*
X98600D01*
X96600Y85550D02*
Y85950D01*
X97000D01*
Y85550D01*
X96600D01*
X98600D02*
Y85950D01*
X99000D01*
Y85550D01*
X98600D01*
X96600Y84550D02*
Y84950D01*
X97000D01*
Y84550D01*
X96600D01*
X98600D02*
Y84950D01*
X99000D01*
Y84550D01*
X98600D01*
X96600Y83550D02*
Y83950D01*
X97000D01*
Y83550D01*
X96600D01*
X98600D02*
Y83950D01*
X99000D01*
Y83550D01*
X98600D01*
X96600Y82550D02*
Y82950D01*
X97000D01*
Y82550D01*
X96600D01*
X98600D02*
Y82950D01*
X99000D01*
Y82550D01*
X98600D01*
X96600Y81550D02*
Y81950D01*
X97000D01*
Y81550D01*
X96600D01*
X98600D02*
Y81950D01*
X99000D01*
Y81550D01*
X98600D01*
X96600Y80550D02*
Y80950D01*
X97000D01*
Y80550D01*
X96600D01*
X98600D02*
Y80950D01*
X99000D01*
Y80550D01*
X98600D01*
X96600Y79550D02*
Y79950D01*
X97000D01*
Y79550D01*
X96600D01*
X98600D02*
Y79950D01*
X99000D01*
Y79550D01*
X98600D01*
X96600Y78550D02*
Y78950D01*
X97000D01*
Y78550D01*
X96600D01*
X98600D02*
Y78950D01*
X99000D01*
Y78550D01*
X98600D01*
X96600Y77550D02*
Y77950D01*
X97000D01*
Y77550D01*
X96600D01*
X98600D02*
Y77950D01*
X99000D01*
Y77550D01*
X98600D01*
X96600Y76550D02*
Y76950D01*
X97000D01*
Y76550D01*
X96600D01*
X98600D02*
Y76950D01*
X99000D01*
Y76550D01*
X98600D01*
X96600Y75550D02*
Y75950D01*
X97000D01*
Y75550D01*
X96600D01*
X98600D02*
Y75950D01*
X99000D01*
Y75550D01*
X98600D01*
X96600Y74550D02*
Y74950D01*
X97000D01*
Y74550D01*
X96600D01*
X98600D02*
Y74950D01*
X99000D01*
Y74550D01*
X98600D01*
X96600Y73550D02*
Y73950D01*
X97000D01*
Y73550D01*
X96600D01*
X98600D02*
Y73950D01*
X99000D01*
Y73550D01*
X98600D01*
X96600Y72550D02*
Y72950D01*
X97000D01*
Y72550D01*
X96600D01*
X98600D02*
Y72950D01*
X99000D01*
Y72550D01*
X98600D01*
X96600Y71550D02*
Y71950D01*
X97000D01*
Y71550D01*
X96600D01*
X98600D02*
Y71950D01*
X99000D01*
Y71550D01*
X98600D01*
X96600Y70550D02*
Y70950D01*
X97000D01*
Y70550D01*
X96600D01*
X98600D02*
Y70950D01*
X99000D01*
Y70550D01*
X98600D01*
X88600Y100550D02*
Y100950D01*
X89000D01*
Y100550D01*
X88600D01*
Y99550D02*
Y99950D01*
X89000D01*
Y99550D01*
X88600D01*
Y98550D02*
Y98950D01*
X89000D01*
Y98550D01*
X88600D01*
Y97550D02*
Y97950D01*
X89000D01*
Y97550D01*
X88600D01*
Y96550D02*
Y96950D01*
X89000D01*
Y96550D01*
X88600D01*
Y95550D02*
Y95950D01*
X89000D01*
Y95550D01*
X88600D01*
Y94550D02*
Y94950D01*
X89000D01*
Y94550D01*
X88600D01*
Y93550D02*
Y93950D01*
X89000D01*
Y93550D01*
X88600D01*
Y92550D02*
Y92950D01*
X89000D01*
Y92550D01*
X88600D01*
Y91550D02*
Y91950D01*
X89000D01*
Y91550D01*
X88600D01*
Y90550D02*
Y90950D01*
X89000D01*
Y90550D01*
X88600D01*
Y89550D02*
Y89950D01*
X89000D01*
Y89550D01*
X88600D01*
Y88550D02*
Y88950D01*
X89000D01*
Y88550D01*
X88600D01*
Y87550D02*
Y87950D01*
X89000D01*
Y87550D01*
X88600D01*
Y86550D02*
Y86950D01*
X89000D01*
Y86550D01*
X88600D01*
Y72550D02*
Y72950D01*
X89000D01*
Y72550D01*
X88600D01*
Y73550D02*
Y73950D01*
X89000D01*
Y73550D01*
X88600D01*
Y74550D02*
Y74950D01*
X89000D01*
Y74550D01*
X88600D01*
Y75550D02*
Y75950D01*
X89000D01*
Y75550D01*
X88600D01*
Y76550D02*
Y76950D01*
X89000D01*
Y76550D01*
X88600D01*
Y77550D02*
Y77950D01*
X89000D01*
Y77550D01*
X88600D01*
Y78550D02*
Y78950D01*
X89000D01*
Y78550D01*
X88600D01*
Y79550D02*
Y79950D01*
X89000D01*
Y79550D01*
X88600D01*
Y80550D02*
Y80950D01*
X89000D01*
Y80550D01*
X88600D01*
Y81550D02*
Y81950D01*
X89000D01*
Y81550D01*
X88600D01*
Y82550D02*
Y82950D01*
X89000D01*
Y82550D01*
X88600D01*
Y83550D02*
Y83950D01*
X89000D01*
Y83550D01*
X88600D01*
Y84550D02*
Y84950D01*
X89000D01*
Y84550D01*
X88600D01*
Y85550D02*
Y85950D01*
X89000D01*
Y85550D01*
X88600D01*
X90600Y100550D02*
Y100950D01*
X91000D01*
Y100550D01*
X90600D01*
Y99550D02*
Y99950D01*
X91000D01*
Y99550D01*
X90600D01*
Y98550D02*
Y98950D01*
X91000D01*
Y98550D01*
X90600D01*
Y97550D02*
Y97950D01*
X91000D01*
Y97550D01*
X90600D01*
Y96550D02*
Y96950D01*
X91000D01*
Y96550D01*
X90600D01*
Y95550D02*
Y95950D01*
X91000D01*
Y95550D01*
X90600D01*
Y94550D02*
Y94950D01*
X91000D01*
Y94550D01*
X90600D01*
Y93550D02*
Y93950D01*
X91000D01*
Y93550D01*
X90600D01*
Y92550D02*
Y92950D01*
X91000D01*
Y92550D01*
X90600D01*
Y91550D02*
Y91950D01*
X91000D01*
Y91550D01*
X90600D01*
Y90550D02*
Y90950D01*
X91000D01*
Y90550D01*
X90600D01*
Y89550D02*
Y89950D01*
X91000D01*
Y89550D01*
X90600D01*
Y88550D02*
Y88950D01*
X91000D01*
Y88550D01*
X90600D01*
Y87550D02*
Y87950D01*
X91000D01*
Y87550D01*
X90600D01*
Y86550D02*
Y86950D01*
X91000D01*
Y86550D01*
X90600D01*
Y85550D02*
Y85950D01*
X91000D01*
Y85550D01*
X90600D01*
Y84550D02*
Y84950D01*
X91000D01*
Y84550D01*
X90600D01*
Y83550D02*
Y83950D01*
X91000D01*
Y83550D01*
X90600D01*
Y82550D02*
Y82950D01*
X91000D01*
Y82550D01*
X90600D01*
Y81550D02*
Y81950D01*
X91000D01*
Y81550D01*
X90600D01*
Y80550D02*
Y80950D01*
X91000D01*
Y80550D01*
X90600D01*
Y79550D02*
Y79950D01*
X91000D01*
Y79550D01*
X90600D01*
Y78550D02*
Y78950D01*
X91000D01*
Y78550D01*
X90600D01*
Y77550D02*
Y77950D01*
X91000D01*
Y77550D01*
X90600D01*
Y76550D02*
Y76950D01*
X91000D01*
Y76550D01*
X90600D01*
Y75550D02*
Y75950D01*
X91000D01*
Y75550D01*
X90600D01*
Y74550D02*
Y74950D01*
X91000D01*
Y74550D01*
X90600D01*
Y73550D02*
Y73950D01*
X91000D01*
Y73550D01*
X90600D01*
Y72550D02*
Y72950D01*
X91000D01*
Y72550D01*
X90600D01*
X88600Y71550D02*
Y71950D01*
X89000D01*
Y71550D01*
X88600D01*
X90600D02*
Y71950D01*
X91000D01*
Y71550D01*
X90600D01*
X88600Y70550D02*
Y70950D01*
X89000D01*
Y70550D01*
X88600D01*
X90600D02*
Y70950D01*
X91000D01*
Y70550D01*
X90600D01*
X107900Y102900D02*
Y102800D01*
X108100D01*
Y102900D01*
X108200D01*
Y103100D01*
X108100D01*
Y103200D01*
X107900D01*
Y103100D01*
X107800D01*
Y102900D01*
X107900D01*
X62000Y72400D02*
X62100D01*
X62200Y72500D01*
X62300Y72400D01*
X62400D01*
Y72500D01*
X62300Y72600D01*
X62400Y72700D01*
Y72800D01*
X62300D01*
X62200Y72700D01*
X62100Y72800D01*
X62000D01*
Y72700D01*
X62100Y72600D01*
X62000Y72500D01*
Y72400D01*
X61500D02*
X61600D01*
X61700Y72500D01*
X61800Y72400D01*
X61900D01*
Y72500D01*
X61800Y72600D01*
X61900Y72700D01*
Y72800D01*
X61800D01*
X61700Y72700D01*
X61600Y72800D01*
X61500D01*
Y72700D01*
X61600Y72600D01*
X61500Y72500D01*
Y72400D01*
X61000D02*
X61100D01*
X61200Y72500D01*
X61300Y72400D01*
X61400D01*
Y72500D01*
X61300Y72600D01*
X61400Y72700D01*
Y72800D01*
X61300D01*
X61200Y72700D01*
X61100Y72800D01*
X61000D01*
Y72700D01*
X61100Y72600D01*
X61000Y72500D01*
Y72400D01*
X64900Y67900D02*
Y67800D01*
X65100D01*
Y67900D01*
X65200D01*
Y68100D01*
X65100D01*
Y68200D01*
X64900D01*
Y68100D01*
X64800D01*
Y67900D01*
X64900D01*
Y102900D02*
Y102800D01*
X65100D01*
Y102900D01*
X65200D01*
Y103100D01*
X65100D01*
Y103200D01*
X64900D01*
Y103100D01*
X64800D01*
Y102900D01*
X64900D01*
X85900Y67900D02*
Y67800D01*
X86100D01*
Y67900D01*
X86200D01*
Y68100D01*
X86100D01*
Y68200D01*
X85900D01*
Y68100D01*
X85800D01*
Y67900D01*
X85900D01*
Y102900D02*
Y102800D01*
X86100D01*
Y102900D01*
X86200D01*
Y103100D01*
X86100D01*
Y103200D01*
X85900D01*
Y103100D01*
X85800D01*
Y102900D01*
X85900D01*
X107900Y67900D02*
Y67800D01*
X108100D01*
Y67900D01*
X108200D01*
Y68100D01*
X108100D01*
Y68200D01*
X107900D01*
Y68100D01*
X107800D01*
Y67900D01*
X107900D01*
X39900Y67900D02*
Y67800D01*
X40100D01*
Y67900D01*
X40200D01*
Y68100D01*
X40100D01*
Y68200D01*
X39900D01*
Y68100D01*
X39800D01*
Y67900D01*
X39900D01*
Y102900D02*
Y102800D01*
X40100D01*
Y102900D01*
X40200D01*
Y103100D01*
X40100D01*
Y103200D01*
X39900D01*
Y103100D01*
X39800D01*
Y102900D01*
X39900D01*
X67550Y96250D02*
X67750Y96450D01*
X67950Y96250D01*
X67750Y96050D01*
X67550Y96250D01*
X66550D02*
X66750Y96450D01*
X66950Y96250D01*
X66750Y96050D01*
X66550Y96250D01*
X67550Y97250D02*
X67750Y97450D01*
X67950Y97250D01*
X67750Y97050D01*
X67550Y97250D01*
X66550D02*
X66750Y97450D01*
X66950Y97250D01*
X66750Y97050D01*
X66550Y97250D01*
X67550Y98250D02*
X67750Y98450D01*
X67950Y98250D01*
X67750Y98050D01*
X67550Y98250D01*
X66550D02*
X66750Y98450D01*
X66950Y98250D01*
X66750Y98050D01*
X66550Y98250D01*
X85300Y99100D02*
X85400Y99300D01*
X85300Y99500D01*
X85500Y99400D01*
X85700Y99500D01*
X85600Y99300D01*
X85700Y99100D01*
X85500Y99200D01*
X85300Y99100D01*
X82300D02*
X82400Y99300D01*
X82300Y99500D01*
X82500Y99400D01*
X82700Y99500D01*
X82600Y99300D01*
X82700Y99100D01*
X82500Y99200D01*
X82300Y99100D01*
X85300Y96100D02*
X85400Y96300D01*
X85300Y96500D01*
X85500Y96400D01*
X85700Y96500D01*
X85600Y96300D01*
X85700Y96100D01*
X85500Y96200D01*
X85300Y96100D01*
X82300D02*
X82400Y96300D01*
X82300Y96500D01*
X82500Y96400D01*
X82700Y96500D01*
X82600Y96300D01*
X82700Y96100D01*
X82500Y96200D01*
X82300Y96100D01*
X66800Y73300D02*
Y73700D01*
X67200D01*
Y73300D01*
X66800D01*
X66880Y73380D02*
Y73620D01*
X67120D01*
Y73380D01*
X66880D01*
X66800Y74300D02*
Y74700D01*
X67200D01*
Y74300D01*
X66800D01*
X66880Y74380D02*
Y74620D01*
X67120D01*
Y74380D01*
X66880D01*
X67800Y73300D02*
Y73700D01*
X68200D01*
Y73300D01*
X67800D01*
X67880Y73380D02*
Y73620D01*
X68120D01*
Y73380D01*
X67880D01*
X67800Y74300D02*
Y74700D01*
X68200D01*
Y74300D01*
X67800D01*
X67880Y74380D02*
Y74620D01*
X68120D01*
Y74380D01*
X67880D01*
X68800Y73300D02*
Y73700D01*
X69200D01*
Y73300D01*
X68800D01*
X68880Y73380D02*
Y73620D01*
X69120D01*
Y73380D01*
X68880D01*
X68800Y74300D02*
Y74700D01*
X69200D01*
Y74300D01*
X68800D01*
X68880Y74380D02*
Y74620D01*
X69120D01*
Y74380D01*
X68880D01*
X69800Y73300D02*
Y73700D01*
X70200D01*
Y73300D01*
X69800D01*
X69880Y73380D02*
Y73620D01*
X70120D01*
Y73380D01*
X69880D01*
X69800Y74300D02*
Y74700D01*
X70200D01*
Y74300D01*
X69800D01*
X69880Y74380D02*
Y74620D01*
X70120D01*
Y74380D01*
X69880D01*
X70800Y73300D02*
Y73700D01*
X71200D01*
Y73300D01*
X70800D01*
X70880Y73380D02*
Y73620D01*
X71120D01*
Y73380D01*
X70880D01*
X70800Y74300D02*
Y74700D01*
X71200D01*
Y74300D01*
X70800D01*
X70880Y74380D02*
Y74620D01*
X71120D01*
Y74380D01*
X70880D01*
X81550Y72100D02*
X81650Y72300D01*
X81550Y72500D01*
X81750Y72400D01*
X81950Y72500D01*
X81850Y72300D01*
X81950Y72100D01*
X81750Y72200D01*
X81550Y72100D01*
X84550D02*
X84650Y72300D01*
X84550Y72500D01*
X84750Y72400D01*
X84950Y72500D01*
X84850Y72300D01*
X84950Y72100D01*
X84750Y72200D01*
X84550Y72100D01*
X81550Y75100D02*
X81650Y75300D01*
X81550Y75500D01*
X81750Y75400D01*
X81950Y75500D01*
X81850Y75300D01*
X81950Y75100D01*
X81750Y75200D01*
X81550Y75100D01*
X84550D02*
X84650Y75300D01*
X84550Y75500D01*
X84750Y75400D01*
X84950Y75500D01*
X84850Y75300D01*
X84950Y75100D01*
X84750Y75200D01*
X84550Y75100D01*
X81800Y69800D02*
X81900Y70000D01*
X81800Y70200D01*
X82000Y70100D01*
X82200Y70200D01*
X82100Y70000D01*
X82200Y69800D01*
X82000Y69900D01*
X81800Y69800D01*
X82800D02*
X82900Y70000D01*
X82800Y70200D01*
X83000Y70100D01*
X83200Y70200D01*
X83100Y70000D01*
X83200Y69800D01*
X83000Y69900D01*
X82800Y69800D01*
X83800D02*
X83900Y70000D01*
X83800Y70200D01*
X84000Y70100D01*
X84200Y70200D01*
X84100Y70000D01*
X84200Y69800D01*
X84000Y69900D01*
X83800Y69800D01*
X79230Y101609D02*
X79030Y102009D01*
X79430D01*
X79230Y101609D01*
Y101689D02*
X79110Y101929D01*
X79350D01*
X79230Y101689D01*
X69392Y101609D02*
X69192Y102009D01*
X69592D01*
X69392Y101609D01*
Y101689D02*
X69272Y101929D01*
X69512D01*
X69392Y101689D01*
X76300Y101050D02*
Y101450D01*
X76700D01*
Y101050D01*
X76300D01*
X76380Y101130D02*
Y101370D01*
X76620D01*
Y101130D01*
X76380D01*
X75753Y102168D02*
Y102568D01*
X76153D01*
Y102168D01*
X75753D01*
X75833Y102248D02*
Y102488D01*
X76073D01*
Y102248D01*
X75833D01*
X75206Y101050D02*
Y101450D01*
X75606D01*
Y101050D01*
X75206D01*
X75286Y101130D02*
Y101370D01*
X75526D01*
Y101130D01*
X75286D01*
X74658Y102168D02*
Y102568D01*
X75058D01*
Y102168D01*
X74658D01*
X74738Y102248D02*
Y102488D01*
X74978D01*
Y102248D01*
X74738D01*
X74111Y101050D02*
Y101450D01*
X74511D01*
Y101050D01*
X74111D01*
X74191Y101130D02*
Y101370D01*
X74431D01*
Y101130D01*
X74191D01*
X73564Y102168D02*
Y102568D01*
X73964D01*
Y102168D01*
X73564D01*
X73644Y102248D02*
Y102488D01*
X73884D01*
Y102248D01*
X73644D01*
X73017Y101050D02*
Y101450D01*
X73417D01*
Y101050D01*
X73017D01*
X73097Y101130D02*
Y101370D01*
X73337D01*
Y101130D01*
X73097D01*
X72469Y102168D02*
Y102568D01*
X72869D01*
Y102168D01*
X72469D01*
X72549Y102248D02*
Y102488D01*
X72789D01*
Y102248D01*
X72549D01*
X71922Y101050D02*
Y101450D01*
X72322D01*
Y101050D01*
X71922D01*
X72002Y101130D02*
Y101370D01*
X72242D01*
Y101130D01*
X72002D01*
X48500Y100050D02*
X48600Y100150D01*
X48700D01*
X48600Y100250D01*
X48700Y100350D01*
X48600D01*
X48500Y100450D01*
X48400Y100350D01*
X48300D01*
X48400Y100250D01*
X48300Y100150D01*
X48400D01*
X48500Y100050D01*
Y101050D02*
X48600Y101150D01*
X48700D01*
X48600Y101250D01*
X48700Y101350D01*
X48600D01*
X48500Y101450D01*
X48400Y101350D01*
X48300D01*
X48400Y101250D01*
X48300Y101150D01*
X48400D01*
X48500Y101050D01*
X49500Y100050D02*
X49600Y100150D01*
X49700D01*
X49600Y100250D01*
X49700Y100350D01*
X49600D01*
X49500Y100450D01*
X49400Y100350D01*
X49300D01*
X49400Y100250D01*
X49300Y100150D01*
X49400D01*
X49500Y100050D01*
Y101050D02*
X49600Y101150D01*
X49700D01*
X49600Y101250D01*
X49700Y101350D01*
X49600D01*
X49500Y101450D01*
X49400Y101350D01*
X49300D01*
X49400Y101250D01*
X49300Y101150D01*
X49400D01*
X49500Y101050D01*
X50500Y100050D02*
X50600Y100150D01*
X50700D01*
X50600Y100250D01*
X50700Y100350D01*
X50600D01*
X50500Y100450D01*
X50400Y100350D01*
X50300D01*
X50400Y100250D01*
X50300Y100150D01*
X50400D01*
X50500Y100050D01*
Y101050D02*
X50600Y101150D01*
X50700D01*
X50600Y101250D01*
X50700Y101350D01*
X50600D01*
X50500Y101450D01*
X50400Y101350D01*
X50300D01*
X50400Y101250D01*
X50300Y101150D01*
X50400D01*
X50500Y101050D01*
X51500Y100050D02*
X51600Y100150D01*
X51700D01*
X51600Y100250D01*
X51700Y100350D01*
X51600D01*
X51500Y100450D01*
X51400Y100350D01*
X51300D01*
X51400Y100250D01*
X51300Y100150D01*
X51400D01*
X51500Y100050D01*
Y101050D02*
X51600Y101150D01*
X51700D01*
X51600Y101250D01*
X51700Y101350D01*
X51600D01*
X51500Y101450D01*
X51400Y101350D01*
X51300D01*
X51400Y101250D01*
X51300Y101150D01*
X51400D01*
X51500Y101050D01*
X52500Y100050D02*
X52600Y100150D01*
X52700D01*
X52600Y100250D01*
X52700Y100350D01*
X52600D01*
X52500Y100450D01*
X52400Y100350D01*
X52300D01*
X52400Y100250D01*
X52300Y100150D01*
X52400D01*
X52500Y100050D01*
Y101050D02*
X52600Y101150D01*
X52700D01*
X52600Y101250D01*
X52700Y101350D01*
X52600D01*
X52500Y101450D01*
X52400Y101350D01*
X52300D01*
X52400Y101250D01*
X52300Y101150D01*
X52400D01*
X52500Y101050D01*
X53500Y100050D02*
X53600Y100150D01*
X53700D01*
X53600Y100250D01*
X53700Y100350D01*
X53600D01*
X53500Y100450D01*
X53400Y100350D01*
X53300D01*
X53400Y100250D01*
X53300Y100150D01*
X53400D01*
X53500Y100050D01*
Y101050D02*
X53600Y101150D01*
X53700D01*
X53600Y101250D01*
X53700Y101350D01*
X53600D01*
X53500Y101450D01*
X53400Y101350D01*
X53300D01*
X53400Y101250D01*
X53300Y101150D01*
X53400D01*
X53500Y101050D01*
X54500Y100050D02*
X54600Y100150D01*
X54700D01*
X54600Y100250D01*
X54700Y100350D01*
X54600D01*
X54500Y100450D01*
X54400Y100350D01*
X54300D01*
X54400Y100250D01*
X54300Y100150D01*
X54400D01*
X54500Y100050D01*
Y101050D02*
X54600Y101150D01*
X54700D01*
X54600Y101250D01*
X54700Y101350D01*
X54600D01*
X54500Y101450D01*
X54400Y101350D01*
X54300D01*
X54400Y101250D01*
X54300Y101150D01*
X54400D01*
X54500Y101050D01*
X44039Y101756D02*
X44139Y101856D01*
X44239D01*
X44139Y101956D01*
X44239Y102056D01*
X44139D01*
X44039Y102156D01*
X43939Y102056D01*
X43839D01*
X43939Y101956D01*
X43839Y101856D01*
X43939D01*
X44039Y101756D01*
Y101836D02*
X44099Y101896D01*
X44159D01*
X44099Y101956D01*
X44159Y102016D01*
X44099D01*
X44039Y102076D01*
X43979Y102016D01*
X43919D01*
X43979Y101956D01*
X43919Y101896D01*
X43979D01*
X44039Y101836D01*
X42110Y100372D02*
X42210Y100472D01*
X42310D01*
X42210Y100572D01*
X42310Y100672D01*
X42210D01*
X42110Y100772D01*
X42010Y100672D01*
X41910D01*
X42010Y100572D01*
X41910Y100472D01*
X42010D01*
X42110Y100372D01*
Y100452D02*
X42170Y100512D01*
X42230D01*
X42170Y100572D01*
X42230Y100632D01*
X42170D01*
X42110Y100692D01*
X42050Y100632D01*
X41990D01*
X42050Y100572D01*
X41990Y100512D01*
X42050D01*
X42110Y100452D01*
X43833Y99394D02*
X43933Y99594D01*
X43833Y99794D01*
X44033Y99694D01*
X44233Y99794D01*
X44133Y99594D01*
X44233Y99394D01*
X44033Y99494D01*
X43833Y99394D01*
X43913Y99474D02*
X43973Y99594D01*
X43913Y99714D01*
X44033Y99654D01*
X44153Y99714D01*
X44093Y99594D01*
X44153Y99474D01*
X44033Y99534D01*
X43913Y99474D01*
X45450Y95100D02*
Y95000D01*
X45650D01*
Y95100D01*
X45750D01*
Y95300D01*
X45650D01*
Y95400D01*
X45450D01*
Y95300D01*
X45350D01*
Y95100D01*
X45450D01*
X45490Y95140D02*
Y95080D01*
X45610D01*
Y95140D01*
X45670D01*
Y95260D01*
X45610D01*
Y95320D01*
X45490D01*
Y95260D01*
X45430D01*
Y95140D01*
X45490D01*
X41950Y95100D02*
Y95000D01*
X42150D01*
Y95100D01*
X42250D01*
Y95300D01*
X42150D01*
Y95400D01*
X41950D01*
Y95300D01*
X41850D01*
Y95100D01*
X41950D01*
X41990Y95140D02*
Y95080D01*
X42110D01*
Y95140D01*
X42170D01*
Y95260D01*
X42110D01*
Y95320D01*
X41990D01*
Y95260D01*
X41930D01*
Y95140D01*
X41990D01*
X64141Y98161D02*
X64241Y98361D01*
X64141Y98561D01*
X64341Y98461D01*
X64541Y98561D01*
X64441Y98361D01*
X64541Y98161D01*
X64341Y98261D01*
X64141Y98161D01*
X63141D02*
X63241Y98361D01*
X63141Y98561D01*
X63341Y98461D01*
X63541Y98561D01*
X63441Y98361D01*
X63541Y98161D01*
X63341Y98261D01*
X63141Y98161D01*
X62141D02*
X62241Y98361D01*
X62141Y98561D01*
X62341Y98461D01*
X62541Y98561D01*
X62441Y98361D01*
X62541Y98161D01*
X62341Y98261D01*
X62141Y98161D01*
X61141D02*
X61241Y98361D01*
X61141Y98561D01*
X61341Y98461D01*
X61541Y98561D01*
X61441Y98361D01*
X61541Y98161D01*
X61341Y98261D01*
X61141Y98161D01*
X60141D02*
X60241Y98361D01*
X60141Y98561D01*
X60341Y98461D01*
X60541Y98561D01*
X60441Y98361D01*
X60541Y98161D01*
X60341Y98261D01*
X60141Y98161D01*
X59141D02*
X59241Y98361D01*
X59141Y98561D01*
X59341Y98461D01*
X59541Y98561D01*
X59441Y98361D01*
X59541Y98161D01*
X59341Y98261D01*
X59141Y98161D01*
X58141D02*
X58241Y98361D01*
X58141Y98561D01*
X58341Y98461D01*
X58541Y98561D01*
X58441Y98361D01*
X58541Y98161D01*
X58341Y98261D01*
X58141Y98161D01*
X57141D02*
X57241Y98361D01*
X57141Y98561D01*
X57341Y98461D01*
X57541Y98561D01*
X57441Y98361D01*
X57541Y98161D01*
X57341Y98261D01*
X57141Y98161D01*
X56141D02*
X56241Y98361D01*
X56141Y98561D01*
X56341Y98461D01*
X56541Y98561D01*
X56441Y98361D01*
X56541Y98161D01*
X56341Y98261D01*
X56141Y98161D01*
X55141D02*
X55241Y98361D01*
X55141Y98561D01*
X55341Y98461D01*
X55541Y98561D01*
X55441Y98361D01*
X55541Y98161D01*
X55341Y98261D01*
X55141Y98161D01*
X64141Y95161D02*
X64241Y95361D01*
X64141Y95561D01*
X64341Y95461D01*
X64541Y95561D01*
X64441Y95361D01*
X64541Y95161D01*
X64341Y95261D01*
X64141Y95161D01*
X63141D02*
X63241Y95361D01*
X63141Y95561D01*
X63341Y95461D01*
X63541Y95561D01*
X63441Y95361D01*
X63541Y95161D01*
X63341Y95261D01*
X63141Y95161D01*
X62141D02*
X62241Y95361D01*
X62141Y95561D01*
X62341Y95461D01*
X62541Y95561D01*
X62441Y95361D01*
X62541Y95161D01*
X62341Y95261D01*
X62141Y95161D01*
X61141D02*
X61241Y95361D01*
X61141Y95561D01*
X61341Y95461D01*
X61541Y95561D01*
X61441Y95361D01*
X61541Y95161D01*
X61341Y95261D01*
X61141Y95161D01*
X60141D02*
X60241Y95361D01*
X60141Y95561D01*
X60341Y95461D01*
X60541Y95561D01*
X60441Y95361D01*
X60541Y95161D01*
X60341Y95261D01*
X60141Y95161D01*
X59141D02*
X59241Y95361D01*
X59141Y95561D01*
X59341Y95461D01*
X59541Y95561D01*
X59441Y95361D01*
X59541Y95161D01*
X59341Y95261D01*
X59141Y95161D01*
X58141D02*
X58241Y95361D01*
X58141Y95561D01*
X58341Y95461D01*
X58541Y95561D01*
X58441Y95361D01*
X58541Y95161D01*
X58341Y95261D01*
X58141Y95161D01*
X57141D02*
X57241Y95361D01*
X57141Y95561D01*
X57341Y95461D01*
X57541Y95561D01*
X57441Y95361D01*
X57541Y95161D01*
X57341Y95261D01*
X57141Y95161D01*
X56141D02*
X56241Y95361D01*
X56141Y95561D01*
X56341Y95461D01*
X56541Y95561D01*
X56441Y95361D01*
X56541Y95161D01*
X56341Y95261D01*
X56141Y95161D01*
X55141D02*
X55241Y95361D01*
X55141Y95561D01*
X55341Y95461D01*
X55541Y95561D01*
X55441Y95361D01*
X55541Y95161D01*
X55341Y95261D01*
X55141Y95161D01*
X45170Y73694D02*
X45270Y73894D01*
X45170Y74094D01*
X45370Y73994D01*
X45570Y74094D01*
X45470Y73894D01*
X45570Y73694D01*
X45370Y73794D01*
X45170Y73694D01*
X46170D02*
X46270Y73894D01*
X46170Y74094D01*
X46370Y73994D01*
X46570Y74094D01*
X46470Y73894D01*
X46570Y73694D01*
X46370Y73794D01*
X46170Y73694D01*
X47170D02*
X47270Y73894D01*
X47170Y74094D01*
X47370Y73994D01*
X47570Y74094D01*
X47470Y73894D01*
X47570Y73694D01*
X47370Y73794D01*
X47170Y73694D01*
X48170D02*
X48270Y73894D01*
X48170Y74094D01*
X48370Y73994D01*
X48570Y74094D01*
X48470Y73894D01*
X48570Y73694D01*
X48370Y73794D01*
X48170Y73694D01*
X49170D02*
X49270Y73894D01*
X49170Y74094D01*
X49370Y73994D01*
X49570Y74094D01*
X49470Y73894D01*
X49570Y73694D01*
X49370Y73794D01*
X49170Y73694D01*
X50170D02*
X50270Y73894D01*
X50170Y74094D01*
X50370Y73994D01*
X50570Y74094D01*
X50470Y73894D01*
X50570Y73694D01*
X50370Y73794D01*
X50170Y73694D01*
X51170D02*
X51270Y73894D01*
X51170Y74094D01*
X51370Y73994D01*
X51570Y74094D01*
X51470Y73894D01*
X51570Y73694D01*
X51370Y73794D01*
X51170Y73694D01*
X52170D02*
X52270Y73894D01*
X52170Y74094D01*
X52370Y73994D01*
X52570Y74094D01*
X52470Y73894D01*
X52570Y73694D01*
X52370Y73794D01*
X52170Y73694D01*
X53170D02*
X53270Y73894D01*
X53170Y74094D01*
X53370Y73994D01*
X53570Y74094D01*
X53470Y73894D01*
X53570Y73694D01*
X53370Y73794D01*
X53170Y73694D01*
X54170D02*
X54270Y73894D01*
X54170Y74094D01*
X54370Y73994D01*
X54570Y74094D01*
X54470Y73894D01*
X54570Y73694D01*
X54370Y73794D01*
X54170Y73694D01*
X55170D02*
X55270Y73894D01*
X55170Y74094D01*
X55370Y73994D01*
X55570Y74094D01*
X55470Y73894D01*
X55570Y73694D01*
X55370Y73794D01*
X55170Y73694D01*
X56170D02*
X56270Y73894D01*
X56170Y74094D01*
X56370Y73994D01*
X56570Y74094D01*
X56470Y73894D01*
X56570Y73694D01*
X56370Y73794D01*
X56170Y73694D01*
X57170D02*
X57270Y73894D01*
X57170Y74094D01*
X57370Y73994D01*
X57570Y74094D01*
X57470Y73894D01*
X57570Y73694D01*
X57370Y73794D01*
X57170Y73694D01*
X58170D02*
X58270Y73894D01*
X58170Y74094D01*
X58370Y73994D01*
X58570Y74094D01*
X58470Y73894D01*
X58570Y73694D01*
X58370Y73794D01*
X58170Y73694D01*
X45170Y76694D02*
X45270Y76894D01*
X45170Y77094D01*
X45370Y76994D01*
X45570Y77094D01*
X45470Y76894D01*
X45570Y76694D01*
X45370Y76794D01*
X45170Y76694D01*
X46170D02*
X46270Y76894D01*
X46170Y77094D01*
X46370Y76994D01*
X46570Y77094D01*
X46470Y76894D01*
X46570Y76694D01*
X46370Y76794D01*
X46170Y76694D01*
X47170D02*
X47270Y76894D01*
X47170Y77094D01*
X47370Y76994D01*
X47570Y77094D01*
X47470Y76894D01*
X47570Y76694D01*
X47370Y76794D01*
X47170Y76694D01*
X48170D02*
X48270Y76894D01*
X48170Y77094D01*
X48370Y76994D01*
X48570Y77094D01*
X48470Y76894D01*
X48570Y76694D01*
X48370Y76794D01*
X48170Y76694D01*
X49170D02*
X49270Y76894D01*
X49170Y77094D01*
X49370Y76994D01*
X49570Y77094D01*
X49470Y76894D01*
X49570Y76694D01*
X49370Y76794D01*
X49170Y76694D01*
X50170D02*
X50270Y76894D01*
X50170Y77094D01*
X50370Y76994D01*
X50570Y77094D01*
X50470Y76894D01*
X50570Y76694D01*
X50370Y76794D01*
X50170Y76694D01*
X51170D02*
X51270Y76894D01*
X51170Y77094D01*
X51370Y76994D01*
X51570Y77094D01*
X51470Y76894D01*
X51570Y76694D01*
X51370Y76794D01*
X51170Y76694D01*
X52170D02*
X52270Y76894D01*
X52170Y77094D01*
X52370Y76994D01*
X52570Y77094D01*
X52470Y76894D01*
X52570Y76694D01*
X52370Y76794D01*
X52170Y76694D01*
X53170D02*
X53270Y76894D01*
X53170Y77094D01*
X53370Y76994D01*
X53570Y77094D01*
X53470Y76894D01*
X53570Y76694D01*
X53370Y76794D01*
X53170Y76694D01*
X54170D02*
X54270Y76894D01*
X54170Y77094D01*
X54370Y76994D01*
X54570Y77094D01*
X54470Y76894D01*
X54570Y76694D01*
X54370Y76794D01*
X54170Y76694D01*
X55170D02*
X55270Y76894D01*
X55170Y77094D01*
X55370Y76994D01*
X55570Y77094D01*
X55470Y76894D01*
X55570Y76694D01*
X55370Y76794D01*
X55170Y76694D01*
X56170D02*
X56270Y76894D01*
X56170Y77094D01*
X56370Y76994D01*
X56570Y77094D01*
X56470Y76894D01*
X56570Y76694D01*
X56370Y76794D01*
X56170Y76694D01*
X57170D02*
X57270Y76894D01*
X57170Y77094D01*
X57370Y76994D01*
X57570Y77094D01*
X57470Y76894D01*
X57570Y76694D01*
X57370Y76794D01*
X57170Y76694D01*
X58170D02*
X58270Y76894D01*
X58170Y77094D01*
X58370Y76994D01*
X58570Y77094D01*
X58470Y76894D01*
X58570Y76694D01*
X58370Y76794D01*
X58170Y76694D01*
X45170Y68772D02*
X45270Y68972D01*
X45170Y69172D01*
X45370Y69072D01*
X45570Y69172D01*
X45470Y68972D01*
X45570Y68772D01*
X45370Y68872D01*
X45170Y68772D01*
X46170D02*
X46270Y68972D01*
X46170Y69172D01*
X46370Y69072D01*
X46570Y69172D01*
X46470Y68972D01*
X46570Y68772D01*
X46370Y68872D01*
X46170Y68772D01*
X47170D02*
X47270Y68972D01*
X47170Y69172D01*
X47370Y69072D01*
X47570Y69172D01*
X47470Y68972D01*
X47570Y68772D01*
X47370Y68872D01*
X47170Y68772D01*
X48170D02*
X48270Y68972D01*
X48170Y69172D01*
X48370Y69072D01*
X48570Y69172D01*
X48470Y68972D01*
X48570Y68772D01*
X48370Y68872D01*
X48170Y68772D01*
X49170D02*
X49270Y68972D01*
X49170Y69172D01*
X49370Y69072D01*
X49570Y69172D01*
X49470Y68972D01*
X49570Y68772D01*
X49370Y68872D01*
X49170Y68772D01*
X50170D02*
X50270Y68972D01*
X50170Y69172D01*
X50370Y69072D01*
X50570Y69172D01*
X50470Y68972D01*
X50570Y68772D01*
X50370Y68872D01*
X50170Y68772D01*
X51170D02*
X51270Y68972D01*
X51170Y69172D01*
X51370Y69072D01*
X51570Y69172D01*
X51470Y68972D01*
X51570Y68772D01*
X51370Y68872D01*
X51170Y68772D01*
X52170D02*
X52270Y68972D01*
X52170Y69172D01*
X52370Y69072D01*
X52570Y69172D01*
X52470Y68972D01*
X52570Y68772D01*
X52370Y68872D01*
X52170Y68772D01*
X53170D02*
X53270Y68972D01*
X53170Y69172D01*
X53370Y69072D01*
X53570Y69172D01*
X53470Y68972D01*
X53570Y68772D01*
X53370Y68872D01*
X53170Y68772D01*
X54170D02*
X54270Y68972D01*
X54170Y69172D01*
X54370Y69072D01*
X54570Y69172D01*
X54470Y68972D01*
X54570Y68772D01*
X54370Y68872D01*
X54170Y68772D01*
X55170D02*
X55270Y68972D01*
X55170Y69172D01*
X55370Y69072D01*
X55570Y69172D01*
X55470Y68972D01*
X55570Y68772D01*
X55370Y68872D01*
X55170Y68772D01*
X56170D02*
X56270Y68972D01*
X56170Y69172D01*
X56370Y69072D01*
X56570Y69172D01*
X56470Y68972D01*
X56570Y68772D01*
X56370Y68872D01*
X56170Y68772D01*
X57170D02*
X57270Y68972D01*
X57170Y69172D01*
X57370Y69072D01*
X57570Y69172D01*
X57470Y68972D01*
X57570Y68772D01*
X57370Y68872D01*
X57170Y68772D01*
X58170D02*
X58270Y68972D01*
X58170Y69172D01*
X58370Y69072D01*
X58570Y69172D01*
X58470Y68972D01*
X58570Y68772D01*
X58370Y68872D01*
X58170Y68772D01*
X45170Y71772D02*
X45270Y71972D01*
X45170Y72172D01*
X45370Y72072D01*
X45570Y72172D01*
X45470Y71972D01*
X45570Y71772D01*
X45370Y71872D01*
X45170Y71772D01*
X46170D02*
X46270Y71972D01*
X46170Y72172D01*
X46370Y72072D01*
X46570Y72172D01*
X46470Y71972D01*
X46570Y71772D01*
X46370Y71872D01*
X46170Y71772D01*
X47170D02*
X47270Y71972D01*
X47170Y72172D01*
X47370Y72072D01*
X47570Y72172D01*
X47470Y71972D01*
X47570Y71772D01*
X47370Y71872D01*
X47170Y71772D01*
X48170D02*
X48270Y71972D01*
X48170Y72172D01*
X48370Y72072D01*
X48570Y72172D01*
X48470Y71972D01*
X48570Y71772D01*
X48370Y71872D01*
X48170Y71772D01*
X49170D02*
X49270Y71972D01*
X49170Y72172D01*
X49370Y72072D01*
X49570Y72172D01*
X49470Y71972D01*
X49570Y71772D01*
X49370Y71872D01*
X49170Y71772D01*
X50170D02*
X50270Y71972D01*
X50170Y72172D01*
X50370Y72072D01*
X50570Y72172D01*
X50470Y71972D01*
X50570Y71772D01*
X50370Y71872D01*
X50170Y71772D01*
X51170D02*
X51270Y71972D01*
X51170Y72172D01*
X51370Y72072D01*
X51570Y72172D01*
X51470Y71972D01*
X51570Y71772D01*
X51370Y71872D01*
X51170Y71772D01*
X52170D02*
X52270Y71972D01*
X52170Y72172D01*
X52370Y72072D01*
X52570Y72172D01*
X52470Y71972D01*
X52570Y71772D01*
X52370Y71872D01*
X52170Y71772D01*
X53170D02*
X53270Y71972D01*
X53170Y72172D01*
X53370Y72072D01*
X53570Y72172D01*
X53470Y71972D01*
X53570Y71772D01*
X53370Y71872D01*
X53170Y71772D01*
X54170D02*
X54270Y71972D01*
X54170Y72172D01*
X54370Y72072D01*
X54570Y72172D01*
X54470Y71972D01*
X54570Y71772D01*
X54370Y71872D01*
X54170Y71772D01*
X55170D02*
X55270Y71972D01*
X55170Y72172D01*
X55370Y72072D01*
X55570Y72172D01*
X55470Y71972D01*
X55570Y71772D01*
X55370Y71872D01*
X55170Y71772D01*
X56170D02*
X56270Y71972D01*
X56170Y72172D01*
X56370Y72072D01*
X56570Y72172D01*
X56470Y71972D01*
X56570Y71772D01*
X56370Y71872D01*
X56170Y71772D01*
X57170D02*
X57270Y71972D01*
X57170Y72172D01*
X57370Y72072D01*
X57570Y72172D01*
X57470Y71972D01*
X57570Y71772D01*
X57370Y71872D01*
X57170Y71772D01*
X58170D02*
X58270Y71972D01*
X58170Y72172D01*
X58370Y72072D01*
X58570Y72172D01*
X58470Y71972D01*
X58570Y71772D01*
X58370Y71872D01*
X58170Y71772D01*
X77267Y97795D02*
X77367Y97995D01*
X77267Y98195D01*
X77467Y98095D01*
X77667Y98195D01*
X77567Y97995D01*
X77667Y97795D01*
X77467Y97895D01*
X77267Y97795D01*
X76267D02*
X76367Y97995D01*
X76267Y98195D01*
X76467Y98095D01*
X76667Y98195D01*
X76567Y97995D01*
X76667Y97795D01*
X76467Y97895D01*
X76267Y97795D01*
X75267D02*
X75367Y97995D01*
X75267Y98195D01*
X75467Y98095D01*
X75667Y98195D01*
X75567Y97995D01*
X75667Y97795D01*
X75467Y97895D01*
X75267Y97795D01*
X74267D02*
X74367Y97995D01*
X74267Y98195D01*
X74467Y98095D01*
X74667Y98195D01*
X74567Y97995D01*
X74667Y97795D01*
X74467Y97895D01*
X74267Y97795D01*
X73267D02*
X73367Y97995D01*
X73267Y98195D01*
X73467Y98095D01*
X73667Y98195D01*
X73567Y97995D01*
X73667Y97795D01*
X73467Y97895D01*
X73267Y97795D01*
X72267D02*
X72367Y97995D01*
X72267Y98195D01*
X72467Y98095D01*
X72667Y98195D01*
X72567Y97995D01*
X72667Y97795D01*
X72467Y97895D01*
X72267Y97795D01*
X71267D02*
X71367Y97995D01*
X71267Y98195D01*
X71467Y98095D01*
X71667Y98195D01*
X71567Y97995D01*
X71667Y97795D01*
X71467Y97895D01*
X71267Y97795D01*
X70267D02*
X70367Y97995D01*
X70267Y98195D01*
X70467Y98095D01*
X70667Y98195D01*
X70567Y97995D01*
X70667Y97795D01*
X70467Y97895D01*
X70267Y97795D01*
X77267Y94795D02*
X77367Y94995D01*
X77267Y95195D01*
X77467Y95095D01*
X77667Y95195D01*
X77567Y94995D01*
X77667Y94795D01*
X77467Y94895D01*
X77267Y94795D01*
X76267D02*
X76367Y94995D01*
X76267Y95195D01*
X76467Y95095D01*
X76667Y95195D01*
X76567Y94995D01*
X76667Y94795D01*
X76467Y94895D01*
X76267Y94795D01*
X75267D02*
X75367Y94995D01*
X75267Y95195D01*
X75467Y95095D01*
X75667Y95195D01*
X75567Y94995D01*
X75667Y94795D01*
X75467Y94895D01*
X75267Y94795D01*
X74267D02*
X74367Y94995D01*
X74267Y95195D01*
X74467Y95095D01*
X74667Y95195D01*
X74567Y94995D01*
X74667Y94795D01*
X74467Y94895D01*
X74267Y94795D01*
X73267D02*
X73367Y94995D01*
X73267Y95195D01*
X73467Y95095D01*
X73667Y95195D01*
X73567Y94995D01*
X73667Y94795D01*
X73467Y94895D01*
X73267Y94795D01*
X72267D02*
X72367Y94995D01*
X72267Y95195D01*
X72467Y95095D01*
X72667Y95195D01*
X72567Y94995D01*
X72667Y94795D01*
X72467Y94895D01*
X72267Y94795D01*
X71267D02*
X71367Y94995D01*
X71267Y95195D01*
X71467Y95095D01*
X71667Y95195D01*
X71567Y94995D01*
X71667Y94795D01*
X71467Y94895D01*
X71267Y94795D01*
X70267D02*
X70367Y94995D01*
X70267Y95195D01*
X70467Y95095D01*
X70667Y95195D01*
X70567Y94995D01*
X70667Y94795D01*
X70467Y94895D01*
X70267Y94795D01*
X83300Y84800D02*
X83400Y85000D01*
X83300Y85200D01*
X83500Y85100D01*
X83700Y85200D01*
X83600Y85000D01*
X83700Y84800D01*
X83500Y84900D01*
X83300Y84800D01*
X82300D02*
X82400Y85000D01*
X82300Y85200D01*
X82500Y85100D01*
X82700Y85200D01*
X82600Y85000D01*
X82700Y84800D01*
X82500Y84900D01*
X82300Y84800D01*
X81300D02*
X81400Y85000D01*
X81300Y85200D01*
X81500Y85100D01*
X81700Y85200D01*
X81600Y85000D01*
X81700Y84800D01*
X81500Y84900D01*
X81300Y84800D01*
X80300D02*
X80400Y85000D01*
X80300Y85200D01*
X80500Y85100D01*
X80700Y85200D01*
X80600Y85000D01*
X80700Y84800D01*
X80500Y84900D01*
X80300Y84800D01*
X79300D02*
X79400Y85000D01*
X79300Y85200D01*
X79500Y85100D01*
X79700Y85200D01*
X79600Y85000D01*
X79700Y84800D01*
X79500Y84900D01*
X79300Y84800D01*
X78300D02*
X78400Y85000D01*
X78300Y85200D01*
X78500Y85100D01*
X78700Y85200D01*
X78600Y85000D01*
X78700Y84800D01*
X78500Y84900D01*
X78300Y84800D01*
X77300D02*
X77400Y85000D01*
X77300Y85200D01*
X77500Y85100D01*
X77700Y85200D01*
X77600Y85000D01*
X77700Y84800D01*
X77500Y84900D01*
X77300Y84800D01*
X76300D02*
X76400Y85000D01*
X76300Y85200D01*
X76500Y85100D01*
X76700Y85200D01*
X76600Y85000D01*
X76700Y84800D01*
X76500Y84900D01*
X76300Y84800D01*
X75300D02*
X75400Y85000D01*
X75300Y85200D01*
X75500Y85100D01*
X75700Y85200D01*
X75600Y85000D01*
X75700Y84800D01*
X75500Y84900D01*
X75300Y84800D01*
X74300D02*
X74400Y85000D01*
X74300Y85200D01*
X74500Y85100D01*
X74700Y85200D01*
X74600Y85000D01*
X74700Y84800D01*
X74500Y84900D01*
X74300Y84800D01*
X73300D02*
X73400Y85000D01*
X73300Y85200D01*
X73500Y85100D01*
X73700Y85200D01*
X73600Y85000D01*
X73700Y84800D01*
X73500Y84900D01*
X73300Y84800D01*
X72300D02*
X72400Y85000D01*
X72300Y85200D01*
X72500Y85100D01*
X72700Y85200D01*
X72600Y85000D01*
X72700Y84800D01*
X72500Y84900D01*
X72300Y84800D01*
X71300D02*
X71400Y85000D01*
X71300Y85200D01*
X71500Y85100D01*
X71700Y85200D01*
X71600Y85000D01*
X71700Y84800D01*
X71500Y84900D01*
X71300Y84800D01*
X70300D02*
X70400Y85000D01*
X70300Y85200D01*
X70500Y85100D01*
X70700Y85200D01*
X70600Y85000D01*
X70700Y84800D01*
X70500Y84900D01*
X70300Y84800D01*
X69300D02*
X69400Y85000D01*
X69300Y85200D01*
X69500Y85100D01*
X69700Y85200D01*
X69600Y85000D01*
X69700Y84800D01*
X69500Y84900D01*
X69300Y84800D01*
X68300D02*
X68400Y85000D01*
X68300Y85200D01*
X68500Y85100D01*
X68700Y85200D01*
X68600Y85000D01*
X68700Y84800D01*
X68500Y84900D01*
X68300Y84800D01*
X67300D02*
X67400Y85000D01*
X67300Y85200D01*
X67500Y85100D01*
X67700Y85200D01*
X67600Y85000D01*
X67700Y84800D01*
X67500Y84900D01*
X67300Y84800D01*
X66300D02*
X66400Y85000D01*
X66300Y85200D01*
X66500Y85100D01*
X66700Y85200D01*
X66600Y85000D01*
X66700Y84800D01*
X66500Y84900D01*
X66300Y84800D01*
X65300D02*
X65400Y85000D01*
X65300Y85200D01*
X65500Y85100D01*
X65700Y85200D01*
X65600Y85000D01*
X65700Y84800D01*
X65500Y84900D01*
X65300Y84800D01*
X64300D02*
X64400Y85000D01*
X64300Y85200D01*
X64500Y85100D01*
X64700Y85200D01*
X64600Y85000D01*
X64700Y84800D01*
X64500Y84900D01*
X64300Y84800D01*
X83300Y78800D02*
X83400Y79000D01*
X83300Y79200D01*
X83500Y79100D01*
X83700Y79200D01*
X83600Y79000D01*
X83700Y78800D01*
X83500Y78900D01*
X83300Y78800D01*
X82300D02*
X82400Y79000D01*
X82300Y79200D01*
X82500Y79100D01*
X82700Y79200D01*
X82600Y79000D01*
X82700Y78800D01*
X82500Y78900D01*
X82300Y78800D01*
X81300D02*
X81400Y79000D01*
X81300Y79200D01*
X81500Y79100D01*
X81700Y79200D01*
X81600Y79000D01*
X81700Y78800D01*
X81500Y78900D01*
X81300Y78800D01*
X80300D02*
X80400Y79000D01*
X80300Y79200D01*
X80500Y79100D01*
X80700Y79200D01*
X80600Y79000D01*
X80700Y78800D01*
X80500Y78900D01*
X80300Y78800D01*
X79300D02*
X79400Y79000D01*
X79300Y79200D01*
X79500Y79100D01*
X79700Y79200D01*
X79600Y79000D01*
X79700Y78800D01*
X79500Y78900D01*
X79300Y78800D01*
X78300D02*
X78400Y79000D01*
X78300Y79200D01*
X78500Y79100D01*
X78700Y79200D01*
X78600Y79000D01*
X78700Y78800D01*
X78500Y78900D01*
X78300Y78800D01*
X77300D02*
X77400Y79000D01*
X77300Y79200D01*
X77500Y79100D01*
X77700Y79200D01*
X77600Y79000D01*
X77700Y78800D01*
X77500Y78900D01*
X77300Y78800D01*
X76300D02*
X76400Y79000D01*
X76300Y79200D01*
X76500Y79100D01*
X76700Y79200D01*
X76600Y79000D01*
X76700Y78800D01*
X76500Y78900D01*
X76300Y78800D01*
X75300D02*
X75400Y79000D01*
X75300Y79200D01*
X75500Y79100D01*
X75700Y79200D01*
X75600Y79000D01*
X75700Y78800D01*
X75500Y78900D01*
X75300Y78800D01*
X74300D02*
X74400Y79000D01*
X74300Y79200D01*
X74500Y79100D01*
X74700Y79200D01*
X74600Y79000D01*
X74700Y78800D01*
X74500Y78900D01*
X74300Y78800D01*
X73300D02*
X73400Y79000D01*
X73300Y79200D01*
X73500Y79100D01*
X73700Y79200D01*
X73600Y79000D01*
X73700Y78800D01*
X73500Y78900D01*
X73300Y78800D01*
X72300D02*
X72400Y79000D01*
X72300Y79200D01*
X72500Y79100D01*
X72700Y79200D01*
X72600Y79000D01*
X72700Y78800D01*
X72500Y78900D01*
X72300Y78800D01*
X71300D02*
X71400Y79000D01*
X71300Y79200D01*
X71500Y79100D01*
X71700Y79200D01*
X71600Y79000D01*
X71700Y78800D01*
X71500Y78900D01*
X71300Y78800D01*
X70300D02*
X70400Y79000D01*
X70300Y79200D01*
X70500Y79100D01*
X70700Y79200D01*
X70600Y79000D01*
X70700Y78800D01*
X70500Y78900D01*
X70300Y78800D01*
X69300D02*
X69400Y79000D01*
X69300Y79200D01*
X69500Y79100D01*
X69700Y79200D01*
X69600Y79000D01*
X69700Y78800D01*
X69500Y78900D01*
X69300Y78800D01*
X68300D02*
X68400Y79000D01*
X68300Y79200D01*
X68500Y79100D01*
X68700Y79200D01*
X68600Y79000D01*
X68700Y78800D01*
X68500Y78900D01*
X68300Y78800D01*
X67300D02*
X67400Y79000D01*
X67300Y79200D01*
X67500Y79100D01*
X67700Y79200D01*
X67600Y79000D01*
X67700Y78800D01*
X67500Y78900D01*
X67300Y78800D01*
X66300D02*
X66400Y79000D01*
X66300Y79200D01*
X66500Y79100D01*
X66700Y79200D01*
X66600Y79000D01*
X66700Y78800D01*
X66500Y78900D01*
X66300Y78800D01*
X65300D02*
X65400Y79000D01*
X65300Y79200D01*
X65500Y79100D01*
X65700Y79200D01*
X65600Y79000D01*
X65700Y78800D01*
X65500Y78900D01*
X65300Y78800D01*
X64300D02*
X64400Y79000D01*
X64300Y79200D01*
X64500Y79100D01*
X64700Y79200D01*
X64600Y79000D01*
X64700Y78800D01*
X64500Y78900D01*
X64300Y78800D01*
X45206Y78797D02*
X45306Y78997D01*
X45206Y79197D01*
X45406Y79097D01*
X45606Y79197D01*
X45506Y78997D01*
X45606Y78797D01*
X45406Y78897D01*
X45206Y78797D01*
X46206D02*
X46306Y78997D01*
X46206Y79197D01*
X46406Y79097D01*
X46606Y79197D01*
X46506Y78997D01*
X46606Y78797D01*
X46406Y78897D01*
X46206Y78797D01*
X47206D02*
X47306Y78997D01*
X47206Y79197D01*
X47406Y79097D01*
X47606Y79197D01*
X47506Y78997D01*
X47606Y78797D01*
X47406Y78897D01*
X47206Y78797D01*
X48206D02*
X48306Y78997D01*
X48206Y79197D01*
X48406Y79097D01*
X48606Y79197D01*
X48506Y78997D01*
X48606Y78797D01*
X48406Y78897D01*
X48206Y78797D01*
X49206D02*
X49306Y78997D01*
X49206Y79197D01*
X49406Y79097D01*
X49606Y79197D01*
X49506Y78997D01*
X49606Y78797D01*
X49406Y78897D01*
X49206Y78797D01*
X50206D02*
X50306Y78997D01*
X50206Y79197D01*
X50406Y79097D01*
X50606Y79197D01*
X50506Y78997D01*
X50606Y78797D01*
X50406Y78897D01*
X50206Y78797D01*
X51206D02*
X51306Y78997D01*
X51206Y79197D01*
X51406Y79097D01*
X51606Y79197D01*
X51506Y78997D01*
X51606Y78797D01*
X51406Y78897D01*
X51206Y78797D01*
X52206D02*
X52306Y78997D01*
X52206Y79197D01*
X52406Y79097D01*
X52606Y79197D01*
X52506Y78997D01*
X52606Y78797D01*
X52406Y78897D01*
X52206Y78797D01*
X53206D02*
X53306Y78997D01*
X53206Y79197D01*
X53406Y79097D01*
X53606Y79197D01*
X53506Y78997D01*
X53606Y78797D01*
X53406Y78897D01*
X53206Y78797D01*
X54206D02*
X54306Y78997D01*
X54206Y79197D01*
X54406Y79097D01*
X54606Y79197D01*
X54506Y78997D01*
X54606Y78797D01*
X54406Y78897D01*
X54206Y78797D01*
X55206D02*
X55306Y78997D01*
X55206Y79197D01*
X55406Y79097D01*
X55606Y79197D01*
X55506Y78997D01*
X55606Y78797D01*
X55406Y78897D01*
X55206Y78797D01*
X56206D02*
X56306Y78997D01*
X56206Y79197D01*
X56406Y79097D01*
X56606Y79197D01*
X56506Y78997D01*
X56606Y78797D01*
X56406Y78897D01*
X56206Y78797D01*
X57206D02*
X57306Y78997D01*
X57206Y79197D01*
X57406Y79097D01*
X57606Y79197D01*
X57506Y78997D01*
X57606Y78797D01*
X57406Y78897D01*
X57206Y78797D01*
X58206D02*
X58306Y78997D01*
X58206Y79197D01*
X58406Y79097D01*
X58606Y79197D01*
X58506Y78997D01*
X58606Y78797D01*
X58406Y78897D01*
X58206Y78797D01*
X45206Y84797D02*
X45306Y84997D01*
X45206Y85197D01*
X45406Y85097D01*
X45606Y85197D01*
X45506Y84997D01*
X45606Y84797D01*
X45406Y84897D01*
X45206Y84797D01*
X46206D02*
X46306Y84997D01*
X46206Y85197D01*
X46406Y85097D01*
X46606Y85197D01*
X46506Y84997D01*
X46606Y84797D01*
X46406Y84897D01*
X46206Y84797D01*
X47206D02*
X47306Y84997D01*
X47206Y85197D01*
X47406Y85097D01*
X47606Y85197D01*
X47506Y84997D01*
X47606Y84797D01*
X47406Y84897D01*
X47206Y84797D01*
X48206D02*
X48306Y84997D01*
X48206Y85197D01*
X48406Y85097D01*
X48606Y85197D01*
X48506Y84997D01*
X48606Y84797D01*
X48406Y84897D01*
X48206Y84797D01*
X49206D02*
X49306Y84997D01*
X49206Y85197D01*
X49406Y85097D01*
X49606Y85197D01*
X49506Y84997D01*
X49606Y84797D01*
X49406Y84897D01*
X49206Y84797D01*
X50206D02*
X50306Y84997D01*
X50206Y85197D01*
X50406Y85097D01*
X50606Y85197D01*
X50506Y84997D01*
X50606Y84797D01*
X50406Y84897D01*
X50206Y84797D01*
X51206D02*
X51306Y84997D01*
X51206Y85197D01*
X51406Y85097D01*
X51606Y85197D01*
X51506Y84997D01*
X51606Y84797D01*
X51406Y84897D01*
X51206Y84797D01*
X52206D02*
X52306Y84997D01*
X52206Y85197D01*
X52406Y85097D01*
X52606Y85197D01*
X52506Y84997D01*
X52606Y84797D01*
X52406Y84897D01*
X52206Y84797D01*
X53206D02*
X53306Y84997D01*
X53206Y85197D01*
X53406Y85097D01*
X53606Y85197D01*
X53506Y84997D01*
X53606Y84797D01*
X53406Y84897D01*
X53206Y84797D01*
X54206D02*
X54306Y84997D01*
X54206Y85197D01*
X54406Y85097D01*
X54606Y85197D01*
X54506Y84997D01*
X54606Y84797D01*
X54406Y84897D01*
X54206Y84797D01*
X55206D02*
X55306Y84997D01*
X55206Y85197D01*
X55406Y85097D01*
X55606Y85197D01*
X55506Y84997D01*
X55606Y84797D01*
X55406Y84897D01*
X55206Y84797D01*
X56206D02*
X56306Y84997D01*
X56206Y85197D01*
X56406Y85097D01*
X56606Y85197D01*
X56506Y84997D01*
X56606Y84797D01*
X56406Y84897D01*
X56206Y84797D01*
X57206D02*
X57306Y84997D01*
X57206Y85197D01*
X57406Y85097D01*
X57606Y85197D01*
X57506Y84997D01*
X57606Y84797D01*
X57406Y84897D01*
X57206Y84797D01*
X58206D02*
X58306Y84997D01*
X58206Y85197D01*
X58406Y85097D01*
X58606Y85197D01*
X58506Y84997D01*
X58606Y84797D01*
X58406Y84897D01*
X58206Y84797D01*
X81300Y93500D02*
X81400Y93700D01*
X81300Y93900D01*
X81500Y93800D01*
X81700Y93900D01*
X81600Y93700D01*
X81700Y93500D01*
X81500Y93600D01*
X81300Y93500D01*
X80300D02*
X80400Y93700D01*
X80300Y93900D01*
X80500Y93800D01*
X80700Y93900D01*
X80600Y93700D01*
X80700Y93500D01*
X80500Y93600D01*
X80300Y93500D01*
X79300D02*
X79400Y93700D01*
X79300Y93900D01*
X79500Y93800D01*
X79700Y93900D01*
X79600Y93700D01*
X79700Y93500D01*
X79500Y93600D01*
X79300Y93500D01*
X78300D02*
X78400Y93700D01*
X78300Y93900D01*
X78500Y93800D01*
X78700Y93900D01*
X78600Y93700D01*
X78700Y93500D01*
X78500Y93600D01*
X78300Y93500D01*
X77300D02*
X77400Y93700D01*
X77300Y93900D01*
X77500Y93800D01*
X77700Y93900D01*
X77600Y93700D01*
X77700Y93500D01*
X77500Y93600D01*
X77300Y93500D01*
X76300D02*
X76400Y93700D01*
X76300Y93900D01*
X76500Y93800D01*
X76700Y93900D01*
X76600Y93700D01*
X76700Y93500D01*
X76500Y93600D01*
X76300Y93500D01*
X75300D02*
X75400Y93700D01*
X75300Y93900D01*
X75500Y93800D01*
X75700Y93900D01*
X75600Y93700D01*
X75700Y93500D01*
X75500Y93600D01*
X75300Y93500D01*
X74300D02*
X74400Y93700D01*
X74300Y93900D01*
X74500Y93800D01*
X74700Y93900D01*
X74600Y93700D01*
X74700Y93500D01*
X74500Y93600D01*
X74300Y93500D01*
X73300D02*
X73400Y93700D01*
X73300Y93900D01*
X73500Y93800D01*
X73700Y93900D01*
X73600Y93700D01*
X73700Y93500D01*
X73500Y93600D01*
X73300Y93500D01*
X72300D02*
X72400Y93700D01*
X72300Y93900D01*
X72500Y93800D01*
X72700Y93900D01*
X72600Y93700D01*
X72700Y93500D01*
X72500Y93600D01*
X72300Y93500D01*
X71300D02*
X71400Y93700D01*
X71300Y93900D01*
X71500Y93800D01*
X71700Y93900D01*
X71600Y93700D01*
X71700Y93500D01*
X71500Y93600D01*
X71300Y93500D01*
X70300D02*
X70400Y93700D01*
X70300Y93900D01*
X70500Y93800D01*
X70700Y93900D01*
X70600Y93700D01*
X70700Y93500D01*
X70500Y93600D01*
X70300Y93500D01*
X69300D02*
X69400Y93700D01*
X69300Y93900D01*
X69500Y93800D01*
X69700Y93900D01*
X69600Y93700D01*
X69700Y93500D01*
X69500Y93600D01*
X69300Y93500D01*
X68300D02*
X68400Y93700D01*
X68300Y93900D01*
X68500Y93800D01*
X68700Y93900D01*
X68600Y93700D01*
X68700Y93500D01*
X68500Y93600D01*
X68300Y93500D01*
X81300Y87500D02*
X81400Y87700D01*
X81300Y87900D01*
X81500Y87800D01*
X81700Y87900D01*
X81600Y87700D01*
X81700Y87500D01*
X81500Y87600D01*
X81300Y87500D01*
X80300D02*
X80400Y87700D01*
X80300Y87900D01*
X80500Y87800D01*
X80700Y87900D01*
X80600Y87700D01*
X80700Y87500D01*
X80500Y87600D01*
X80300Y87500D01*
X79300D02*
X79400Y87700D01*
X79300Y87900D01*
X79500Y87800D01*
X79700Y87900D01*
X79600Y87700D01*
X79700Y87500D01*
X79500Y87600D01*
X79300Y87500D01*
X78300D02*
X78400Y87700D01*
X78300Y87900D01*
X78500Y87800D01*
X78700Y87900D01*
X78600Y87700D01*
X78700Y87500D01*
X78500Y87600D01*
X78300Y87500D01*
X77300D02*
X77400Y87700D01*
X77300Y87900D01*
X77500Y87800D01*
X77700Y87900D01*
X77600Y87700D01*
X77700Y87500D01*
X77500Y87600D01*
X77300Y87500D01*
X76300D02*
X76400Y87700D01*
X76300Y87900D01*
X76500Y87800D01*
X76700Y87900D01*
X76600Y87700D01*
X76700Y87500D01*
X76500Y87600D01*
X76300Y87500D01*
X75300D02*
X75400Y87700D01*
X75300Y87900D01*
X75500Y87800D01*
X75700Y87900D01*
X75600Y87700D01*
X75700Y87500D01*
X75500Y87600D01*
X75300Y87500D01*
X74300D02*
X74400Y87700D01*
X74300Y87900D01*
X74500Y87800D01*
X74700Y87900D01*
X74600Y87700D01*
X74700Y87500D01*
X74500Y87600D01*
X74300Y87500D01*
X73300D02*
X73400Y87700D01*
X73300Y87900D01*
X73500Y87800D01*
X73700Y87900D01*
X73600Y87700D01*
X73700Y87500D01*
X73500Y87600D01*
X73300Y87500D01*
X72300D02*
X72400Y87700D01*
X72300Y87900D01*
X72500Y87800D01*
X72700Y87900D01*
X72600Y87700D01*
X72700Y87500D01*
X72500Y87600D01*
X72300Y87500D01*
X71300D02*
X71400Y87700D01*
X71300Y87900D01*
X71500Y87800D01*
X71700Y87900D01*
X71600Y87700D01*
X71700Y87500D01*
X71500Y87600D01*
X71300Y87500D01*
X70300D02*
X70400Y87700D01*
X70300Y87900D01*
X70500Y87800D01*
X70700Y87900D01*
X70600Y87700D01*
X70700Y87500D01*
X70500Y87600D01*
X70300Y87500D01*
X69300D02*
X69400Y87700D01*
X69300Y87900D01*
X69500Y87800D01*
X69700Y87900D01*
X69600Y87700D01*
X69700Y87500D01*
X69500Y87600D01*
X69300Y87500D01*
X68300D02*
X68400Y87700D01*
X68300Y87900D01*
X68500Y87800D01*
X68700Y87900D01*
X68600Y87700D01*
X68700Y87500D01*
X68500Y87600D01*
X68300Y87500D01*
X50400Y97584D02*
X50500D01*
X50600Y97684D01*
X50700Y97584D01*
X50800D01*
Y97684D01*
X50700Y97784D01*
X50800Y97884D01*
Y97984D01*
X50700D01*
X50600Y97884D01*
X50500Y97984D01*
X50400D01*
Y97884D01*
X50500Y97784D01*
X50400Y97684D01*
Y97584D01*
X50480Y97664D02*
X50540D01*
X50600Y97724D01*
X50660Y97664D01*
X50720D01*
Y97724D01*
X50660Y97784D01*
X50720Y97844D01*
Y97904D01*
X50660D01*
X50600Y97844D01*
X50540Y97904D01*
X50480D01*
Y97844D01*
X50540Y97784D01*
X50480Y97724D01*
Y97664D01*
X50400Y95616D02*
X50500D01*
X50600Y95716D01*
X50700Y95616D01*
X50800D01*
Y95716D01*
X50700Y95816D01*
X50800Y95916D01*
Y96016D01*
X50700D01*
X50600Y95916D01*
X50500Y96016D01*
X50400D01*
Y95916D01*
X50500Y95816D01*
X50400Y95716D01*
Y95616D01*
X50480Y95696D02*
X50540D01*
X50600Y95756D01*
X50660Y95696D01*
X50720D01*
Y95756D01*
X50660Y95816D01*
X50720Y95876D01*
Y95936D01*
X50660D01*
X50600Y95876D01*
X50540Y95936D01*
X50480D01*
Y95876D01*
X50540Y95816D01*
X50480Y95756D01*
Y95696D01*
X85000Y81850D02*
Y82183D01*
X85167Y82350D01*
X85333Y82183D01*
Y81850D01*
Y82100D01*
X85000D01*
X84050Y78450D02*
Y78783D01*
X84217Y78950D01*
X84383Y78783D01*
Y78450D01*
Y78700D01*
X84050D01*
X84450Y81900D02*
Y82233D01*
X84617Y82400D01*
X84783Y82233D01*
Y81900D01*
Y82150D01*
X84450D01*
X85350Y82200D02*
Y82533D01*
X85517Y82700D01*
X85683Y82533D01*
Y82200D01*
Y82450D01*
X85350D01*
X74068Y72900D02*
Y73233D01*
X74235Y73400D01*
X74402Y73233D01*
Y72900D01*
Y73150D01*
X74068D01*
X59000Y82200D02*
Y82533D01*
X59167Y82700D01*
X59333Y82533D01*
Y82200D01*
Y82450D01*
X59000D01*
X84160Y82220D02*
Y82553D01*
X84327Y82720D01*
X84493Y82553D01*
Y82220D01*
Y82470D01*
X84160D01*
X84740Y82220D02*
Y82553D01*
X84907Y82720D01*
X85073Y82553D01*
Y82220D01*
Y82470D01*
X84740D01*
X55755Y99745D02*
Y100079D01*
X55921Y100245D01*
X56088Y100079D01*
Y99745D01*
Y99995D01*
X55755D01*
X68500Y87000D02*
Y87333D01*
X68667Y87500D01*
X68833Y87333D01*
Y87000D01*
Y87250D01*
X68500D01*
X77500Y75300D02*
Y75633D01*
X77667Y75800D01*
X77833Y75633D01*
Y75300D01*
Y75550D01*
X77500D01*
X80150Y75000D02*
Y75333D01*
X80317Y75500D01*
X80483Y75333D01*
Y75000D01*
Y75250D01*
X80150D01*
X78100Y72950D02*
Y73283D01*
X78267Y73450D01*
X78433Y73283D01*
Y72950D01*
Y73200D01*
X78100D01*
X63850Y78100D02*
Y78433D01*
X64017Y78600D01*
X64183Y78433D01*
Y78100D01*
Y78350D01*
X63850D01*
Y82450D02*
Y82783D01*
X64017Y82950D01*
X64183Y82783D01*
Y82450D01*
Y82700D01*
X63850D01*
X47700Y86200D02*
Y86533D01*
X47867Y86700D01*
X48033Y86533D01*
Y86200D01*
Y86450D01*
X47700D01*
X68000Y85300D02*
Y85633D01*
X68167Y85800D01*
X68333Y85633D01*
Y85300D01*
Y85550D01*
X68000D01*
X70100Y82400D02*
Y82733D01*
X70267Y82900D01*
X70433Y82733D01*
Y82400D01*
Y82650D01*
X70100D01*
X63900Y90200D02*
Y90533D01*
X64067Y90700D01*
X64233Y90533D01*
Y90200D01*
Y90450D01*
X63900D01*
X79450Y92100D02*
Y92433D01*
X79617Y92600D01*
X79783Y92433D01*
Y92100D01*
Y92350D01*
X79450D01*
X65550Y94500D02*
Y94833D01*
X65717Y95000D01*
X65883Y94833D01*
Y94500D01*
Y94750D01*
X65550D01*
X80150Y94750D02*
Y95083D01*
X80317Y95250D01*
X80483Y95083D01*
Y94750D01*
Y95000D01*
X80150D01*
X42950Y85050D02*
Y85383D01*
X43117Y85550D01*
X43283Y85383D01*
Y85050D01*
Y85300D01*
X42950D01*
X43765Y72965D02*
Y73299D01*
X43932Y73465D01*
X44099Y73299D01*
Y72965D01*
Y73215D01*
X43765D01*
X79300Y78000D02*
Y78333D01*
X79467Y78500D01*
X79633Y78333D01*
Y78000D01*
Y78250D01*
X79300D01*
X79441Y75600D02*
Y75933D01*
X79607Y76100D01*
X79774Y75933D01*
Y75600D01*
Y75850D01*
X79441D01*
X80450Y71500D02*
Y71833D01*
X80617Y72000D01*
X80783Y71833D01*
Y71500D01*
Y71750D01*
X80450D01*
X76100Y75395D02*
Y75729D01*
X76267Y75895D01*
X76433Y75729D01*
Y75395D01*
Y75645D01*
X76100D01*
X74000Y77050D02*
Y77383D01*
X74167Y77550D01*
X74333Y77383D01*
Y77050D01*
Y77300D01*
X74000D01*
X72200Y77500D02*
Y77833D01*
X72367Y78000D01*
X72533Y77833D01*
Y77500D01*
Y77750D01*
X72200D01*
X53950Y82250D02*
Y82583D01*
X54117Y82750D01*
X54283Y82583D01*
Y82250D01*
Y82500D01*
X53950D01*
X54900Y82300D02*
Y82633D01*
X55067Y82800D01*
X55233Y82633D01*
Y82300D01*
Y82550D01*
X54900D01*
X55900Y82300D02*
Y82633D01*
X56067Y82800D01*
X56233Y82633D01*
Y82300D01*
Y82550D01*
X55900D01*
X56900Y82300D02*
Y82633D01*
X57067Y82800D01*
X57233Y82633D01*
Y82300D01*
Y82550D01*
X56900D01*
X57950Y82250D02*
Y82583D01*
X58117Y82750D01*
X58283Y82583D01*
Y82250D01*
Y82500D01*
X57950D01*
X76850Y73700D02*
Y74033D01*
X77017Y74200D01*
X77183Y74033D01*
Y73700D01*
Y73950D01*
X76850D01*
X76400Y73900D02*
Y74233D01*
X76567Y74400D01*
X76733Y74233D01*
Y73900D01*
Y74150D01*
X76400D01*
X76750Y74750D02*
Y75083D01*
X76917Y75250D01*
X77083Y75083D01*
Y74750D01*
Y75000D01*
X76750D01*
X54200Y81000D02*
Y81333D01*
X54367Y81500D01*
X54533Y81333D01*
Y81000D01*
Y81250D01*
X54200D01*
X53100Y81900D02*
Y82233D01*
X53267Y82400D01*
X53433Y82233D01*
Y81900D01*
Y82150D01*
X53100D01*
X52400Y81800D02*
Y82133D01*
X52567Y82300D01*
X52733Y82133D01*
Y81800D01*
Y82050D01*
X52400D01*
X62350Y86700D02*
Y87033D01*
X62517Y87200D01*
X62683Y87033D01*
Y86700D01*
Y86950D01*
X62350D01*
X76500Y74350D02*
Y74683D01*
X76667Y74850D01*
X76833Y74683D01*
Y74350D01*
Y74600D01*
X76500D01*
X74000Y71100D02*
Y71433D01*
X74167Y71600D01*
X74333Y71433D01*
Y71100D01*
Y71350D01*
X74000D01*
X58350Y86350D02*
Y86683D01*
X58517Y86850D01*
X58683Y86683D01*
Y86350D01*
Y86600D01*
X58350D01*
X81550Y76400D02*
Y76733D01*
X81717Y76900D01*
X81883Y76733D01*
Y76400D01*
Y76650D01*
X81550D01*
X73500Y71400D02*
Y71733D01*
X73667Y71900D01*
X73833Y71733D01*
Y71400D01*
Y71650D01*
X73500D01*
X66500Y87100D02*
Y87433D01*
X66667Y87600D01*
X66833Y87433D01*
Y87100D01*
Y87350D01*
X66500D01*
X65500Y77000D02*
Y77333D01*
X65667Y77500D01*
X65833Y77333D01*
Y77000D01*
Y77250D01*
X65500D01*
X68500Y77200D02*
Y77533D01*
X68667Y77700D01*
X68833Y77533D01*
Y77200D01*
Y77450D01*
X68500D01*
X75050Y76000D02*
Y76333D01*
X75217Y76500D01*
X75383Y76333D01*
Y76000D01*
Y76250D01*
X75050D01*
X77400Y72300D02*
Y72633D01*
X77567Y72800D01*
X77733Y72633D01*
Y72300D01*
Y72550D01*
X77400D01*
X79350Y72600D02*
Y72933D01*
X79517Y73100D01*
X79683Y72933D01*
Y72600D01*
Y72850D01*
X79350D01*
X79202Y96500D02*
Y96833D01*
X79368Y97000D01*
X79535Y96833D01*
Y96500D01*
Y96750D01*
X79202D01*
X78250Y76636D02*
Y76969D01*
X78417Y77136D01*
X78583Y76969D01*
Y76636D01*
Y76886D01*
X78250D01*
X75300Y71900D02*
Y72233D01*
X75467Y72400D01*
X75633Y72233D01*
Y71900D01*
Y72150D01*
X75300D01*
X83400Y78250D02*
Y78583D01*
X83567Y78750D01*
X83733Y78583D01*
Y78250D01*
Y78500D01*
X83400D01*
X86200Y78050D02*
Y78383D01*
X86367Y78550D01*
X86533Y78383D01*
Y78050D01*
Y78300D01*
X86200D01*
X70550Y86050D02*
Y86383D01*
X70717Y86550D01*
X70883Y86383D01*
Y86050D01*
Y86300D01*
X70550D01*
X86470Y78890D02*
Y79223D01*
X86637Y79390D01*
X86803Y79223D01*
Y78890D01*
Y79140D01*
X86470D01*
X73228Y83268D02*
Y83601D01*
X73395Y83768D01*
X73562Y83601D01*
Y83268D01*
Y83518D01*
X73228D01*
X86700Y78510D02*
Y78843D01*
X86867Y79010D01*
X87033Y78843D01*
Y78510D01*
Y78760D01*
X86700D01*
X74508Y83071D02*
Y83404D01*
X74674Y83571D01*
X74841Y83404D01*
Y83071D01*
Y83321D01*
X74508D01*
X86950Y77750D02*
Y78083D01*
X87117Y78250D01*
X87283Y78083D01*
Y77750D01*
Y78000D01*
X86950D01*
X75300Y83200D02*
Y83533D01*
X75467Y83700D01*
X75633Y83533D01*
Y83200D01*
Y83450D01*
X75300D01*
X87150Y76750D02*
Y77083D01*
X87317Y77250D01*
X87483Y77083D01*
Y76750D01*
Y77000D01*
X87150D01*
X87320Y75770D02*
Y76103D01*
X87487Y76270D01*
X87653Y76103D01*
Y75770D01*
Y76020D01*
X87320D01*
X87480Y74780D02*
Y75113D01*
X87647Y75280D01*
X87813Y75113D01*
Y74780D01*
Y75030D01*
X87480D01*
X87640Y73760D02*
Y74093D01*
X87807Y74260D01*
X87973Y74093D01*
Y73760D01*
Y74010D01*
X87640D01*
X87780Y72730D02*
Y73063D01*
X87947Y73230D01*
X88113Y73063D01*
Y72730D01*
Y72980D01*
X87780D01*
X75430Y71400D02*
Y71733D01*
X75597Y71900D01*
X75763Y71733D01*
Y71400D01*
Y71650D01*
X75430D01*
X75760Y71380D02*
Y71713D01*
X75927Y71880D01*
X76093Y71713D01*
Y71380D01*
Y71630D01*
X75760D01*
X76217Y71040D02*
Y71373D01*
X76384Y71540D01*
X76550Y71373D01*
Y71040D01*
Y71290D01*
X76217D01*
X74760Y72255D02*
Y72589D01*
X74927Y72755D01*
X75093Y72589D01*
Y72255D01*
Y72505D01*
X74760D01*
X79080Y71601D02*
Y71934D01*
X79247Y72101D01*
X79413Y71934D01*
Y71601D01*
Y71851D01*
X79080D01*
X78630Y71620D02*
Y71953D01*
X78797Y72120D01*
X78963Y71953D01*
Y71620D01*
Y71870D01*
X78630D01*
X43700Y77700D02*
Y78033D01*
X43867Y78200D01*
X44033Y78033D01*
Y77700D01*
Y77950D01*
X43700D01*
D101*
X57533Y102894D02*
G03*
X57533Y102894I-200J0D01*
G01*
X62667D02*
G03*
X62667Y102894I-200J0D01*
G01*
X60600Y69400D02*
G03*
X60600Y69400I-200J0D01*
G01*
X63159D02*
G03*
X63159Y69400I-200J0D01*
G01*
Y71172D02*
G03*
X63159Y71172I-200J0D01*
G01*
X60600D02*
G03*
X60600Y71172I-200J0D01*
G01*
D102*
X60520Y69400D02*
G03*
X60520Y69400I-120J0D01*
G01*
X63079D02*
G03*
X63079Y69400I-120J0D01*
G01*
Y71172D02*
G03*
X63079Y71172I-120J0D01*
G01*
X60520D02*
G03*
X60520Y71172I-120J0D01*
G01*
M02*
