G04 Layer_Color=7318015*
%FSLAX24Y24*%
%MOIN*%
G70*
G01*
G75*
%ADD10R,0.0315X0.0374*%
%ADD11R,0.0374X0.0315*%
%ADD12R,0.0354X0.0335*%
%ADD13R,0.0350X0.0394*%
G04:AMPARAMS|DCode=14|XSize=39.4mil|YSize=35mil|CornerRadius=0mil|HoleSize=0mil|Usage=FLASHONLY|Rotation=225.000|XOffset=0mil|YOffset=0mil|HoleType=Round|Shape=Rectangle|*
%AMROTATEDRECTD14*
4,1,4,0.0015,0.0263,0.0263,0.0015,-0.0015,-0.0263,-0.0263,-0.0015,0.0015,0.0263,0.0*
%
%ADD14ROTATEDRECTD14*%

%ADD15R,0.0433X0.0354*%
%ADD16R,0.0354X0.0433*%
G04:AMPARAMS|DCode=18|XSize=39.4mil|YSize=35mil|CornerRadius=0mil|HoleSize=0mil|Usage=FLASHONLY|Rotation=135.000|XOffset=0mil|YOffset=0mil|HoleType=Round|Shape=Rectangle|*
%AMROTATEDRECTD18*
4,1,4,0.0263,-0.0015,0.0015,-0.0263,-0.0263,0.0015,-0.0015,0.0263,0.0263,-0.0015,0.0*
%
%ADD18ROTATEDRECTD18*%

%ADD19R,0.0394X0.0350*%
G04:AMPARAMS|DCode=20|XSize=21.7mil|YSize=57.1mil|CornerRadius=0mil|HoleSize=0mil|Usage=FLASHONLY|Rotation=315.000|XOffset=0mil|YOffset=0mil|HoleType=Round|Shape=Round|*
%AMOVALD20*
21,1,0.0354,0.0217,0.0000,0.0000,45.0*
1,1,0.0217,-0.0125,-0.0125*
1,1,0.0217,0.0125,0.0125*
%
%ADD20OVALD20*%

G04:AMPARAMS|DCode=21|XSize=21.7mil|YSize=57.1mil|CornerRadius=0mil|HoleSize=0mil|Usage=FLASHONLY|Rotation=225.000|XOffset=0mil|YOffset=0mil|HoleType=Round|Shape=Round|*
%AMOVALD21*
21,1,0.0354,0.0217,0.0000,0.0000,315.0*
1,1,0.0217,-0.0125,0.0125*
1,1,0.0217,0.0125,-0.0125*
%
%ADD21OVALD21*%

%ADD23C,0.0100*%
%ADD61R,0.0236X0.0197*%
D10*
X68954Y76100D02*
D03*
X69446D02*
D03*
D11*
X73600Y73066D02*
D03*
Y72534D02*
D03*
D12*
X41400Y96456D02*
D03*
Y95944D02*
D03*
D13*
X61700Y74100D02*
D03*
X62300D02*
D03*
X71550Y78100D02*
D03*
X72150D02*
D03*
X82650Y76700D02*
D03*
X83250D02*
D03*
X44300Y85000D02*
D03*
X43700D02*
D03*
X44300Y77200D02*
D03*
X43700D02*
D03*
X44500Y72400D02*
D03*
X43900D02*
D03*
X59750Y99150D02*
D03*
X60350D02*
D03*
X80800Y94800D02*
D03*
X81400D02*
D03*
X64900Y94500D02*
D03*
X64300D02*
D03*
X80100Y98900D02*
D03*
X80700D02*
D03*
X60150Y94650D02*
D03*
X59550D02*
D03*
X79000Y95050D02*
D03*
X78400D02*
D03*
X73670Y98710D02*
D03*
X74270D02*
D03*
X71500Y98900D02*
D03*
X72100D02*
D03*
X78567Y97095D02*
D03*
X79167D02*
D03*
X76167Y98895D02*
D03*
X76767D02*
D03*
D14*
X74762Y76288D02*
D03*
X74338Y76712D02*
D03*
X79718Y72232D02*
D03*
X80142Y71808D02*
D03*
D15*
X66500Y85905D02*
D03*
Y86495D02*
D03*
X69500Y78145D02*
D03*
Y77555D02*
D03*
X67500Y78145D02*
D03*
Y77555D02*
D03*
X65500Y78145D02*
D03*
Y77555D02*
D03*
X66800Y94505D02*
D03*
Y95095D02*
D03*
X68500Y85905D02*
D03*
Y86495D02*
D03*
D16*
X56345Y99100D02*
D03*
X55755D02*
D03*
X58305D02*
D03*
X58895D02*
D03*
X74145Y71800D02*
D03*
X73555D02*
D03*
D18*
X78538Y76938D02*
D03*
X78962Y77362D02*
D03*
X75012Y71612D02*
D03*
X74588Y71188D02*
D03*
D19*
X87550Y70800D02*
D03*
Y71400D02*
D03*
X95550Y70750D02*
D03*
Y71350D02*
D03*
X103550Y70750D02*
D03*
Y71350D02*
D03*
X47800Y96300D02*
D03*
Y95700D02*
D03*
D20*
X79673Y74495D02*
D03*
X79450Y74718D02*
D03*
X79227Y74941D02*
D03*
X79004Y75164D02*
D03*
X78782Y75386D02*
D03*
X78559Y75609D02*
D03*
X78336Y75832D02*
D03*
X78114Y76054D02*
D03*
X77891Y76277D02*
D03*
X77668Y76500D02*
D03*
X77445Y76723D02*
D03*
X74327Y73605D02*
D03*
X74550Y73382D02*
D03*
X74773Y73159D02*
D03*
X74996Y72936D02*
D03*
X75218Y72714D02*
D03*
X75441Y72491D02*
D03*
X75664Y72268D02*
D03*
X75886Y72046D02*
D03*
X76109Y71823D02*
D03*
X76332Y71600D02*
D03*
X76555Y71377D02*
D03*
D21*
Y76723D02*
D03*
X76332Y76500D02*
D03*
X76109Y76277D02*
D03*
X75886Y76054D02*
D03*
X75664Y75832D02*
D03*
X75441Y75609D02*
D03*
X75218Y75386D02*
D03*
X74996Y75164D02*
D03*
X74773Y74941D02*
D03*
X74550Y74718D02*
D03*
X74327Y74495D02*
D03*
X77445Y71377D02*
D03*
X77668Y71600D02*
D03*
X77891Y71823D02*
D03*
X78114Y72046D02*
D03*
X78336Y72268D02*
D03*
X78559Y72491D02*
D03*
X78782Y72714D02*
D03*
X79004Y72936D02*
D03*
X79227Y73159D02*
D03*
X79450Y73382D02*
D03*
X79673Y73605D02*
D03*
D23*
X38000Y105050D02*
X110000D01*
X38000Y66000D02*
X110000D01*
X38000D02*
Y105050D01*
X110000Y66000D02*
Y105050D01*
D61*
X46206Y86600D02*
D03*
X46994Y86226D02*
D03*
Y86974D02*
D03*
M02*
