G04 Layer_Physical_Order=1*
G04 Layer_Color=25308*
%FSLAX24Y24*%
%MOIN*%
G70*
G01*
G75*
%ADD10R,0.0315X0.0374*%
%ADD11R,0.0374X0.0315*%
%ADD12R,0.0354X0.0335*%
%ADD13R,0.0350X0.0394*%
G04:AMPARAMS|DCode=14|XSize=39.4mil|YSize=35mil|CornerRadius=0mil|HoleSize=0mil|Usage=FLASHONLY|Rotation=225.000|XOffset=0mil|YOffset=0mil|HoleType=Round|Shape=Rectangle|*
%AMROTATEDRECTD14*
4,1,4,0.0015,0.0263,0.0263,0.0015,-0.0015,-0.0263,-0.0263,-0.0015,0.0015,0.0263,0.0*
%
%ADD14ROTATEDRECTD14*%

%ADD15R,0.0433X0.0354*%
%ADD16R,0.0354X0.0433*%
%ADD17R,0.0276X0.0236*%
G04:AMPARAMS|DCode=18|XSize=39.4mil|YSize=35mil|CornerRadius=0mil|HoleSize=0mil|Usage=FLASHONLY|Rotation=135.000|XOffset=0mil|YOffset=0mil|HoleType=Round|Shape=Rectangle|*
%AMROTATEDRECTD18*
4,1,4,0.0263,-0.0015,0.0015,-0.0263,-0.0263,0.0015,-0.0015,0.0263,0.0263,-0.0015,0.0*
%
%ADD18ROTATEDRECTD18*%

%ADD19R,0.0394X0.0350*%
G04:AMPARAMS|DCode=20|XSize=21.7mil|YSize=57.1mil|CornerRadius=0mil|HoleSize=0mil|Usage=FLASHONLY|Rotation=315.000|XOffset=0mil|YOffset=0mil|HoleType=Round|Shape=Round|*
%AMOVALD20*
21,1,0.0354,0.0217,0.0000,0.0000,45.0*
1,1,0.0217,-0.0125,-0.0125*
1,1,0.0217,0.0125,0.0125*
%
%ADD20OVALD20*%

G04:AMPARAMS|DCode=21|XSize=21.7mil|YSize=57.1mil|CornerRadius=0mil|HoleSize=0mil|Usage=FLASHONLY|Rotation=225.000|XOffset=0mil|YOffset=0mil|HoleType=Round|Shape=Round|*
%AMOVALD21*
21,1,0.0354,0.0217,0.0000,0.0000,315.0*
1,1,0.0217,-0.0125,0.0125*
1,1,0.0217,0.0125,-0.0125*
%
%ADD21OVALD21*%

%ADD22C,0.0200*%
%ADD23C,0.0100*%
%ADD24C,0.0300*%
%ADD25C,0.0433*%
%ADD26C,0.1191*%
%ADD27C,0.1190*%
%ADD28C,0.1091*%
%ADD29O,0.0600X0.0800*%
%ADD30R,0.0600X0.0800*%
%ADD31R,0.0591X0.0591*%
%ADD32C,0.0591*%
%ADD33R,0.0600X0.0600*%
%ADD34C,0.0600*%
%ADD35C,0.1969*%
%ADD36O,0.0344X0.0787*%
%ADD37R,0.0344X0.0787*%
%ADD38R,0.0433X0.0433*%
%ADD39P,0.0469X8X292.5*%
%ADD40C,0.0709*%
%ADD41R,0.0709X0.0709*%
%ADD42C,0.0787*%
%ADD43C,0.0748*%
%ADD44R,0.0600X0.0600*%
%ADD45C,0.0750*%
%ADD46R,0.0591X0.0591*%
%ADD47O,0.0591X0.0591*%
%ADD48C,0.0630*%
%ADD49R,0.0630X0.0630*%
%ADD50C,0.0300*%
%ADD51C,0.0200*%
D10*
X68954Y76100D02*
D03*
X69446D02*
D03*
D11*
X73600Y73066D02*
D03*
Y72534D02*
D03*
D12*
X41400Y96456D02*
D03*
Y95944D02*
D03*
D13*
X61700Y74100D02*
D03*
X62300D02*
D03*
X71550Y78100D02*
D03*
X72150D02*
D03*
X82650Y76700D02*
D03*
X83250D02*
D03*
X44300Y85000D02*
D03*
X43700D02*
D03*
X44300Y77200D02*
D03*
X43700D02*
D03*
X44500Y72400D02*
D03*
X43900D02*
D03*
X59750Y99150D02*
D03*
X60350D02*
D03*
X80800Y94800D02*
D03*
X81400D02*
D03*
X64900Y94500D02*
D03*
X64300D02*
D03*
X80100Y98900D02*
D03*
X80700D02*
D03*
X60150Y94650D02*
D03*
X59550D02*
D03*
X79000Y95050D02*
D03*
X78400D02*
D03*
X73670Y98710D02*
D03*
X74270D02*
D03*
X71500Y98900D02*
D03*
X72100D02*
D03*
X78567Y97095D02*
D03*
X79167D02*
D03*
X76167Y98895D02*
D03*
X76767D02*
D03*
D14*
X74762Y76288D02*
D03*
X74338Y76712D02*
D03*
X79718Y72232D02*
D03*
X80142Y71808D02*
D03*
D15*
X66500Y85905D02*
D03*
Y86495D02*
D03*
X69500Y78145D02*
D03*
Y77555D02*
D03*
X67500Y78145D02*
D03*
Y77555D02*
D03*
X65500Y78145D02*
D03*
Y77555D02*
D03*
X66800Y94505D02*
D03*
Y95095D02*
D03*
X68500Y85905D02*
D03*
Y86495D02*
D03*
D16*
X56345Y99100D02*
D03*
X55755D02*
D03*
X58305D02*
D03*
X58895D02*
D03*
X74145Y71800D02*
D03*
X73555D02*
D03*
D17*
X46206Y86600D02*
D03*
X46994Y86226D02*
D03*
Y86974D02*
D03*
D18*
X78538Y76938D02*
D03*
X78962Y77362D02*
D03*
X75012Y71612D02*
D03*
X74588Y71188D02*
D03*
D19*
X87550Y70800D02*
D03*
Y71400D02*
D03*
X95550Y70750D02*
D03*
Y71350D02*
D03*
X103550Y70750D02*
D03*
Y71350D02*
D03*
X47800Y96300D02*
D03*
Y95700D02*
D03*
D20*
X79673Y74495D02*
D03*
X79450Y74718D02*
D03*
X79227Y74941D02*
D03*
X79004Y75164D02*
D03*
X78782Y75386D02*
D03*
X78559Y75609D02*
D03*
X78336Y75832D02*
D03*
X78114Y76054D02*
D03*
X77891Y76277D02*
D03*
X77668Y76500D02*
D03*
X77445Y76723D02*
D03*
X74327Y73605D02*
D03*
X74550Y73382D02*
D03*
X74773Y73159D02*
D03*
X74996Y72936D02*
D03*
X75218Y72714D02*
D03*
X75441Y72491D02*
D03*
X75664Y72268D02*
D03*
X75886Y72046D02*
D03*
X76109Y71823D02*
D03*
X76332Y71600D02*
D03*
X76555Y71377D02*
D03*
D21*
Y76723D02*
D03*
X76332Y76500D02*
D03*
X76109Y76277D02*
D03*
X75886Y76054D02*
D03*
X75664Y75832D02*
D03*
X75441Y75609D02*
D03*
X75218Y75386D02*
D03*
X74996Y75164D02*
D03*
X74773Y74941D02*
D03*
X74550Y74718D02*
D03*
X74327Y74495D02*
D03*
X77445Y71377D02*
D03*
X77668Y71600D02*
D03*
X77891Y71823D02*
D03*
X78114Y72046D02*
D03*
X78336Y72268D02*
D03*
X78559Y72491D02*
D03*
X78782Y72714D02*
D03*
X79004Y72936D02*
D03*
X79227Y73159D02*
D03*
X79450Y73382D02*
D03*
X79673Y73605D02*
D03*
D22*
X73500Y71400D02*
Y71745D01*
X74234Y73066D02*
X74550Y73382D01*
X74068Y72900D02*
X74234Y73066D01*
X73600D02*
X74234D01*
X77877Y71823D02*
X77891D01*
X77400Y72300D02*
X77877Y71823D01*
X81235Y99300D02*
X82500D01*
X80835Y98900D02*
X81235Y99300D01*
X82615Y76165D02*
Y76700D01*
X81750Y75300D02*
X82615Y76165D01*
X81435Y93765D02*
Y94750D01*
X75050Y76000D02*
X75441Y75609D01*
X79004Y72936D02*
X79014D01*
X79613Y72337D01*
X75664Y72264D02*
Y72268D01*
X75087Y71687D02*
X75664Y72264D01*
X60000Y99800D02*
X60341Y99459D01*
X59237Y99800D02*
X60000D01*
X58895Y99459D02*
X59237Y99800D01*
X58895Y99100D02*
Y99459D01*
X55755Y99100D02*
Y99745D01*
X59341Y94674D02*
Y95361D01*
X68500Y86495D02*
Y87000D01*
X71515Y78100D02*
Y78985D01*
X44741Y76894D02*
X45370D01*
X44435Y77200D02*
X44741Y76894D01*
X44812Y71972D02*
X45370D01*
X44535Y72250D02*
X44812Y71972D01*
X59341Y98361D02*
X59715Y98735D01*
X60341Y94650D02*
Y95361D01*
X64985Y94500D02*
X65550D01*
X79202Y95652D02*
Y97936D01*
X79035Y95485D02*
X79202Y95652D01*
X79035Y95050D02*
Y95485D01*
X42950Y85050D02*
X43515D01*
X43765Y72450D02*
Y72965D01*
X79004Y75164D02*
X79441Y75600D01*
X78937Y77337D02*
X79200Y77600D01*
Y77900D01*
X79300Y78000D01*
X80167Y71783D02*
X80450Y71500D01*
X74000Y77050D02*
X74280Y76770D01*
X72200Y77500D02*
Y78085D01*
X72185Y78100D02*
X72200Y78085D01*
X74280Y76770D02*
X74380Y76670D01*
X75664Y75832D02*
X76100Y75395D01*
X74500Y71100D02*
X74563Y71163D01*
X83285Y76700D02*
X84035Y75950D01*
X85350D01*
X85700Y75600D01*
Y73250D02*
Y75600D01*
X84750Y72300D02*
X85700Y73250D01*
X44237Y84997D02*
X45406D01*
X64300Y93700D02*
Y94535D01*
X60341Y98361D02*
Y99459D01*
X77467Y94995D02*
X78449D01*
X59715Y98735D02*
Y99150D01*
X74450Y71150D02*
X74500Y71100D01*
X80150Y94750D02*
X80765D01*
X79202Y97936D02*
X80165Y98900D01*
X74400Y71100D02*
X74450Y71150D01*
X74000Y71100D02*
X74400D01*
X66500Y86495D02*
Y87100D01*
X65500Y77000D02*
Y77555D01*
X69145Y77200D02*
X69500Y77555D01*
X67855Y77200D02*
X69145D01*
X67500Y77555D02*
X67855Y77200D01*
X74762Y76288D02*
X75050Y76000D01*
X78538Y76924D02*
Y76938D01*
X78250Y76636D02*
X78538Y76924D01*
X77891Y76277D02*
X78250Y76636D01*
X43700Y77200D02*
Y77700D01*
D23*
X85286Y78450D02*
X88240Y81404D01*
X83970Y85630D02*
X84520Y85080D01*
X84050Y78450D02*
X85286D01*
X84450Y81900D02*
Y85010D01*
X84520Y85080D01*
X85350Y82200D02*
Y89800D01*
X70000Y73500D02*
Y73700D01*
X69500Y74200D02*
X70000Y73700D01*
X69500Y74200D02*
Y76046D01*
X69446Y76100D02*
X69500Y76046D01*
X69000Y74500D02*
Y76054D01*
X66990Y76760D02*
X71566D01*
X74276Y74050D02*
X74441D01*
X71566Y76760D02*
X74276Y74050D01*
X74327Y73605D02*
X74411Y73689D01*
X71500Y76600D02*
X74411Y73689D01*
X62000Y76600D02*
X71500D01*
X65605Y78145D02*
X66990Y76760D01*
X59000Y79600D02*
X62000Y76600D01*
X70536Y73114D02*
X72990Y70660D01*
X70536Y73114D02*
Y73964D01*
X70000Y74500D02*
X70536Y73964D01*
X69000Y74500D02*
X69100D01*
X59851Y70480D02*
X77280D01*
X59917Y70320D02*
X77346D01*
X59984Y70160D02*
X77413D01*
X60050Y70000D02*
X77479D01*
X77280Y70480D02*
X77550Y70750D01*
X77346Y70320D02*
X77789Y70763D01*
X77413Y70160D02*
X77949Y70696D01*
X77479Y70000D02*
X79080Y71601D01*
X62341Y98361D02*
X63400Y97302D01*
X66698D01*
X66350Y97850D02*
X66750Y98250D01*
X63852Y97850D02*
X66350D01*
X67200Y97800D02*
X67750Y97250D01*
X67200Y97800D02*
Y98400D01*
X66850Y98750D02*
X67200Y98400D01*
X65900Y98750D02*
X66850D01*
X65511Y98361D02*
X65900Y98750D01*
X69645Y94505D02*
X70000Y94150D01*
X66800Y94505D02*
X69645D01*
X66750Y95145D02*
X66800Y95095D01*
X66750Y95145D02*
Y96250D01*
X59000Y79600D02*
Y82200D01*
X72510Y81240D02*
X84908D01*
X84740Y82220D02*
Y85390D01*
X84160Y82220D02*
Y85090D01*
X85010Y81970D02*
Y85440D01*
X83780Y85470D02*
X84160Y85090D01*
X84740Y85390D02*
X84750Y85400D01*
X84360Y85790D02*
X84750Y85400D01*
X84500Y85950D02*
X85010Y85440D01*
X85350Y89800D02*
X85350Y89800D01*
X90200Y101350D02*
X90800Y100750D01*
X88150Y101350D02*
X90200D01*
X71000Y74200D02*
X72810Y72390D01*
X74449D01*
X59250Y69879D02*
X59851Y70480D01*
X59410Y69813D02*
X59917Y70320D01*
X59410Y69213D02*
Y69813D01*
X59194Y68997D02*
X59410Y69213D01*
X59194Y68997D02*
X59194D01*
X58490Y68293D02*
Y68293D01*
X58487Y68290D02*
X58490Y68293D01*
X53110Y68290D02*
X58487D01*
X58490Y68293D02*
X59194Y68997D01*
X58421Y68450D02*
X59250Y69279D01*
X53250Y68450D02*
X58421D01*
X59250Y69279D02*
Y69879D01*
X52805Y68595D02*
X53110Y68290D01*
X52965Y68735D02*
X53250Y68450D01*
X53370Y71947D02*
Y71972D01*
X52965Y71541D02*
X53370Y71947D01*
X52965Y68735D02*
Y71541D01*
X52805Y68595D02*
Y71608D01*
X52775Y71805D02*
Y72140D01*
X52370Y71399D02*
X52775Y71805D01*
X52805Y71608D02*
X52950Y71753D01*
Y76474D01*
X53370Y68972D02*
Y71399D01*
X52950Y76474D02*
X53370Y76894D01*
X75392Y70660D02*
X76332Y71600D01*
X72990Y70660D02*
X75392D01*
X77789Y70763D02*
Y71343D01*
X77550Y70750D02*
Y71273D01*
X77445Y71377D02*
X77550Y71273D01*
X77668Y71463D02*
X77789Y71343D01*
X54370Y71399D02*
X54775Y71805D01*
X54370Y68972D02*
Y71399D01*
X53775Y71805D02*
Y72140D01*
X53370Y71399D02*
X53775Y71805D01*
X56890Y72453D02*
Y76413D01*
Y72453D02*
X57370Y71972D01*
X55906Y72437D02*
Y76378D01*
Y72437D02*
X56370Y71972D01*
X54775Y71805D02*
Y72140D01*
X54921Y72421D02*
Y76445D01*
Y72421D02*
X55370Y71972D01*
X52370Y68972D02*
Y71399D01*
X77668Y71463D02*
Y71600D01*
X64300Y94535D02*
X64315Y94550D01*
X71500Y79000D02*
X71515Y78985D01*
X44185Y85050D02*
X44237Y84997D01*
X79450Y73382D02*
X79507D01*
X72467Y93733D02*
Y94995D01*
Y93733D02*
X72500Y93700D01*
X70467Y93733D02*
Y94995D01*
Y93733D02*
X70500Y93700D01*
X74300D02*
X74500D01*
X73710Y93110D02*
X74300Y93700D01*
X72390Y93110D02*
X73710D01*
X72000Y93500D02*
X72390Y93110D01*
X72000Y93500D02*
Y94100D01*
X71467Y94633D02*
X72000Y94100D01*
X71467Y94633D02*
Y94995D01*
X73467D02*
X73500Y94962D01*
Y93700D02*
Y94962D01*
X77805Y75300D02*
X78336Y75832D01*
X77500Y75300D02*
X77805D01*
X79673Y74523D02*
X80150Y75000D01*
X79673Y74495D02*
Y74523D01*
X74449Y72390D02*
X74996Y72936D01*
X66500Y85000D02*
Y85755D01*
X58300Y87700D02*
Y87900D01*
X58360Y86350D02*
X64000D01*
X64500Y85000D02*
Y85850D01*
X64000Y86350D02*
X64400Y85950D01*
X66900Y88450D01*
Y88700D01*
X68200Y90000D01*
X77900D01*
X78500Y90600D01*
Y93600D01*
X78100Y72950D02*
X78559Y72491D01*
X61200Y72472D02*
Y72600D01*
X77750Y92950D02*
X78500Y93700D01*
X70400Y92950D02*
X77750D01*
X70000Y93350D02*
X70400Y92950D01*
X70000Y93350D02*
Y94150D01*
X81500Y87600D02*
Y87700D01*
Y88400D01*
X80080Y89820D02*
X81500Y88400D01*
X68267Y89820D02*
X80080D01*
X67060Y88613D02*
X68267Y89820D01*
X67060Y85787D02*
Y88613D01*
Y85787D02*
X67100Y85747D01*
Y85178D02*
Y85747D01*
X67095Y85173D02*
X67100Y85178D01*
X67095Y84832D02*
Y85173D01*
Y84832D02*
X67332Y84595D01*
X69668D01*
X70073Y85000D01*
X70500D01*
X77800Y72359D02*
X78114Y72046D01*
X77800Y72359D02*
Y73300D01*
X78450Y73950D01*
X83400D01*
X84750Y75300D01*
X80500Y87600D02*
Y87700D01*
Y88726D01*
X79566Y89660D02*
X80500Y88726D01*
X68334Y89660D02*
X79566D01*
X67220Y88546D02*
X68334Y89660D01*
X67220Y85854D02*
Y88546D01*
Y85854D02*
X67500Y85574D01*
Y85000D02*
Y85574D01*
X84750Y75300D02*
X84850Y75400D01*
X56300Y93700D02*
Y94402D01*
X55341Y95361D02*
X56300Y94402D01*
X57300Y93700D02*
Y94402D01*
X56341Y95361D02*
X57300Y94402D01*
X58300Y93700D02*
Y94402D01*
X57341Y95361D02*
X58300Y94402D01*
X58341Y94659D02*
X59300Y93700D01*
X58341Y94659D02*
Y95361D01*
X61341Y94741D02*
Y95361D01*
X60300Y93700D02*
X61341Y94741D01*
X62341D02*
Y95361D01*
X61300Y93700D02*
X62341Y94741D01*
X62300Y94320D02*
X63341Y95361D01*
X62300Y93700D02*
Y94320D01*
X63300D02*
X64341Y95361D01*
X63300Y93700D02*
Y94320D01*
X61341Y98361D02*
X63850Y95852D01*
Y95250D02*
Y95852D01*
X62850Y94250D02*
X63850Y95250D01*
X62850Y92500D02*
Y94250D01*
Y92500D02*
X64300Y91050D01*
Y87700D02*
Y91050D01*
X45300Y87506D02*
Y87700D01*
Y87506D02*
X46206Y86600D01*
X77467Y97995D02*
Y98695D01*
X77267Y98895D02*
X77467Y98695D01*
X76802Y98895D02*
X77267D01*
X75667D02*
X76132D01*
X75467Y98695D02*
X75667Y98895D01*
X75467Y97995D02*
Y98695D01*
X76867Y97095D02*
X78532D01*
X76467Y97495D02*
X76867Y97095D01*
X76467Y97495D02*
Y97995D01*
X69500Y78300D02*
Y79000D01*
X59378Y100398D02*
Y101674D01*
X64341Y98361D02*
X65511D01*
X63341D02*
X63852Y97850D01*
X58039Y100689D02*
X58561D01*
X56341Y98361D02*
Y98991D01*
X47020Y86200D02*
X47700D01*
X46994Y86226D02*
X47020Y86200D01*
X79500Y87700D02*
Y88050D01*
X78050Y89500D02*
X79500Y88050D01*
X68400Y89500D02*
X78050D01*
X67380Y88480D02*
X68400Y89500D01*
X67380Y85920D02*
Y88480D01*
Y85920D02*
X68000Y85300D01*
X67500Y79800D02*
X70100Y82400D01*
X67500Y79000D02*
Y79800D01*
Y78145D02*
Y79000D01*
X47300Y87700D02*
Y89100D01*
X48400Y90200D02*
X63900D01*
X79450Y92100D02*
X83050D01*
X85350Y89800D01*
X47300Y89100D02*
X48400Y90200D01*
X79450Y92100D02*
Y93450D01*
X77050Y73100D02*
X78060Y74110D01*
X79960D01*
X80450Y74600D01*
Y75350D01*
X81550Y76450D01*
X77260Y83760D02*
X78500Y85000D01*
X55643Y83760D02*
X77260D01*
X54406Y84997D02*
X55643Y83760D01*
X78500Y85000D02*
Y87600D01*
X53780Y82080D02*
X53950Y82250D01*
X53780Y79196D02*
Y82080D01*
Y79196D02*
X53811Y79165D01*
Y78829D02*
Y79165D01*
X53800Y78819D02*
X53811Y78829D01*
X53800Y77464D02*
Y78819D01*
Y77464D02*
X54370Y76894D01*
X53839Y72504D02*
X54370Y71972D01*
X53839Y72504D02*
Y76362D01*
X54370Y76894D01*
X77500Y85000D02*
Y87600D01*
X76420Y83920D02*
X77500Y85000D01*
X56139Y83920D02*
X76420D01*
X55406Y84654D02*
X56139Y83920D01*
X55406Y84654D02*
Y84997D01*
X54921Y76445D02*
X55370Y76894D01*
X54900Y77364D02*
Y82300D01*
Y77364D02*
X55370Y76894D01*
X76500Y85000D02*
Y87600D01*
X75580Y84080D02*
X76500Y85000D01*
X56767Y84080D02*
X75580D01*
X56406Y84441D02*
X56767Y84080D01*
X56406Y84441D02*
Y84997D01*
X55900Y77364D02*
Y82300D01*
Y77364D02*
X56370Y76894D01*
X55906Y76378D02*
X56370Y76843D01*
Y76894D01*
X75500Y85000D02*
Y87600D01*
X74740Y84240D02*
X75500Y85000D01*
X57788Y84240D02*
X74740D01*
X57406Y84622D02*
X57788Y84240D01*
X57406Y84622D02*
Y84997D01*
X56900Y77364D02*
Y82300D01*
Y77364D02*
X57370Y76894D01*
X56890Y76413D02*
X57370Y76894D01*
X74500Y85000D02*
Y87600D01*
Y84512D02*
Y85000D01*
X74388Y84400D02*
X74500Y84512D01*
X58514Y84400D02*
X74388D01*
X58406Y84508D02*
X58514Y84400D01*
X58406Y84508D02*
Y84997D01*
X57950Y78880D02*
Y82250D01*
Y78880D02*
X58370Y78460D01*
X57874Y76378D02*
X58370Y76874D01*
X57874Y72469D02*
Y76378D01*
Y72469D02*
X58370Y71972D01*
X73500Y85000D02*
Y87600D01*
X72500Y85000D02*
Y87600D01*
X71500Y85000D02*
Y87600D01*
X83250Y97050D02*
X85500Y99300D01*
X81700Y97050D02*
X83250D01*
X79150Y94500D02*
X81700Y97050D01*
X77300Y94500D02*
X79150D01*
X76500Y93700D02*
X77300Y94500D01*
X49000Y84592D02*
X49406Y84997D01*
X49000Y77500D02*
Y84592D01*
Y77500D02*
X49370Y77130D01*
Y76894D02*
Y77130D01*
X48917Y76441D02*
X49370Y76894D01*
X48917Y72425D02*
Y76441D01*
Y72425D02*
X49370Y71972D01*
X47900Y84492D02*
X48406Y84997D01*
X47900Y77364D02*
Y84492D01*
Y77364D02*
X48370Y76894D01*
X47933Y76457D02*
X48370Y76894D01*
X47933Y72409D02*
Y76457D01*
Y72409D02*
X48370Y71972D01*
X47406Y77299D02*
Y78997D01*
Y77299D02*
X47538D01*
X47775Y77062D01*
Y76726D02*
Y77062D01*
X47538Y76488D02*
X47775Y76726D01*
X47406Y76488D02*
X47538D01*
X47406Y73929D02*
Y76488D01*
X47370Y73894D02*
X47406Y73929D01*
X47370Y72546D02*
Y73894D01*
Y72546D02*
X47775Y72140D01*
Y71805D02*
Y72140D01*
X47370Y71399D02*
X47775Y71805D01*
X47370Y68972D02*
Y71399D01*
X48406Y77299D02*
Y78997D01*
Y77299D02*
X48538D01*
X48775Y77062D01*
Y76726D02*
Y77062D01*
X48538Y76488D02*
X48775Y76726D01*
X48406Y76488D02*
X48538D01*
X48406Y73929D02*
Y76488D01*
X48370Y73894D02*
X48406Y73929D01*
X48370Y72546D02*
Y73894D01*
Y72546D02*
X48775Y72140D01*
Y71805D02*
Y72140D01*
X48370Y71399D02*
X48775Y71805D01*
X48370Y68972D02*
Y71399D01*
X49370Y68972D02*
Y71399D01*
X49775Y71805D01*
Y72140D01*
X49370Y72546D02*
X49775Y72140D01*
X49370Y72546D02*
Y73894D01*
X49406Y76488D02*
X49538D01*
X49775Y76726D01*
Y77062D01*
X49406Y77431D02*
X49775Y77062D01*
X49406Y77431D02*
Y78997D01*
X48300Y87700D02*
X49900Y86100D01*
X50370Y68972D02*
Y71399D01*
X50775Y71805D01*
Y72140D01*
X50370Y72546D02*
X50775Y72140D01*
X50370Y72546D02*
Y73894D01*
X50406Y76488D02*
X50538D01*
X50775Y76726D01*
Y77062D01*
X50538Y77299D02*
X50775Y77062D01*
X50406Y77299D02*
X50538D01*
X50406D02*
Y78997D01*
X51370Y68972D02*
Y71399D01*
X51775Y71805D01*
Y72140D01*
X51370Y72546D02*
X51775Y72140D01*
X51370Y72546D02*
Y73894D01*
X51406Y76488D02*
X51538D01*
X51775Y76726D01*
Y77062D01*
X51406Y77431D02*
X51775Y77062D01*
X51406Y77431D02*
Y78997D01*
X59300Y87400D02*
Y87700D01*
X59080Y87180D02*
X59300Y87400D01*
X53080Y87180D02*
X59080D01*
X51900Y86000D02*
X53080Y87180D01*
X52370Y72546D02*
Y73894D01*
Y72546D02*
X52775Y72140D01*
X52406Y76488D02*
X52538D01*
X52775Y76726D01*
Y77062D01*
X52538Y77299D02*
X52775Y77062D01*
X52406Y77299D02*
X52538D01*
X52406D02*
Y78997D01*
X60300Y87300D02*
Y87700D01*
X60020Y87020D02*
X60300Y87300D01*
X53920Y87020D02*
X60020D01*
X52900Y86000D02*
X53920Y87020D01*
X52900Y82700D02*
Y86000D01*
Y82700D02*
X53400Y82200D01*
Y81500D02*
Y82200D01*
X52406Y80506D02*
X53400Y81500D01*
X52406Y78997D02*
Y80506D01*
X79500Y85000D02*
X80450Y85950D01*
X84500D01*
X74327Y74495D02*
X75273Y73550D01*
X76700D01*
X76850Y73700D01*
X74550Y74718D02*
X75368Y73900D01*
X76400D01*
X80500Y85000D02*
X81290Y85790D01*
X84360D01*
X46850Y76374D02*
X47370Y76894D01*
X46850Y72492D02*
Y76374D01*
Y72492D02*
X47370Y71972D01*
X81500Y85000D02*
X82130Y85630D01*
X83970D01*
X45370Y72546D02*
Y73894D01*
Y72546D02*
X45775Y72140D01*
Y71805D02*
Y72140D01*
X45370Y71399D02*
X45775Y71805D01*
X45370Y68972D02*
Y71399D01*
X75000Y74750D02*
X75400Y74350D01*
X74996Y75164D02*
X75409Y74750D01*
X76750D01*
X82500Y85000D02*
X82970Y85470D01*
X83780D01*
X81063Y83563D02*
X82500Y85000D01*
X55363Y83563D02*
X81063D01*
X54550Y82750D02*
X55363Y83563D01*
X54550Y81350D02*
Y82750D01*
X54200Y81000D02*
X54550Y81350D01*
X46406Y77299D02*
Y78997D01*
Y77299D02*
X46538D01*
X46775Y77062D01*
Y76726D02*
Y77062D01*
X46538Y76488D02*
X46775Y76726D01*
X46406Y76488D02*
X46538D01*
X46406Y73929D02*
Y76488D01*
X46370Y73894D02*
X46406Y73929D01*
X46370Y72546D02*
Y73894D01*
Y72546D02*
X46775Y72140D01*
Y71805D02*
Y72140D01*
X46370Y71399D02*
X46775Y71805D01*
X46370Y68972D02*
Y71399D01*
X53000Y81800D02*
X53100Y81900D01*
X52400Y81800D02*
X53000D01*
X49900Y77364D02*
X50370Y76894D01*
X49902Y72441D02*
X50370Y71972D01*
X49902Y72441D02*
Y76425D01*
X50370Y76894D01*
X52000Y77264D02*
X52370Y76894D01*
X51870Y76394D02*
X52370Y76894D01*
X51870Y72472D02*
Y76394D01*
Y72472D02*
X52370Y71972D01*
X68100Y93700D02*
X68500D01*
X64850Y90450D02*
X68100Y93700D01*
X64850Y87949D02*
Y90450D01*
Y87949D02*
X64865Y87934D01*
Y87289D02*
Y87934D01*
X64616Y87040D02*
X64865Y87289D01*
X61960Y87040D02*
X64616D01*
X61300Y87700D02*
X61960Y87040D01*
X60460Y86860D02*
X61300Y87700D01*
X54760Y86860D02*
X60460D01*
X53811Y85911D02*
X54760Y86860D01*
X53811Y84829D02*
Y85911D01*
X53600Y84619D02*
X53811Y84829D01*
X53600Y79192D02*
Y84619D01*
X53406Y78997D02*
X53600Y79192D01*
X53406Y77299D02*
Y78997D01*
Y77299D02*
X53538D01*
X53775Y77062D01*
Y76726D02*
Y77062D01*
X53538Y76488D02*
X53775Y76726D01*
X53406Y76488D02*
X53538D01*
X53370Y72546D02*
Y73894D01*
Y72546D02*
X53775Y72140D01*
X54406Y77299D02*
Y78997D01*
Y77299D02*
X54538D01*
X54775Y77062D01*
Y76726D02*
Y77062D01*
X54538Y76488D02*
X54775Y76726D01*
X54406Y76488D02*
X54538D01*
X53940Y79463D02*
X54406Y78997D01*
X53940Y79463D02*
Y81108D01*
X54210Y81378D01*
Y82358D01*
X53971Y82597D02*
X54210Y82358D01*
X53971Y82597D02*
Y85521D01*
X55150Y86700D01*
X62350D01*
X69000Y94200D02*
X69500Y93700D01*
X68350Y94200D02*
X69000D01*
X64690Y90540D02*
X68350Y94200D01*
X64690Y87883D02*
Y90540D01*
Y87883D02*
X64705Y87868D01*
Y87355D02*
Y87868D01*
X64550Y87200D02*
X64705Y87355D01*
X62800Y87200D02*
X64550D01*
X62300Y87700D02*
X62800Y87200D01*
X54370Y72546D02*
X54775Y72140D01*
X54370Y72546D02*
Y73894D01*
X59341Y94674D02*
X59515Y94500D01*
X64400Y85950D02*
X64500Y85850D01*
X57341Y98361D02*
X58192Y99212D01*
X59378Y100398D01*
X56341Y98991D02*
X58039Y100689D01*
X79350Y93550D02*
X79450Y93450D01*
X74441Y74050D02*
X75000Y73491D01*
X65500Y78145D02*
X65550D01*
X65605D01*
X65500Y78195D02*
Y79000D01*
X71000Y82750D02*
X72510Y81240D01*
X65500Y79000D02*
X69250Y82750D01*
X71000D01*
X74773Y73159D02*
X75000Y73386D01*
Y73491D01*
X65500Y78195D02*
X65550Y78145D01*
X75400Y74350D02*
X76500D01*
X63850Y78100D02*
Y82450D01*
X75441Y72491D02*
X76050Y73100D01*
X77050D01*
X74270Y98192D02*
X74467Y97995D01*
X74270Y98192D02*
Y98710D01*
X73467Y97995D02*
X73670Y98198D01*
Y98710D01*
X79227Y73159D02*
X82000Y70386D01*
Y70000D02*
Y70386D01*
X82832Y70000D02*
X83000D01*
X79450Y73382D02*
X82832Y70000D01*
X79673Y73605D02*
X82777Y70500D01*
X83500D01*
X84000Y70000D01*
X88800Y86750D02*
X90220D01*
X90630Y87160D01*
X88800Y85750D02*
X90220D01*
X90630Y86160D01*
X88800Y84750D02*
X90220D01*
X90630Y85160D01*
X88800Y83750D02*
X90220D01*
X90630Y84160D01*
X88800Y82750D02*
X90220D01*
X90630Y83160D01*
X88800Y81750D02*
X90220D01*
X90630Y82160D01*
X88800Y80750D02*
X90220D01*
X90630Y81160D01*
X88800Y79750D02*
X90220D01*
X90630Y80160D01*
X88800Y78750D02*
X90220D01*
X90630Y79160D01*
X88800Y77750D02*
X90220D01*
X90630Y78160D01*
X88800Y76750D02*
X90220D01*
X90630Y77160D01*
X88800Y75750D02*
X90220D01*
X90630Y76160D01*
X88800Y74750D02*
X90220D01*
X90630Y75160D01*
X88800Y73750D02*
X90220D01*
X90630Y74160D01*
X88800Y72750D02*
X90220D01*
X90630Y73160D01*
X88800Y87750D02*
X90220D01*
X90630Y88160D01*
X88800Y88750D02*
X90220D01*
X90630Y89160D01*
X88800Y89750D02*
X90220D01*
X90630Y90160D01*
X88800Y90750D02*
X90220D01*
X90630Y91160D01*
X88800Y91750D02*
X90220D01*
X90630Y92160D01*
X88800Y92750D02*
X90220D01*
X90630Y93160D01*
X88800Y93750D02*
X90220D01*
X90630Y94160D01*
X88800Y94750D02*
X90220D01*
X90630Y95160D01*
X88800Y96750D02*
X90220D01*
X90630Y97160D01*
X88800Y97750D02*
X90220D01*
X90630Y98160D01*
X88800Y99750D02*
X90220D01*
X90630Y100160D01*
X88800Y100750D02*
X90220D01*
X90630Y100340D01*
X98220Y86750D02*
X98630Y87160D01*
X98220Y85750D02*
X98630Y86160D01*
X96800Y84750D02*
X98220D01*
X98630Y85160D01*
X96800Y83750D02*
X98220D01*
X98630Y84160D01*
X96800Y82750D02*
X98220D01*
X98630Y83160D01*
X96800Y81750D02*
X98220D01*
X98630Y82160D01*
X96800Y80750D02*
X98220D01*
X98630Y81160D01*
X96800Y79750D02*
X98220D01*
X98630Y80160D01*
X96800Y78750D02*
X98220D01*
X98630Y79160D01*
X98220Y77750D02*
X98630Y78160D01*
X96800Y76750D02*
X98220D01*
X98630Y77160D01*
X98220Y75750D02*
X98630Y76160D01*
X98220Y74750D02*
X98630Y75160D01*
X98220Y73750D02*
X98630Y74160D01*
X96800Y72750D02*
X98220D01*
X98630Y73160D01*
X96800Y87750D02*
X98220D01*
X98630Y88160D01*
X96800Y88750D02*
X98220D01*
X98630Y89160D01*
X96800Y89750D02*
X98220D01*
X98630Y90160D01*
X96800Y90750D02*
X98220D01*
X98630Y91160D01*
X96800Y91750D02*
X98220D01*
X98630Y92160D01*
X96800Y92750D02*
X98220D01*
X98630Y93160D01*
X96800Y93750D02*
X98220D01*
X98630Y94160D01*
X96800Y94750D02*
X98220D01*
X98630Y95160D01*
X96800Y95750D02*
X98220D01*
X98630Y96160D01*
X96800Y96750D02*
X98220D01*
X98630Y97160D01*
X96800Y97750D02*
X98220D01*
X98630Y98160D01*
X96800Y98750D02*
X98220D01*
X98630Y99160D01*
X96800Y99750D02*
X98220D01*
X98630Y100160D01*
X83400Y78250D02*
X83500D01*
X84050Y78800D01*
X85409D01*
X88240Y82190D02*
X88800Y82750D01*
X68500Y85000D02*
Y85805D01*
Y85905D02*
X70005D01*
X70150Y86050D02*
X70550D01*
X70005Y85905D02*
X70150Y86050D01*
X55370Y68972D02*
Y71399D01*
Y72546D02*
Y73894D01*
X55406Y76488D02*
X55538D01*
X55370Y71399D02*
X55775Y71805D01*
Y72140D01*
X55370Y72546D02*
X55775Y72140D01*
X55538Y76488D02*
X55775Y76726D01*
Y77062D01*
X55406Y77299D02*
X55538D01*
X55775Y77062D01*
X55406Y77299D02*
Y82571D01*
X56215Y83380D01*
X73116D01*
X86470Y78890D02*
X86730Y79150D01*
X87850D01*
X88450Y79750D01*
X88800D01*
X73116Y83380D02*
X73228Y83268D01*
X56370Y68972D02*
Y71399D01*
Y72546D02*
Y73894D01*
X56406Y76488D02*
X56538D01*
X56370Y71399D02*
X56775Y71805D01*
Y72140D01*
X56370Y72546D02*
X56775Y72140D01*
X56538Y76488D02*
X56775Y76726D01*
Y77062D01*
X56406Y77299D02*
Y82783D01*
Y77299D02*
X56538D01*
X56775Y77062D01*
X56406Y82783D02*
X56842Y83220D01*
X72908D01*
X86700Y78510D02*
X86940Y78750D01*
X88800D01*
X72908Y83220D02*
X73121Y83008D01*
X74445D01*
X74508Y83071D01*
X57370Y68972D02*
Y71399D01*
Y72546D02*
Y73894D01*
X57406Y76488D02*
X57538D01*
X57370Y71399D02*
X57775Y71805D01*
Y72140D01*
X57370Y72546D02*
X57775Y72140D01*
X57538Y76488D02*
X57775Y76726D01*
Y77062D01*
X57538Y77299D02*
X57775Y77062D01*
X57406Y77299D02*
Y82556D01*
Y77299D02*
X57538D01*
X73091Y82811D02*
X74911D01*
X57900Y83050D02*
X72852D01*
X57406Y82556D02*
X57900Y83050D01*
X72852D02*
X73091Y82811D01*
X86950Y77750D02*
X88800D01*
X74911Y82811D02*
X75300Y83200D01*
X87150Y76750D02*
X88800D01*
X87340Y75750D02*
X88800D01*
X87510Y74750D02*
X88800D01*
X87650Y73750D02*
X88800D01*
X87850Y72750D02*
X88800D01*
X83600Y79000D02*
X83890Y79290D01*
X83500Y79000D02*
X83600D01*
X83890Y79290D02*
X85647D01*
X85677Y79320D01*
X85703D01*
X79227Y74941D02*
X82500Y78214D01*
Y79000D01*
X82950Y79450D01*
X85580D01*
X85610Y79480D01*
X85637D01*
X78782Y75386D02*
X81500Y78105D01*
Y79000D01*
X82110Y79610D01*
X85514D01*
X85544Y79640D01*
X85570D01*
X78559Y75609D02*
X80500Y77550D01*
Y79000D01*
X81270Y79770D01*
X85448D01*
X85478Y79800D01*
X85504D01*
X78114Y76054D02*
X78409Y76350D01*
X78550D01*
X79600Y77400D01*
Y78900D01*
X79500Y79000D02*
X79600Y78900D01*
X79500Y79000D02*
X80430Y79930D01*
X85382D02*
X85412Y79960D01*
X80430Y79930D02*
X85382D01*
X85412Y79960D02*
X85438D01*
X77668Y76500D02*
X77950Y76782D01*
Y76900D01*
X78400Y77350D01*
Y78900D01*
X78500Y79000D01*
X79590Y80090D01*
X85315D02*
X85345Y80120D01*
X79590Y80090D02*
X85315D01*
X85345Y80120D02*
X85372D01*
X77445Y76723D02*
X77600Y76877D01*
Y78900D01*
X77500Y79000D02*
X77600Y78900D01*
X77500Y79000D02*
X78750Y80250D01*
X85249D01*
X85279Y80280D01*
X85305D01*
X76400Y76877D02*
X76555Y76723D01*
X76400Y76877D02*
Y78900D01*
X76500Y79000D01*
X77910Y80410D01*
X85183D01*
X85213Y80440D01*
X85239D01*
X75500Y77332D02*
X76332Y76500D01*
X75500Y77332D02*
Y79000D01*
X77070Y80570D01*
X85117D01*
X85147Y80600D01*
X85173D01*
X74500Y77886D02*
Y79000D01*
Y77886D02*
X76109Y76277D01*
X74500Y79000D02*
X76230Y80730D01*
X85050D01*
X85080Y80760D01*
X85107D01*
X73500Y78441D02*
Y79000D01*
X75390Y80890D01*
X73500Y78441D02*
X75886Y76054D01*
X75390Y80890D02*
X84984D01*
X85014Y80920D01*
X85040D01*
X72800Y77650D02*
Y78700D01*
X74943Y75507D02*
X74961D01*
X72800Y77650D02*
X74943Y75507D01*
X72500Y79000D02*
X72800Y78700D01*
X72500Y79000D02*
X74550Y81050D01*
X84918D01*
X75082Y75386D02*
X75218D01*
X74961Y75507D02*
X75082Y75386D01*
X84918Y81050D02*
X84948Y81080D01*
X84974D01*
X88724Y100750D02*
X88800D01*
X96800Y86750D02*
X98220D01*
X104800D02*
X105000D01*
X96800Y85750D02*
X98220D01*
X55406Y73800D02*
Y76488D01*
X56406Y73800D02*
Y76488D01*
X96800Y77750D02*
X98220D01*
X57406Y73800D02*
Y76488D01*
X58370Y76874D02*
Y78460D01*
X96800Y75750D02*
X98220D01*
X96800Y74750D02*
X98220D01*
X96800Y73750D02*
X98220D01*
X49406Y73800D02*
Y76488D01*
X50406Y73800D02*
Y76488D01*
X51406Y73800D02*
Y76488D01*
X52406Y73800D02*
Y76488D01*
X53406Y73800D02*
Y76488D01*
X54406Y73800D02*
Y76488D01*
X90630Y100160D02*
X90970D01*
X91380Y99750D01*
X96800D01*
X90630Y97160D02*
X90970D01*
X91380Y96750D01*
X96800D01*
X90630Y96160D02*
X90970D01*
X91380Y95750D01*
X96800D01*
X90630Y95160D02*
X90970D01*
X91380Y94750D01*
X96800D01*
X90630Y94160D02*
X90970D01*
X91380Y93750D01*
X96800D01*
X90630Y93160D02*
X90970D01*
X91380Y92750D01*
X96800D01*
X90630Y92160D02*
X90970D01*
X91380Y91750D01*
X96800D01*
X90630Y91160D02*
X90970D01*
X91380Y90750D01*
X96800D01*
X90630Y90160D02*
X90970D01*
X91380Y89750D01*
X96800D01*
X90630Y89160D02*
X90970D01*
X91380Y88750D01*
X96800D01*
X90630Y88160D02*
X90970D01*
X91380Y87750D01*
X96800D01*
X90630Y87160D02*
X90970D01*
X91380Y86750D01*
X96800D01*
X90630Y73160D02*
X90970D01*
X91380Y72750D01*
X96800D01*
X90630Y74160D02*
X90970D01*
X91380Y73750D01*
X96800D01*
X90630Y75160D02*
X90970D01*
X91380Y74750D01*
X96800D01*
X90630Y76160D02*
X90970D01*
X91380Y75750D01*
X96800D01*
X90630Y77160D02*
X90970D01*
X91380Y76750D01*
X96800D01*
X90630Y78160D02*
X90970D01*
X91380Y77750D01*
X96800D01*
X90630Y79160D02*
X90970D01*
X91380Y78750D01*
X96800D01*
X90630Y80160D02*
X90970D01*
X91380Y79750D01*
X96800D01*
X90630Y81160D02*
X90970D01*
X91380Y80750D01*
X96800D01*
X90630Y82160D02*
X90970D01*
X91380Y81750D01*
X96800D01*
X90630Y83160D02*
X90970D01*
X91380Y82750D01*
X96800D01*
X90630Y84160D02*
X90970D01*
X91380Y83750D01*
X96800D01*
X90630Y85160D02*
X90970D01*
X91380Y84750D01*
X96800D01*
X90630Y86160D02*
X90970D01*
X91380Y85750D01*
X96800D01*
X90800D02*
X91154D01*
X91564Y85340D01*
X98036D01*
X98446Y85750D01*
X90800Y84750D02*
X91154D01*
X91564Y84340D01*
X98036D01*
X98446Y84750D01*
X90800Y83750D02*
X91154D01*
X91564Y83340D01*
X98036D01*
X98446Y83750D01*
X90800Y82750D02*
X91154D01*
X91564Y82340D01*
X98036D01*
X98446Y82750D01*
X90800Y81750D02*
X91154D01*
X91564Y81340D01*
X98036D01*
X98446Y81750D01*
X90800Y80750D02*
X91154D01*
X91564Y80340D01*
X98036D01*
X98446Y80750D01*
X90800Y79750D02*
X91154D01*
X91564Y79340D01*
X98036D01*
X98446Y79750D01*
X90800Y78750D02*
X91154D01*
X91564Y78340D01*
X98036D01*
X98446Y78750D01*
X90800Y77750D02*
X91154D01*
X91564Y77340D01*
X98036D01*
X98446Y77750D01*
X90800Y76750D02*
X91154D01*
X91564Y76340D01*
X98036D01*
X98446Y76750D01*
X90800Y75750D02*
X91154D01*
X91564Y75340D01*
X98036D01*
X98446Y75750D01*
X90800Y74750D02*
X91154D01*
X91564Y74340D01*
X98036D01*
X98446Y74750D01*
X90800Y73750D02*
X91154D01*
X91564Y73340D01*
X98036D01*
X98446Y73750D01*
X90800Y72750D02*
X91154D01*
X91564Y72340D01*
X98036D01*
X98446Y72750D01*
X90800Y86750D02*
X91154D01*
X91564Y86340D01*
X98036D01*
X98446Y86750D01*
X90800Y87750D02*
X91154D01*
X91564Y87340D01*
X98036D01*
X98446Y87750D01*
X90800Y88750D02*
X91154D01*
X91564Y88340D01*
X98036D01*
X98446Y88750D01*
X90800Y89750D02*
X91154D01*
X91564Y89340D01*
X98036D01*
X98446Y89750D01*
X90800Y90750D02*
X91154D01*
X91564Y90340D01*
X98036D01*
X98446Y90750D01*
X90800Y91750D02*
X91154D01*
X91564Y91340D01*
X98036D01*
X98446Y91750D01*
X90800Y92750D02*
X91154D01*
X91564Y92340D01*
X98036D01*
X98446Y92750D01*
X90800Y93750D02*
X91154D01*
X91564Y93340D01*
X98036D01*
X98446Y93750D01*
X90800Y94750D02*
X91154D01*
X91564Y94340D01*
X98036D01*
X98446Y94750D01*
X90800Y95750D02*
X91154D01*
X91564Y95340D01*
X98036D01*
X98446Y95750D01*
X90800Y96750D02*
X91154D01*
X91564Y96340D01*
X98036D01*
X98446Y96750D01*
X91564Y97340D02*
X98036D01*
X98446Y97750D01*
X90800Y98750D02*
X91154D01*
X91564Y98340D01*
X98036D01*
X98446Y98750D01*
X90800Y99750D02*
X91154D01*
X91564Y99340D01*
X98036D01*
X98446Y99750D01*
X98630Y100160D02*
X98970D01*
X99380Y99750D01*
X104500D01*
X98630Y99160D02*
X98970D01*
X99380Y98750D01*
X104500D01*
X98630Y98160D02*
X98970D01*
X99380Y97750D01*
X104500D01*
X98630Y97160D02*
X98970D01*
X99380Y96750D01*
X104500D01*
X98630Y96160D02*
X98970D01*
X99380Y95750D01*
X104500D01*
X98630Y95160D02*
X98970D01*
X99380Y94750D01*
X104500D01*
X98630Y94160D02*
X98970D01*
X99380Y93750D01*
X104500D01*
X98630Y93160D02*
X98970D01*
X99380Y92750D01*
X104500D01*
X98630Y92160D02*
X98970D01*
X99380Y91750D01*
X104500D01*
X98630Y91160D02*
X98970D01*
X99380Y90750D01*
X104500D01*
X98630Y90160D02*
X98970D01*
X99380Y89750D01*
X104500D01*
X98630Y89160D02*
X98970D01*
X99380Y88750D01*
X104500D01*
X98630Y88160D02*
X98970D01*
X99380Y87750D01*
X104500D01*
X98630Y87160D02*
X98970D01*
X99380Y86750D01*
X104800D01*
X98630Y73160D02*
X98970D01*
X99380Y72750D01*
X104500D01*
X98630Y74160D02*
X98970D01*
X99380Y73750D01*
X104500D01*
X98630Y75160D02*
X98970D01*
X99380Y74750D01*
X104500D01*
X98630Y76160D02*
X98970D01*
X99380Y75750D01*
X104500D01*
X98630Y77160D02*
X98970D01*
X99380Y76750D01*
X104500D01*
X98630Y78160D02*
X98970D01*
X99380Y77750D01*
X104500D01*
X98630Y79160D02*
X98970D01*
X99380Y78750D01*
X104500D01*
X98630Y80160D02*
X98970D01*
X99380Y79750D01*
X104500D01*
X98630Y81160D02*
X98970D01*
X99380Y80750D01*
X104500D01*
X98630Y82160D02*
X98970D01*
X99380Y81750D01*
X104500D01*
X98630Y83160D02*
X98970D01*
X99380Y82750D01*
X104500D01*
X98630Y84160D02*
X98970D01*
X99380Y83750D01*
X104500D01*
X98630Y85160D02*
X98970D01*
X99380Y84750D01*
X104500D01*
X98630Y86160D02*
X98970D01*
X99380Y85750D01*
X104500D01*
X99154D02*
X99564Y85340D01*
X104970D01*
X105380Y85750D02*
X106500D01*
X104970Y85340D02*
X105380Y85750D01*
X99154Y84750D02*
X99564Y84340D01*
X104970D01*
X105380Y84750D02*
X106500D01*
X104970Y84340D02*
X105380Y84750D01*
X99154Y83750D02*
X99564Y83340D01*
X104970D01*
X105380Y83750D02*
X106500D01*
X104970Y83340D02*
X105380Y83750D01*
X99154Y82750D02*
X99564Y82340D01*
X104970D01*
X105380Y82750D02*
X106500D01*
X104970Y82340D02*
X105380Y82750D01*
X99154Y81750D02*
X99564Y81340D01*
X104970D01*
X105380Y81750D02*
X106500D01*
X104970Y81340D02*
X105380Y81750D01*
X99154Y80750D02*
X99564Y80340D01*
X104970D01*
X105380Y80750D02*
X106500D01*
X104970Y80340D02*
X105380Y80750D01*
X99154Y79750D02*
X99564Y79340D01*
X104970D01*
X105380Y79750D02*
X106500D01*
X104970Y79340D02*
X105380Y79750D01*
X99154Y78750D02*
X99564Y78340D01*
X104970D01*
X105380Y78750D02*
X106500D01*
X104970Y78340D02*
X105380Y78750D01*
X99154Y77750D02*
X99564Y77340D01*
X104970D01*
X105380Y77750D02*
X106500D01*
X104970Y77340D02*
X105380Y77750D01*
X99154Y76750D02*
X99564Y76340D01*
X104970D01*
X105380Y76750D02*
X106500D01*
X104970Y76340D02*
X105380Y76750D01*
X99154Y75750D02*
X99564Y75340D01*
X104970D01*
X105380Y75750D02*
X106500D01*
X104970Y75340D02*
X105380Y75750D01*
X99154Y74750D02*
X99564Y74340D01*
X104970D01*
X105380Y74750D02*
X106500D01*
X104970Y74340D02*
X105380Y74750D01*
X99154Y73750D02*
X99564Y73340D01*
X104970D01*
X105380Y73750D02*
X106500D01*
X104970Y73340D02*
X105380Y73750D01*
X99154Y72750D02*
X99564Y72340D01*
X104970D01*
X105380Y72750D02*
X106500D01*
X104970Y72340D02*
X105380Y72750D01*
Y86750D02*
X106500D01*
X104970Y86340D02*
X105380Y86750D01*
X99154D02*
X99564Y86340D01*
X104970D01*
X99154Y87750D02*
X99564Y87340D01*
X104970D01*
X105380Y87750D02*
X106500D01*
X104970Y87340D02*
X105380Y87750D01*
X99154Y88750D02*
X99564Y88340D01*
X104970D01*
X105380Y88750D02*
X106500D01*
X104970Y88340D02*
X105380Y88750D01*
X99154Y89750D02*
X99564Y89340D01*
X104970D01*
X105380Y89750D02*
X106500D01*
X104970Y89340D02*
X105380Y89750D01*
X99154Y90750D02*
X99564Y90340D01*
X104970D01*
X105380Y90750D02*
X106500D01*
X104970Y90340D02*
X105380Y90750D01*
X99154Y91750D02*
X99564Y91340D01*
X104970D01*
X105380Y91750D02*
X106500D01*
X104970Y91340D02*
X105380Y91750D01*
X99154Y92750D02*
X99564Y92340D01*
X104970D01*
X105380Y92750D02*
X106500D01*
X104970Y92340D02*
X105380Y92750D01*
X99154Y93750D02*
X99564Y93340D01*
X104970D01*
X105380Y93750D02*
X106500D01*
X104970Y93340D02*
X105380Y93750D01*
X99154Y94750D02*
X99564Y94340D01*
X104970D01*
X105380Y94750D02*
X106500D01*
X104970Y94340D02*
X105380Y94750D01*
X98800Y95750D02*
X99154D01*
X99564Y95340D01*
X104970D01*
X105380Y95750D02*
X106500D01*
X104970Y95340D02*
X105380Y95750D01*
X98800Y96750D02*
X99154D01*
X99564Y96340D01*
X104970D01*
X105380Y96750D02*
X106500D01*
X104970Y96340D02*
X105380Y96750D01*
X98800Y97750D02*
X99154D01*
X99564Y97340D01*
X104970D01*
X105380Y97750D02*
X106500D01*
X104970Y97340D02*
X105380Y97750D01*
X98800Y98750D02*
X99154D01*
X99564Y98340D01*
X104970D01*
X105380Y98750D02*
X106500D01*
X104970Y98340D02*
X105380Y98750D01*
X98800Y99750D02*
X99154D01*
X99564Y99340D01*
X104970D01*
X105380Y99750D02*
X106500D01*
X104970Y99340D02*
X105380Y99750D01*
X75430Y71400D02*
X75480Y71450D01*
Y71639D01*
X75886Y72046D01*
X75760Y71380D02*
Y71474D01*
X76109Y71823D01*
X76217Y71040D02*
X76555Y71377D01*
X74305Y71800D02*
X74760Y72255D01*
X75218Y72714D02*
X75264D01*
X74760Y72255D02*
X75218Y72714D01*
X45950Y68550D02*
X46530Y67970D01*
X58620D01*
X45950Y68550D02*
Y71552D01*
X58620Y67970D02*
X59730Y69080D01*
Y69680D01*
X60050Y70000D01*
X45950Y71552D02*
X46370Y71972D01*
X45965Y76488D02*
X46370Y76894D01*
X45965Y72378D02*
X46370Y71972D01*
X45965Y72378D02*
Y76488D01*
X79080Y71601D02*
Y72415D01*
X78782Y72714D02*
X79080Y72415D01*
X51522Y68247D02*
X51639Y68130D01*
X58553D02*
X58671Y68247D01*
X51639Y68130D02*
X58553D01*
X50900Y68869D02*
X51522Y68247D01*
X50900Y68869D02*
Y71502D01*
X58671Y68247D02*
X59240Y68817D01*
X59570Y69147D01*
Y69746D01*
X59984Y70160D01*
X77949Y70696D02*
Y70939D01*
X78630Y71620D01*
X50886Y72457D02*
Y76409D01*
X50900Y71502D02*
X51370Y71972D01*
X50886Y72457D02*
X51370Y71972D01*
X50886Y76409D02*
X51370Y76894D01*
X50900Y77600D02*
X51370Y77130D01*
Y76894D02*
Y77130D01*
X50900Y77600D02*
Y84492D01*
X78336Y72268D02*
X78630Y71975D01*
Y71620D02*
Y71975D01*
X50900Y84492D02*
X51406Y84997D01*
X98446Y85750D02*
X98800D01*
X99154D01*
X98446Y84750D02*
X98800D01*
X99154D01*
X98446Y83750D02*
X98800D01*
X99154D01*
X98446Y82750D02*
X98800D01*
X99154D01*
X98446Y81750D02*
X98800D01*
X99154D01*
X98446Y80750D02*
X98800D01*
X99154D01*
X98446Y79750D02*
X98800D01*
X99154D01*
X98446Y78750D02*
X98800D01*
X99154D01*
X98446Y77750D02*
X98800D01*
X99154D01*
X98446Y76750D02*
X98800D01*
X99154D01*
X98446Y75750D02*
X98800D01*
X99154D01*
X98446Y74750D02*
X98800D01*
X99154D01*
X98446Y73750D02*
X98800D01*
X99154D01*
X98446Y72750D02*
X98800D01*
X99154D01*
X98446Y86750D02*
X98800D01*
X99154D01*
X98446Y87750D02*
X98800D01*
X99154D01*
X98446Y88750D02*
X98800D01*
X99154D01*
X98446Y89750D02*
X98800D01*
X99154D01*
X98446Y90750D02*
X98800D01*
X99154D01*
X98446Y91750D02*
X98800D01*
X99154D01*
X98446Y92750D02*
X98800D01*
X99154D01*
X98446Y93750D02*
X98800D01*
X99154D01*
X98446Y94750D02*
X98800D01*
X99154D01*
X98446Y95750D02*
X98800D01*
X98446Y96750D02*
X98800D01*
X98446Y97750D02*
X98800D01*
X98446Y98750D02*
X98800D01*
X98446Y99750D02*
X98800D01*
X90630Y100340D02*
X90970D01*
X91380Y100750D01*
X96800D01*
X98220D01*
X98630Y100340D01*
X98050Y101500D02*
X98800Y100750D01*
X91500Y101500D02*
X98050D01*
X91000Y101000D02*
X91500Y101500D01*
X98630Y100340D02*
X98970D01*
X99380Y100750D01*
X104500D01*
X98800D02*
X99550Y101500D01*
X106000D01*
X90800Y97750D02*
X91154D01*
X91564Y97340D01*
X91380Y97750D02*
X96800D01*
X90630Y98160D02*
X90970D01*
X91380Y97750D01*
Y98750D02*
X96800D01*
X88800D02*
X90220D01*
X90970Y99160D02*
X91380Y98750D01*
X90220D02*
X90630Y99160D01*
X90970D01*
X90220Y95750D02*
X90630Y96160D01*
X88800Y95750D02*
X90220D01*
X70467Y97995D02*
Y98967D01*
X73000Y96462D02*
X74467Y94995D01*
X73000Y99750D02*
X73764Y100514D01*
Y102368D01*
X75000Y95462D02*
X75467Y94995D01*
X75000Y95462D02*
Y100250D01*
X74311Y100939D02*
X75000Y100250D01*
X73000Y96462D02*
Y99750D01*
X72467Y97995D02*
Y98633D01*
X72300Y98800D02*
X72467Y98633D01*
X73217Y101250D02*
Y102717D01*
X73500Y103000D01*
X75500D01*
X75750Y102750D01*
Y102571D02*
Y102750D01*
X75953Y101797D02*
Y102368D01*
Y101797D02*
X76500Y101250D01*
X106000Y101500D02*
X106568Y100932D01*
X106618D01*
X106800Y100750D01*
X49090Y101070D02*
Y101240D01*
Y101070D02*
X49100Y101060D01*
Y100650D02*
Y101060D01*
Y100650D02*
X49500Y100250D01*
X53300Y93700D02*
Y94474D01*
X53340Y94514D01*
X52300Y93700D02*
X53180Y94580D01*
X53500Y94500D02*
X54300Y93700D01*
X54300Y94700D02*
X55300Y93700D01*
X53700Y94700D02*
X54300D01*
X49900Y101060D02*
X49910Y101070D01*
X49900Y100850D02*
Y101060D01*
Y100850D02*
X50500Y100250D01*
X49910Y101070D02*
Y101690D01*
X50500Y101250D02*
Y101700D01*
X51000Y100500D02*
Y101700D01*
Y100500D02*
X51200Y100300D01*
X51450D01*
X51500Y101250D02*
Y101800D01*
X53700Y94700D02*
Y94895D01*
X53500Y94500D02*
Y94921D01*
X53340Y94514D02*
Y94987D01*
X53180Y94580D02*
Y95054D01*
X53440Y95314D01*
X53340Y94987D02*
X53600Y95247D01*
X53500Y94921D02*
X53760Y95181D01*
X53700Y94895D02*
X53920Y95115D01*
X53440Y95314D02*
Y98565D01*
X53600Y95247D02*
Y98631D01*
X53760Y95181D02*
Y98698D01*
X53920Y95115D02*
Y98764D01*
X48500Y100250D02*
X48567D01*
X49097Y99720D01*
X52964D02*
X53920Y98764D01*
X52898Y99560D02*
X53760Y98698D01*
X52831Y99400D02*
X53600Y98631D01*
X52765Y99240D02*
X53440Y98565D01*
X52633Y98920D02*
X53120Y98433D01*
X52500Y98600D02*
X52800Y98300D01*
X52566Y98760D02*
X52960Y98366D01*
X52699Y99080D02*
X53280Y98499D01*
X49097Y99720D02*
X52964D01*
X47900Y98600D02*
X52500D01*
X47966Y98760D02*
X52566D01*
X48033Y98920D02*
X52633D01*
X48099Y99080D02*
X52699D01*
X48165Y99240D02*
X52765D01*
X48231Y99400D02*
X52831D01*
X48298Y99560D02*
X52898D01*
X47290Y99436D02*
X47966Y98760D01*
X47450Y99503D02*
X48033Y98920D01*
X47610Y99569D02*
X48099Y99080D01*
X47770Y99635D02*
X48165Y99240D01*
X47930Y99701D02*
X48231Y99400D01*
X48090Y99768D02*
X48298Y99560D01*
X48090Y99768D02*
Y100840D01*
X48500Y101250D01*
X47130Y99370D02*
X47900Y98600D01*
X47130Y99370D02*
Y101630D01*
X47290Y99436D02*
Y101564D01*
X47450Y99503D02*
Y101497D01*
X47610Y99569D02*
Y101431D01*
X47770Y99635D02*
Y101365D01*
X47930Y99701D02*
Y101299D01*
X48670Y101660D02*
X49090Y101240D01*
X47960Y102460D02*
X50840D01*
X47290Y101564D02*
X48026Y102300D01*
X50400D01*
X51000Y101700D01*
X47450Y101497D02*
X48093Y102140D01*
X50060D01*
X50500Y101700D01*
X47610Y101431D02*
X48159Y101980D01*
X49620D01*
X49910Y101690D01*
X47770Y101365D02*
X48225Y101820D01*
X48930D01*
X49500Y101250D01*
X47930Y101299D02*
X48291Y101660D01*
X48670D01*
X47130Y101630D02*
X47960Y102460D01*
X50840D02*
X51500Y101800D01*
X48300Y93700D02*
Y93900D01*
X50600Y94000D02*
X51027D01*
X50300Y93700D02*
X50600Y94000D01*
X49760Y94160D02*
X50961D01*
X49300Y93700D02*
X49760Y94160D01*
X48300Y93900D02*
X48720Y94320D01*
X50894D01*
X52800Y96226D01*
Y98300D01*
X50961Y94160D02*
X52960Y96159D01*
Y98366D01*
X51027Y94000D02*
X53120Y96093D01*
Y98433D01*
X51300Y93700D02*
Y94000D01*
X53280Y95980D01*
Y98499D01*
X86000Y99200D02*
X88150Y101350D01*
X86160Y98186D02*
X88724Y100750D01*
X86320Y97270D02*
X88800Y99750D01*
X86480Y96430D02*
X88800Y98750D01*
X86640Y95590D02*
X88800Y97750D01*
X86800Y94750D02*
X88800Y96750D01*
X86960Y93910D02*
X88800Y95750D01*
X87120Y93070D02*
X88800Y94750D01*
X87280Y92230D02*
X88800Y93750D01*
X87440Y91390D02*
X88800Y92750D01*
X87600Y90550D02*
X88800Y91750D01*
X87760Y89710D02*
X88800Y90750D01*
X87920Y88870D02*
X88800Y89750D01*
X88080Y83030D02*
X88800Y83750D01*
X88080Y81471D02*
Y83030D01*
X87920Y81537D02*
Y88870D01*
X87760Y81603D02*
Y89710D01*
X87600Y81670D02*
Y90550D01*
X87440Y81736D02*
Y91390D01*
X87280Y81802D02*
Y92230D01*
X87120Y81868D02*
Y93070D01*
X86960Y81935D02*
Y93910D01*
X86800Y82001D02*
Y94750D01*
X86640Y82067D02*
Y95590D01*
X86480Y82133D02*
Y96430D01*
X86320Y82200D02*
Y97270D01*
X84908Y81240D02*
X86000Y82332D01*
Y99200D01*
X84974Y81080D02*
X86160Y82266D01*
Y98186D01*
X85040Y80920D02*
X86320Y82200D01*
X85107Y80760D02*
X86480Y82133D01*
X85173Y80600D02*
X86640Y82067D01*
X85239Y80440D02*
X86800Y82001D01*
X85305Y80280D02*
X86960Y81935D01*
X85372Y80120D02*
X87120Y81868D01*
X85438Y79960D02*
X87280Y81802D01*
X85504Y79800D02*
X87440Y81736D01*
X85570Y79640D02*
X87600Y81670D01*
X85637Y79480D02*
X87760Y81603D01*
X85703Y79320D02*
X87920Y81537D01*
X85409Y78800D02*
X88080Y81471D01*
X88240Y81404D02*
Y82190D01*
X86200Y79138D02*
X88400Y81338D01*
Y81350D01*
X88800Y81750D01*
X86200Y78050D02*
Y79138D01*
X51900Y84718D02*
Y86000D01*
X51406Y84224D02*
X51900Y84718D01*
X51406Y78997D02*
Y84224D01*
X52000Y77264D02*
Y84592D01*
X52406Y84997D01*
X49406Y78997D02*
Y84231D01*
X49900Y84725D01*
Y86100D01*
Y77364D02*
Y84492D01*
X50406Y84997D01*
X83500Y78768D02*
Y79000D01*
X79450Y74718D02*
X83500Y78768D01*
X40600Y90000D02*
X40000D01*
X40300D01*
Y89600D01*
X40600D01*
X40000D01*
X40600Y89400D02*
Y89000D01*
Y89200D01*
X40000D01*
X40600Y88800D02*
Y88401D01*
Y88600D01*
X40000D01*
Y88201D02*
X40600D01*
Y87901D01*
X40500Y87801D01*
X40300D01*
X40200Y87901D01*
Y88201D01*
X40400Y87601D02*
Y87501D01*
X40300D01*
Y87601D01*
X40400D01*
X40100D02*
Y87501D01*
X40000D01*
Y87601D01*
X40100D01*
X40000Y87101D02*
X40400Y86701D01*
X40000Y86501D02*
X40400Y86101D01*
X40600Y85901D02*
X40000D01*
X40200Y85701D01*
X40000Y85501D01*
X40600D01*
Y85302D02*
X40000D01*
X40200Y85102D01*
X40000Y84902D01*
X40600D01*
Y84702D02*
X40000D01*
X40200Y84502D01*
X40000Y84302D01*
X40600D01*
X40000Y84102D02*
X40100D01*
Y84002D01*
X40000D01*
Y84102D01*
X40500Y83202D02*
X40600Y83302D01*
Y83502D01*
X40500Y83602D01*
X40100D01*
X40000Y83502D01*
Y83302D01*
X40100Y83202D01*
X40000Y83002D02*
X40400D01*
X40600Y82802D01*
X40400Y82602D01*
X40000D01*
X40300D01*
Y83002D01*
X40500Y82003D02*
X40600Y82103D01*
Y82302D01*
X40500Y82402D01*
X40100D01*
X40000Y82302D01*
Y82103D01*
X40100Y82003D01*
X40600Y81803D02*
Y81403D01*
Y81603D01*
X40000D01*
X40600Y81203D02*
X40100D01*
X40000Y81103D01*
Y80903D01*
X40100Y80803D01*
X40600D01*
X40000Y80603D02*
X40400D01*
X40600Y80403D01*
X40400Y80203D01*
X40000D01*
X40300D01*
Y80603D01*
X40000Y80003D02*
X40600D01*
Y79703D01*
X40500Y79603D01*
X40300D01*
X40200Y79703D01*
Y80003D01*
Y79803D02*
X40000Y79603D01*
Y79403D02*
X40100D01*
Y79303D01*
X40000D01*
Y79403D01*
Y78904D02*
X40600D01*
X40000Y78504D01*
X40600D01*
Y77904D02*
Y78304D01*
X40000D01*
Y77904D01*
X40300Y78304D02*
Y78104D01*
X40600Y77704D02*
Y77304D01*
Y77504D01*
X40000D01*
X38000Y105050D02*
X110000D01*
X38000Y66000D02*
X110000D01*
X38000D02*
Y105050D01*
X110000Y66000D02*
Y105050D01*
D24*
X42655Y100572D02*
X44039Y101956D01*
X47800Y97784D02*
X50600D01*
X43616D02*
X47800D01*
Y96300D02*
Y97784D01*
X41400Y98800D02*
Y99861D01*
Y96456D02*
Y98800D01*
X42600D01*
X43616Y97784D01*
X42110Y100572D02*
X42655D01*
X43616Y97784D02*
X44000Y97400D01*
X47800Y95700D02*
X50484D01*
X46700D02*
X47800D01*
X45400Y97000D02*
X46700Y95700D01*
X45000Y97000D02*
X45400D01*
X44000D02*
Y97400D01*
X41400Y99861D02*
X42110Y100572D01*
X42050Y95800D02*
Y96050D01*
Y95200D02*
Y95800D01*
X41456D02*
X42050D01*
Y96050D02*
X43000Y97000D01*
X62300Y73600D02*
Y74100D01*
X62200Y73500D02*
X62300Y73600D01*
X62200Y72600D02*
Y73500D01*
X61700Y72600D02*
Y74100D01*
X104800Y70750D02*
X106750D01*
X104800Y71750D02*
X106800D01*
X96800Y70750D02*
X98750D01*
X96800Y71750D02*
X98800D01*
X88800Y70750D02*
X90800D01*
X88800Y71750D02*
X90800D01*
X87550Y70750D02*
X88800D01*
X95550D02*
X96800D01*
X95550Y70750D02*
X95550Y70750D01*
X95550Y71350D02*
X95950Y71750D01*
X96800D01*
X87550Y71400D02*
X87900Y71750D01*
X88800D01*
X103550Y70750D02*
X104800D01*
X103550Y70750D02*
X103550Y70750D01*
X103950Y71750D02*
X104800D01*
X103550Y71350D02*
X103950Y71750D01*
X71500Y98900D02*
Y100628D01*
X72122Y101250D01*
D25*
X58561Y100689D02*
D03*
Y101674D02*
D03*
X59378D02*
D03*
X60412D02*
D03*
X61239D02*
D03*
Y100689D02*
D03*
D26*
X57333Y102894D02*
D03*
D27*
X59900Y103150D02*
D03*
D28*
X62467Y102894D02*
D03*
D29*
X45000Y97000D02*
D03*
X44000D02*
D03*
D30*
X43000D02*
D03*
D31*
X64300Y93700D02*
D03*
X82500Y96300D02*
D03*
X81750Y72300D02*
D03*
X64341Y98361D02*
D03*
X45370Y73894D02*
D03*
Y68972D02*
D03*
X77467Y97995D02*
D03*
X64500Y79000D02*
D03*
X81500Y93700D02*
D03*
D32*
X63300D02*
D03*
X62300D02*
D03*
X61300D02*
D03*
X60300D02*
D03*
X59300D02*
D03*
X58300D02*
D03*
X57300D02*
D03*
X56300D02*
D03*
X55300D02*
D03*
X54300D02*
D03*
X53300D02*
D03*
X52300D02*
D03*
X51300D02*
D03*
X50300D02*
D03*
X49300D02*
D03*
X48300D02*
D03*
X47300D02*
D03*
X46300D02*
D03*
X45300D02*
D03*
X64300Y87700D02*
D03*
X63300D02*
D03*
X62300D02*
D03*
X61300D02*
D03*
X60300D02*
D03*
X59300D02*
D03*
X58300D02*
D03*
X57300D02*
D03*
X56300D02*
D03*
X55300D02*
D03*
X54300D02*
D03*
X53300D02*
D03*
X52300D02*
D03*
X51300D02*
D03*
X50300D02*
D03*
X49300D02*
D03*
X48300D02*
D03*
X47300D02*
D03*
X46300D02*
D03*
X45300D02*
D03*
X85500Y99300D02*
D03*
X82500D02*
D03*
X85500Y96300D02*
D03*
X84750Y72300D02*
D03*
X81750Y75300D02*
D03*
X84750D02*
D03*
X63341Y98361D02*
D03*
X62341D02*
D03*
X61341D02*
D03*
X60341D02*
D03*
X59341D02*
D03*
X58341D02*
D03*
X57341D02*
D03*
X56341D02*
D03*
X55341D02*
D03*
X64341Y95361D02*
D03*
X63341D02*
D03*
X62341D02*
D03*
X61341D02*
D03*
X60341D02*
D03*
X59341D02*
D03*
X58341D02*
D03*
X57341D02*
D03*
X56341D02*
D03*
X55341D02*
D03*
X46370Y73894D02*
D03*
X47370D02*
D03*
X48370D02*
D03*
X49370D02*
D03*
X50370D02*
D03*
X51370D02*
D03*
X52370D02*
D03*
X53370D02*
D03*
X54370D02*
D03*
X55370D02*
D03*
X56370D02*
D03*
X57370D02*
D03*
X58370D02*
D03*
X45370Y76894D02*
D03*
X46370D02*
D03*
X47370D02*
D03*
X48370D02*
D03*
X49370D02*
D03*
X50370D02*
D03*
X51370D02*
D03*
X52370D02*
D03*
X53370D02*
D03*
X54370D02*
D03*
X55370D02*
D03*
X56370D02*
D03*
X57370D02*
D03*
X58370D02*
D03*
X46370Y68972D02*
D03*
X47370D02*
D03*
X48370D02*
D03*
X49370D02*
D03*
X50370D02*
D03*
X51370D02*
D03*
X52370D02*
D03*
X53370D02*
D03*
X54370D02*
D03*
X55370D02*
D03*
X56370D02*
D03*
X57370D02*
D03*
X58370D02*
D03*
X45370Y71972D02*
D03*
X46370D02*
D03*
X47370D02*
D03*
X48370D02*
D03*
X49370D02*
D03*
X50370D02*
D03*
X51370D02*
D03*
X52370D02*
D03*
X53370D02*
D03*
X54370D02*
D03*
X55370D02*
D03*
X56370D02*
D03*
X57370D02*
D03*
X58370D02*
D03*
X76467Y97995D02*
D03*
X75467D02*
D03*
X74467D02*
D03*
X73467D02*
D03*
X72467D02*
D03*
X71467D02*
D03*
X70467D02*
D03*
X77467Y94995D02*
D03*
X76467D02*
D03*
X75467D02*
D03*
X74467D02*
D03*
X73467D02*
D03*
X72467D02*
D03*
X71467D02*
D03*
X70467D02*
D03*
X83500Y85000D02*
D03*
X82500D02*
D03*
X81500D02*
D03*
X80500D02*
D03*
X79500D02*
D03*
X78500D02*
D03*
X77500D02*
D03*
X76500D02*
D03*
X75500D02*
D03*
X74500D02*
D03*
X73500D02*
D03*
X72500D02*
D03*
X71500D02*
D03*
X70500D02*
D03*
X69500D02*
D03*
X68500D02*
D03*
X67500D02*
D03*
X66500D02*
D03*
X65500D02*
D03*
X64500D02*
D03*
X83500Y79000D02*
D03*
X82500D02*
D03*
X81500D02*
D03*
X80500D02*
D03*
X79500D02*
D03*
X78500D02*
D03*
X77500D02*
D03*
X76500D02*
D03*
X75500D02*
D03*
X74500D02*
D03*
X73500D02*
D03*
X72500D02*
D03*
X71500D02*
D03*
X70500D02*
D03*
X69500D02*
D03*
X68500D02*
D03*
X67500D02*
D03*
X66500D02*
D03*
X65500D02*
D03*
X80500Y93700D02*
D03*
X79500D02*
D03*
X78500D02*
D03*
X77500D02*
D03*
X76500D02*
D03*
X75500D02*
D03*
X74500D02*
D03*
X73500D02*
D03*
X72500D02*
D03*
X71500D02*
D03*
X70500D02*
D03*
X69500D02*
D03*
X68500D02*
D03*
X81500Y87700D02*
D03*
X80500D02*
D03*
X79500D02*
D03*
X78500D02*
D03*
X77500D02*
D03*
X76500D02*
D03*
X75500D02*
D03*
X74500D02*
D03*
X73500D02*
D03*
X72500D02*
D03*
X71500D02*
D03*
X70500D02*
D03*
X69500D02*
D03*
X68500D02*
D03*
D33*
X104800Y100750D02*
D03*
X96800D02*
D03*
X88800D02*
D03*
D34*
X106800D02*
D03*
X104800Y99750D02*
D03*
X106800D02*
D03*
X104800Y98750D02*
D03*
X106800D02*
D03*
X104800Y97750D02*
D03*
X106800D02*
D03*
X104800Y96750D02*
D03*
X106800D02*
D03*
X104800Y95750D02*
D03*
X106800D02*
D03*
X104800Y94750D02*
D03*
X106800D02*
D03*
X104800Y93750D02*
D03*
X106800D02*
D03*
X104800Y92750D02*
D03*
X106800D02*
D03*
X104800Y91750D02*
D03*
X106800D02*
D03*
X104800Y90750D02*
D03*
X106800D02*
D03*
X104800Y89750D02*
D03*
X106800D02*
D03*
X104800Y88750D02*
D03*
X106800D02*
D03*
X104800Y87750D02*
D03*
X106800D02*
D03*
X104800Y86750D02*
D03*
X106800D02*
D03*
X104800Y85750D02*
D03*
X106800D02*
D03*
X104800Y84750D02*
D03*
X106800D02*
D03*
X104800Y83750D02*
D03*
X106800D02*
D03*
X104800Y82750D02*
D03*
X106800D02*
D03*
X104800Y81750D02*
D03*
X106800D02*
D03*
X104800Y80750D02*
D03*
X106800D02*
D03*
X104800Y79750D02*
D03*
X106800D02*
D03*
X104800Y78750D02*
D03*
X106800D02*
D03*
X104800Y77750D02*
D03*
X106800D02*
D03*
X104800Y76750D02*
D03*
X106800D02*
D03*
X104800Y75750D02*
D03*
X106800D02*
D03*
X104800Y74750D02*
D03*
X106800D02*
D03*
X104800Y73750D02*
D03*
X106800D02*
D03*
X104800Y72750D02*
D03*
X106800D02*
D03*
X104800Y71750D02*
D03*
X106800D02*
D03*
X104800Y70750D02*
D03*
X106800D02*
D03*
X98800Y100750D02*
D03*
X96800Y99750D02*
D03*
X98800D02*
D03*
X96800Y98750D02*
D03*
X98800D02*
D03*
X96800Y97750D02*
D03*
X98800D02*
D03*
X96800Y96750D02*
D03*
X98800D02*
D03*
X96800Y95750D02*
D03*
X98800D02*
D03*
X96800Y94750D02*
D03*
X98800D02*
D03*
X96800Y93750D02*
D03*
X98800D02*
D03*
X96800Y92750D02*
D03*
X98800D02*
D03*
X96800Y91750D02*
D03*
X98800D02*
D03*
X96800Y90750D02*
D03*
X98800D02*
D03*
X96800Y89750D02*
D03*
X98800D02*
D03*
X96800Y88750D02*
D03*
X98800D02*
D03*
X96800Y87750D02*
D03*
X98800D02*
D03*
X96800Y86750D02*
D03*
X98800D02*
D03*
X96800Y85750D02*
D03*
X98800D02*
D03*
X96800Y84750D02*
D03*
X98800D02*
D03*
X96800Y83750D02*
D03*
X98800D02*
D03*
X96800Y82750D02*
D03*
X98800D02*
D03*
X96800Y81750D02*
D03*
X98800D02*
D03*
X96800Y80750D02*
D03*
X98800D02*
D03*
X96800Y79750D02*
D03*
X98800D02*
D03*
X96800Y78750D02*
D03*
X98800D02*
D03*
X96800Y77750D02*
D03*
X98800D02*
D03*
X96800Y76750D02*
D03*
X98800D02*
D03*
X96800Y75750D02*
D03*
X98800D02*
D03*
X96800Y74750D02*
D03*
X98800D02*
D03*
X96800Y73750D02*
D03*
X98800D02*
D03*
X96800Y72750D02*
D03*
X98800D02*
D03*
X96800Y71750D02*
D03*
X98800D02*
D03*
X96800Y70750D02*
D03*
X98800D02*
D03*
X88800Y99750D02*
D03*
Y98750D02*
D03*
Y97750D02*
D03*
Y96750D02*
D03*
Y95750D02*
D03*
Y94750D02*
D03*
Y93750D02*
D03*
Y92750D02*
D03*
Y91750D02*
D03*
Y90750D02*
D03*
Y89750D02*
D03*
Y88750D02*
D03*
Y87750D02*
D03*
Y86750D02*
D03*
Y72750D02*
D03*
Y73750D02*
D03*
Y74750D02*
D03*
Y75750D02*
D03*
Y76750D02*
D03*
Y77750D02*
D03*
Y78750D02*
D03*
Y79750D02*
D03*
Y80750D02*
D03*
Y81750D02*
D03*
Y82750D02*
D03*
Y83750D02*
D03*
Y84750D02*
D03*
Y85750D02*
D03*
X90800Y100750D02*
D03*
Y99750D02*
D03*
Y98750D02*
D03*
Y97750D02*
D03*
Y96750D02*
D03*
Y95750D02*
D03*
Y94750D02*
D03*
Y93750D02*
D03*
Y92750D02*
D03*
Y91750D02*
D03*
Y90750D02*
D03*
Y89750D02*
D03*
Y88750D02*
D03*
Y87750D02*
D03*
Y86750D02*
D03*
Y85750D02*
D03*
Y84750D02*
D03*
Y83750D02*
D03*
Y82750D02*
D03*
Y81750D02*
D03*
Y80750D02*
D03*
Y79750D02*
D03*
Y78750D02*
D03*
Y77750D02*
D03*
Y76750D02*
D03*
Y75750D02*
D03*
Y74750D02*
D03*
Y73750D02*
D03*
Y72750D02*
D03*
X88800Y71750D02*
D03*
X90800D02*
D03*
X88800Y70750D02*
D03*
X90800D02*
D03*
X82000Y70000D02*
D03*
X83000D02*
D03*
X84000D02*
D03*
X48500Y101250D02*
D03*
X49500Y100250D02*
D03*
Y101250D02*
D03*
X50500Y100250D02*
D03*
Y101250D02*
D03*
X51500Y100250D02*
D03*
Y101250D02*
D03*
X52500Y100250D02*
D03*
Y101250D02*
D03*
X53500Y100250D02*
D03*
Y101250D02*
D03*
X54500Y100250D02*
D03*
Y101250D02*
D03*
D35*
X108000Y103000D02*
D03*
X65000Y68000D02*
D03*
Y103000D02*
D03*
X86000Y68000D02*
D03*
Y103000D02*
D03*
X108000Y68000D02*
D03*
X40000Y68000D02*
D03*
Y103000D02*
D03*
X79230Y101809D02*
D03*
X69392D02*
D03*
X44039Y101956D02*
D03*
X42110Y100572D02*
D03*
X44033Y99594D02*
D03*
D36*
X62200Y72600D02*
D03*
X61700D02*
D03*
D37*
X61200D02*
D03*
D38*
X67750Y96250D02*
D03*
D39*
X66750D02*
D03*
X67750Y97250D02*
D03*
X66750D02*
D03*
X67750Y98250D02*
D03*
X66750D02*
D03*
D40*
X67000Y73500D02*
D03*
Y74500D02*
D03*
X68000Y73500D02*
D03*
Y74500D02*
D03*
X69000Y73500D02*
D03*
Y74500D02*
D03*
X70000Y73500D02*
D03*
Y74500D02*
D03*
X71000Y73500D02*
D03*
D41*
Y74500D02*
D03*
D42*
X60400Y69400D02*
D03*
X62959D02*
D03*
Y71172D02*
D03*
X60400D02*
D03*
D43*
X76500Y101250D02*
D03*
X75953Y102368D02*
D03*
X75406Y101250D02*
D03*
X74858Y102368D02*
D03*
X74311Y101250D02*
D03*
X73764Y102368D02*
D03*
X73217Y101250D02*
D03*
X72669Y102368D02*
D03*
X72122Y101250D02*
D03*
D44*
X48500Y100250D02*
D03*
D45*
X45550Y95200D02*
D03*
X42050D02*
D03*
D46*
X45406Y78997D02*
D03*
D47*
X46406D02*
D03*
X47406D02*
D03*
X48406D02*
D03*
X49406D02*
D03*
X50406D02*
D03*
X51406D02*
D03*
X52406D02*
D03*
X53406D02*
D03*
X54406D02*
D03*
X55406D02*
D03*
X56406D02*
D03*
X57406D02*
D03*
X58406D02*
D03*
X45406Y84997D02*
D03*
X46406D02*
D03*
X47406D02*
D03*
X48406D02*
D03*
X49406D02*
D03*
X50406D02*
D03*
X51406D02*
D03*
X52406D02*
D03*
X53406D02*
D03*
X54406D02*
D03*
X55406D02*
D03*
X56406D02*
D03*
X57406D02*
D03*
X58406D02*
D03*
D48*
X50600Y97784D02*
D03*
D49*
Y95816D02*
D03*
D50*
X85000Y81850D02*
D03*
X84450Y81900D02*
D03*
X85350Y82200D02*
D03*
X84160Y82220D02*
D03*
X84740D02*
D03*
X86470Y78890D02*
D03*
X86700Y78510D02*
D03*
X86950Y77750D02*
D03*
X87150Y76750D02*
D03*
X87320Y75770D02*
D03*
X87480Y74780D02*
D03*
X87640Y73760D02*
D03*
X87780Y72730D02*
D03*
D51*
X84050Y78450D02*
D03*
X74068Y72900D02*
D03*
X59000Y82200D02*
D03*
X55755Y99745D02*
D03*
X68500Y87000D02*
D03*
X77500Y75300D02*
D03*
X80150Y75000D02*
D03*
X78100Y72950D02*
D03*
X63850Y78100D02*
D03*
Y82450D02*
D03*
X47700Y86200D02*
D03*
X68000Y85300D02*
D03*
X70100Y82400D02*
D03*
X63900Y90200D02*
D03*
X79450Y92100D02*
D03*
X65550Y94500D02*
D03*
X80150Y94750D02*
D03*
X42950Y85050D02*
D03*
X43765Y72965D02*
D03*
X79300Y78000D02*
D03*
X79441Y75600D02*
D03*
X80450Y71500D02*
D03*
X76100Y75395D02*
D03*
X74000Y77050D02*
D03*
X72200Y77500D02*
D03*
X53950Y82250D02*
D03*
X54900Y82300D02*
D03*
X55900D02*
D03*
X56900D02*
D03*
X57950Y82250D02*
D03*
X76850Y73700D02*
D03*
X76400Y73900D02*
D03*
X76750Y74750D02*
D03*
X54200Y81000D02*
D03*
X53100Y81900D02*
D03*
X52400Y81800D02*
D03*
X62350Y86700D02*
D03*
X76500Y74350D02*
D03*
X74000Y71100D02*
D03*
X58350Y86350D02*
D03*
X81550Y76400D02*
D03*
X73500Y71400D02*
D03*
X66500Y87100D02*
D03*
X65500Y77000D02*
D03*
X68500Y77200D02*
D03*
X75050Y76000D02*
D03*
X77400Y72300D02*
D03*
X79350Y72600D02*
D03*
X79202Y96500D02*
D03*
X78250Y76636D02*
D03*
X75300Y71900D02*
D03*
X83400Y78250D02*
D03*
X86200Y78050D02*
D03*
X70550Y86050D02*
D03*
X73228Y83268D02*
D03*
X74508Y83071D02*
D03*
X75300Y83200D02*
D03*
X75430Y71400D02*
D03*
X75760Y71380D02*
D03*
X76217Y71040D02*
D03*
X74760Y72255D02*
D03*
X79080Y71601D02*
D03*
X78630Y71620D02*
D03*
X43700Y77700D02*
D03*
M02*
