G04 Layer_Physical_Order=4*
G04 Layer_Color=11436288*
%FSLAX24Y24*%
%MOIN*%
G70*
G01*
G75*
%ADD23C,0.0100*%
%ADD24C,0.0300*%
%ADD25C,0.0433*%
%ADD26C,0.1191*%
%ADD27C,0.1190*%
%ADD28C,0.1091*%
%ADD29O,0.0600X0.0800*%
%ADD30R,0.0600X0.0800*%
%ADD31R,0.0591X0.0591*%
%ADD32C,0.0591*%
%ADD33R,0.0600X0.0600*%
%ADD34C,0.0600*%
%ADD35C,0.1969*%
%ADD36O,0.0344X0.0787*%
%ADD37R,0.0344X0.0787*%
%ADD38R,0.0433X0.0433*%
%ADD39P,0.0469X8X292.5*%
%ADD40C,0.0709*%
%ADD41R,0.0709X0.0709*%
%ADD42C,0.0787*%
%ADD43C,0.0748*%
%ADD44R,0.0600X0.0600*%
%ADD45C,0.0750*%
%ADD46R,0.0591X0.0591*%
%ADD47O,0.0591X0.0591*%
%ADD48C,0.0630*%
%ADD49R,0.0630X0.0630*%
%ADD50C,0.0300*%
%ADD51C,0.0200*%
D23*
X85000Y77923D02*
Y81850D01*
X84990Y77913D02*
X85000Y77923D01*
X85350Y78027D02*
Y82200D01*
X77024Y74430D02*
X77654D01*
X84730Y77860D02*
Y82210D01*
X83750Y76880D02*
X84730Y77860D01*
X84050Y78450D02*
Y78500D01*
X84040Y78510D02*
X84050Y78500D01*
X84160Y81422D02*
X84290Y81292D01*
Y77880D02*
Y81292D01*
Y77880D02*
X84294Y77876D01*
X83618Y77200D02*
X84294Y77876D01*
X84450Y77946D02*
Y81900D01*
Y77946D02*
X84520Y77876D01*
X80104Y76880D02*
X83750D01*
X77654Y74430D02*
X80104Y76880D01*
X85518Y82500D02*
X86200Y81818D01*
X85182Y82500D02*
X85518D01*
X85182Y82500D02*
X85182Y82500D01*
X85584Y82660D02*
X86470Y81774D01*
X73836Y82660D02*
X85584D01*
X85650Y82820D02*
X86760Y81710D01*
X85717Y82980D02*
X86960Y81737D01*
X85783Y83140D02*
X87210Y81713D01*
X85849Y83300D02*
X87410Y81739D01*
X77200Y83300D02*
X85849D01*
X85915Y83460D02*
X87580Y81795D01*
X78040Y83460D02*
X85915D01*
X85982Y83620D02*
X87740Y81862D01*
X78880Y83620D02*
X85982D01*
X85990Y83838D02*
X87900Y81928D01*
X85990Y83838D02*
X85990D01*
X85933Y83780D02*
X85990Y83838D01*
X79720Y83780D02*
X85933D01*
X85926Y84000D02*
X86054D01*
X85866Y83940D02*
X85926Y84000D01*
X79987Y83940D02*
X85866D01*
X85860Y84160D02*
X85860D01*
X85800Y84100D02*
X85860Y84160D01*
X80400Y84100D02*
X85800D01*
X81240Y84260D02*
X85734D01*
X82080Y84420D02*
X85667D01*
X85601Y84580D02*
X88091Y87070D01*
X82920Y84580D02*
X85601D01*
X87900Y73652D02*
Y81928D01*
X87740Y74672D02*
Y81862D01*
X87580Y75662D02*
Y81795D01*
X87410Y75860D02*
Y81739D01*
X87210Y76810D02*
Y81713D01*
X86960Y77760D02*
Y81737D01*
X86760Y78570D02*
Y81710D01*
X86470Y78890D02*
Y81774D01*
X86200Y78050D02*
Y81818D01*
X88091Y87070D02*
X88390Y87369D01*
X88091Y87070D02*
X88091D01*
X88157Y86910D02*
X88800Y87553D01*
X88157Y86910D02*
X88157D01*
X85667Y84420D02*
X88157Y86910D01*
X85734Y84260D02*
X88224Y86750D01*
X85860Y84160D02*
X87450Y85750D01*
X86114Y83940D02*
X87990D01*
X86054Y84000D02*
X86114Y83940D01*
X76360Y83140D02*
X85783D01*
X75520Y82980D02*
X85717D01*
X74759Y82820D02*
X85650D01*
X70497Y82500D02*
X85182D01*
X64600Y73800D02*
X65710Y72690D01*
X74155D01*
X74325Y72860D01*
X78010D01*
X57402Y96300D02*
X66700D01*
X59000Y82200D02*
Y85470D01*
X53470D02*
X59000D01*
X52090Y96520D02*
Y100430D01*
X46865Y94265D02*
X49835D01*
X52090Y96520D01*
X84160Y81422D02*
Y82220D01*
X84990Y77913D02*
X85000Y77903D01*
X84730Y82210D02*
X84740Y82220D01*
X83817Y76720D02*
X85000Y77903D01*
X85350Y78027D02*
X85350Y78027D01*
X61595Y73800D02*
X64600D01*
X61200Y73405D02*
X61595Y73800D01*
X61200Y72600D02*
Y73405D01*
X60400Y71800D02*
X61200Y72600D01*
X60400Y71172D02*
Y71800D01*
Y69400D02*
Y71172D01*
X78010Y72860D02*
X78100Y72950D01*
X64600Y73800D02*
Y77350D01*
X63850Y78100D02*
X64600Y77350D01*
X75686Y73964D02*
X76240Y73410D01*
X67636Y73964D02*
X75686D01*
X67100Y74500D02*
X67636Y73964D01*
X67000Y74500D02*
X67100D01*
X69510Y75010D02*
X77210D01*
X69000Y74500D02*
X69510Y75010D01*
X77210D02*
X77500Y75300D01*
X76240Y73410D02*
X77460D01*
X79050Y75000D01*
X80150D01*
X58300Y87700D02*
X58350Y87650D01*
Y86350D02*
Y87650D01*
Y86350D02*
X58360Y86340D01*
X63850Y82450D02*
Y84350D01*
X64500Y85000D01*
X53406Y85406D02*
X53470Y85470D01*
X53406Y84997D02*
Y85406D01*
X46300Y87700D02*
X48470Y89870D01*
X79530D01*
X81500Y87900D01*
Y87700D02*
Y87900D01*
Y87600D02*
Y87700D01*
X51110Y89710D02*
X78390D01*
X49300Y87900D02*
X51110Y89710D01*
X55341Y98361D02*
X57402Y96300D01*
X79500Y87700D02*
Y88050D01*
X78000Y89550D02*
X79500Y88050D01*
X51350Y89550D02*
X78000D01*
X49750Y87950D02*
X51350Y89550D01*
X49750Y86700D02*
Y87950D01*
X49250Y86200D02*
X49750Y86700D01*
X47700Y86200D02*
X49250D01*
X68000Y84900D02*
Y85300D01*
Y84900D02*
X70100Y82800D01*
Y82400D02*
Y82800D01*
X79450Y90850D02*
Y92100D01*
X63900Y90200D02*
X78800D01*
X79450Y90850D01*
X81550Y76400D02*
Y76450D01*
Y76400D02*
X83723D01*
X85350Y78027D01*
X78500Y87600D02*
Y87700D01*
X54150Y84742D02*
X54406Y84997D01*
X54150Y82450D02*
Y84742D01*
X53950Y82250D02*
X54150Y82450D01*
X78500Y87700D02*
Y88100D01*
X77220Y89380D02*
X78500Y88100D01*
X51480Y89380D02*
X77220D01*
X50300Y88200D02*
X51480Y89380D01*
X50300Y87700D02*
Y88200D01*
X77500Y87600D02*
Y87700D01*
X54900Y84492D02*
X55406Y84997D01*
X54900Y82300D02*
Y84492D01*
X77500Y87700D02*
Y88100D01*
X76380Y89220D02*
X77500Y88100D01*
X52320Y89220D02*
X76380D01*
X51300Y88200D02*
X52320Y89220D01*
X51300Y87700D02*
Y88200D01*
X76500Y87600D02*
Y87700D01*
X55900Y84492D02*
X56406Y84997D01*
X55900Y82300D02*
Y84492D01*
X76500Y87700D02*
Y88100D01*
X75540Y89060D02*
X76500Y88100D01*
X53260Y89060D02*
X75540D01*
X52300Y88100D02*
X53260Y89060D01*
X52300Y87700D02*
Y88100D01*
X75500Y87600D02*
Y87700D01*
X56900Y84492D02*
X57406Y84997D01*
X56900Y82300D02*
Y84492D01*
X75500Y87700D02*
Y88100D01*
X74700Y88900D02*
X75500Y88100D01*
X54100Y88900D02*
X74700D01*
X53300Y88100D02*
X54100Y88900D01*
X53300Y87700D02*
Y88100D01*
X74500Y87600D02*
Y87700D01*
X57950Y84542D02*
X58406Y84997D01*
X57950Y82250D02*
Y84542D01*
X74500Y87700D02*
Y88100D01*
X73860Y88740D02*
X74500Y88100D01*
X54940Y88740D02*
X73860D01*
X54300Y88100D02*
X54940Y88740D01*
X54300Y87700D02*
Y88100D01*
X73500Y87800D02*
Y88000D01*
X72920Y88580D02*
X73500Y88000D01*
X55580Y88580D02*
X72920D01*
X55300Y88300D02*
X55580Y88580D01*
X55300Y87700D02*
Y88300D01*
X72500Y87600D02*
Y87700D01*
Y88100D01*
X72180Y88420D02*
X72500Y88100D01*
X56620Y88420D02*
X72180D01*
X56300Y88100D02*
X56620Y88420D01*
X56300Y87700D02*
Y88100D01*
X71500Y87600D02*
Y87700D01*
Y88200D01*
X71440Y88260D02*
X71500Y88200D01*
X57460Y88260D02*
X71440D01*
X57300Y88100D02*
X57460Y88260D01*
X57300Y87700D02*
Y88100D01*
X81335Y79000D02*
X81500D01*
X49684Y81320D02*
X53926D01*
X49406Y81598D02*
X49684Y81320D01*
X49406Y81598D02*
Y84997D01*
X54308Y81260D02*
X54460Y81108D01*
X54092Y81260D02*
X54308D01*
X53992Y81160D02*
X54092Y81260D01*
X49618Y81160D02*
X53992D01*
X49478Y81300D02*
X49618Y81160D01*
X48720Y81300D02*
X49478D01*
X48406Y81614D02*
X48720Y81300D01*
X48406Y81614D02*
Y84997D01*
X77770Y80730D02*
X79500Y79000D01*
X49138Y80730D02*
X77770D01*
X47406Y78997D02*
X49138Y80730D01*
X78500Y79000D02*
Y79374D01*
X77304Y80570D02*
X78500Y79374D01*
X49978Y80570D02*
X77304D01*
X48406Y78997D02*
X49978Y80570D01*
X76090Y80410D02*
X77500Y79000D01*
X50882Y80410D02*
X76090D01*
X49470Y78997D02*
X50882Y80410D01*
X49406Y78997D02*
X49470D01*
X75250Y80250D02*
X76500Y79000D01*
X52432Y80250D02*
X75250D01*
X52421Y80239D02*
X52432Y80250D01*
X51648Y80239D02*
X52421D01*
X50406Y78997D02*
X51648Y80239D01*
X74410Y80090D02*
X75500Y79000D01*
X52498Y80090D02*
X74410D01*
X51406Y78997D02*
X52498Y80090D01*
X73570Y79930D02*
X74500Y79000D01*
X53338Y79930D02*
X73570D01*
X52406Y78997D02*
X53338Y79930D01*
X77720Y74270D02*
X80170Y76720D01*
X83817D01*
X76958Y74590D02*
X77587D01*
X80037Y77040D01*
X83684D01*
X84520Y77876D01*
X76750Y74750D02*
X77521D01*
X79971Y77200D01*
X83618D01*
X47300Y81000D02*
X54200D01*
X46406Y80106D02*
X47300Y81000D01*
X46406Y78997D02*
Y80106D01*
X83303Y79000D02*
X83500D01*
X53360Y81640D02*
X53793D01*
X53100Y81900D02*
X53360Y81640D01*
X51092Y81800D02*
X52400D01*
X50406Y82486D02*
X51092Y81800D01*
X50406Y82486D02*
Y84997D01*
X82486Y79000D02*
X82500D01*
X53294Y81480D02*
X53860D01*
X53154Y81620D02*
X53294Y81480D01*
X52980Y81620D02*
X53154D01*
X52406Y82194D02*
X52980Y81620D01*
X52406Y82194D02*
Y84997D01*
X53505Y78997D02*
X54278Y79770D01*
X72730D01*
X73500Y79000D01*
X71901Y79599D02*
X72500Y79000D01*
X55008Y79599D02*
X71901D01*
X54406Y78997D02*
X55008Y79599D01*
X62350Y86700D02*
Y87550D01*
X51055Y93634D02*
Y93700D01*
X76850Y73700D02*
X77420Y74270D01*
X77720D01*
X76500Y74350D02*
X76697D01*
X76400Y73900D02*
X76494D01*
X77024Y74430D01*
X76718Y74350D02*
X76958Y74590D01*
X48000Y83100D02*
Y85362D01*
X48268Y85630D01*
X79870D02*
X80500Y85000D01*
X48268Y85630D02*
X79870D01*
X80500Y85000D02*
X81240Y84260D01*
X88224Y86750D02*
X88800D01*
X79500Y85000D02*
X80400Y84100D01*
X87450Y85750D02*
X88800D01*
X70500Y85000D02*
X70900Y85400D01*
X71327D01*
X71332Y85405D01*
X79095Y84832D02*
X79987Y83940D01*
X87990D02*
X88800Y84750D01*
X78745Y85405D02*
X79095Y85055D01*
Y84832D02*
Y85055D01*
X71332Y85405D02*
X78745D01*
X68200Y78300D02*
X83350D01*
X67500Y79000D02*
X68200Y78300D01*
X83350D02*
X83400Y78250D01*
X70000Y78500D02*
X83282D01*
X69500Y79000D02*
X70000Y78500D01*
X83282D02*
X83292Y78510D01*
X84040D01*
X69610Y82190D02*
X70187D01*
X67500Y84300D02*
Y85000D01*
X70187Y82190D02*
X70497Y82500D01*
X84750Y75300D02*
Y75400D01*
X86200Y76850D01*
Y78050D01*
X70550Y86050D02*
X70950D01*
X71050Y85950D02*
X86420D01*
X70950Y86050D02*
X71050Y85950D01*
X71500Y84996D02*
Y85000D01*
X73228Y83268D02*
X73836Y82660D01*
X71500Y84996D02*
X73228Y83268D01*
X86700Y78510D02*
X86760Y78570D01*
X72579Y85000D02*
X74508Y83071D01*
X74759Y82820D01*
X86950Y77750D02*
X86960Y77760D01*
X73500Y85000D02*
X75300Y83200D01*
X75520Y82980D01*
X74500Y85000D02*
X76360Y83140D01*
X75500Y85000D02*
X77200Y83300D01*
X87480Y74780D02*
Y75562D01*
X87580Y75662D01*
X76500Y85000D02*
X78040Y83460D01*
X87640Y73760D02*
Y74572D01*
X87740Y74672D01*
X77500Y85000D02*
X78880Y83620D01*
X87780Y72730D02*
X87810Y72760D01*
Y73562D01*
X87900Y73652D01*
X78500Y85000D02*
X79720Y83780D01*
X45370Y73894D02*
Y74270D01*
X47811Y83137D02*
Y85437D01*
X48164Y85790D01*
X81110D01*
X81500Y85000D02*
X82080Y84420D01*
X81500Y85000D02*
Y85400D01*
X81110Y85790D02*
X81500Y85400D01*
X88800Y87553D02*
Y87750D01*
X82500Y85000D02*
X82920Y84580D01*
X80500Y93700D02*
X80950Y94150D01*
X86200D01*
X88800Y96750D01*
X78390Y89710D02*
X80500Y87600D01*
X55299Y68996D02*
X55406Y68890D01*
X62250Y87650D02*
X62350Y87550D01*
X76224Y70510D02*
X76295D01*
X75430Y71304D02*
X76224Y70510D01*
X76375Y70430D02*
X80881D01*
X76295Y70510D02*
X76375Y70430D01*
X80881D02*
X81546Y71095D01*
X75430Y71304D02*
Y71400D01*
X81546Y71095D02*
X88485D01*
X88570Y71180D01*
X89036D01*
X90020Y72164D01*
X76290Y70670D02*
X76361D01*
X75760Y71200D02*
X76290Y70670D01*
X76441Y70590D02*
X80815D01*
X76361Y70670D02*
X76441Y70590D01*
X80815D02*
X81480Y71255D01*
X75760Y71200D02*
Y71380D01*
X81480Y71255D02*
X88418D01*
X88504Y71340D02*
X88970D01*
X88418Y71255D02*
X88504Y71340D01*
X88970D02*
X89850Y72220D01*
X76217Y71040D02*
X76507Y70750D01*
X80749D01*
X81414Y71415D01*
X87995D01*
X88390Y71810D01*
Y71920D02*
X88630Y72160D01*
X88390Y71810D02*
Y71920D01*
X88630Y72160D02*
X89016D01*
X89690Y72834D01*
X76450Y72700D02*
X77919Y71231D01*
X78997D01*
X79319Y70910D02*
X80683D01*
X78997Y71231D02*
X79319Y70910D01*
X80683D02*
X81347Y71575D01*
X74760Y72255D02*
X75205Y72700D01*
X76450D01*
X81347Y71575D02*
X87819D01*
X88584Y72340D01*
X88970D01*
X89530Y72900D01*
X79451Y71230D02*
X80550D01*
X79080Y71601D02*
X79451Y71230D01*
X80550D02*
X81215Y71895D01*
X86241D01*
X86686Y72340D01*
X87758D02*
X88230Y72812D01*
X86686Y72340D02*
X87758D01*
X88230Y72986D02*
X88584Y73340D01*
X88230Y72812D02*
Y72986D01*
X88584Y73340D02*
X88970D01*
X78630Y71620D02*
X78859Y71391D01*
X79064D01*
X79385Y71070D02*
X80616D01*
X79064Y71391D02*
X79385Y71070D01*
X80616D02*
X81281Y71735D01*
X86307D01*
X86753Y72180D01*
X87824D01*
X88390Y72746D01*
Y72920D01*
X88630Y73160D01*
X89016D01*
X90800Y98540D02*
Y98750D01*
Y98540D02*
X91210Y98130D01*
X90970Y97340D02*
X91210Y97580D01*
Y98130D01*
X78500Y93700D02*
X79110Y94310D01*
X85780D01*
X88810Y97340D01*
X88970D01*
X89210Y97580D01*
Y97740D01*
X90390Y98920D01*
Y99190D01*
X90800Y99600D01*
Y99750D01*
X89530Y72900D02*
Y73448D01*
X89690Y72834D02*
Y73381D01*
X90140Y94090D02*
X90800Y94750D01*
X90020Y72164D02*
Y73259D01*
X90300Y93250D02*
X90800Y93750D01*
X89850Y72220D02*
Y73315D01*
X88800Y88330D02*
Y88750D01*
X88390Y87369D02*
Y87920D01*
X88800Y88330D01*
X86420Y85950D02*
X88230Y87760D01*
Y88870D01*
X88520Y89160D01*
X88970D01*
X89210Y88920D01*
Y88790D02*
Y88920D01*
X88970Y73340D02*
X89500Y73870D01*
X89016Y73160D02*
X89660Y73804D01*
X89530Y73448D02*
X89820Y73738D01*
X89690Y73381D02*
X89980Y73671D01*
X89850Y73315D02*
X90140Y73605D01*
X90020Y73259D02*
X90300Y73539D01*
Y93250D01*
X90140Y73605D02*
Y94090D01*
X89980Y73671D02*
Y94930D01*
X89820Y73738D02*
Y95770D01*
X89210Y88790D02*
X89250Y88750D01*
Y81200D02*
Y88750D01*
X88800Y80750D02*
X89250Y81200D01*
X89980Y94930D02*
X90800Y95750D01*
X89500Y73870D02*
Y96450D01*
X90800Y97750D01*
X90630Y97340D02*
X90970D01*
X90623Y97347D02*
X90630Y97340D01*
X90623Y97347D02*
X90623D01*
X89660Y96384D02*
X90623Y97347D01*
X89660Y73804D02*
Y96384D01*
X89820Y95770D02*
X90800Y96750D01*
X70467Y97995D02*
X70962Y97500D01*
X71750D01*
X72000Y97750D01*
X74750Y100500D02*
X74858Y100608D01*
Y102368D01*
X74750Y100250D02*
X75406Y100906D01*
Y101250D01*
X72000Y97750D02*
Y98250D01*
X74000Y100250D01*
X74750D01*
X71467Y97995D02*
X73972Y100500D01*
X74750D01*
X67500Y84300D02*
X69610Y82190D01*
X52500Y96400D02*
Y100250D01*
X50205Y94105D02*
X52500Y96400D01*
X52090Y100430D02*
X52100Y100440D01*
Y100850D01*
X52500Y101250D01*
X46300Y93700D02*
X46400D01*
X46500Y93800D01*
Y93900D01*
X46865Y94265D01*
X47200Y93700D02*
X47545D01*
X47200D02*
X47605Y94105D01*
X50205D01*
X87320Y75770D02*
X87410Y75860D01*
X87150Y76750D02*
X87210Y76810D01*
X80763Y81540D02*
X83303Y79000D01*
X80106Y81380D02*
X82486Y79000D01*
X79115Y81220D02*
X81335Y79000D01*
X53793Y81640D02*
X53893Y81740D01*
X53860Y81480D02*
X53960Y81580D01*
X53926Y81320D02*
X54026Y81420D01*
X54707Y81540D02*
X80763D01*
X54507Y81740D02*
X54707Y81540D01*
X53893Y81740D02*
X54507D01*
X54640Y81380D02*
X80106D01*
X54440Y81580D02*
X54640Y81380D01*
X53960Y81580D02*
X54440D01*
X54574Y81220D02*
X79115D01*
X54374Y81420D02*
X54574Y81220D01*
X54026Y81420D02*
X54374D01*
X78440Y81060D02*
X80500Y79000D01*
X54460Y81060D02*
Y81108D01*
Y81060D02*
X78440D01*
X44900Y74740D02*
X45370Y74270D01*
X44900Y74740D02*
Y80226D01*
X47811Y83137D01*
X45900Y78364D02*
X47370Y76894D01*
X45900Y78364D02*
Y81000D01*
X48000Y83100D01*
X38000Y105050D02*
X110000D01*
X38000Y66000D02*
X110000D01*
X38000D02*
Y105050D01*
X110000Y66000D02*
Y105050D01*
D24*
X45550Y95200D02*
Y98850D01*
X44806Y99594D02*
X45550Y98850D01*
D25*
X58561Y100689D02*
D03*
Y101674D02*
D03*
X59378D02*
D03*
X60412D02*
D03*
X61239D02*
D03*
Y100689D02*
D03*
D26*
X57333Y102894D02*
D03*
D27*
X59900Y103150D02*
D03*
D28*
X62467Y102894D02*
D03*
D29*
X45000Y97000D02*
D03*
X44000D02*
D03*
D30*
X43000D02*
D03*
D31*
X64300Y93700D02*
D03*
X82500Y96300D02*
D03*
X81750Y72300D02*
D03*
X64341Y98361D02*
D03*
X45370Y73894D02*
D03*
Y68972D02*
D03*
X77467Y97995D02*
D03*
X64500Y79000D02*
D03*
X81500Y93700D02*
D03*
D32*
X63300D02*
D03*
X62300D02*
D03*
X61300D02*
D03*
X60300D02*
D03*
X59300D02*
D03*
X58300D02*
D03*
X57300D02*
D03*
X56300D02*
D03*
X55300D02*
D03*
X54300D02*
D03*
X53300D02*
D03*
X52300D02*
D03*
X51300D02*
D03*
X50300D02*
D03*
X49300D02*
D03*
X48300D02*
D03*
X47300D02*
D03*
X46300D02*
D03*
X45300D02*
D03*
X64300Y87700D02*
D03*
X63300D02*
D03*
X62300D02*
D03*
X61300D02*
D03*
X60300D02*
D03*
X59300D02*
D03*
X58300D02*
D03*
X57300D02*
D03*
X56300D02*
D03*
X55300D02*
D03*
X54300D02*
D03*
X53300D02*
D03*
X52300D02*
D03*
X51300D02*
D03*
X50300D02*
D03*
X49300D02*
D03*
X48300D02*
D03*
X47300D02*
D03*
X46300D02*
D03*
X45300D02*
D03*
X85500Y99300D02*
D03*
X82500D02*
D03*
X85500Y96300D02*
D03*
X84750Y72300D02*
D03*
X81750Y75300D02*
D03*
X84750D02*
D03*
X63341Y98361D02*
D03*
X62341D02*
D03*
X61341D02*
D03*
X60341D02*
D03*
X59341D02*
D03*
X58341D02*
D03*
X57341D02*
D03*
X56341D02*
D03*
X55341D02*
D03*
X64341Y95361D02*
D03*
X63341D02*
D03*
X62341D02*
D03*
X61341D02*
D03*
X60341D02*
D03*
X59341D02*
D03*
X58341D02*
D03*
X57341D02*
D03*
X56341D02*
D03*
X55341D02*
D03*
X46370Y73894D02*
D03*
X47370D02*
D03*
X48370D02*
D03*
X49370D02*
D03*
X50370D02*
D03*
X51370D02*
D03*
X52370D02*
D03*
X53370D02*
D03*
X54370D02*
D03*
X55370D02*
D03*
X56370D02*
D03*
X57370D02*
D03*
X58370D02*
D03*
X45370Y76894D02*
D03*
X46370D02*
D03*
X47370D02*
D03*
X48370D02*
D03*
X49370D02*
D03*
X50370D02*
D03*
X51370D02*
D03*
X52370D02*
D03*
X53370D02*
D03*
X54370D02*
D03*
X55370D02*
D03*
X56370D02*
D03*
X57370D02*
D03*
X58370D02*
D03*
X46370Y68972D02*
D03*
X47370D02*
D03*
X48370D02*
D03*
X49370D02*
D03*
X50370D02*
D03*
X51370D02*
D03*
X52370D02*
D03*
X53370D02*
D03*
X54370D02*
D03*
X55370D02*
D03*
X56370D02*
D03*
X57370D02*
D03*
X58370D02*
D03*
X45370Y71972D02*
D03*
X46370D02*
D03*
X47370D02*
D03*
X48370D02*
D03*
X49370D02*
D03*
X50370D02*
D03*
X51370D02*
D03*
X52370D02*
D03*
X53370D02*
D03*
X54370D02*
D03*
X55370D02*
D03*
X56370D02*
D03*
X57370D02*
D03*
X58370D02*
D03*
X76467Y97995D02*
D03*
X75467D02*
D03*
X74467D02*
D03*
X73467D02*
D03*
X72467D02*
D03*
X71467D02*
D03*
X70467D02*
D03*
X77467Y94995D02*
D03*
X76467D02*
D03*
X75467D02*
D03*
X74467D02*
D03*
X73467D02*
D03*
X72467D02*
D03*
X71467D02*
D03*
X70467D02*
D03*
X83500Y85000D02*
D03*
X82500D02*
D03*
X81500D02*
D03*
X80500D02*
D03*
X79500D02*
D03*
X78500D02*
D03*
X77500D02*
D03*
X76500D02*
D03*
X75500D02*
D03*
X74500D02*
D03*
X73500D02*
D03*
X72500D02*
D03*
X71500D02*
D03*
X70500D02*
D03*
X69500D02*
D03*
X68500D02*
D03*
X67500D02*
D03*
X66500D02*
D03*
X65500D02*
D03*
X64500D02*
D03*
X83500Y79000D02*
D03*
X82500D02*
D03*
X81500D02*
D03*
X80500D02*
D03*
X79500D02*
D03*
X78500D02*
D03*
X77500D02*
D03*
X76500D02*
D03*
X75500D02*
D03*
X74500D02*
D03*
X73500D02*
D03*
X72500D02*
D03*
X71500D02*
D03*
X70500D02*
D03*
X69500D02*
D03*
X68500D02*
D03*
X67500D02*
D03*
X66500D02*
D03*
X65500D02*
D03*
X80500Y93700D02*
D03*
X79500D02*
D03*
X78500D02*
D03*
X77500D02*
D03*
X76500D02*
D03*
X75500D02*
D03*
X74500D02*
D03*
X73500D02*
D03*
X72500D02*
D03*
X71500D02*
D03*
X70500D02*
D03*
X69500D02*
D03*
X68500D02*
D03*
X81500Y87700D02*
D03*
X80500D02*
D03*
X79500D02*
D03*
X78500D02*
D03*
X77500D02*
D03*
X76500D02*
D03*
X75500D02*
D03*
X74500D02*
D03*
X73500D02*
D03*
X72500D02*
D03*
X71500D02*
D03*
X70500D02*
D03*
X69500D02*
D03*
X68500D02*
D03*
D33*
X104800Y100750D02*
D03*
X96800D02*
D03*
X88800D02*
D03*
D34*
X106800D02*
D03*
X104800Y99750D02*
D03*
X106800D02*
D03*
X104800Y98750D02*
D03*
X106800D02*
D03*
X104800Y97750D02*
D03*
X106800D02*
D03*
X104800Y96750D02*
D03*
X106800D02*
D03*
X104800Y95750D02*
D03*
X106800D02*
D03*
X104800Y94750D02*
D03*
X106800D02*
D03*
X104800Y93750D02*
D03*
X106800D02*
D03*
X104800Y92750D02*
D03*
X106800D02*
D03*
X104800Y91750D02*
D03*
X106800D02*
D03*
X104800Y90750D02*
D03*
X106800D02*
D03*
X104800Y89750D02*
D03*
X106800D02*
D03*
X104800Y88750D02*
D03*
X106800D02*
D03*
X104800Y87750D02*
D03*
X106800D02*
D03*
X104800Y86750D02*
D03*
X106800D02*
D03*
X104800Y85750D02*
D03*
X106800D02*
D03*
X104800Y84750D02*
D03*
X106800D02*
D03*
X104800Y83750D02*
D03*
X106800D02*
D03*
X104800Y82750D02*
D03*
X106800D02*
D03*
X104800Y81750D02*
D03*
X106800D02*
D03*
X104800Y80750D02*
D03*
X106800D02*
D03*
X104800Y79750D02*
D03*
X106800D02*
D03*
X104800Y78750D02*
D03*
X106800D02*
D03*
X104800Y77750D02*
D03*
X106800D02*
D03*
X104800Y76750D02*
D03*
X106800D02*
D03*
X104800Y75750D02*
D03*
X106800D02*
D03*
X104800Y74750D02*
D03*
X106800D02*
D03*
X104800Y73750D02*
D03*
X106800D02*
D03*
X104800Y72750D02*
D03*
X106800D02*
D03*
X104800Y71750D02*
D03*
X106800D02*
D03*
X104800Y70750D02*
D03*
X106800D02*
D03*
X98800Y100750D02*
D03*
X96800Y99750D02*
D03*
X98800D02*
D03*
X96800Y98750D02*
D03*
X98800D02*
D03*
X96800Y97750D02*
D03*
X98800D02*
D03*
X96800Y96750D02*
D03*
X98800D02*
D03*
X96800Y95750D02*
D03*
X98800D02*
D03*
X96800Y94750D02*
D03*
X98800D02*
D03*
X96800Y93750D02*
D03*
X98800D02*
D03*
X96800Y92750D02*
D03*
X98800D02*
D03*
X96800Y91750D02*
D03*
X98800D02*
D03*
X96800Y90750D02*
D03*
X98800D02*
D03*
X96800Y89750D02*
D03*
X98800D02*
D03*
X96800Y88750D02*
D03*
X98800D02*
D03*
X96800Y87750D02*
D03*
X98800D02*
D03*
X96800Y86750D02*
D03*
X98800D02*
D03*
X96800Y85750D02*
D03*
X98800D02*
D03*
X96800Y84750D02*
D03*
X98800D02*
D03*
X96800Y83750D02*
D03*
X98800D02*
D03*
X96800Y82750D02*
D03*
X98800D02*
D03*
X96800Y81750D02*
D03*
X98800D02*
D03*
X96800Y80750D02*
D03*
X98800D02*
D03*
X96800Y79750D02*
D03*
X98800D02*
D03*
X96800Y78750D02*
D03*
X98800D02*
D03*
X96800Y77750D02*
D03*
X98800D02*
D03*
X96800Y76750D02*
D03*
X98800D02*
D03*
X96800Y75750D02*
D03*
X98800D02*
D03*
X96800Y74750D02*
D03*
X98800D02*
D03*
X96800Y73750D02*
D03*
X98800D02*
D03*
X96800Y72750D02*
D03*
X98800D02*
D03*
X96800Y71750D02*
D03*
X98800D02*
D03*
X96800Y70750D02*
D03*
X98800D02*
D03*
X88800Y99750D02*
D03*
Y98750D02*
D03*
Y97750D02*
D03*
Y96750D02*
D03*
Y95750D02*
D03*
Y94750D02*
D03*
Y93750D02*
D03*
Y92750D02*
D03*
Y91750D02*
D03*
Y90750D02*
D03*
Y89750D02*
D03*
Y88750D02*
D03*
Y87750D02*
D03*
Y86750D02*
D03*
Y72750D02*
D03*
Y73750D02*
D03*
Y74750D02*
D03*
Y75750D02*
D03*
Y76750D02*
D03*
Y77750D02*
D03*
Y78750D02*
D03*
Y79750D02*
D03*
Y80750D02*
D03*
Y81750D02*
D03*
Y82750D02*
D03*
Y83750D02*
D03*
Y84750D02*
D03*
Y85750D02*
D03*
X90800Y100750D02*
D03*
Y99750D02*
D03*
Y98750D02*
D03*
Y97750D02*
D03*
Y96750D02*
D03*
Y95750D02*
D03*
Y94750D02*
D03*
Y93750D02*
D03*
Y92750D02*
D03*
Y91750D02*
D03*
Y90750D02*
D03*
Y89750D02*
D03*
Y88750D02*
D03*
Y87750D02*
D03*
Y86750D02*
D03*
Y85750D02*
D03*
Y84750D02*
D03*
Y83750D02*
D03*
Y82750D02*
D03*
Y81750D02*
D03*
Y80750D02*
D03*
Y79750D02*
D03*
Y78750D02*
D03*
Y77750D02*
D03*
Y76750D02*
D03*
Y75750D02*
D03*
Y74750D02*
D03*
Y73750D02*
D03*
Y72750D02*
D03*
X88800Y71750D02*
D03*
X90800D02*
D03*
X88800Y70750D02*
D03*
X90800D02*
D03*
X82000Y70000D02*
D03*
X83000D02*
D03*
X84000D02*
D03*
X48500Y101250D02*
D03*
X49500Y100250D02*
D03*
Y101250D02*
D03*
X50500Y100250D02*
D03*
Y101250D02*
D03*
X51500Y100250D02*
D03*
Y101250D02*
D03*
X52500Y100250D02*
D03*
Y101250D02*
D03*
X53500Y100250D02*
D03*
Y101250D02*
D03*
X54500Y100250D02*
D03*
Y101250D02*
D03*
D35*
X108000Y103000D02*
D03*
X65000Y68000D02*
D03*
Y103000D02*
D03*
X86000Y68000D02*
D03*
Y103000D02*
D03*
X108000Y68000D02*
D03*
X40000Y68000D02*
D03*
Y103000D02*
D03*
X79230Y101809D02*
D03*
X69392D02*
D03*
X44039Y101956D02*
D03*
X42110Y100572D02*
D03*
X44033Y99594D02*
D03*
D36*
X62200Y72600D02*
D03*
X61700D02*
D03*
D37*
X61200D02*
D03*
D38*
X67750Y96250D02*
D03*
D39*
X66750D02*
D03*
X67750Y97250D02*
D03*
X66750D02*
D03*
X67750Y98250D02*
D03*
X66750D02*
D03*
D40*
X67000Y73500D02*
D03*
Y74500D02*
D03*
X68000Y73500D02*
D03*
Y74500D02*
D03*
X69000Y73500D02*
D03*
Y74500D02*
D03*
X70000Y73500D02*
D03*
Y74500D02*
D03*
X71000Y73500D02*
D03*
D41*
Y74500D02*
D03*
D42*
X60400Y69400D02*
D03*
X62959D02*
D03*
Y71172D02*
D03*
X60400D02*
D03*
D43*
X76500Y101250D02*
D03*
X75953Y102368D02*
D03*
X75406Y101250D02*
D03*
X74858Y102368D02*
D03*
X74311Y101250D02*
D03*
X73764Y102368D02*
D03*
X73217Y101250D02*
D03*
X72669Y102368D02*
D03*
X72122Y101250D02*
D03*
D44*
X48500Y100250D02*
D03*
D45*
X45550Y95200D02*
D03*
X42050D02*
D03*
D46*
X45406Y78997D02*
D03*
D47*
X46406D02*
D03*
X47406D02*
D03*
X48406D02*
D03*
X49406D02*
D03*
X50406D02*
D03*
X51406D02*
D03*
X52406D02*
D03*
X53406D02*
D03*
X54406D02*
D03*
X55406D02*
D03*
X56406D02*
D03*
X57406D02*
D03*
X58406D02*
D03*
X45406Y84997D02*
D03*
X46406D02*
D03*
X47406D02*
D03*
X48406D02*
D03*
X49406D02*
D03*
X50406D02*
D03*
X51406D02*
D03*
X52406D02*
D03*
X53406D02*
D03*
X54406D02*
D03*
X55406D02*
D03*
X56406D02*
D03*
X57406D02*
D03*
X58406D02*
D03*
D48*
X50600Y97784D02*
D03*
D49*
Y95816D02*
D03*
D50*
X85000Y81850D02*
D03*
X84450Y81900D02*
D03*
X85350Y82200D02*
D03*
X84160Y82220D02*
D03*
X84740D02*
D03*
X86470Y78890D02*
D03*
X86700Y78510D02*
D03*
X86950Y77750D02*
D03*
X87150Y76750D02*
D03*
X87320Y75770D02*
D03*
X87480Y74780D02*
D03*
X87640Y73760D02*
D03*
X87780Y72730D02*
D03*
D51*
X84050Y78450D02*
D03*
X74068Y72900D02*
D03*
X59000Y82200D02*
D03*
X55755Y99745D02*
D03*
X68500Y87000D02*
D03*
X77500Y75300D02*
D03*
X80150Y75000D02*
D03*
X78100Y72950D02*
D03*
X63850Y78100D02*
D03*
Y82450D02*
D03*
X47700Y86200D02*
D03*
X68000Y85300D02*
D03*
X70100Y82400D02*
D03*
X63900Y90200D02*
D03*
X79450Y92100D02*
D03*
X65550Y94500D02*
D03*
X80150Y94750D02*
D03*
X42950Y85050D02*
D03*
X43765Y72965D02*
D03*
X79300Y78000D02*
D03*
X79441Y75600D02*
D03*
X80450Y71500D02*
D03*
X76100Y75395D02*
D03*
X74000Y77050D02*
D03*
X72200Y77500D02*
D03*
X53950Y82250D02*
D03*
X54900Y82300D02*
D03*
X55900D02*
D03*
X56900D02*
D03*
X57950Y82250D02*
D03*
X76850Y73700D02*
D03*
X76400Y73900D02*
D03*
X76750Y74750D02*
D03*
X54200Y81000D02*
D03*
X53100Y81900D02*
D03*
X52400Y81800D02*
D03*
X62350Y86700D02*
D03*
X76500Y74350D02*
D03*
X74000Y71100D02*
D03*
X58350Y86350D02*
D03*
X81550Y76400D02*
D03*
X73500Y71400D02*
D03*
X66500Y87100D02*
D03*
X65500Y77000D02*
D03*
X68500Y77200D02*
D03*
X75050Y76000D02*
D03*
X77400Y72300D02*
D03*
X79350Y72600D02*
D03*
X79202Y96500D02*
D03*
X78250Y76636D02*
D03*
X75300Y71900D02*
D03*
X83400Y78250D02*
D03*
X86200Y78050D02*
D03*
X70550Y86050D02*
D03*
X73228Y83268D02*
D03*
X74508Y83071D02*
D03*
X75300Y83200D02*
D03*
X75430Y71400D02*
D03*
X75760Y71380D02*
D03*
X76217Y71040D02*
D03*
X74760Y72255D02*
D03*
X79080Y71601D02*
D03*
X78630Y71620D02*
D03*
X43700Y77700D02*
D03*
M02*
