M48
;Layer_Color=6321
;FILE_FORMAT=2:4
INCH,LZ
;TYPE=PLATED
T1F00S00C0.0130
T2F00S00C0.0150
T3F00S00C0.0295
T4F00S00C0.0300
T5F00S00C0.0315
T6F00S00C0.0354
T7F00S00C0.0390
T8F00S00C0.0394
T9F00S00C0.0400
T10F00S00C0.0402
T11F00S00C0.0410
T12F00S00C0.0797
T13F00S00C0.0800
T14F00S00C0.1181
T15F00S00C0.1201
T16F00S00C0.1299
T17F00S00C0.1402
%
T01
X043765Y072965
X0437Y0777
X06385Y0781
X0655Y077
X0685Y0772
X0722Y0775
X074Y07705
X0743Y0753
X07505Y076
X0761Y075395
X0761Y075
X07675Y07475
X0765Y07435
X0764Y0739
X07685Y0737
X0778Y0737
X0781Y07295
X0774Y0723
X076217Y07104
X07576Y07138
X07543Y0714
X0753Y0719
X07476Y072255
X074Y073066
Y0711
X07355Y07115
X0775Y0753
X0783Y0744
X07825Y076636
X079441Y0756
X08015Y075
X08155Y0764
X0845Y0767
X08715Y07675
X08732Y07577
X08748Y07478
X08764Y07376
X08778Y07273
X0821Y0729
X080955Y071895
X0808Y071586
X08045Y0715
X079195Y0723
X07935Y0726
X0793Y078
X0862Y07805
X08695Y07775
X0867Y07851
X08647Y07889
X08405Y07845
X0834Y07825
X08445Y0819
X08501
X08474Y08222
X08416
X08535Y0822
X081275Y086275
X08095Y0865
X08065Y08675
X08033Y08702
X07955Y0876
X07875Y08725
X07845Y0875
X078125Y087775
Y093225
X078755Y093395
X079385Y093715
X0797Y0932
X080015
X081Y0933
X0826Y0905
X08305Y09083
X08355Y09115
X0842Y09175
X076875Y092075
X0768Y09145
X076925Y088925
X0756Y087
X07425Y08725
X07385Y08675
X072Y0865
Y0875
X07025Y08735
X070225Y086275
X0697Y0863
X0693Y08605
X0685Y087
X0675Y0863
X0665Y0871
X06395Y08725
X0643Y08995
X06385Y08245
X0688Y0824
X0705
X073228Y083268
X074508Y083071
X0753Y0832
X07397Y0905
X06005Y0854
X059Y0822
X05795Y08225
X0569Y0823
X0559
X0549
X05395Y08225
X0531Y0819
X0524Y0818
X0542Y081
X05535Y08645
X05165
X04325Y08505
X04295Y0937
X055755Y099745
X06555Y0945
X0668Y09395
X077Y094
X0715Y0995
X07955Y0989
X079202Y0975
X0798Y09505
X07985Y0946
X08165Y0939
T02
X04695Y0785
X0593
T03
X0612Y0726
X0617
X0622
T04
X0888Y07075
Y07175
Y07275
Y07375
Y07475
Y07575
Y07675
Y07775
X0908
Y07675
Y07575
Y07475
Y07375
Y07275
Y07175
Y07075
X0968
Y07175
Y07275
Y07375
Y07475
Y07575
Y07675
Y07775
X0988
Y07675
Y07575
Y07475
Y07375
Y07275
Y07175
Y07075
X1048
Y07175
Y07275
Y07375
Y07475
Y07575
Y07675
Y07775
X1068
Y07675
Y07575
Y07475
Y07375
Y07275
Y07175
Y07075
Y07875
Y07975
Y08075
Y08175
Y08275
Y08375
Y08475
Y08575
Y08675
Y08775
Y08875
Y08975
Y09075
Y09175
Y09275
X1048
Y09175
Y09075
Y08975
Y08875
Y08775
Y08675
Y08575
Y08475
Y08375
Y08275
Y08175
Y08075
Y07975
Y07875
X0988
Y07975
Y08075
Y08175
Y08275
Y08375
Y08475
Y08575
Y08675
Y08775
Y08875
Y08975
Y09075
Y09175
Y09275
X0968
Y09175
Y09075
Y08975
Y08875
Y08775
Y08675
Y08575
Y08475
Y08375
Y08275
Y08175
Y08075
Y07975
Y07875
X0908
Y07975
Y08075
Y08175
Y08275
Y08375
Y08475
Y08575
Y08675
Y08775
Y08875
Y08975
Y09075
Y09175
Y09275
X0888
Y09175
Y09075
Y08975
Y08875
Y08775
Y08675
Y08575
Y08475
Y08375
Y08275
Y08175
Y08075
Y07975
Y07875
X061239Y100689
Y101674
X060412
X059378
X058561
Y100689
X0888Y10075
Y09975
Y09875
Y09775
Y09675
Y09575
Y09475
Y09375
X0908
Y09475
Y09575
Y09675
Y09775
Y09875
Y09975
Y10075
X0968
Y09975
Y09875
Y09775
Y09675
Y09575
Y09475
Y09375
X0988
Y09475
Y09575
Y09675
Y09775
Y09875
Y09975
Y10075
X1048
Y09975
Y09875
Y09775
Y09675
Y09575
Y09475
Y09375
X1068
Y09475
Y09575
Y09675
Y09775
Y09875
Y09975
Y10075
T05
X0506Y095816
Y097784
T06
X04537Y068972
X04637
Y071972
X04537
Y073894
X04637
Y076894
X04537
X04737
X04837
X04937
X05037
X05137
X05237
X05337
X05437
X05537
X05637
X05737
X05837
Y073894
X05737
X05637
X05537
X05437
X05337
X05237
X05137
X05037
X04937
X04837
X04737
Y071972
X04837
X04937
X05037
X05137
X05237
X05337
X05437
X05537
X05637
X05737
X05837
Y068972
X05737
X05637
X05537
X05437
X05337
X05237
X05137
X05037
X04937
X04837
X04737
X083Y07
X084
X08475Y0723
Y0753
X08175
Y0723
X0815Y079
X0805
X0795
X0785
X0825
X0835
Y085
X0825
X0815
X0805
X0795
X0785
X0775
X0765
X0755
X0745
X0735
X0725
X0715
X0705
X0695
X0685
X0675
X0665
X0655
X0645
X0643Y0877
X0633
Y0937
X0643
X0645Y079
X0655
X0665
X0675
X0685
X0695
X0705
X0715
X0725
X0735
X0745
X0755
X0765
X0775
X058406Y078997
X057406
X056406
X055406
X054406
X053406
X052406
X051406
X050406
X049406
X048406
X047406
Y084997
X048406
X049406
X050406
X051406
X052406
X053406
X054406
X055406
X056406
X057406
X058406
X0583Y0877
X0573
X0563
X0553
X0543
X0533
X0523
X0513
X0503
X0493
X0483
X0473
Y0937
X0483
X0493
X0503
X0513
X0523
X0533
X0543
X0553
X0563
X0573
X0583
X0593
X0603
X0613
X0623
Y0877
X0613
X0603
X0593
X0463
X0453
X045406Y084997
X046406
Y078997
X045406
X0453Y0937
X0463
X055341Y095361
X056341
X057341
X058341
X059341
X060341
X061341
X062341
Y098361
X061341
X060341
X059341
X058341
X057341
X056341
X055341
X063341
X064341
X06675Y09825
X06775
Y09725
X06675
Y09625
X06775
X070467Y094995
X071467
X072467
X073467
X074467
X075467
X076467
X077467
Y097995
X076467
X075467
X074467
X073467
X072467
X071467
X070467
X064341Y095361
X063341
X0825Y0963
X0855
Y0993
X0825
T07
X0604Y06935
Y071122
X062959
Y06935
T08
X067Y0735
X068
X069
X07
X071
Y0745
X07
X069
X068
X067
X072122Y10125
X073217
X074311
X075406
X0765
X075953Y102368
X074858
X073764
X072669
T09
X043Y097
X044
X045
X0485Y10025
X0495
X0505
X0515
X0525
X0535
X0545
Y10125
X0535
X0525
X0515
X0505
X0495
X0485
T10
X0695Y09203
X0705
X0715
X0725
X0735
X0745
T11
X04205Y0952
X04555
T12
X057333Y102894
X062467
T13
X0599Y10315
T14
X04Y068
X065
X086
X108Y068
X04Y103
X065
X086
X108Y103
T15
X04211Y100572
X044039Y101956
T16
X069392Y101809
X07923
T17
X044033Y099594
M30
