M48
;Layer_Color=6321
;FILE_FORMAT=2:3
INCH,TZ
;TYPE=PLATED
T1F00S00C0.013
T2F00S00C0.015
T3F00S00C0.020
T4F00S00C0.030
T5F00S00C0.031
T6F00S00C0.035
T7F00S00C0.039
T8F00S00C0.040
T9F00S00C0.041
T10F00S00C0.080
T11F00S00C0.118
T12F00S00C0.120
T13F00S00C0.130
T14F00S00C0.140
%
T01
X4377Y7297
X4370Y7770
X6385Y7810
X6550Y7700
X6850Y7720
X7220Y7750
X7400Y7705
X7430Y7530
X7505Y7600
X7610Y7540
X7610Y7500
X7675Y7475
X7650Y7435
X7640Y7390
X7685Y7370
X7780Y7370
X7810Y7295
X7740Y7230
X7622Y7104
X7576Y7138
X7543Y7140
X7530Y7190
X7476Y7226
X7400Y7307
Y7110
X7355Y7115
X7750Y7530
X7830Y7440
X7825Y7664
X7944Y7560
X8015Y7500
X8155Y7640
X8450Y7670
X8715Y7675
X8732Y7577
X8748Y7478
X8764Y7376
X8778Y7273
X8210Y7290
X8096Y7189
X8080Y7159
X8045Y7150
X7920Y7230
X7935Y7260
X7930Y7800
X8620Y7805
X8695Y7775
X8670Y7851
X8647Y7889
X8405Y7845
X8340Y7825
X8445Y8190
X8501
X8474Y8222
X8416
X8535Y8220
X8127Y8628
X8095Y8650
X8065Y8675
X8033Y8702
X7955Y8760
X7875Y8725
X7845Y8750
X7813Y8777
Y9323
X7876Y9339
X7939Y9371
X7970Y9320
X8001
X8100Y9330
X8260Y9050
X8305Y9083
X8355Y9115
X8420Y9175
X7687Y9207
X7680Y9145
X7692Y8893
X7560Y8700
X7425Y8725
X7385Y8675
X7200Y8650
Y8750
X7025Y8735
X7022Y8628
X6970Y8630
X6930Y8605
X6850Y8700
X6750Y8630
X6650Y8710
X6395Y8725
X6430Y8995
X6385Y8245
X6880Y8240
X7050
X7323Y8327
X7451Y8307
X7530Y8320
X7397Y9050
X6005Y8540
X5900Y8220
X5795Y8225
X5690Y8230
X5590
X5490
X5395Y8225
X5310Y8190
X5240Y8180
X5420Y8100
X5535Y8645
X5165
X4325Y8505
X4295Y9370
X5575Y9975
X6555Y9450
X6680Y9395
X7700Y9400
X7150Y9950
X7955Y9890
X7920Y9750
X7980Y9505
X7985Y9460
X8165Y9390
T02
X4695Y7850
X5930
T03
X6675Y9625
Y9725
Y9825
X6775
Y9725
Y9625
T04
X6120Y7260
X6170
X6220
X8880Y7275
Y7175
Y7075
X9080
Y7175
Y7275
Y7375
Y7475
Y7575
Y7675
Y7775
X8880
Y7675
Y7575
Y7475
Y7375
X9680
Y7275
Y7175
Y7075
X9880
Y7175
Y7275
Y7375
Y7475
Y7575
Y7675
Y7775
X9680
Y7675
Y7575
Y7475
X10480
Y7375
Y7275
Y7175
Y7075
X10680
Y7175
Y7275
Y7375
Y7475
Y7575
Y7675
Y7775
X10480
Y7675
Y7575
Y7875
Y7975
Y8075
Y8175
Y8275
Y8375
Y8475
Y8575
Y8675
Y8775
Y8875
Y8975
Y9075
Y9175
Y9275
X10680
Y9175
Y9075
Y8975
Y8875
Y8775
Y8675
Y8575
Y8475
Y8375
Y8275
Y8175
Y8075
Y7975
Y7875
X9880
Y7975
Y8075
Y8175
Y8275
Y8375
Y8475
Y8575
Y8675
Y8775
Y8875
Y8975
Y9075
Y9175
Y9275
X9680
Y9175
Y9075
Y8975
Y8875
Y8775
Y8675
Y8575
Y8475
Y8375
Y8275
Y8175
Y8075
Y7975
Y7875
X9080
Y7975
Y8075
Y8175
Y8275
Y8375
Y8475
Y8575
Y8675
Y8775
Y8875
Y8975
Y9075
Y9175
Y9275
X8880
Y9175
Y9075
Y8975
Y8875
Y8775
Y8675
Y8575
Y8475
Y8375
Y8275
Y8175
Y8075
Y7975
Y7875
X6124Y10069
Y10167
X6041
X5938
X5856
Y10069
X8880Y10075
Y9975
Y9875
Y9775
Y9675
Y9575
Y9475
Y9375
X9080
Y9475
Y9575
Y9675
Y9775
Y9875
Y9975
Y10075
X9680
Y9975
Y9875
Y9775
Y9675
Y9575
Y9475
Y9375
X9880
Y9475
Y9575
Y9675
Y9775
Y9875
Y9975
Y10075
X10480
Y9975
Y9875
Y9775
Y9675
Y9575
Y9475
Y9375
X10680
Y9475
Y9575
Y9675
Y9775
Y9875
Y9975
Y10075
T05
X5060Y9582
Y9778
T06
X4537Y6897
X4637
Y7197
X4537
Y7389
X4637
Y7689
X4537
X4737
X4837
X4937
X5037
X5137
X5237
X5337
X5437
X5537
X5637
X5737
X5837
Y7389
X5737
X5637
X5537
X5437
X5337
X5237
X5137
X5037
X4937
X4837
X4737
Y7197
X4837
X4937
X5037
X5137
X5237
X5337
X5437
X5537
X5637
X5737
X5837
Y6897
X5737
X5637
X5537
X5437
X5337
X5237
X5137
X5037
X4937
X4837
X4737
X8300Y7000
X8400
X8475Y7230
Y7530
X8175
Y7230
X8150Y7900
X8050
X7950
X7850
X8250
X8350
Y8500
X8250
X8150
X8050
X7950
X7850
X7750
X7650
X7550
X7450
X7350
X7250
X7150
X7050
X6950
X6850
X6750
X6650
X6550
X6450
X6430Y8770
X6330
Y9370
X6430
X6450Y7900
X6550
X6650
X6750
X6850
X6950
X7050
X7150
X7250
X7350
X7450
X7550
X7650
X7750
X5841Y7900
X5741
X5641
X5541
X5441
X5341
X5241
X5141
X5041
X4941
X4841
X4741
Y8500
X4841
X4941
X5041
X5141
X5241
X5341
X5441
X5541
X5641
X5741
X5841
X5830Y8770
X5730
X5630
X5530
X5430
X5330
X5230
X5130
X5030
X4930
X4830
X4730
Y9370
X4830
X4930
X5030
X5130
X5230
X5330
X5430
X5530
X5630
X5730
X5830
X5930
X6030
X6130
X6230
Y8770
X6130
X6030
X5930
X4630
X4530
X4541Y8500
X4641
Y7900
X4541
X4530Y9370
X4630
X5534Y9536
X5634
X5734
X5834
X5934
X6034
X6134
X6234
Y9836
X6134
X6034
X5934
X5834
X5734
X5634
X5534
X6334
X6434
Y9536
X6334
X7047Y9499
X7147
X7247
X7347
X7447
X7547
X7647
X7747
Y9799
X7647
X7547
X7447
X7347
X7247
X7147
X7047
X8250Y9930
Y9630
X8550
Y9930
T07
X6040Y6935
Y7112
X6296
Y6935
X6700Y7350
X6800
X6900
X7000
X7100
Y7450
X7000
X6900
X6800
X6700
X7212Y10125
X7322
X7431
X7541
X7650
X7595Y10237
X7486
X7376
X7267
T08
X6950Y9203
X7050
X7150
X7250
X7350
X7450
X4500Y9700
X4400
X4300
X4850Y10025
X4950
X5050
X5150
X5250
X5350
X5450
Y10125
X5350
X5250
X5150
X5050
X4950
X4850
T09
X4205Y9520
X4555
T10
X5733Y10289
X5990Y10315
X6247Y10289
T11
X4000Y6800
X6500
X8600
X10800Y6800
X4000Y10300
X6500
X8600
X10800Y10300
T12
X4211Y10057
X4404Y10196
T13
X6939Y10181
X7923
T14
X4403Y9959
M30
