M48
;Layer_Color=6321
;FILE_FORMAT=2:4
INCH
;TYPE=PLATED
T1F00S00C0.0130
T2F00S00C0.0197
T3F00S00C0.0295
T4F00S00C0.0300
T5F00S00C0.0315
T6F00S00C0.0354
T7F00S00C0.0390
T8F00S00C0.0394
T9F00S00C0.0400
T10F00S00C0.0410
T11F00S00C0.0797
T12F00S00C0.0800
T13F00S00C0.1181
T14F00S00C0.1201
T15F00S00C0.1299
T16F00S00C0.1402
%
T01
X043765Y072965
X043700Y077700
X063850Y078100
X065500Y077000
X068500Y077200
X072200Y077500
X074000Y077050
X074300Y075300
X075050Y076000
X076100Y075395
X076100Y075000
X076750Y074750
X076500Y074350
X076400Y073900
X076850Y073700
X077800Y073700
X078100Y072950
X077400Y072300
X076217Y071040
X075760Y071380
X075430Y071400
X075300Y071900
X074760Y072255
X074068Y072900
X074000Y071100
X073550Y071150
X077500Y075300
X078300Y074400
X078250Y076636
X079441Y075600
X080150Y075000
X081550Y076400
X079300Y078000
X079350Y072600
X079195Y072300
X080450Y071500
X080800Y071586
X080955Y071895
X082100Y072900
X087780Y072730
X087640Y073760
X087480Y074780
X087320Y075770
X087150Y076750
X086950Y077750
X086200Y078050
X086700Y078510
X086470Y078890
X084050Y078450
X083400Y078250
X084450Y081900
X085010
X084740Y082220
X084160
X085350Y082200
X079450Y092100
X075300Y083200
X074508Y083071
X073228Y083268
X070500Y082400
X068800
X068000Y085300
X068500Y087000
X066500Y087100
X070550Y086050
X063850Y082450
X063900Y090200
X062350Y086700
X058350Y086350
X057950Y082250
X059000Y082200
X056900Y082300
X055900
X054900
X053950Y082250
X053100Y081900
X052400Y081800
X054200Y081000
X047700Y086200
X042950Y085050
X055755Y099745
X065550Y094500
X080150Y094750
X079202Y096500
T02
X066750Y096250
X067750
Y097250
X066750
Y098250
X067750
T03
X061200Y072600
X061700
X062200
T04
X088800Y070750
Y071750
Y072750
Y073750
Y074750
Y075750
Y076750
Y077750
X090800
Y076750
Y075750
Y074750
Y073750
Y072750
Y071750
Y070750
X096800
Y071750
Y072750
Y073750
Y074750
Y075750
Y076750
Y077750
X098800
Y076750
Y075750
Y074750
Y073750
Y072750
Y071750
Y070750
X104800
Y071750
Y072750
Y073750
Y074750
Y075750
Y076750
Y077750
X106800
Y076750
Y075750
Y074750
Y073750
Y072750
Y071750
Y070750
Y078750
Y079750
Y080750
Y081750
Y082750
Y083750
Y084750
Y085750
Y086750
Y087750
Y088750
Y089750
Y090750
Y091750
Y092750
X104800
Y091750
Y090750
Y089750
Y088750
Y087750
Y086750
Y085750
Y084750
Y083750
Y082750
Y081750
Y080750
Y079750
Y078750
X098800
Y079750
Y080750
Y081750
Y082750
Y083750
Y084750
Y085750
Y086750
Y087750
Y088750
Y089750
Y090750
Y091750
Y092750
X096800
Y091750
Y090750
Y089750
Y088750
Y087750
Y086750
Y085750
Y084750
Y083750
Y082750
Y081750
Y080750
Y079750
Y078750
X090800
Y079750
Y080750
Y081750
Y082750
Y083750
Y084750
Y085750
Y086750
Y087750
Y088750
Y089750
Y090750
Y091750
Y092750
X088800
Y091750
Y090750
Y089750
Y088750
Y087750
Y086750
Y085750
Y084750
Y083750
Y082750
Y081750
Y080750
Y079750
Y078750
X061239Y100689
Y101674
X060412
X059378
X058561
Y100689
X088800Y100750
Y099750
Y098750
Y097750
Y096750
Y095750
Y094750
Y093750
X090800
Y094750
Y095750
Y096750
Y097750
Y098750
Y099750
Y100750
X096800
Y099750
Y098750
Y097750
Y096750
Y095750
Y094750
Y093750
X098800
Y094750
Y095750
Y096750
Y097750
Y098750
Y099750
Y100750
X104800
Y099750
Y098750
Y097750
Y096750
Y095750
Y094750
Y093750
X106800
Y094750
Y095750
Y096750
Y097750
Y098750
Y099750
Y100750
T05
X050600Y095816
Y097784
T06
X045370Y068972
X046370
Y071972
X045370
Y073894
X046370
Y076894
X045370
X047370
X048370
X049370
X050370
X051370
X052370
X053370
X054370
X055370
X056370
X057370
X058370
Y073894
X057370
X056370
X055370
X054370
X053370
X052370
X051370
X050370
X049370
X048370
X047370
Y071972
X048370
X049370
X050370
X051370
X052370
X053370
X054370
X055370
X056370
X057370
X058370
Y068972
X057370
X056370
X055370
X054370
X053370
X052370
X051370
X050370
X049370
X048370
X047370
X083000Y070000
X084000
X084750Y072300
X081750
Y075300
X084750
X083500Y079000
X082500
X081500
X080500
X079500
X078500
Y085000
X079500
X080500
X081500
X082500
X083500
X081500Y087700
X080500
X079500
X078500
Y093700
X079500
X080500
X081500
X077500
X076500
X075500
X074500
X073500
X072500
X071500
X070500
X069500
X068500
X064300
X063300
Y087700
X064300
X064500Y085000
X065500
X066500
X067500
X068500
X069500
X070500
X071500
X072500
X073500
X074500
X075500
X076500
X077500
Y087700
X076500
X075500
X074500
X073500
X072500
X071500
X070500
X069500
X068500
Y079000
X069500
X070500
X071500
X072500
X073500
X074500
X075500
X076500
X077500
X067500
X066500
X065500
X064500
X058406Y078997
X057406
X056406
X055406
X054406
X053406
X052406
X051406
X050406
X049406
X048406
X047406
Y084997
X048406
X049406
X050406
X051406
X052406
X053406
X054406
X055406
X056406
X057406
X058406
X058300Y087700
X059300
X060300
X061300
X062300
X057300
X056300
X055300
X054300
X053300
X052300
X051300
X050300
X049300
X048300
X047300
Y093700
X048300
X049300
X050300
X051300
X052300
X053300
X054300
X055300
X056300
X057300
X058300
X059300
X060300
X061300
X062300
X046300
X045300
Y087700
X046300
X046406Y084997
X045406
Y078997
X046406
X055341Y095361
X056341
X057341
X058341
X059341
X060341
X061341
X062341
Y098361
X061341
X060341
X059341
X058341
X057341
X056341
X055341
X063341
X064341
Y095361
X063341
X070467Y094995
X071467
X072467
X073467
X074467
X075467
X076467
X077467
Y097995
X076467
X075467
X074467
X073467
X072467
X071467
X070467
X082500Y099300
X085500
Y096300
X082500
T07
X060400Y069400
Y071172
X062959
Y069400
T08
X067000Y073500
Y074500
X068000
Y073500
X069000
Y074500
X070000
Y073500
X071000
Y074500
X072122Y101250
X073217
X074311
X075406
X076500
X075953Y102368
X074858
X073764
X072669
T09
X043000Y097000
X044000
X045000
X048500Y100250
Y101250
X049500
Y100250
X050500
Y101250
X051500
Y100250
X052500
Y101250
X053500
Y100250
X054500
Y101250
T10
X042050Y095200
X045550
T11
X057333Y102894
X062467
T12
X059900Y103150
T13
X040000Y068000
X065000
X086000
X108000Y068000
X040000Y103000
X065000
X086000
X108000Y103000
T14
X042110Y100572
X044039Y101956
T15
X069392Y101809
X079230
T16
X044033Y099594
M30
