G04 Layer_Physical_Order=1*
G04 Layer_Color=25308*
%FSAX23Y23*%
%MOIN*%
G70*
G01*
G75*
%ADD10C,0.030*%
%ADD11R,0.035X0.039*%
%ADD12R,0.043X0.035*%
%ADD13O,0.022X0.057*%
%ADD14O,0.057X0.022*%
G04:AMPARAMS|DCode=15|XSize=22mil|YSize=57mil|CornerRadius=0mil|HoleSize=0mil|Usage=FLASHONLY|Rotation=225.000|XOffset=0mil|YOffset=0mil|HoleType=Round|Shape=Round|*
%AMOVALD15*
21,1,0.035,0.022,0.000,0.000,315.0*
1,1,0.022,-0.013,0.013*
1,1,0.022,0.013,-0.013*
%
%ADD15OVALD15*%

G04:AMPARAMS|DCode=16|XSize=22mil|YSize=57mil|CornerRadius=0mil|HoleSize=0mil|Usage=FLASHONLY|Rotation=315.000|XOffset=0mil|YOffset=0mil|HoleType=Round|Shape=Round|*
%AMOVALD16*
21,1,0.035,0.022,0.000,0.000,45.0*
1,1,0.022,-0.013,-0.013*
1,1,0.022,0.013,0.013*
%
%ADD16OVALD16*%

%ADD17R,0.039X0.035*%
G04:AMPARAMS|DCode=18|XSize=39mil|YSize=35mil|CornerRadius=0mil|HoleSize=0mil|Usage=FLASHONLY|Rotation=315.000|XOffset=0mil|YOffset=0mil|HoleType=Round|Shape=Rectangle|*
%AMROTATEDRECTD18*
4,1,4,-0.026,0.002,-0.002,0.026,0.026,-0.002,0.002,-0.026,-0.026,0.002,0.0*
%
%ADD18ROTATEDRECTD18*%

G04:AMPARAMS|DCode=19|XSize=39mil|YSize=35mil|CornerRadius=0mil|HoleSize=0mil|Usage=FLASHONLY|Rotation=45.000|XOffset=0mil|YOffset=0mil|HoleType=Round|Shape=Rectangle|*
%AMROTATEDRECTD19*
4,1,4,-0.002,-0.026,-0.026,-0.002,0.002,0.026,0.026,0.002,-0.002,-0.026,0.0*
%
%ADD19ROTATEDRECTD19*%

%ADD20R,0.035X0.043*%
%ADD21R,0.035X0.033*%
%ADD22R,0.037X0.031*%
%ADD23R,0.031X0.037*%
%ADD24R,0.028X0.024*%
%ADD25C,0.010*%
%ADD26C,0.020*%
%ADD27C,0.030*%
%ADD28C,0.071*%
%ADD29R,0.063X0.063*%
%ADD30C,0.063*%
%ADD31O,0.059X0.059*%
%ADD32R,0.059X0.059*%
%ADD33R,0.059X0.059*%
%ADD34C,0.059*%
%ADD35C,0.197*%
%ADD36C,0.060*%
%ADD37R,0.060X0.060*%
%ADD38C,0.075*%
%ADD39R,0.071X0.071*%
%ADD40P,0.047X8X292.5*%
%ADD41R,0.043X0.043*%
%ADD42R,0.034X0.079*%
%ADD43O,0.034X0.079*%
%ADD44R,0.060X0.060*%
%ADD45R,0.060X0.080*%
%ADD46O,0.060X0.080*%
%ADD47C,0.109*%
%ADD48C,0.119*%
%ADD49C,0.119*%
%ADD50C,0.043*%
%ADD51C,0.069*%
%ADD52C,0.075*%
%ADD53C,0.020*%
D10*
X07907Y09393D02*
D03*
X08299Y08924D02*
D03*
X08349Y08956D02*
D03*
X08298Y08987D02*
D03*
X08127Y09357D02*
D03*
X08064Y09326D02*
D03*
X08033Y09357D02*
D03*
X07632Y08924D02*
D03*
X07606Y08956D02*
D03*
X07633Y08987D02*
D03*
X08778Y07273D02*
D03*
X05930Y07850D02*
D03*
X04695D02*
D03*
D11*
X07210Y09890D02*
D03*
X07150D02*
D03*
X07677Y09889D02*
D03*
X07617D02*
D03*
X07930Y09710D02*
D03*
X07870D02*
D03*
X07427Y09871D02*
D03*
X07367D02*
D03*
X07870Y09505D02*
D03*
X07930D02*
D03*
X05955Y09465D02*
D03*
X06015D02*
D03*
X08070Y09890D02*
D03*
X08010D02*
D03*
X06035Y09915D02*
D03*
X05975D02*
D03*
X04390Y07240D02*
D03*
X04450D02*
D03*
X04370Y07720D02*
D03*
X04430D02*
D03*
X04370Y08500D02*
D03*
X04430D02*
D03*
X08325Y07670D02*
D03*
X08265D02*
D03*
X07215Y07810D02*
D03*
X07155D02*
D03*
X06230Y07410D02*
D03*
X06170D02*
D03*
X04340Y09370D02*
D03*
X04400D02*
D03*
D12*
X06850Y08650D02*
D03*
Y08590D02*
D03*
X06680Y09510D02*
D03*
Y09450D02*
D03*
X06550Y07755D02*
D03*
Y07815D02*
D03*
X06750Y07755D02*
D03*
Y07815D02*
D03*
X06950Y07755D02*
D03*
Y07815D02*
D03*
X06650Y08650D02*
D03*
Y08590D02*
D03*
D13*
X07813Y09270D02*
D03*
X07844D02*
D03*
X07876D02*
D03*
X07907D02*
D03*
X07939D02*
D03*
X07970D02*
D03*
X08001D02*
D03*
X08033D02*
D03*
X08064D02*
D03*
X08096D02*
D03*
X08127D02*
D03*
Y08830D02*
D03*
X08096D02*
D03*
X08064D02*
D03*
X08033D02*
D03*
X08001D02*
D03*
X07970D02*
D03*
X07939D02*
D03*
X07907D02*
D03*
X07876D02*
D03*
X07844D02*
D03*
X07813D02*
D03*
D14*
X08190Y09207D02*
D03*
Y09176D02*
D03*
Y09144D02*
D03*
Y09113D02*
D03*
Y09081D02*
D03*
Y09050D02*
D03*
Y09019D02*
D03*
Y08987D02*
D03*
Y08956D02*
D03*
Y08924D02*
D03*
Y08893D02*
D03*
X07750D02*
D03*
Y08924D02*
D03*
Y08956D02*
D03*
Y08987D02*
D03*
Y09019D02*
D03*
Y09050D02*
D03*
Y09081D02*
D03*
Y09113D02*
D03*
Y09144D02*
D03*
Y09176D02*
D03*
Y09207D02*
D03*
D15*
X07967Y07360D02*
D03*
X07945Y07338D02*
D03*
X07923Y07316D02*
D03*
X07900Y07294D02*
D03*
X07878Y07271D02*
D03*
X07856Y07249D02*
D03*
X07834Y07227D02*
D03*
X07811Y07205D02*
D03*
X07789Y07182D02*
D03*
X07767Y07160D02*
D03*
X07745Y07138D02*
D03*
X07433Y07450D02*
D03*
X07455Y07472D02*
D03*
X07477Y07494D02*
D03*
X07500Y07516D02*
D03*
X07522Y07539D02*
D03*
X07544Y07561D02*
D03*
X07566Y07583D02*
D03*
X07589Y07605D02*
D03*
X07611Y07628D02*
D03*
X07633Y07650D02*
D03*
X07655Y07672D02*
D03*
D16*
Y07138D02*
D03*
X07633Y07160D02*
D03*
X07611Y07182D02*
D03*
X07589Y07205D02*
D03*
X07566Y07227D02*
D03*
X07544Y07249D02*
D03*
X07522Y07271D02*
D03*
X07500Y07294D02*
D03*
X07477Y07316D02*
D03*
X07455Y07338D02*
D03*
X07433Y07360D02*
D03*
X07745Y07672D02*
D03*
X07767Y07650D02*
D03*
X07789Y07628D02*
D03*
X07811Y07605D02*
D03*
X07834Y07583D02*
D03*
X07856Y07561D02*
D03*
X07878Y07539D02*
D03*
X07900Y07516D02*
D03*
X07923Y07494D02*
D03*
X07945Y07472D02*
D03*
X07967Y07450D02*
D03*
D17*
X04780Y09570D02*
D03*
Y09630D02*
D03*
X10355Y07135D02*
D03*
Y07075D02*
D03*
X09555Y07135D02*
D03*
Y07075D02*
D03*
X08755Y07140D02*
D03*
Y07080D02*
D03*
X07985Y09360D02*
D03*
Y09420D02*
D03*
D18*
X07459Y07119D02*
D03*
X07501Y07161D02*
D03*
X07896Y07736D02*
D03*
X07854Y07694D02*
D03*
D19*
X08014Y07181D02*
D03*
X07972Y07223D02*
D03*
X07434Y07671D02*
D03*
X07476Y07629D02*
D03*
D20*
X07355Y07180D02*
D03*
X07415D02*
D03*
X05890Y09910D02*
D03*
X05830D02*
D03*
X05575D02*
D03*
X05635D02*
D03*
D21*
X04140Y09594D02*
D03*
Y09646D02*
D03*
D22*
X07360Y07253D02*
D03*
Y07307D02*
D03*
D23*
X06945Y07610D02*
D03*
X06895D02*
D03*
D24*
X04699Y08697D02*
D03*
Y08623D02*
D03*
X04621Y08660D02*
D03*
D25*
X07397Y09050D02*
X07750D01*
X07750Y09050D02*
X07750Y09050D01*
X07907Y09270D02*
Y09393D01*
X05344Y09548D02*
Y09857D01*
X05230Y09434D02*
X05344Y09548D01*
X05230Y09370D02*
Y09434D01*
X05530Y09370D02*
Y09410D01*
X05392Y09548D02*
X05530Y09410D01*
X05392Y09548D02*
Y09876D01*
X05360Y09420D02*
Y09863D01*
X05330Y09390D02*
X05360Y09420D01*
X05330Y09370D02*
Y09390D01*
X05376Y09424D02*
X05430Y09370D01*
X05530D02*
Y09373D01*
X07615Y08845D02*
X07765D01*
X07570Y08890D02*
X07615Y08845D01*
X07765D02*
X07805Y08885D01*
X08096Y09326D02*
X08100Y09330D01*
X08096Y09270D02*
Y09326D01*
X08033Y09270D02*
Y09347D01*
X08127Y09270D02*
Y09347D01*
X08064Y09270D02*
Y09326D01*
X08190Y08987D02*
X08298D01*
X08190Y08956D02*
X08349D01*
X08190Y08924D02*
X08299D01*
X07632D02*
X07750D01*
X07606Y08956D02*
X07750D01*
X07633Y08987D02*
X07750D01*
X07700Y09400D02*
X07775D01*
X07844Y09331D01*
Y09270D02*
Y09331D01*
X07250Y09125D02*
Y09203D01*
Y09125D02*
X07294Y09081D01*
X07750D01*
X07050Y09125D02*
Y09203D01*
Y09125D02*
X07156Y09019D01*
X07750D01*
X06910Y08740D02*
X07150Y08500D01*
X08127Y08628D02*
Y08830D01*
X07078Y08772D02*
X07350Y08500D01*
X08095Y08650D02*
X08096Y08651D01*
Y08830D01*
X07385Y08675D02*
X07550Y08510D01*
X07250Y08810D02*
X07385Y08675D01*
X08064Y08676D02*
X08065Y08675D01*
X08064Y08676D02*
Y08830D01*
X07560Y08700D02*
X07750Y08510D01*
X07410Y08850D02*
X07560Y08700D01*
X08033Y08702D02*
Y08830D01*
X07850Y08500D02*
X07907Y08557D01*
Y08830D01*
X07320Y08830D02*
X07650Y08500D01*
X07875Y08725D02*
X07876Y08726D01*
Y08830D01*
X07160Y08790D02*
X07450Y08500D01*
X07844Y08751D02*
X07845Y08750D01*
X07844Y08751D02*
Y08830D01*
X07025Y08735D02*
X07250Y08510D01*
X07004Y08756D02*
X07025Y08735D01*
X07813Y08777D02*
Y08830D01*
X06134Y09836D02*
Y09836D01*
X06750Y08500D02*
Y08630D01*
Y08500D02*
X06750Y08500D01*
X06970Y08580D02*
X07050Y08500D01*
X06970Y08580D02*
Y08630D01*
X05830Y08770D02*
X05874Y08814D01*
X06372D01*
X06380Y08806D01*
Y08740D02*
Y08806D01*
X06450Y08500D02*
Y08670D01*
X05130Y08770D02*
X05286Y08926D01*
X05202Y08942D02*
X06566D01*
X05030Y08770D02*
X05202Y08942D01*
X05230Y08770D02*
X05370Y08910D01*
X05330Y08770D02*
X05454Y08894D01*
X05370Y08910D02*
X06553D01*
X05286Y08926D02*
X06560D01*
X06553Y08910D02*
X06633Y08830D01*
X06560Y08926D02*
X06636Y08850D01*
X06566Y08942D02*
X06638Y08870D01*
X05430Y08770D02*
X05538Y08878D01*
X05530Y08770D02*
X05622Y08862D01*
X05706Y08846D02*
X06527D01*
X05630Y08770D02*
X05706Y08846D01*
X05454Y08894D02*
X06547D01*
X05538Y08878D02*
X06540D01*
X05622Y08862D02*
X06533D01*
X06547Y08894D02*
X06631Y08810D01*
X06540Y08878D02*
X06628Y08790D01*
X06533Y08862D02*
X06623Y08772D01*
X06527Y08846D02*
X06617Y08756D01*
X06520Y08830D02*
X06537Y08813D01*
X05790Y08830D02*
X06520D01*
X05730Y08770D02*
X05790Y08830D01*
X06638Y08870D02*
X07480D01*
X06636Y08850D02*
X07410D01*
X06633Y08830D02*
X07320D01*
X06631Y08810D02*
X07250D01*
X06628Y08790D02*
X07160D01*
X06623Y08772D02*
X07078D01*
X06617Y08756D02*
X07004D01*
X07480Y08870D02*
X07850Y08500D01*
X06610Y08740D02*
X06910D01*
X06600Y08750D02*
X06610Y08740D01*
X06915Y08605D02*
X06930D01*
X06900Y08590D02*
X06915Y08605D01*
X06850Y08590D02*
X06900D01*
X04941Y07743D02*
Y07900D01*
X05878Y08718D02*
X05930Y08770D01*
X05308Y08718D02*
X05878D01*
X05972Y08702D02*
X06030Y08760D01*
X05476Y08686D02*
X06056D01*
X05515Y08670D02*
X06140D01*
X05392Y08702D02*
X05972D01*
X06030Y08760D02*
Y08770D01*
X06056Y08686D02*
X06130Y08760D01*
X06140Y08670D02*
X06230Y08760D01*
Y08770D01*
X06130Y08760D02*
Y08770D01*
X05381Y08591D02*
X05476Y08686D01*
X05290Y08600D02*
X05392Y08702D01*
X05190Y08600D02*
X05308Y08718D01*
X07750Y08500D02*
Y08510D01*
X07250Y08500D02*
Y08510D01*
X07550Y08500D02*
Y08510D01*
X06537Y08813D02*
X06600Y08750D01*
X08350Y07877D02*
Y07900D01*
X04990Y08449D02*
X05041Y08500D01*
X04990Y07736D02*
Y08449D01*
X05200Y08459D02*
X05241Y08500D01*
X05200Y07726D02*
Y08459D01*
X05141Y07743D02*
Y08422D01*
X05190Y08472D01*
Y08600D01*
X08620Y07805D02*
Y07914D01*
X08840Y08135D02*
X08880Y08175D01*
X08840Y08134D02*
Y08135D01*
X08620Y07914D02*
X08840Y08134D01*
X08824Y08140D02*
Y08219D01*
X08541Y07880D02*
X08808Y08147D01*
Y08303D01*
X08880Y08375D01*
X08792Y08887D02*
X08880Y08975D01*
X08776Y08971D02*
X08880Y09075D01*
X08760Y09055D02*
X08880Y09175D01*
X08744Y09139D02*
X08880Y09275D01*
X08728Y09223D02*
X08880Y09375D01*
X08712Y09307D02*
X08880Y09475D01*
X08696Y09391D02*
X08880Y09575D01*
X08680Y09475D02*
X08880Y09675D01*
X08664Y09559D02*
X08880Y09775D01*
X08648Y09643D02*
X08880Y09875D01*
X08632Y09727D02*
X08880Y09975D01*
X08616Y09819D02*
X08872Y10075D01*
X08600Y09920D02*
X08815Y10135D01*
X05328Y09598D02*
Y09850D01*
X05130Y09400D02*
X05328Y09598D01*
X05130Y09370D02*
Y09400D01*
X05312Y09609D02*
Y09843D01*
X05103Y09400D02*
X05312Y09609D01*
X05296Y09616D02*
Y09837D01*
X05096Y09416D02*
X05296Y09616D01*
X05280Y09623D02*
Y09830D01*
X05089Y09432D02*
X05280Y09623D01*
X04872Y09432D02*
X05089D01*
X04830Y09390D02*
X04872Y09432D01*
X04930Y09370D02*
X04976Y09416D01*
X05096D01*
X05030Y09370D02*
X05060Y09400D01*
X05103D01*
X04830Y09370D02*
Y09390D01*
X05084Y10246D02*
X05150Y10180D01*
X04713Y10163D02*
X04796Y10246D01*
X04829Y10166D02*
X04867D01*
X04793Y10130D02*
X04829Y10166D01*
X04893Y10182D02*
X04950Y10125D01*
X04823Y10182D02*
X04893D01*
X04777Y10136D02*
X04823Y10182D01*
X04962Y10198D02*
X04991Y10169D01*
X04816Y10198D02*
X04962D01*
X04761Y10143D02*
X04816Y10198D01*
X05006Y10214D02*
X05050Y10170D01*
X04809Y10214D02*
X05006D01*
X04745Y10150D02*
X04809Y10214D01*
X05040Y10230D02*
X05100Y10170D01*
X04803Y10230D02*
X05040D01*
X04729Y10156D02*
X04803Y10230D01*
X04796Y10246D02*
X05084D01*
X04867Y10166D02*
X04909Y10124D01*
X04793Y09970D02*
Y10130D01*
X04777Y09964D02*
Y10136D01*
X04761Y09957D02*
Y10143D01*
X04745Y09950D02*
Y10150D01*
X04729Y09944D02*
Y10156D01*
X04713Y09937D02*
Y10163D01*
Y09937D02*
X04790Y09860D01*
X04809Y10084D02*
X04850Y10125D01*
X04809Y09977D02*
Y10084D01*
Y09977D02*
X04830Y09956D01*
X04793Y09970D02*
X04823Y09940D01*
X04777Y09964D02*
X04817Y09924D01*
X04761Y09957D02*
X04810Y09908D01*
X04745Y09950D02*
X04803Y09892D01*
X04729Y09944D02*
X04797Y09876D01*
X04830Y09956D02*
X05290D01*
X04823Y09940D02*
X05283D01*
X04817Y09924D02*
X05277D01*
X04810Y09908D02*
X05270D01*
X04803Y09892D02*
X05263D01*
X04797Y09876D02*
X05257D01*
X04790Y09860D02*
X05250D01*
X04910Y09972D02*
X05296D01*
X05270Y09908D02*
X05328Y09850D01*
X05257Y09876D02*
X05296Y09837D01*
X05250Y09860D02*
X05280Y09830D01*
X05263Y09892D02*
X05312Y09843D01*
X05277Y09924D02*
X05344Y09857D01*
X05283Y09940D02*
X05360Y09863D01*
X05290Y09956D02*
X05376Y09870D01*
X05296Y09972D02*
X05392Y09876D01*
X04857Y10025D02*
X04910Y09972D01*
X04850Y10025D02*
X04857D01*
X05376Y09424D02*
Y09870D01*
X05150Y10125D02*
Y10180D01*
X05120Y10030D02*
X05145D01*
X05100Y10050D02*
X05120Y10030D01*
X05100Y10050D02*
Y10170D01*
X05050Y10125D02*
Y10170D01*
X04991Y10107D02*
Y10169D01*
X04990Y10085D02*
X05050Y10025D01*
X04990Y10085D02*
Y10106D01*
X04991Y10107D01*
X04910Y10065D02*
X04950Y10025D01*
X04910Y10065D02*
Y10106D01*
X04909Y10107D02*
X04910Y10106D01*
X04909Y10107D02*
Y10124D01*
X10662Y10093D02*
X10680Y10075D01*
X10657Y10093D02*
X10662D01*
X10600Y10150D02*
X10657Y10093D01*
X07595Y10180D02*
X07650Y10125D01*
X07595Y10180D02*
Y10237D01*
X07575Y10257D02*
Y10275D01*
X07550Y10300D02*
X07575Y10275D01*
X07350Y10300D02*
X07550D01*
X07322Y10272D02*
X07350Y10300D01*
X07322Y10125D02*
Y10272D01*
X07230Y09880D02*
X07247Y09863D01*
Y09799D02*
Y09863D01*
X07300Y09646D02*
Y09975D01*
X07431Y10094D02*
X07500Y10025D01*
Y09546D02*
Y10025D01*
Y09546D02*
X07547Y09499D01*
X07376Y10051D02*
Y10237D01*
X07300Y09975D02*
X07376Y10051D01*
X07300Y09646D02*
X07447Y09499D01*
X08880Y09575D02*
X09022D01*
X09063Y09616D01*
Y09916D02*
X09097D01*
X09022Y09875D02*
X09063Y09916D01*
X09097D02*
X09138Y09875D01*
X08880D02*
X09022D01*
X09138D02*
X09680D01*
X09097Y09816D02*
X09138Y09775D01*
X09063Y09816D02*
X09097D01*
X09138Y09775D02*
X09680D01*
X09115D02*
X09156Y09734D01*
X09080Y09775D02*
X09115D01*
X09955Y10150D02*
X10600D01*
X09880Y10075D02*
X09955Y10150D01*
X09938Y10075D02*
X10450D01*
X09897Y10034D02*
X09938Y10075D01*
X09863Y10034D02*
X09897D01*
X09100Y10100D02*
X09150Y10150D01*
X09805D01*
X09880Y10075D01*
X09822D02*
X09863Y10034D01*
X09680Y10075D02*
X09822D01*
X09138D02*
X09680D01*
X09097Y10034D02*
X09138Y10075D01*
X09063Y10034D02*
X09097D01*
X09845Y09975D02*
X09880D01*
X09845Y09875D02*
X09880D01*
X09845Y09775D02*
X09880D01*
X09845Y09675D02*
X09880D01*
X09845Y09575D02*
X09880D01*
Y09475D02*
X09915D01*
X09845D02*
X09880D01*
Y09375D02*
X09915D01*
X09845D02*
X09880D01*
Y09275D02*
X09915D01*
X09845D02*
X09880D01*
Y09175D02*
X09915D01*
X09845D02*
X09880D01*
Y09075D02*
X09915D01*
X09845D02*
X09880D01*
Y08975D02*
X09915D01*
X09845D02*
X09880D01*
Y08875D02*
X09915D01*
X09845D02*
X09880D01*
Y08775D02*
X09915D01*
X09845D02*
X09880D01*
Y08675D02*
X09915D01*
X09845D02*
X09880D01*
Y07275D02*
X09915D01*
X09845D02*
X09880D01*
Y07375D02*
X09915D01*
X09845D02*
X09880D01*
Y07475D02*
X09915D01*
X09845D02*
X09880D01*
Y07575D02*
X09915D01*
X09845D02*
X09880D01*
Y07675D02*
X09915D01*
X09845D02*
X09880D01*
Y07775D02*
X09915D01*
X09845D02*
X09880D01*
Y07875D02*
X09915D01*
X09845D02*
X09880D01*
Y07975D02*
X09915D01*
X09845D02*
X09880D01*
Y08075D02*
X09915D01*
X09845D02*
X09880D01*
Y08175D02*
X09915D01*
X09845D02*
X09880D01*
Y08275D02*
X09915D01*
X09845D02*
X09880D01*
Y08375D02*
X09915D01*
X09845D02*
X09880D01*
Y08475D02*
X09915D01*
X09845D02*
X09880D01*
Y08575D02*
X09915D01*
X09845D02*
X09880D01*
X05090Y08449D02*
X05141Y08500D01*
X05090Y07760D02*
Y08449D01*
X05137Y07689D02*
Y07713D01*
X05090Y07760D02*
X05137Y07713D01*
X05089Y07641D02*
X05137Y07689D01*
X05089Y07246D02*
X05137Y07197D01*
X05090Y07150D02*
X05137Y07197D01*
X05089Y07246D02*
Y07641D01*
X05957Y06915D02*
Y06975D01*
X05924Y06882D02*
X05957Y06915D01*
X05867Y06825D02*
X05924Y06882D01*
X05090Y06887D02*
Y07150D01*
Y06887D02*
X05152Y06825D01*
X05164Y06813D02*
X05855D01*
X05867Y06825D01*
X05152D02*
X05164Y06813D01*
X04596Y07238D02*
Y07649D01*
Y07238D02*
X04637Y07197D01*
X04596Y07649D02*
X04637Y07689D01*
X04595Y07155D02*
X04637Y07197D01*
X05973Y06908D02*
Y06968D01*
X05862Y06797D02*
X05973Y06908D01*
X04595Y06855D02*
Y07155D01*
X04653Y06797D02*
X05862D01*
X04595Y06855D02*
X04653Y06797D01*
X07476Y07226D02*
X07522Y07271D01*
X07526D01*
X07430Y07180D02*
X07476Y07226D01*
X07622Y07104D02*
X07655Y07138D01*
X07576Y07147D02*
X07611Y07182D01*
X07576Y07138D02*
Y07147D01*
X07548Y07164D02*
X07589Y07205D01*
X07548Y07145D02*
Y07164D01*
X07543Y07140D02*
X07548Y07145D01*
X10497Y09934D02*
X10538Y09975D01*
X10650D01*
X09956Y09934D02*
X10497D01*
X09915Y09975D02*
X09956Y09934D01*
X09880Y09975D02*
X09915D01*
X10497Y09834D02*
X10538Y09875D01*
X10650D01*
X09956Y09834D02*
X10497D01*
X09915Y09875D02*
X09956Y09834D01*
X09880Y09875D02*
X09915D01*
X10497Y09734D02*
X10538Y09775D01*
X10650D01*
X09956Y09734D02*
X10497D01*
X09915Y09775D02*
X09956Y09734D01*
X09880Y09775D02*
X09915D01*
X10497Y09634D02*
X10538Y09675D01*
X10650D01*
X09956Y09634D02*
X10497D01*
X09915Y09675D02*
X09956Y09634D01*
X09880Y09675D02*
X09915D01*
X10497Y09534D02*
X10538Y09575D01*
X10650D01*
X09956Y09534D02*
X10497D01*
X09915Y09575D02*
X09956Y09534D01*
X09880Y09575D02*
X09915D01*
X10497Y09434D02*
X10538Y09475D01*
X10650D01*
X09956Y09434D02*
X10497D01*
X09915Y09475D02*
X09956Y09434D01*
X10497Y09334D02*
X10538Y09375D01*
X10650D01*
X09956Y09334D02*
X10497D01*
X09915Y09375D02*
X09956Y09334D01*
X10497Y09234D02*
X10538Y09275D01*
X10650D01*
X09956Y09234D02*
X10497D01*
X09915Y09275D02*
X09956Y09234D01*
X10497Y09134D02*
X10538Y09175D01*
X10650D01*
X09956Y09134D02*
X10497D01*
X09915Y09175D02*
X09956Y09134D01*
X10497Y09034D02*
X10538Y09075D01*
X10650D01*
X09956Y09034D02*
X10497D01*
X09915Y09075D02*
X09956Y09034D01*
X10497Y08934D02*
X10538Y08975D01*
X10650D01*
X09956Y08934D02*
X10497D01*
X09915Y08975D02*
X09956Y08934D01*
X10497Y08834D02*
X10538Y08875D01*
X10650D01*
X09956Y08834D02*
X10497D01*
X09915Y08875D02*
X09956Y08834D01*
X10497Y08734D02*
X10538Y08775D01*
X10650D01*
X09956Y08734D02*
X10497D01*
X09915Y08775D02*
X09956Y08734D01*
Y08634D02*
X10497D01*
X09915Y08675D02*
X09956Y08634D01*
X10497D02*
X10538Y08675D01*
X10650D01*
X10497Y07234D02*
X10538Y07275D01*
X10650D01*
X09956Y07234D02*
X10497D01*
X09915Y07275D02*
X09956Y07234D01*
X10497Y07334D02*
X10538Y07375D01*
X10650D01*
X09956Y07334D02*
X10497D01*
X09915Y07375D02*
X09956Y07334D01*
X10497Y07434D02*
X10538Y07475D01*
X10650D01*
X09956Y07434D02*
X10497D01*
X09915Y07475D02*
X09956Y07434D01*
X10497Y07534D02*
X10538Y07575D01*
X10650D01*
X09956Y07534D02*
X10497D01*
X09915Y07575D02*
X09956Y07534D01*
X10497Y07634D02*
X10538Y07675D01*
X10650D01*
X09956Y07634D02*
X10497D01*
X09915Y07675D02*
X09956Y07634D01*
X10497Y07734D02*
X10538Y07775D01*
X10650D01*
X09956Y07734D02*
X10497D01*
X09915Y07775D02*
X09956Y07734D01*
X10497Y07834D02*
X10538Y07875D01*
X10650D01*
X09956Y07834D02*
X10497D01*
X09915Y07875D02*
X09956Y07834D01*
X10497Y07934D02*
X10538Y07975D01*
X10650D01*
X09956Y07934D02*
X10497D01*
X09915Y07975D02*
X09956Y07934D01*
X10497Y08034D02*
X10538Y08075D01*
X10650D01*
X09956Y08034D02*
X10497D01*
X09915Y08075D02*
X09956Y08034D01*
X10497Y08134D02*
X10538Y08175D01*
X10650D01*
X09956Y08134D02*
X10497D01*
X09915Y08175D02*
X09956Y08134D01*
X10497Y08234D02*
X10538Y08275D01*
X10650D01*
X09956Y08234D02*
X10497D01*
X09915Y08275D02*
X09956Y08234D01*
X10497Y08334D02*
X10538Y08375D01*
X10650D01*
X09956Y08334D02*
X10497D01*
X09915Y08375D02*
X09956Y08334D01*
X10497Y08434D02*
X10538Y08475D01*
X10650D01*
X09956Y08434D02*
X10497D01*
X09915Y08475D02*
X09956Y08434D01*
X10497Y08534D02*
X10538Y08575D01*
X10650D01*
X09956Y08534D02*
X10497D01*
X09915Y08575D02*
X09956Y08534D01*
X09938Y08575D02*
X10450D01*
X09897Y08616D02*
X09938Y08575D01*
X09863Y08616D02*
X09897D01*
X09938Y08475D02*
X10450D01*
X09897Y08516D02*
X09938Y08475D01*
X09863Y08516D02*
X09897D01*
X09938Y08375D02*
X10450D01*
X09897Y08416D02*
X09938Y08375D01*
X09863Y08416D02*
X09897D01*
X09938Y08275D02*
X10450D01*
X09897Y08316D02*
X09938Y08275D01*
X09863Y08316D02*
X09897D01*
X09938Y08175D02*
X10450D01*
X09897Y08216D02*
X09938Y08175D01*
X09863Y08216D02*
X09897D01*
X09938Y08075D02*
X10450D01*
X09897Y08116D02*
X09938Y08075D01*
X09863Y08116D02*
X09897D01*
X09938Y07975D02*
X10450D01*
X09897Y08016D02*
X09938Y07975D01*
X09863Y08016D02*
X09897D01*
X09938Y07875D02*
X10450D01*
X09897Y07916D02*
X09938Y07875D01*
X09863Y07916D02*
X09897D01*
X09938Y07775D02*
X10450D01*
X09897Y07816D02*
X09938Y07775D01*
X09863Y07816D02*
X09897D01*
X09938Y07675D02*
X10450D01*
X09897Y07716D02*
X09938Y07675D01*
X09863Y07716D02*
X09897D01*
X09938Y07575D02*
X10450D01*
X09897Y07616D02*
X09938Y07575D01*
X09863Y07616D02*
X09897D01*
X09938Y07475D02*
X10450D01*
X09897Y07516D02*
X09938Y07475D01*
X09863Y07516D02*
X09897D01*
X09938Y07375D02*
X10450D01*
X09897Y07416D02*
X09938Y07375D01*
X09863Y07416D02*
X09897D01*
X09938Y07275D02*
X10450D01*
X09897Y07316D02*
X09938Y07275D01*
X09863Y07316D02*
X09897D01*
X09938Y08675D02*
X10480D01*
X09897Y08716D02*
X09938Y08675D01*
X09863Y08716D02*
X09897D01*
X09938Y08775D02*
X10450D01*
X09897Y08816D02*
X09938Y08775D01*
X09863Y08816D02*
X09897D01*
X09938Y08875D02*
X10450D01*
X09897Y08916D02*
X09938Y08875D01*
X09863Y08916D02*
X09897D01*
X09938Y08975D02*
X10450D01*
X09897Y09016D02*
X09938Y08975D01*
X09863Y09016D02*
X09897D01*
X09938Y09075D02*
X10450D01*
X09897Y09116D02*
X09938Y09075D01*
X09863Y09116D02*
X09897D01*
X09938Y09175D02*
X10450D01*
X09897Y09216D02*
X09938Y09175D01*
X09863Y09216D02*
X09897D01*
X09938Y09275D02*
X10450D01*
X09897Y09316D02*
X09938Y09275D01*
X09863Y09316D02*
X09897D01*
X09938Y09375D02*
X10450D01*
X09897Y09416D02*
X09938Y09375D01*
X09863Y09416D02*
X09897D01*
X09938Y09475D02*
X10450D01*
X09897Y09516D02*
X09938Y09475D01*
X09863Y09516D02*
X09897D01*
X09938Y09575D02*
X10450D01*
X09897Y09616D02*
X09938Y09575D01*
X09863Y09616D02*
X09897D01*
X09938Y09675D02*
X10450D01*
X09897Y09716D02*
X09938Y09675D01*
X09863Y09716D02*
X09897D01*
X09938Y09775D02*
X10450D01*
X09897Y09816D02*
X09938Y09775D01*
X09863Y09816D02*
X09897D01*
X09938Y09875D02*
X10450D01*
X09897Y09916D02*
X09938Y09875D01*
X09863Y09916D02*
X09897D01*
X09938Y09975D02*
X10450D01*
X09897Y10016D02*
X09938Y09975D01*
X09863Y10016D02*
X09897D01*
X09804Y09934D02*
X09845Y09975D01*
X09156Y09934D02*
X09804D01*
X09115Y09975D02*
X09156Y09934D01*
X09080Y09975D02*
X09115D01*
X09804Y09834D02*
X09845Y09875D01*
X09156Y09834D02*
X09804D01*
X09115Y09875D02*
X09156Y09834D01*
X09080Y09875D02*
X09115D01*
X09804Y09734D02*
X09845Y09775D01*
X09156Y09734D02*
X09804D01*
Y09634D02*
X09845Y09675D01*
X09156Y09634D02*
X09804D01*
X09115Y09675D02*
X09156Y09634D01*
X09080Y09675D02*
X09115D01*
X09804Y09534D02*
X09845Y09575D01*
X09156Y09534D02*
X09804D01*
X09115Y09575D02*
X09156Y09534D01*
X09080Y09575D02*
X09115D01*
X09804Y09434D02*
X09845Y09475D01*
X09156Y09434D02*
X09804D01*
X09115Y09475D02*
X09156Y09434D01*
X09080Y09475D02*
X09115D01*
X09804Y09334D02*
X09845Y09375D01*
X09156Y09334D02*
X09804D01*
X09115Y09375D02*
X09156Y09334D01*
X09080Y09375D02*
X09115D01*
X09804Y09234D02*
X09845Y09275D01*
X09156Y09234D02*
X09804D01*
X09115Y09275D02*
X09156Y09234D01*
X09080Y09275D02*
X09115D01*
X09804Y09134D02*
X09845Y09175D01*
X09156Y09134D02*
X09804D01*
X09115Y09175D02*
X09156Y09134D01*
X09080Y09175D02*
X09115D01*
X09804Y09034D02*
X09845Y09075D01*
X09156Y09034D02*
X09804D01*
X09115Y09075D02*
X09156Y09034D01*
X09080Y09075D02*
X09115D01*
X09804Y08934D02*
X09845Y08975D01*
X09156Y08934D02*
X09804D01*
X09115Y08975D02*
X09156Y08934D01*
X09080Y08975D02*
X09115D01*
X09804Y08834D02*
X09845Y08875D01*
X09156Y08834D02*
X09804D01*
X09115Y08875D02*
X09156Y08834D01*
X09080Y08875D02*
X09115D01*
X09804Y08734D02*
X09845Y08775D01*
X09156Y08734D02*
X09804D01*
X09115Y08775D02*
X09156Y08734D01*
X09080Y08775D02*
X09115D01*
X09804Y08634D02*
X09845Y08675D01*
X09156Y08634D02*
X09804D01*
X09115Y08675D02*
X09156Y08634D01*
X09080Y08675D02*
X09115D01*
X09804Y07234D02*
X09845Y07275D01*
X09156Y07234D02*
X09804D01*
X09115Y07275D02*
X09156Y07234D01*
X09080Y07275D02*
X09115D01*
X09804Y07334D02*
X09845Y07375D01*
X09156Y07334D02*
X09804D01*
X09115Y07375D02*
X09156Y07334D01*
X09080Y07375D02*
X09115D01*
X09804Y07434D02*
X09845Y07475D01*
X09156Y07434D02*
X09804D01*
X09115Y07475D02*
X09156Y07434D01*
X09080Y07475D02*
X09115D01*
X09804Y07534D02*
X09845Y07575D01*
X09156Y07534D02*
X09804D01*
X09115Y07575D02*
X09156Y07534D01*
X09080Y07575D02*
X09115D01*
X09804Y07634D02*
X09845Y07675D01*
X09156Y07634D02*
X09804D01*
X09115Y07675D02*
X09156Y07634D01*
X09080Y07675D02*
X09115D01*
X09804Y07734D02*
X09845Y07775D01*
X09156Y07734D02*
X09804D01*
X09115Y07775D02*
X09156Y07734D01*
X09080Y07775D02*
X09115D01*
X09804Y07834D02*
X09845Y07875D01*
X09156Y07834D02*
X09804D01*
X09115Y07875D02*
X09156Y07834D01*
X09080Y07875D02*
X09115D01*
X09804Y07934D02*
X09845Y07975D01*
X09156Y07934D02*
X09804D01*
X09115Y07975D02*
X09156Y07934D01*
X09080Y07975D02*
X09115D01*
X09804Y08034D02*
X09845Y08075D01*
X09156Y08034D02*
X09804D01*
X09115Y08075D02*
X09156Y08034D01*
X09080Y08075D02*
X09115D01*
X09804Y08134D02*
X09845Y08175D01*
X09156Y08134D02*
X09804D01*
X09115Y08175D02*
X09156Y08134D01*
X09080Y08175D02*
X09115D01*
X09804Y08234D02*
X09845Y08275D01*
X09156Y08234D02*
X09804D01*
X09115Y08275D02*
X09156Y08234D01*
X09080Y08275D02*
X09115D01*
X09804Y08334D02*
X09845Y08375D01*
X09156Y08334D02*
X09804D01*
X09115Y08375D02*
X09156Y08334D01*
X09080Y08375D02*
X09115D01*
X09804Y08434D02*
X09845Y08475D01*
X09156Y08434D02*
X09804D01*
X09115Y08475D02*
X09156Y08434D01*
X09080Y08475D02*
X09115D01*
X09804Y08534D02*
X09845Y08575D01*
X09156Y08534D02*
X09804D01*
X09115Y08575D02*
X09156Y08534D01*
X09080Y08575D02*
X09115D01*
X09138D02*
X09680D01*
X09097Y08616D02*
X09138Y08575D01*
X09063Y08616D02*
X09097D01*
X09138Y08475D02*
X09680D01*
X09097Y08516D02*
X09138Y08475D01*
X09063Y08516D02*
X09097D01*
X09138Y08375D02*
X09680D01*
X09097Y08416D02*
X09138Y08375D01*
X09063Y08416D02*
X09097D01*
X09138Y08275D02*
X09680D01*
X09097Y08316D02*
X09138Y08275D01*
X09063Y08316D02*
X09097D01*
X09138Y08175D02*
X09680D01*
X09097Y08216D02*
X09138Y08175D01*
X09063Y08216D02*
X09097D01*
X09138Y08075D02*
X09680D01*
X09097Y08116D02*
X09138Y08075D01*
X09063Y08116D02*
X09097D01*
X09138Y07975D02*
X09680D01*
X09097Y08016D02*
X09138Y07975D01*
X09063Y08016D02*
X09097D01*
X09138Y07875D02*
X09680D01*
X09097Y07916D02*
X09138Y07875D01*
X09063Y07916D02*
X09097D01*
X09138Y07775D02*
X09680D01*
X09097Y07816D02*
X09138Y07775D01*
X09063Y07816D02*
X09097D01*
X09138Y07675D02*
X09680D01*
X09097Y07716D02*
X09138Y07675D01*
X09063Y07716D02*
X09097D01*
X09138Y07575D02*
X09680D01*
X09097Y07616D02*
X09138Y07575D01*
X09063Y07616D02*
X09097D01*
X09138Y07475D02*
X09680D01*
X09097Y07516D02*
X09138Y07475D01*
X09063Y07516D02*
X09097D01*
X09138Y07375D02*
X09680D01*
X09097Y07416D02*
X09138Y07375D01*
X09063Y07416D02*
X09097D01*
X09138Y07275D02*
X09680D01*
X09097Y07316D02*
X09138Y07275D01*
X09063Y07316D02*
X09097D01*
X09138Y08675D02*
X09680D01*
X09097Y08716D02*
X09138Y08675D01*
X09063Y08716D02*
X09097D01*
X09138Y08775D02*
X09680D01*
X09097Y08816D02*
X09138Y08775D01*
X09063Y08816D02*
X09097D01*
X09138Y08875D02*
X09680D01*
X09097Y08916D02*
X09138Y08875D01*
X09063Y08916D02*
X09097D01*
X09138Y08975D02*
X09680D01*
X09097Y09016D02*
X09138Y08975D01*
X09063Y09016D02*
X09097D01*
X09138Y09075D02*
X09680D01*
X09097Y09116D02*
X09138Y09075D01*
X09063Y09116D02*
X09097D01*
X09138Y09175D02*
X09680D01*
X09097Y09216D02*
X09138Y09175D01*
X09063Y09216D02*
X09097D01*
X09138Y09275D02*
X09680D01*
X09097Y09316D02*
X09138Y09275D01*
X09063Y09316D02*
X09097D01*
X09138Y09375D02*
X09680D01*
X09097Y09416D02*
X09138Y09375D01*
X09063Y09416D02*
X09097D01*
X09138Y09475D02*
X09680D01*
X09097Y09516D02*
X09138Y09475D01*
X09063Y09516D02*
X09097D01*
X09138Y09575D02*
X09680D01*
X09097Y09616D02*
X09138Y09575D01*
X09063Y09616D02*
X09097D01*
X09138Y09675D02*
X09680D01*
X09097Y09716D02*
X09138Y09675D01*
X09063Y09716D02*
X09097D01*
X09138Y09975D02*
X09680D01*
X09097Y10016D02*
X09138Y09975D01*
X09063Y10016D02*
X09097D01*
X05441Y07380D02*
Y07649D01*
X05341Y07380D02*
Y07649D01*
X05241Y07380D02*
Y07649D01*
X05141Y07380D02*
Y07649D01*
X05041Y07380D02*
Y07649D01*
X04941Y07380D02*
Y07649D01*
X09680Y07375D02*
X09822D01*
X09680Y07475D02*
X09822D01*
X09680Y07575D02*
X09822D01*
X05837Y07687D02*
Y07846D01*
X05741Y07380D02*
Y07649D01*
X09680Y07775D02*
X09822D01*
X05641Y07380D02*
Y07649D01*
X05541Y07380D02*
Y07649D01*
X09680Y08575D02*
X09822D01*
X10480Y08675D02*
X10500D01*
X09680D02*
X09822D01*
X08872Y10075D02*
X08880D01*
X07496Y07551D02*
X07508Y07539D01*
X07522D01*
X07455Y08105D02*
X08492D01*
X07250Y07900D02*
X07455Y08105D01*
X07250Y07900D02*
X07280Y07870D01*
X07539Y08089D02*
X08498D01*
X07350Y07900D02*
X07539Y08089D01*
X07623Y08073D02*
X08505D01*
X07450Y07900D02*
X07623Y08073D01*
X07450Y07789D02*
X07611Y07628D01*
X07450Y07789D02*
Y07900D01*
X07707Y08057D02*
X08512D01*
X07550Y07900D02*
X07707Y08057D01*
X07791Y08041D02*
X08518D01*
X07650Y07900D02*
X07791Y08041D01*
X07640Y07890D02*
X07650Y07900D01*
X07640Y07688D02*
Y07890D01*
Y07688D02*
X07655Y07672D01*
X07875Y08025D02*
X08525D01*
X07750Y07900D02*
X07875Y08025D01*
X07750Y07900D02*
X07760Y07890D01*
Y07688D02*
Y07890D01*
X07745Y07672D02*
X07760Y07688D01*
X07959Y08009D02*
X08532D01*
X07850Y07900D02*
X07959Y08009D01*
X07840Y07890D02*
X07850Y07900D01*
X07840Y07735D02*
Y07890D01*
X07795Y07690D02*
X07840Y07735D01*
X07795Y07678D02*
Y07690D01*
X07767Y07650D02*
X07795Y07678D01*
X08043Y07993D02*
X08538D01*
X07950Y07900D02*
X08043Y07993D01*
X07950Y07900D02*
X07960Y07890D01*
Y07740D02*
Y07890D01*
X07855Y07635D02*
X07960Y07740D01*
X07841Y07635D02*
X07855D01*
X07811Y07605D02*
X07841Y07635D01*
X08127Y07977D02*
X08545D01*
X08050Y07900D02*
X08127Y07977D01*
X08050Y07755D02*
Y07900D01*
X07856Y07561D02*
X08050Y07755D01*
X08211Y07961D02*
X08551D01*
X08150Y07900D02*
X08211Y07961D01*
X08150Y07810D02*
Y07900D01*
X08295Y07945D02*
X08558D01*
X08250Y07900D02*
X08295Y07945D01*
X08250Y07821D02*
Y07900D01*
X08389Y07929D02*
X08565D01*
X08350Y07900D02*
X08360D01*
X08389Y07929D01*
X08785Y07275D02*
X08880D01*
X08765Y07375D02*
X08880D01*
X08751Y07475D02*
X08880D01*
X08734Y07575D02*
X08880D01*
X08715Y07675D02*
X08880D01*
X07491Y08281D02*
X07530Y08320D01*
X08695Y07775D02*
X08880D01*
X07285Y08305D02*
X07309Y08281D01*
X05741Y08256D02*
X05790Y08305D01*
X07309Y08281D02*
X07491D01*
X05741Y07730D02*
X05754D01*
X05741D02*
Y08256D01*
X05754Y07730D02*
X05778Y07706D01*
Y07673D02*
Y07706D01*
X05754Y07649D02*
X05778Y07673D01*
X05737Y07255D02*
X05778Y07214D01*
Y07180D02*
Y07214D01*
X05737Y07140D02*
X05778Y07180D01*
X05741Y07649D02*
X05754D01*
X05737Y07255D02*
Y07389D01*
Y06897D02*
Y07140D01*
X07444Y08301D02*
X07451Y08307D01*
X07312Y08301D02*
X07444D01*
X07291Y08322D02*
X07312Y08301D01*
X05641Y08278D02*
X05684Y08322D01*
X05654Y07730D02*
X05678Y07706D01*
X05641Y07730D02*
X05654D01*
X05641D02*
Y08278D01*
X05678Y07673D02*
Y07706D01*
X05654Y07649D02*
X05678Y07673D01*
X05637Y07255D02*
X05678Y07214D01*
Y07180D02*
Y07214D01*
X05637Y07140D02*
X05678Y07180D01*
X05641Y07649D02*
X05654D01*
X05637Y07255D02*
Y07389D01*
Y06897D02*
Y07140D01*
X07312Y08338D02*
X07323Y08327D01*
X08845Y07975D02*
X08880D01*
X05541Y08257D02*
X05621Y08338D01*
X05541Y07730D02*
Y08257D01*
X05554Y07730D02*
X05578Y07706D01*
X05541Y07730D02*
X05554D01*
X05578Y07673D02*
Y07706D01*
X05554Y07649D02*
X05578Y07673D01*
X05537Y07255D02*
X05578Y07214D01*
Y07180D02*
Y07214D01*
X05537Y07140D02*
X05578Y07180D01*
X05541Y07649D02*
X05554D01*
X05537Y07255D02*
Y07389D01*
Y06897D02*
Y07140D01*
X06850Y08500D02*
Y08580D01*
X08824Y08219D02*
X08880Y08275D01*
X08405Y07880D02*
X08541D01*
X08350Y07825D02*
X08405Y07880D01*
X08340Y07825D02*
X08350D01*
X09822Y09975D02*
X09863Y10016D01*
X09680Y09975D02*
X09822D01*
Y09875D02*
X09863Y09916D01*
X09680Y09875D02*
X09822D01*
Y09775D02*
X09863Y09816D01*
X09680Y09775D02*
X09822D01*
Y09675D02*
X09863Y09716D01*
X09680Y09675D02*
X09822D01*
Y09575D02*
X09863Y09616D01*
X09680Y09575D02*
X09822D01*
Y09475D02*
X09863Y09516D01*
X09680Y09475D02*
X09822D01*
Y09375D02*
X09863Y09416D01*
X09680Y09375D02*
X09822D01*
Y09275D02*
X09863Y09316D01*
X09680Y09275D02*
X09822D01*
Y09175D02*
X09863Y09216D01*
X09680Y09175D02*
X09822D01*
Y09075D02*
X09863Y09116D01*
X09680Y09075D02*
X09822D01*
Y08975D02*
X09863Y09016D01*
X09680Y08975D02*
X09822D01*
Y08875D02*
X09863Y08916D01*
X09680Y08875D02*
X09822D01*
Y08775D02*
X09863Y08816D01*
X09680Y08775D02*
X09822D01*
Y07275D02*
X09863Y07316D01*
X09680Y07275D02*
X09822D01*
Y07375D02*
X09863Y07416D01*
X09822Y07475D02*
X09863Y07516D01*
X09822Y07575D02*
X09863Y07616D01*
X09822Y07675D02*
X09863Y07716D01*
X09680Y07675D02*
X09822D01*
Y07775D02*
X09863Y07816D01*
X09822Y07875D02*
X09863Y07916D01*
X09680Y07875D02*
X09822D01*
Y07975D02*
X09863Y08016D01*
X09680Y07975D02*
X09822D01*
Y08075D02*
X09863Y08116D01*
X09680Y08075D02*
X09822D01*
Y08175D02*
X09863Y08216D01*
X09680Y08175D02*
X09822D01*
Y08275D02*
X09863Y08316D01*
X09680Y08275D02*
X09822D01*
Y08375D02*
X09863Y08416D01*
X09680Y08375D02*
X09822D01*
Y08475D02*
X09863Y08516D01*
X09680Y08475D02*
X09822D01*
Y08575D02*
X09863Y08616D01*
X09822Y08675D02*
X09863Y08716D01*
X09022Y10075D02*
X09063Y10034D01*
X08880Y10075D02*
X09022D01*
Y09975D02*
X09063Y10016D01*
X08880Y09975D02*
X09022D01*
Y09775D02*
X09063Y09816D01*
X08880Y09775D02*
X09022D01*
Y09675D02*
X09063Y09716D01*
X08880Y09675D02*
X09022D01*
Y09475D02*
X09063Y09516D01*
X08880Y09475D02*
X09022D01*
Y09375D02*
X09063Y09416D01*
X08880Y09375D02*
X09022D01*
Y09275D02*
X09063Y09316D01*
X08880Y09275D02*
X09022D01*
Y09175D02*
X09063Y09216D01*
X08880Y09175D02*
X09022D01*
Y09075D02*
X09063Y09116D01*
X08880Y09075D02*
X09022D01*
Y08975D02*
X09063Y09016D01*
X08880Y08975D02*
X09022D01*
Y08875D02*
X09063Y08916D01*
X08880Y08875D02*
X09022D01*
Y08775D02*
X09063Y08816D01*
X08880Y08775D02*
X09022D01*
Y07275D02*
X09063Y07316D01*
X08880Y07275D02*
X09022D01*
Y07375D02*
X09063Y07416D01*
X08880Y07375D02*
X09022D01*
Y07475D02*
X09063Y07516D01*
X08880Y07475D02*
X09022D01*
Y07575D02*
X09063Y07616D01*
X08880Y07575D02*
X09022D01*
Y07675D02*
X09063Y07716D01*
X08880Y07675D02*
X09022D01*
Y07775D02*
X09063Y07816D01*
X08880Y07775D02*
X09022D01*
Y07875D02*
X09063Y07916D01*
X08880Y07875D02*
X09022D01*
Y07975D02*
X09063Y08016D01*
X08880Y07975D02*
X09022D01*
Y08075D02*
X09063Y08116D01*
X08880Y08075D02*
X09022D01*
Y08175D02*
X09063Y08216D01*
X08880Y08175D02*
X09022D01*
Y08275D02*
X09063Y08316D01*
X08880Y08275D02*
X09022D01*
Y08375D02*
X09063Y08416D01*
X08880Y08375D02*
X09022D01*
Y08475D02*
X09063Y08516D01*
X08880Y08475D02*
X09022D01*
Y08575D02*
X09063Y08616D01*
X08880Y08575D02*
X09022D01*
Y08675D02*
X09063Y08716D01*
X08880Y08675D02*
X09022D01*
X07367Y09820D02*
Y09871D01*
X07347Y09799D02*
X07367Y09820D01*
X07427Y09819D02*
Y09871D01*
Y09819D02*
X07447Y09799D01*
X06385Y07810D02*
Y08245D01*
X06550Y07820D02*
X06555Y07815D01*
X07500Y07339D02*
Y07349D01*
X07477Y07316D02*
X07500Y07339D01*
X06550Y07820D02*
Y07900D01*
X06555Y07815D02*
X06560D01*
X06550D02*
X06555D01*
X05634Y09899D02*
X05804Y10069D01*
X05819Y09921D02*
X05938Y10040D01*
X05734Y09836D02*
X05819Y09921D01*
X05934Y09467D02*
X05952Y09450D01*
X05437Y07255D02*
Y07389D01*
Y07255D02*
X05478Y07214D01*
X05397Y08552D02*
X05515Y08670D01*
X05397Y08260D02*
Y08552D01*
Y08260D02*
X05421Y08236D01*
Y08138D02*
Y08236D01*
X05394Y08111D02*
X05421Y08138D01*
X05394Y07946D02*
Y08111D01*
Y07946D02*
X05441Y07900D01*
Y07649D02*
X05454D01*
X05478Y07673D01*
Y07706D01*
X05454Y07730D02*
X05478Y07706D01*
X05441Y07730D02*
X05454D01*
X05441D02*
Y07900D01*
X05337Y07255D02*
X05378Y07214D01*
X05337Y07255D02*
Y07389D01*
X05341Y07649D02*
X05354D01*
X05378Y07673D01*
Y07706D01*
X05354Y07730D02*
X05378Y07706D01*
X05341Y07730D02*
X05354D01*
X05341D02*
Y07900D01*
X05360Y07919D01*
Y08462D01*
X05381Y08483D01*
Y08591D01*
X05187Y07247D02*
X05237Y07197D01*
X05187Y07247D02*
Y07639D01*
X05237Y07689D01*
X05200Y07726D02*
X05237Y07689D01*
X04990Y07643D02*
X05037Y07689D01*
X04990Y07244D02*
Y07643D01*
Y07244D02*
X05037Y07197D01*
X04990Y07736D02*
X05037Y07689D01*
X05240Y08180D02*
X05300D01*
X05310Y08190D01*
X04637Y06897D02*
Y07140D01*
X04678Y07180D01*
Y07214D01*
X04637Y07255D02*
X04678Y07214D01*
X04637Y07255D02*
Y07389D01*
X04641Y07393D01*
Y07649D01*
X04654D01*
X04678Y07673D01*
Y07706D01*
X04654Y07730D02*
X04678Y07706D01*
X04641Y07730D02*
X04654D01*
X04641D02*
Y07900D01*
X05420Y08100D02*
X05455Y08135D01*
Y08275D01*
X05536Y08356D01*
X08106D02*
X08250Y08500D01*
X08297Y08547D01*
X04537Y06897D02*
Y07140D01*
X04578Y07180D01*
Y07214D01*
X04537Y07255D02*
X04578Y07214D01*
X04537Y07255D02*
Y07389D01*
X08150Y08500D02*
X08213Y08563D01*
X04685Y07249D02*
X04737Y07197D01*
X04685Y07249D02*
Y07637D01*
X04737Y07689D01*
X08050Y08500D02*
X08129Y08579D01*
X07670Y07355D02*
X07685Y07370D01*
X07527Y07355D02*
X07670D01*
X07950Y08500D02*
X08045Y08595D01*
X05241Y07730D02*
Y08051D01*
X05340Y08150D01*
Y08220D01*
X05290Y08270D02*
X05340Y08220D01*
X05290Y08270D02*
Y08600D01*
X05241Y07730D02*
X05254D01*
X05278Y07706D01*
Y07673D02*
Y07706D01*
X05254Y07649D02*
X05278Y07673D01*
X05241Y07649D02*
X05254D01*
X05237Y07255D02*
X05278Y07214D01*
X05237Y07255D02*
Y07389D01*
X05141Y07743D02*
X05178Y07706D01*
Y07673D02*
Y07706D01*
X05154Y07649D02*
X05178Y07673D01*
X05141Y07649D02*
X05154D01*
X05137Y07255D02*
Y07389D01*
Y07255D02*
X05178Y07214D01*
Y07180D02*
Y07214D01*
X05137Y07140D02*
X05178Y07180D01*
X05137Y06897D02*
Y07140D01*
X05041Y07730D02*
Y07900D01*
Y07730D02*
X05054D01*
X05078Y07706D01*
Y07673D02*
Y07706D01*
X05054Y07649D02*
X05078Y07673D01*
X05041Y07649D02*
X05054D01*
X05037Y07255D02*
Y07389D01*
Y07255D02*
X05078Y07214D01*
Y07180D02*
Y07214D01*
X05037Y07140D02*
X05078Y07180D01*
X05037Y06897D02*
Y07140D01*
X04941Y07743D02*
X04978Y07706D01*
Y07673D02*
Y07706D01*
X04954Y07649D02*
X04978Y07673D01*
X04941Y07649D02*
X04954D01*
X04937Y07255D02*
Y07389D01*
Y07255D02*
X04978Y07214D01*
Y07180D02*
Y07214D01*
X04937Y07140D02*
X04978Y07180D01*
X04937Y06897D02*
Y07140D01*
X04837Y06897D02*
Y07140D01*
X04878Y07180D01*
Y07214D01*
X04837Y07255D02*
X04878Y07214D01*
X04837Y07255D02*
Y07389D01*
X04841Y07393D01*
Y07649D01*
X04854D01*
X04878Y07673D01*
Y07706D01*
X04854Y07730D02*
X04878Y07706D01*
X04841Y07730D02*
X04854D01*
X04841D02*
Y07900D01*
X04737Y06897D02*
Y07140D01*
X04778Y07180D01*
Y07214D01*
X04737Y07255D02*
X04778Y07214D01*
X04737Y07255D02*
Y07389D01*
X04741Y07393D01*
Y07649D01*
X04754D01*
X04778Y07673D01*
Y07706D01*
X04754Y07730D02*
X04778Y07706D01*
X04741Y07730D02*
X04754D01*
X04741D02*
Y07900D01*
X04793Y07241D02*
X04837Y07197D01*
X04793Y07241D02*
Y07646D01*
X04837Y07689D01*
X04790Y07736D02*
X04837Y07689D01*
X04790Y07736D02*
Y08449D01*
X04841Y08500D01*
X04892Y07243D02*
X04937Y07197D01*
X04892Y07243D02*
Y07644D01*
X04937Y07689D01*
Y07713D01*
X04900Y07750D02*
X04937Y07713D01*
X04900Y07750D02*
Y08459D01*
X04941Y08500D01*
X05787Y07247D02*
X05837Y07197D01*
X05787Y07247D02*
Y07638D01*
X05837Y07687D01*
X05795Y07888D02*
X05837Y07846D01*
X05795Y07888D02*
Y08225D01*
X05841Y08451D02*
Y08500D01*
Y08451D02*
X05851Y08440D01*
X07439D02*
X07450Y08451D01*
Y08500D01*
X05689Y07641D02*
X05737Y07689D01*
X05690Y07736D02*
X05737Y07689D01*
X05690Y07736D02*
Y08230D01*
X05741Y08462D02*
Y08500D01*
Y08462D02*
X05779Y08424D01*
X07474D02*
X07550Y08500D01*
X05637Y07684D02*
Y07689D01*
X05591Y07638D02*
X05637Y07684D01*
X05590Y07736D02*
X05637Y07689D01*
X05590Y07736D02*
Y08230D01*
X05641Y08444D02*
Y08500D01*
Y08444D02*
X05677Y08408D01*
X07558D02*
X07650Y08500D01*
X05490Y07736D02*
X05537Y07689D01*
X05490Y07736D02*
Y08230D01*
X05492Y07644D02*
X05537Y07689D01*
X05541Y08465D02*
Y08500D01*
Y08465D02*
X05614Y08392D01*
X07642D02*
X07750Y08500D01*
X05384Y07636D02*
X05437Y07689D01*
X05384Y07250D02*
Y07636D01*
Y07250D02*
X05437Y07197D01*
X05380Y07746D02*
X05437Y07689D01*
X05380Y07746D02*
Y07882D01*
X05381Y07883D01*
Y07917D01*
X05378Y07920D02*
X05381Y07917D01*
X05378Y07920D02*
Y08208D01*
X05395Y08225D01*
X05441Y08500D02*
X05564Y08376D01*
X07726D02*
X07850Y08500D01*
X08045Y07535D02*
X08155Y07645D01*
X08045Y07460D02*
Y07535D01*
X07996Y07411D02*
X08045Y07460D01*
X06750Y07815D02*
Y07900D01*
Y07980D01*
X05634Y09836D02*
Y09899D01*
X05804Y10069D02*
X05856D01*
X06334Y09836D02*
X06385Y09785D01*
X06434Y09836D02*
X06551D01*
X05938Y10040D02*
Y10167D01*
X06950Y07830D02*
Y07900D01*
X07647Y09749D02*
Y09799D01*
Y09749D02*
X07687Y09709D01*
X07853D01*
X07547Y09799D02*
Y09869D01*
X07567Y09889D01*
X07613D01*
X07680D02*
X07727D01*
X07747Y09869D01*
Y09799D02*
Y09869D01*
X04530Y08751D02*
X04621Y08660D01*
X06330Y09370D02*
Y09432D01*
X06434Y09536D01*
X06230Y09370D02*
Y09432D01*
X06334Y09536D01*
X06130Y09370D02*
X06234Y09474D01*
Y09536D01*
X06030Y09370D02*
X06134Y09474D01*
Y09536D01*
X05834Y09466D02*
Y09536D01*
Y09466D02*
X05930Y09370D01*
X05734Y09536D02*
X05830Y09440D01*
Y09370D02*
Y09440D01*
X05634Y09536D02*
X05730Y09440D01*
Y09370D02*
Y09440D01*
X05534Y09536D02*
X05630Y09440D01*
Y09370D02*
Y09440D01*
X08475Y07530D02*
X08485Y07540D01*
X08340Y07395D02*
X08475Y07530D01*
X07810Y07295D02*
X07856Y07249D01*
X06650Y08500D02*
Y08575D01*
X07445Y07239D02*
X07500Y07294D01*
X07967Y07450D02*
Y07452D01*
X08015Y07500D01*
X07750Y07530D02*
X07780D01*
X07834Y07583D01*
X04418Y08505D02*
X04424Y08500D01*
X07150Y07900D02*
X07152Y07898D01*
X07767Y07146D02*
Y07160D01*
X05237Y06897D02*
Y07140D01*
X05492Y07242D02*
X05537Y07197D01*
X05492Y07242D02*
Y07644D01*
X05478Y07180D02*
Y07214D01*
X05591Y07244D02*
X05637Y07197D01*
X05591Y07244D02*
Y07638D01*
X05689Y07245D02*
X05737Y07197D01*
X05689Y07245D02*
Y07641D01*
X05337Y07140D02*
X05378Y07180D01*
Y07214D01*
X05437Y06897D02*
Y07140D01*
X05478Y07180D01*
X07767Y07146D02*
X07779Y07134D01*
X07745Y07138D02*
X07755Y07127D01*
Y07075D02*
Y07127D01*
X07779Y07076D02*
Y07134D01*
X05295Y07647D02*
X05337Y07689D01*
X05337Y06897D02*
Y07140D01*
X05295Y07175D02*
Y07647D01*
X05280Y07161D02*
X05295Y07175D01*
X05237Y07140D02*
X05278Y07180D01*
Y07214D01*
X05280Y06860D02*
Y07161D01*
X05296Y06874D02*
Y07154D01*
X05337Y07195D01*
Y07197D01*
X05296Y06874D02*
X05325Y06845D01*
X05280Y06860D02*
X05311Y06829D01*
X05925Y06928D02*
Y06988D01*
X05325Y06845D02*
X05842D01*
X05925Y06928D01*
X05849Y06829D02*
X05919Y06900D01*
X05311Y06829D02*
X05849D01*
X05849Y06829D01*
Y06829D01*
X05919Y06900D02*
X05919D01*
X05941Y06921D01*
Y06981D01*
X07281Y07239D02*
X07445D01*
X07100Y07420D02*
X07281Y07239D01*
X08815Y10135D02*
X09020D01*
X09080Y10075D01*
X05900Y07960D02*
Y08220D01*
X06675Y09515D02*
Y09625D01*
Y09515D02*
X06680Y09510D01*
X06551Y09836D02*
X06590Y09875D01*
X06685D01*
X06720Y09840D01*
Y09780D02*
Y09840D01*
Y09780D02*
X06775Y09725D01*
X06385Y09785D02*
X06635D01*
X06675Y09825D01*
X06340Y09730D02*
X06670D01*
X06234Y09836D02*
X06340Y09730D01*
X06900Y07450D02*
X06910D01*
X07000D02*
X07054Y07396D01*
Y07311D02*
Y07396D01*
X05900Y07960D02*
X06200Y07660D01*
X06560Y07815D02*
X06699Y07676D01*
X06200Y07660D02*
X07150D01*
X07433Y07360D02*
X07441Y07369D01*
X06699Y07676D02*
X07157D01*
X06900Y07450D02*
Y07605D01*
X06945Y07610D02*
X06950Y07605D01*
Y07420D02*
Y07605D01*
Y07420D02*
X07000Y07370D01*
Y07350D02*
Y07370D01*
X08405Y07845D02*
X08529D01*
X08824Y08140D01*
X07947Y07338D02*
X07947Y07338D01*
X07945D02*
X07947D01*
X08096Y07189D01*
X07967Y07360D02*
X08003Y07325D01*
X08096Y07189D02*
X08106Y07179D01*
X07878Y07271D02*
X07920Y07230D01*
X07923Y07316D02*
X08080Y07159D01*
Y07158D02*
Y07159D01*
X08066Y07144D02*
X08080Y07158D01*
X07864Y07129D02*
X08054D01*
X08066Y07141D01*
Y07144D01*
X08073Y07113D02*
X08106Y07146D01*
Y07179D01*
X07873Y07113D02*
X08073D01*
X08003Y07325D02*
X08225D01*
X08210Y07290D02*
X08295Y07205D01*
Y07030D02*
Y07205D01*
Y07030D02*
X08300Y07000D01*
X08400D02*
Y07150D01*
X08225Y07325D02*
X08400Y07150D01*
X07550Y07733D02*
X07633Y07650D01*
X07550Y07733D02*
Y07900D01*
X07280Y07767D02*
Y07870D01*
X07350Y07844D02*
Y07900D01*
Y07844D02*
X07589Y07605D01*
X06550Y07900D02*
Y07950D01*
X06750Y07980D02*
X06880Y08110D01*
X06550Y07950D02*
X06875Y08275D01*
X06880Y08110D02*
Y08240D01*
X06875Y08275D02*
X07100D01*
X07251Y08124D01*
X05790Y08305D02*
X07285D01*
X05684Y08322D02*
X07291D01*
X05621Y08338D02*
X07312D01*
X05536Y08356D02*
X08106D01*
X05564Y08376D02*
X07726D01*
X05614Y08392D02*
X07642D01*
X05677Y08408D02*
X07558D01*
X05779Y08424D02*
X07474D01*
X05851Y08440D02*
X07439D01*
X07050Y07957D02*
Y08240D01*
X07009Y07917D02*
X07050Y07957D01*
X07009Y07881D02*
Y07917D01*
Y07881D02*
X07200Y07690D01*
X07270D01*
X07500Y07516D02*
X07541Y07475D01*
X07675D01*
X07537Y07390D02*
X07640D01*
X07280Y07767D02*
X07496Y07551D01*
X07500Y07475D02*
X07540Y07435D01*
X07650D01*
X07455Y07472D02*
X07537Y07390D01*
X07433Y07450D02*
X07527Y07355D01*
X07150Y07660D02*
X07441Y07369D01*
X07157Y07676D02*
X07428Y07405D01*
X07444D01*
X07500Y07349D01*
X07270Y07690D02*
X07430Y07530D01*
X07544Y07249D02*
X07615Y07320D01*
X07878Y07539D02*
X08150Y07810D01*
X07923Y07494D02*
X08250Y07821D01*
X07945Y07472D02*
X08350Y07877D01*
X07730Y07286D02*
X07811Y07205D01*
X07730Y07286D02*
Y07350D01*
X07775Y07395D01*
X08340D01*
X07677Y07320D02*
X07768Y07411D01*
X07996D01*
X07780Y07280D02*
X07834Y07227D01*
X07780Y07280D02*
Y07370D01*
X07770Y07500D02*
X07830Y07440D01*
X07610Y07500D02*
X07770D01*
X07615Y07320D02*
X07677D01*
X08565Y07929D02*
X08792Y08156D01*
Y08887D01*
X08558Y07945D02*
X08776Y08163D01*
Y08971D01*
X08551Y07961D02*
X08760Y08170D01*
Y09055D01*
X08545Y07977D02*
X08744Y08176D01*
Y09139D01*
X08538Y07993D02*
X08728Y08183D01*
Y09223D01*
X08532Y08009D02*
X08712Y08189D01*
Y09307D01*
X08525Y08025D02*
X08696Y08196D01*
Y09391D01*
X08518Y08041D02*
X08680Y08203D01*
Y09475D01*
X08512Y08057D02*
X08664Y08209D01*
Y09559D01*
X08505Y08073D02*
X08648Y08216D01*
Y09643D01*
X08498Y08089D02*
X08632Y08223D01*
Y09727D01*
X08492Y08105D02*
X08616Y08229D01*
Y09819D01*
X07251Y08124D02*
X08488D01*
X08600Y08236D01*
Y09920D01*
X08670Y07851D02*
X08694Y07875D01*
X08880D01*
X08647Y07889D02*
X08668Y07910D01*
X08780D01*
X08845Y07975D01*
X08535Y08220D02*
Y09105D01*
X08433Y09207D02*
X08535Y09105D01*
X08190Y09207D02*
X08433D01*
X07670Y09176D02*
X07750D01*
X07347Y09499D02*
X07670Y09176D01*
X08001Y09019D02*
X08190D01*
X07570Y09450D02*
X08001Y09019D01*
X07430Y09450D02*
X07570D01*
X07390Y09490D02*
X07430Y09450D01*
X07390Y09490D02*
Y09530D01*
X07370Y09550D02*
X07390Y09530D01*
X07197Y09550D02*
X07370D01*
X07147Y09499D02*
X07197Y09550D01*
X08297Y08547D02*
X08376D01*
X08416Y08507D01*
Y08222D02*
Y08507D01*
X08045Y08595D02*
X08440D01*
X08501Y08534D01*
Y08197D02*
Y08534D01*
X08129Y08579D02*
X08421D01*
X08474Y08526D01*
Y08222D02*
Y08526D01*
X08213Y08563D02*
X08397D01*
X08445Y08515D01*
Y08190D02*
Y08515D01*
X06080Y09385D02*
X06175Y09480D01*
Y09795D01*
X06134Y09836D02*
X06175Y09795D01*
X07681Y09144D02*
X07750D01*
X07680Y09145D02*
X07681Y09144D01*
X07687Y09207D02*
X07750D01*
X07813Y09270D02*
Y09323D01*
X07876Y09270D02*
Y09339D01*
X07939Y09270D02*
Y09371D01*
X08190Y09113D02*
X08353D01*
X08355Y09115D01*
X08190Y09050D02*
X08260D01*
X08190Y09081D02*
X08304D01*
X08305Y09083D01*
X08191Y09175D02*
X08420D01*
X08149Y09176D02*
X08190D01*
X08130Y09195D02*
X08149Y09176D01*
X08130Y09195D02*
Y09210D01*
X08170Y09250D01*
Y09385D01*
X08165Y09390D02*
X08170Y09385D01*
X06380Y08740D02*
X06395Y08725D01*
X06450Y08670D01*
X06680Y09395D02*
Y09450D01*
X04699Y08623D02*
X04743D01*
Y08628D01*
X04760Y08645D01*
X05535D02*
X05950D01*
X06005Y08590D01*
Y08540D02*
Y08590D01*
X04980Y08645D02*
Y08815D01*
X05125Y08960D01*
X06575D01*
X04760Y08645D02*
X04980D01*
X05165D01*
X06080Y09345D02*
Y09385D01*
Y09345D02*
X06430Y08995D01*
X06575Y08960D02*
X06645Y08890D01*
X07570D01*
X07805Y08885D02*
X07995D01*
X08001Y08879D01*
Y08830D02*
Y08879D01*
X07054Y07311D02*
X07290Y07075D01*
X07548D01*
X07633Y07160D01*
X07574Y07056D02*
X07622Y07104D01*
X07743Y07008D02*
X07864Y07129D01*
X05925Y06988D02*
X05977Y07040D01*
X07720D01*
X07755Y07075D01*
X05941Y06981D02*
X05984Y07024D01*
X07727D01*
X05957Y06975D02*
X05990Y07008D01*
X05973Y06968D02*
X05997Y06992D01*
X07750D01*
X07727Y07024D02*
X07779Y07076D01*
X07760Y07000D02*
X07873Y07113D01*
X05990Y07008D02*
X07743D01*
X07750Y06992D02*
X07758Y07000D01*
X07760D01*
X05989Y07056D02*
X07574D01*
X05970Y07075D02*
X05989Y07056D01*
X05970Y07075D02*
Y07810D01*
X05930Y07850D02*
X05970Y07810D01*
X04695Y07850D02*
Y08550D01*
X04715Y08770D02*
X04730D01*
X04660Y08585D02*
X04695Y08550D01*
X04660Y08585D02*
Y08715D01*
X04715Y08770D01*
X04060Y09000D02*
X04000D01*
X04030D01*
Y08960D01*
X04060D01*
X04000D01*
X04060Y08940D02*
Y08900D01*
Y08920D01*
X04000D01*
X04060Y08880D02*
Y08840D01*
Y08860D01*
X04000D01*
Y08820D02*
X04060D01*
Y08790D01*
X04050Y08780D01*
X04030D01*
X04020Y08790D01*
Y08820D01*
X04040Y08760D02*
Y08750D01*
X04030D01*
Y08760D01*
X04040D01*
X04010D02*
Y08750D01*
X04000D01*
Y08760D01*
X04010D01*
X04000Y08710D02*
X04040Y08670D01*
X04000Y08650D02*
X04040Y08610D01*
X04060Y08590D02*
X04000D01*
X04020Y08570D01*
X04000Y08550D01*
X04060D01*
Y08530D02*
X04000D01*
X04020Y08510D01*
X04000Y08490D01*
X04060D01*
Y08470D02*
X04000D01*
X04020Y08450D01*
X04000Y08430D01*
X04060D01*
X04000Y08410D02*
X04010D01*
Y08400D01*
X04000D01*
Y08410D01*
X04050Y08320D02*
X04060Y08330D01*
Y08350D01*
X04050Y08360D01*
X04010D01*
X04000Y08350D01*
Y08330D01*
X04010Y08320D01*
X04000Y08300D02*
X04040D01*
X04060Y08280D01*
X04040Y08260D01*
X04000D01*
X04030D01*
Y08300D01*
X04050Y08200D02*
X04060Y08210D01*
Y08230D01*
X04050Y08240D01*
X04010D01*
X04000Y08230D01*
Y08210D01*
X04010Y08200D01*
X04060Y08180D02*
Y08140D01*
Y08160D01*
X04000D01*
X04060Y08120D02*
X04010D01*
X04000Y08110D01*
Y08090D01*
X04010Y08080D01*
X04060D01*
X04000Y08060D02*
X04040D01*
X04060Y08040D01*
X04040Y08020D01*
X04000D01*
X04030D01*
Y08060D01*
X04000Y08000D02*
X04060D01*
Y07970D01*
X04050Y07960D01*
X04030D01*
X04020Y07970D01*
Y08000D01*
Y07980D02*
X04000Y07960D01*
Y07940D02*
X04010D01*
Y07930D01*
X04000D01*
Y07940D01*
Y07890D02*
X04060D01*
X04000Y07850D01*
X04060D01*
Y07790D02*
Y07830D01*
X04000D01*
Y07790D01*
X04030Y07830D02*
Y07810D01*
X04060Y07770D02*
Y07730D01*
Y07750D01*
X04000D01*
D26*
X08450Y07670D02*
X08450Y07670D01*
X08325Y07670D02*
X08450D01*
X07150Y09890D02*
Y09950D01*
X07400Y07307D02*
X07423D01*
X07355Y07115D02*
Y07170D01*
X07350Y07175D02*
X07355Y07170D01*
X04370Y07720D02*
Y07770D01*
X07789Y07628D02*
X07825Y07664D01*
X07854Y07692D01*
Y07694D01*
X07476Y07629D02*
X07505Y07600D01*
X06750Y07755D02*
X06785Y07720D01*
X06915D01*
X06950Y07755D01*
X06550Y07700D02*
Y07755D01*
X06650Y08650D02*
Y08710D01*
X07400Y07110D02*
X07440D01*
X07445Y07115D01*
X07450Y07110D01*
X05972Y09874D02*
Y09915D01*
X07747Y09499D02*
X07845D01*
X06034Y09836D02*
Y09946D01*
X04424Y08500D02*
X04541D01*
X07450Y07110D02*
X07456Y07116D01*
X07566Y07583D02*
X07610Y07540D01*
X07428Y07677D02*
X07438Y07667D01*
X07218Y07810D02*
X07220Y07808D01*
Y07750D02*
Y07808D01*
X07400Y07705D02*
X07428Y07677D01*
X07920Y07790D02*
X07930Y07800D01*
X07920Y07760D02*
Y07790D01*
X07894Y07734D02*
X07920Y07760D01*
X04377Y07245D02*
Y07297D01*
X06034Y09465D02*
Y09536D01*
X05934Y09836D02*
X05972Y09874D01*
X04453Y07225D02*
X04481Y07197D01*
X04537D01*
X04443Y07720D02*
X04474Y07689D01*
X04537D01*
X07152Y07810D02*
Y07898D01*
X06850Y08650D02*
Y08700D01*
X05934Y09467D02*
Y09536D01*
X05575Y09910D02*
Y09975D01*
X05890Y09910D02*
Y09946D01*
X05924Y09980D01*
X06000D01*
X06034Y09946D01*
X07509Y07169D02*
X07566Y07226D01*
Y07227D01*
X07901Y07294D02*
X07961Y07234D01*
X07900Y07294D02*
X07901D01*
X07505Y07600D02*
X07544Y07561D01*
X08175Y07530D02*
X08262Y07617D01*
Y07670D01*
X08083Y09890D02*
X08123Y09930D01*
X08250D01*
X07740Y07230D02*
X07788Y07182D01*
X07789D01*
X07360Y07307D02*
X07423D01*
X07455Y07338D01*
X08017Y07178D02*
X08045Y07150D01*
X07900Y07516D02*
X07944Y07560D01*
X07970Y09345D02*
X07985Y09360D01*
X08001Y09344D01*
X07955Y09890D02*
X08010D01*
X08010Y09890D01*
X07920Y09713D02*
Y09750D01*
X07930Y09505D02*
X07980D01*
X07985Y09420D02*
Y09460D01*
X07970Y08775D02*
Y08830D01*
X07955Y08760D02*
X07970Y08775D01*
X07940D02*
X07955Y08760D01*
X07940Y08775D02*
Y08798D01*
X07692Y08893D02*
X07750D01*
X08001Y09270D02*
Y09320D01*
Y09344D01*
X07970Y09270D02*
Y09320D01*
Y09345D01*
X04352Y08505D02*
X04352Y08505D01*
X04325Y08505D02*
X04352D01*
X04295Y09370D02*
X04340D01*
X04400D02*
X04530D01*
D27*
X10355Y07135D02*
X10395Y07175D01*
X10480D01*
X10355Y07075D02*
X10355Y07075D01*
X10480D01*
X08790Y07175D02*
X08880D01*
X08755Y07140D02*
X08790Y07175D01*
X09595D02*
X09680D01*
X09555Y07135D02*
X09595Y07175D01*
X09555Y07075D02*
X09555Y07075D01*
X09680D01*
X08755D02*
X08880D01*
Y07175D02*
X09080D01*
X08880Y07075D02*
X09080D01*
X09680Y07175D02*
X09880D01*
X09680Y07075D02*
X09875D01*
X10480Y07175D02*
X10680D01*
X10480Y07075D02*
X10675D01*
X06170Y07260D02*
Y07410D01*
X06220Y07260D02*
Y07350D01*
X06230Y07360D01*
Y07410D01*
X04205Y09605D02*
X04300Y09700D01*
X04146Y09580D02*
X04205D01*
Y09520D02*
Y09580D01*
Y09605D01*
X04140Y09986D02*
X04211Y10057D01*
X04400Y09700D02*
Y09740D01*
X04500Y09700D02*
X04540D01*
X04670Y09570D01*
X04780D01*
X05048D01*
X04362Y09778D02*
X04400Y09740D01*
X04211Y10057D02*
X04266D01*
X04260Y09880D02*
X04362Y09778D01*
X04140Y09880D02*
X04260D01*
X04140Y09646D02*
Y09880D01*
Y09986D01*
X04780Y09630D02*
Y09778D01*
X04362D02*
X04780D01*
X05060D01*
X04266Y10057D02*
X04404Y10196D01*
D28*
X06950Y09203D02*
D03*
X07050D02*
D03*
X07150D02*
D03*
X07250D02*
D03*
X07350D02*
D03*
X07450D02*
D03*
X07100Y07350D02*
D03*
X07000Y07450D02*
D03*
Y07350D02*
D03*
X06900Y07450D02*
D03*
Y07350D02*
D03*
X06800Y07450D02*
D03*
Y07350D02*
D03*
X06700Y07450D02*
D03*
Y07350D02*
D03*
D29*
X05060Y09582D02*
D03*
D30*
Y09778D02*
D03*
D31*
X05841Y08500D02*
D03*
X05741D02*
D03*
X05641D02*
D03*
X05541D02*
D03*
X05441D02*
D03*
X05341D02*
D03*
X05241D02*
D03*
X05141D02*
D03*
X05041D02*
D03*
X04941D02*
D03*
X04841D02*
D03*
X04741D02*
D03*
X04641D02*
D03*
X04541D02*
D03*
X05841Y07900D02*
D03*
X05741D02*
D03*
X05641D02*
D03*
X05541D02*
D03*
X05441D02*
D03*
X05341D02*
D03*
X05241D02*
D03*
X05141D02*
D03*
X05041D02*
D03*
X04941D02*
D03*
X04841D02*
D03*
X04741D02*
D03*
X04641D02*
D03*
D32*
X04541D02*
D03*
D33*
X06450Y07900D02*
D03*
X07747Y09799D02*
D03*
X04537Y06897D02*
D03*
Y07389D02*
D03*
X06434Y09836D02*
D03*
X08175Y07230D02*
D03*
X08250Y09630D02*
D03*
X06430Y09370D02*
D03*
D34*
X06550Y07900D02*
D03*
X06650D02*
D03*
X06750D02*
D03*
X06850D02*
D03*
X06950D02*
D03*
X07050D02*
D03*
X07150D02*
D03*
X07250D02*
D03*
X07350D02*
D03*
X07450D02*
D03*
X07550D02*
D03*
X07650D02*
D03*
X07750D02*
D03*
X07850D02*
D03*
X07950D02*
D03*
X08050D02*
D03*
X08150D02*
D03*
X08250D02*
D03*
X08350D02*
D03*
X06450Y08500D02*
D03*
X06550D02*
D03*
X06650D02*
D03*
X06750D02*
D03*
X06850D02*
D03*
X06950D02*
D03*
X07050D02*
D03*
X07150D02*
D03*
X07250D02*
D03*
X07350D02*
D03*
X07450D02*
D03*
X07550D02*
D03*
X07650D02*
D03*
X07750D02*
D03*
X07850D02*
D03*
X07950D02*
D03*
X08050D02*
D03*
X08150D02*
D03*
X08250D02*
D03*
X08350D02*
D03*
X07047Y09499D02*
D03*
X07147D02*
D03*
X07247D02*
D03*
X07347D02*
D03*
X07447D02*
D03*
X07547D02*
D03*
X07647D02*
D03*
X07747D02*
D03*
X07047Y09799D02*
D03*
X07147D02*
D03*
X07247D02*
D03*
X07347D02*
D03*
X07447D02*
D03*
X07547D02*
D03*
X07647D02*
D03*
X05837Y07197D02*
D03*
X05737D02*
D03*
X05637D02*
D03*
X05537D02*
D03*
X05437D02*
D03*
X05337D02*
D03*
X05237D02*
D03*
X05137D02*
D03*
X05037D02*
D03*
X04937D02*
D03*
X04837D02*
D03*
X04737D02*
D03*
X04637D02*
D03*
X04537D02*
D03*
X05837Y06897D02*
D03*
X05737D02*
D03*
X05637D02*
D03*
X05537D02*
D03*
X05437D02*
D03*
X05337D02*
D03*
X05237D02*
D03*
X05137D02*
D03*
X05037D02*
D03*
X04937D02*
D03*
X04837D02*
D03*
X04737D02*
D03*
X04637D02*
D03*
X05837Y07689D02*
D03*
X05737D02*
D03*
X05637D02*
D03*
X05537D02*
D03*
X05437D02*
D03*
X05337D02*
D03*
X05237D02*
D03*
X05137D02*
D03*
X05037D02*
D03*
X04937D02*
D03*
X04837D02*
D03*
X04737D02*
D03*
X04637D02*
D03*
X04537D02*
D03*
X05837Y07389D02*
D03*
X05737D02*
D03*
X05637D02*
D03*
X05537D02*
D03*
X05437D02*
D03*
X05337D02*
D03*
X05237D02*
D03*
X05137D02*
D03*
X05037D02*
D03*
X04937D02*
D03*
X04837D02*
D03*
X04737D02*
D03*
X04637D02*
D03*
X05534Y09536D02*
D03*
X05634D02*
D03*
X05734D02*
D03*
X05834D02*
D03*
X05934D02*
D03*
X06034D02*
D03*
X06134D02*
D03*
X06234D02*
D03*
X06334D02*
D03*
X06434D02*
D03*
X05534Y09836D02*
D03*
X05634D02*
D03*
X05734D02*
D03*
X05834D02*
D03*
X05934D02*
D03*
X06034D02*
D03*
X06134D02*
D03*
X06234D02*
D03*
X06334D02*
D03*
X08475Y07530D02*
D03*
X08175D02*
D03*
X08475Y07230D02*
D03*
X08550Y09630D02*
D03*
X08250Y09930D02*
D03*
X08550D02*
D03*
X04530Y08770D02*
D03*
X04630D02*
D03*
X04730D02*
D03*
X04830D02*
D03*
X04930D02*
D03*
X05030D02*
D03*
X05130D02*
D03*
X05230D02*
D03*
X05330D02*
D03*
X05430D02*
D03*
X05530D02*
D03*
X05630D02*
D03*
X05730D02*
D03*
X05830D02*
D03*
X05930D02*
D03*
X06030D02*
D03*
X06130D02*
D03*
X06230D02*
D03*
X06330D02*
D03*
X06430D02*
D03*
X04530Y09370D02*
D03*
X04630D02*
D03*
X04730D02*
D03*
X04830D02*
D03*
X04930D02*
D03*
X05030D02*
D03*
X05130D02*
D03*
X05230D02*
D03*
X05330D02*
D03*
X05430D02*
D03*
X05530D02*
D03*
X05630D02*
D03*
X05730D02*
D03*
X05830D02*
D03*
X05930D02*
D03*
X06030D02*
D03*
X06130D02*
D03*
X06230D02*
D03*
X06330D02*
D03*
D35*
X04403Y09959D02*
D03*
X04211Y10057D02*
D03*
X04404Y10196D02*
D03*
X06939Y10181D02*
D03*
X07923D02*
D03*
X04000Y10300D02*
D03*
Y06800D02*
D03*
X10800Y06800D02*
D03*
X08600Y10300D02*
D03*
Y06800D02*
D03*
X06500Y10300D02*
D03*
Y06800D02*
D03*
X10800Y10300D02*
D03*
D36*
X05450Y10125D02*
D03*
Y10025D02*
D03*
X05350Y10125D02*
D03*
Y10025D02*
D03*
X05250Y10125D02*
D03*
Y10025D02*
D03*
X05150Y10125D02*
D03*
Y10025D02*
D03*
X05050Y10125D02*
D03*
Y10025D02*
D03*
X04950Y10125D02*
D03*
Y10025D02*
D03*
X04850Y10125D02*
D03*
X08400Y07000D02*
D03*
X09080Y07075D02*
D03*
X08880D02*
D03*
X09080Y07175D02*
D03*
X08880D02*
D03*
X09080Y07275D02*
D03*
Y07375D02*
D03*
Y07475D02*
D03*
Y07575D02*
D03*
Y07675D02*
D03*
Y07775D02*
D03*
Y07875D02*
D03*
Y07975D02*
D03*
Y08075D02*
D03*
Y08175D02*
D03*
Y08275D02*
D03*
Y08375D02*
D03*
Y08475D02*
D03*
Y08575D02*
D03*
Y08675D02*
D03*
Y08775D02*
D03*
Y08875D02*
D03*
Y08975D02*
D03*
Y09075D02*
D03*
Y09175D02*
D03*
Y09275D02*
D03*
Y09375D02*
D03*
Y09475D02*
D03*
Y09575D02*
D03*
Y09675D02*
D03*
Y09775D02*
D03*
Y09875D02*
D03*
Y09975D02*
D03*
Y10075D02*
D03*
X08880Y08575D02*
D03*
Y08475D02*
D03*
Y08375D02*
D03*
Y08275D02*
D03*
Y08175D02*
D03*
Y08075D02*
D03*
Y07975D02*
D03*
Y07875D02*
D03*
Y07775D02*
D03*
Y07675D02*
D03*
Y07575D02*
D03*
Y07475D02*
D03*
Y07375D02*
D03*
Y07275D02*
D03*
Y08675D02*
D03*
Y08775D02*
D03*
Y08875D02*
D03*
Y08975D02*
D03*
Y09075D02*
D03*
Y09175D02*
D03*
Y09275D02*
D03*
Y09375D02*
D03*
Y09475D02*
D03*
Y09575D02*
D03*
Y09675D02*
D03*
Y09775D02*
D03*
Y09875D02*
D03*
Y09975D02*
D03*
X09880Y07075D02*
D03*
X09680D02*
D03*
X09880Y07175D02*
D03*
X09680D02*
D03*
X09880Y07275D02*
D03*
X09680D02*
D03*
X09880Y07375D02*
D03*
X09680D02*
D03*
X09880Y07475D02*
D03*
X09680D02*
D03*
X09880Y07575D02*
D03*
X09680D02*
D03*
X09880Y07675D02*
D03*
X09680D02*
D03*
X09880Y07775D02*
D03*
X09680D02*
D03*
X09880Y07875D02*
D03*
X09680D02*
D03*
X09880Y07975D02*
D03*
X09680D02*
D03*
X09880Y08075D02*
D03*
X09680D02*
D03*
X09880Y08175D02*
D03*
X09680D02*
D03*
X09880Y08275D02*
D03*
X09680D02*
D03*
X09880Y08375D02*
D03*
X09680D02*
D03*
X09880Y08475D02*
D03*
X09680D02*
D03*
X09880Y08575D02*
D03*
X09680D02*
D03*
X09880Y08675D02*
D03*
X09680D02*
D03*
X09880Y08775D02*
D03*
X09680D02*
D03*
X09880Y08875D02*
D03*
X09680D02*
D03*
X09880Y08975D02*
D03*
X09680D02*
D03*
X09880Y09075D02*
D03*
X09680D02*
D03*
X09880Y09175D02*
D03*
X09680D02*
D03*
X09880Y09275D02*
D03*
X09680D02*
D03*
X09880Y09375D02*
D03*
X09680D02*
D03*
X09880Y09475D02*
D03*
X09680D02*
D03*
X09880Y09575D02*
D03*
X09680D02*
D03*
X09880Y09675D02*
D03*
X09680D02*
D03*
X09880Y09775D02*
D03*
X09680D02*
D03*
X09880Y09875D02*
D03*
X09680D02*
D03*
X09880Y09975D02*
D03*
X09680D02*
D03*
X09880Y10075D02*
D03*
X10680Y07075D02*
D03*
X10480D02*
D03*
X10680Y07175D02*
D03*
X10480D02*
D03*
X10680Y07275D02*
D03*
X10480D02*
D03*
X10680Y07375D02*
D03*
X10480D02*
D03*
X10680Y07475D02*
D03*
X10480D02*
D03*
X10680Y07575D02*
D03*
X10480D02*
D03*
X10680Y07675D02*
D03*
X10480D02*
D03*
X10680Y07775D02*
D03*
X10480D02*
D03*
X10680Y07875D02*
D03*
X10480D02*
D03*
X10680Y07975D02*
D03*
X10480D02*
D03*
X10680Y08075D02*
D03*
X10480D02*
D03*
X10680Y08175D02*
D03*
X10480D02*
D03*
X10680Y08275D02*
D03*
X10480D02*
D03*
X10680Y08375D02*
D03*
X10480D02*
D03*
X10680Y08475D02*
D03*
X10480D02*
D03*
X10680Y08575D02*
D03*
X10480D02*
D03*
X10680Y08675D02*
D03*
X10480D02*
D03*
X10680Y08775D02*
D03*
X10480D02*
D03*
X10680Y08875D02*
D03*
X10480D02*
D03*
X10680Y08975D02*
D03*
X10480D02*
D03*
X10680Y09075D02*
D03*
X10480D02*
D03*
X10680Y09175D02*
D03*
X10480D02*
D03*
X10680Y09275D02*
D03*
X10480D02*
D03*
X10680Y09375D02*
D03*
X10480D02*
D03*
X10680Y09475D02*
D03*
X10480D02*
D03*
X10680Y09575D02*
D03*
X10480D02*
D03*
X10680Y09675D02*
D03*
X10480D02*
D03*
X10680Y09775D02*
D03*
X10480D02*
D03*
X10680Y09875D02*
D03*
X10480D02*
D03*
X10680Y09975D02*
D03*
X10480D02*
D03*
X10680Y10075D02*
D03*
X08300Y07000D02*
D03*
D37*
X04850Y10025D02*
D03*
D38*
X07212Y10125D02*
D03*
X07267Y10237D02*
D03*
X07322Y10125D02*
D03*
X07376Y10237D02*
D03*
X07431Y10125D02*
D03*
X07486Y10237D02*
D03*
X07541Y10125D02*
D03*
X07595Y10237D02*
D03*
X07650Y10125D02*
D03*
D39*
X07100Y07450D02*
D03*
D40*
X06675Y09825D02*
D03*
X06775D02*
D03*
X06675Y09725D02*
D03*
X06775D02*
D03*
X06675Y09625D02*
D03*
D41*
X06775D02*
D03*
D42*
X06120Y07260D02*
D03*
D43*
X06170D02*
D03*
X06220D02*
D03*
D44*
X08880Y10075D02*
D03*
X09680D02*
D03*
X10480D02*
D03*
D45*
X04300Y09700D02*
D03*
D46*
X04400D02*
D03*
X04500D02*
D03*
D47*
X06247Y10289D02*
D03*
D48*
X05990Y10315D02*
D03*
D49*
X05733Y10289D02*
D03*
D50*
X06124Y10069D02*
D03*
Y10167D02*
D03*
X06041D02*
D03*
X05938D02*
D03*
X05856D02*
D03*
Y10069D02*
D03*
D51*
X06040Y06935D02*
D03*
X06296D02*
D03*
Y07112D02*
D03*
X06040D02*
D03*
D52*
X04205Y09520D02*
D03*
X04555D02*
D03*
D53*
X07397Y09050D02*
D03*
X08450Y07670D02*
D03*
X08100Y09330D02*
D03*
X07700Y09400D02*
D03*
X07150Y09950D02*
D03*
X07022Y08628D02*
D03*
X08127D02*
D03*
X07200Y08650D02*
D03*
X08095D02*
D03*
X07385Y08675D02*
D03*
X08065D02*
D03*
X07560Y08700D02*
D03*
X08033Y08702D02*
D03*
X07425Y08725D02*
D03*
X07875D02*
D03*
X07200Y08750D02*
D03*
X07845D02*
D03*
X07025Y08735D02*
D03*
X07813Y08777D02*
D03*
X07400Y07307D02*
D03*
X06750Y08630D02*
D03*
X06970D02*
D03*
X06930Y08605D02*
D03*
X07355Y07115D02*
D03*
X04370Y07770D02*
D03*
X07476Y07226D02*
D03*
X07622Y07104D02*
D03*
X07576Y07138D02*
D03*
X07543Y07140D02*
D03*
X08764Y07376D02*
D03*
X08748Y07478D02*
D03*
X08732Y07577D02*
D03*
X08715Y07675D02*
D03*
X07530Y08320D02*
D03*
X08695Y07775D02*
D03*
X07451Y08307D02*
D03*
X08670Y07851D02*
D03*
X07323Y08327D02*
D03*
X08647Y07889D02*
D03*
X08620Y07805D02*
D03*
X08340Y07825D02*
D03*
X07530Y07190D02*
D03*
X07825Y07664D02*
D03*
X07740Y07230D02*
D03*
X07505Y07600D02*
D03*
X06850Y07720D02*
D03*
X06550Y07700D02*
D03*
X06650Y08710D02*
D03*
X08155Y07640D02*
D03*
X07400Y07110D02*
D03*
X07650Y07435D02*
D03*
X05240Y08180D02*
D03*
X05310Y08190D02*
D03*
X05420Y08100D02*
D03*
X07675Y07475D02*
D03*
X07640Y07390D02*
D03*
X07685Y07370D02*
D03*
X05795Y08225D02*
D03*
X05690Y08230D02*
D03*
X05590D02*
D03*
X05490D02*
D03*
X05395Y08225D02*
D03*
X07220Y07750D02*
D03*
X07400Y07705D02*
D03*
X07610Y07540D02*
D03*
X07944Y07560D02*
D03*
X07930Y07800D02*
D03*
X04377Y07297D02*
D03*
X06555Y09450D02*
D03*
X06385Y08245D02*
D03*
Y07810D02*
D03*
X07810Y07295D02*
D03*
X08015Y07500D02*
D03*
X07750Y07530D02*
D03*
X06850Y08700D02*
D03*
X05575Y09975D02*
D03*
X08474Y08222D02*
D03*
X08416D02*
D03*
X05900Y08220D02*
D03*
X08535D02*
D03*
X08445Y08190D02*
D03*
X08405Y07845D02*
D03*
X08096Y07189D02*
D03*
X08045Y07150D02*
D03*
X08080Y07159D02*
D03*
X07935Y07260D02*
D03*
X07920Y07230D02*
D03*
X08210Y07290D02*
D03*
X06880Y08240D02*
D03*
X07050D02*
D03*
X07430Y07530D02*
D03*
X07780Y07370D02*
D03*
X07830Y07440D02*
D03*
X07610Y07500D02*
D03*
X08501Y08190D02*
D03*
X07970Y09320D02*
D03*
X08001D02*
D03*
X07955Y09890D02*
D03*
X07920Y09750D02*
D03*
X07980Y09505D02*
D03*
X07985Y09460D02*
D03*
X07955Y08760D02*
D03*
X07692Y08893D02*
D03*
X07680Y09145D02*
D03*
X07687Y09207D02*
D03*
X07813Y09323D02*
D03*
X07876Y09339D02*
D03*
X07939Y09371D02*
D03*
X08355Y09115D02*
D03*
X08260Y09050D02*
D03*
X08305Y09083D02*
D03*
X08420Y09175D02*
D03*
X08165Y09390D02*
D03*
X06395Y08725D02*
D03*
X06680Y09395D02*
D03*
X05535Y08645D02*
D03*
X05165D02*
D03*
X06005Y08540D02*
D03*
X06430Y08995D02*
D03*
X04325Y08505D02*
D03*
X04295Y09370D02*
D03*
M02*
