G04 Layer_Color=15132400*
%FSLAX24Y24*%
%MOIN*%
G70*
G01*
G75*
%ADD25C,0.0100*%
%ADD26C,0.0200*%
%ADD54C,0.0236*%
%ADD55C,0.0098*%
%ADD56C,0.0079*%
%ADD57C,0.0060*%
%ADD58C,0.0250*%
%ADD59C,0.0050*%
%ADD60R,0.0300X0.0255*%
%ADD61R,0.0299X0.0255*%
%ADD62R,0.0250X0.1000*%
G36*
X74735Y103109D02*
X74026D01*
X74380Y103463D01*
X74735Y103109D01*
D02*
G37*
D25*
X69550Y92750D02*
G03*
X69550Y92750I-50J0D01*
G01*
X52632Y96800D02*
G03*
X52632Y96800I-2032J0D01*
G01*
X47600Y99250D02*
G03*
X47600Y99250I-100J0D01*
G01*
X65500Y98250D02*
G03*
X65500Y98250I-50J0D01*
G01*
X71800Y98750D02*
Y99050D01*
X76467Y98745D02*
Y99045D01*
X47650Y96000D02*
X47950D01*
X46500Y102250D02*
X56500D01*
Y99750D02*
Y102250D01*
X46500Y99750D02*
X56500D01*
X46500D02*
Y105050D01*
X56500D01*
Y99750D02*
Y105050D01*
X103400Y71050D02*
X103700D01*
X95400D02*
X95700D01*
X87400Y71100D02*
X87700D01*
X79000Y96950D02*
Y97250D01*
X73970Y98560D02*
Y98860D01*
X79000Y94900D02*
Y95200D01*
X59850Y94500D02*
Y94800D01*
X80400Y98750D02*
Y99050D01*
X79700Y93900D02*
X80000D01*
X60050Y99000D02*
Y99300D01*
X74694Y71506D02*
X74906Y71294D01*
X79824Y71914D02*
X80036Y72126D01*
X78644Y77256D02*
X78856Y77044D01*
X44200Y72250D02*
Y72550D01*
X44000Y77050D02*
Y77350D01*
Y84850D02*
Y85150D01*
X82950Y76550D02*
Y76850D01*
X71850Y77950D02*
Y78250D01*
X64866Y72228D02*
Y75772D01*
X73134Y72228D02*
Y75772D01*
X64866D02*
X73134D01*
X64866Y72228D02*
X73134D01*
X74444Y76394D02*
X74656Y76606D01*
X62000Y73950D02*
Y74250D01*
X88050Y69750D02*
Y101750D01*
Y69750D02*
X91550D01*
Y101750D01*
X88050D02*
X91550D01*
X96050Y69750D02*
Y101750D01*
Y69750D02*
X99550D01*
Y101750D01*
X96050D02*
X99550D01*
X104050Y69750D02*
Y101750D01*
Y69750D02*
X107550D01*
Y101750D01*
X104050D02*
X107550D01*
X57144Y100000D02*
X62656D01*
X57144Y105000D02*
X62656D01*
Y103550D02*
Y105000D01*
Y100000D02*
Y102244D01*
X57144Y103606D02*
Y105000D01*
Y100000D02*
Y102194D01*
X60498Y69941D02*
Y70531D01*
X60991Y71417D02*
X62368D01*
X62861Y69941D02*
Y70531D01*
X60991Y69055D02*
X62368D01*
X43700Y93550D02*
Y93850D01*
X70300Y90100D02*
Y89600D01*
X70400Y89500D01*
X70600D01*
X70700Y89600D01*
Y90100D01*
X70900Y89500D02*
Y89900D01*
X71100Y90100D01*
X71300Y89900D01*
Y89500D01*
Y89800D01*
X70900D01*
X71500Y89500D02*
Y90100D01*
X71800D01*
X71899Y90000D01*
Y89800D01*
X71800Y89700D01*
X71500D01*
X71700D02*
X71899Y89500D01*
X72099Y90100D02*
X72499D01*
X72299D01*
Y89500D01*
X73699D02*
X73299D01*
X73699Y89900D01*
Y90000D01*
X73599Y90100D01*
X73399D01*
X73299Y90000D01*
X69200Y93600D02*
X69000D01*
X69100D01*
Y93100D01*
X69000Y93000D01*
X68900D01*
X68800Y93100D01*
X69400Y93600D02*
X69800D01*
Y93500D01*
X69400Y93100D01*
Y93000D01*
X77275Y93925D02*
Y93425D01*
X77375Y93325D01*
X77575D01*
X77675Y93425D01*
Y93925D01*
X77875Y93425D02*
X77975Y93325D01*
X78175D01*
X78275Y93425D01*
Y93825D01*
X78175Y93925D01*
X77975D01*
X77875Y93825D01*
Y93725D01*
X77975Y93625D01*
X78275D01*
X101750Y71250D02*
X101650Y71350D01*
X101450D01*
X101350Y71250D01*
Y70850D01*
X101450Y70750D01*
X101650D01*
X101750Y70850D01*
X102350Y70750D02*
X101950D01*
X102350Y71150D01*
Y71250D01*
X102250Y71350D01*
X102050D01*
X101950Y71250D01*
X102949Y71350D02*
X102550D01*
Y71050D01*
X102750Y71150D01*
X102850D01*
X102949Y71050D01*
Y70850D01*
X102850Y70750D01*
X102650D01*
X102550Y70850D01*
X93750Y71250D02*
X93650Y71350D01*
X93450D01*
X93350Y71250D01*
Y70850D01*
X93450Y70750D01*
X93650D01*
X93750Y70850D01*
X94350Y70750D02*
X93950D01*
X94350Y71150D01*
Y71250D01*
X94250Y71350D01*
X94050D01*
X93950Y71250D01*
X94949Y70750D02*
X94550D01*
X94949Y71150D01*
Y71250D01*
X94850Y71350D01*
X94650D01*
X94550Y71250D01*
X86550Y70200D02*
X86450Y70300D01*
X86250D01*
X86150Y70200D01*
Y69800D01*
X86250Y69700D01*
X86450D01*
X86550Y69800D01*
X87150Y69700D02*
X86750D01*
X87150Y70100D01*
Y70200D01*
X87050Y70300D01*
X86850D01*
X86750Y70200D01*
X87350D02*
X87450Y70300D01*
X87650D01*
X87749Y70200D01*
Y69800D01*
X87650Y69700D01*
X87450D01*
X87350Y69800D01*
Y70200D01*
X63060Y73090D02*
Y72590D01*
X63160Y72490D01*
X63360D01*
X63460Y72590D01*
Y73090D01*
X63660Y72490D02*
X63860D01*
X63760D01*
Y73090D01*
X63660Y72990D01*
X63260Y74300D02*
X63160Y74400D01*
X62960D01*
X62860Y74300D01*
Y73900D01*
X62960Y73800D01*
X63160D01*
X63260Y73900D01*
X63860Y74400D02*
X63660Y74300D01*
X63460Y74100D01*
Y73900D01*
X63560Y73800D01*
X63760D01*
X63860Y73900D01*
Y74000D01*
X63760Y74100D01*
X63460D01*
X43400Y84500D02*
X43300Y84600D01*
X43100D01*
X43000Y84500D01*
Y84100D01*
X43100Y84000D01*
X43300D01*
X43400Y84100D01*
X43600Y84500D02*
X43700Y84600D01*
X43900D01*
X44000Y84500D01*
Y84400D01*
X43900Y84300D01*
X43800D01*
X43900D01*
X44000Y84200D01*
Y84100D01*
X43900Y84000D01*
X43700D01*
X43600Y84100D01*
X72050Y71150D02*
Y71750D01*
X72350D01*
X72450Y71650D01*
Y71450D01*
X72350Y71350D01*
X72050D01*
X72250D02*
X72450Y71150D01*
X72650Y71750D02*
X73050D01*
Y71650D01*
X72650Y71250D01*
Y71150D01*
X67350Y94850D02*
Y95450D01*
X67650D01*
X67750Y95350D01*
Y95150D01*
X67650Y95050D01*
X67350D01*
X67550D02*
X67750Y94850D01*
X68350Y95450D02*
X68150Y95350D01*
X67950Y95150D01*
Y94950D01*
X68050Y94850D01*
X68250D01*
X68350Y94950D01*
Y95050D01*
X68250Y95150D01*
X67950D01*
X71970Y96190D02*
Y96790D01*
X72170Y96590D01*
X72370Y96790D01*
Y96190D01*
X72570D02*
Y96590D01*
X72770Y96790D01*
X72970Y96590D01*
Y96190D01*
Y96490D01*
X72570D01*
X73170Y96790D02*
X73569Y96190D01*
Y96790D02*
X73170Y96190D01*
X74169D02*
X73769D01*
X74169Y96590D01*
Y96690D01*
X74069Y96790D01*
X73869D01*
X73769Y96690D01*
X74369D02*
X74469Y96790D01*
X74669D01*
X74769Y96690D01*
Y96590D01*
X74669Y96490D01*
X74569D01*
X74669D01*
X74769Y96390D01*
Y96290D01*
X74669Y96190D01*
X74469D01*
X74369Y96290D01*
X75369Y96190D02*
X74969D01*
X75369Y96590D01*
Y96690D01*
X75269Y96790D01*
X75069D01*
X74969Y96690D01*
X75569Y96190D02*
Y96790D01*
X75969Y96190D01*
Y96790D01*
X78950Y98800D02*
X78450D01*
X78350Y98700D01*
Y98500D01*
X78450Y98400D01*
X78950D01*
X78850Y98200D02*
X78950Y98100D01*
Y97900D01*
X78850Y97800D01*
X78750D01*
X78650Y97900D01*
X78550Y97800D01*
X78450D01*
X78350Y97900D01*
Y98100D01*
X78450Y98200D01*
X78550D01*
X78650Y98100D01*
X78750Y98200D01*
X78850D01*
X78650Y98100D02*
Y97900D01*
X84600Y71000D02*
Y70900D01*
X84800Y70700D01*
X85000Y70900D01*
Y71000D01*
X84800Y70700D02*
Y70400D01*
X85200D02*
X85400D01*
X85300D01*
Y71000D01*
X85200Y70900D01*
X39900Y97050D02*
X40400D01*
X40500Y97150D01*
Y97350D01*
X40400Y97450D01*
X39900D01*
X40500Y97650D02*
Y97850D01*
Y97750D01*
X39900D01*
X40000Y97650D01*
X40500Y98150D02*
Y98350D01*
Y98250D01*
X39900D01*
X40000Y98150D01*
X52800Y91000D02*
Y90400D01*
X53000Y90600D01*
X53200Y90400D01*
Y91000D01*
X53800D02*
X53600Y90900D01*
X53400Y90700D01*
Y90500D01*
X53500Y90400D01*
X53700D01*
X53800Y90500D01*
Y90600D01*
X53700Y90700D01*
X53400D01*
X54399Y91000D02*
X54000D01*
Y90700D01*
X54200Y90800D01*
X54300D01*
X54399Y90700D01*
Y90500D01*
X54300Y90400D01*
X54100D01*
X54000Y90500D01*
X54999Y90900D02*
X54899Y91000D01*
X54699D01*
X54599Y90900D01*
Y90500D01*
X54699Y90400D01*
X54899D01*
X54999Y90500D01*
X55599Y90400D02*
X55199D01*
X55599Y90800D01*
Y90900D01*
X55499Y91000D01*
X55299D01*
X55199Y90900D01*
X56199Y90400D02*
X55799D01*
X56199Y90800D01*
Y90900D01*
X56099Y91000D01*
X55899D01*
X55799Y90900D01*
X56399Y90400D02*
Y91000D01*
X56799Y90400D01*
Y91000D01*
X66400Y93200D02*
X65900D01*
X65800Y93100D01*
Y92900D01*
X65900Y92800D01*
X66400D01*
X65800Y92600D02*
Y92400D01*
Y92500D01*
X66400D01*
X66300Y92600D01*
Y92100D02*
X66400Y92000D01*
Y91800D01*
X66300Y91700D01*
X65900D01*
X65800Y91800D01*
Y92000D01*
X65900Y92100D01*
X66300D01*
X56190Y96660D02*
Y97060D01*
X56390Y97260D01*
X56590Y97060D01*
Y96660D01*
Y96960D01*
X56190D01*
X56790Y97260D02*
X57190D01*
X56990D01*
Y96660D01*
X57490Y97160D02*
Y97060D01*
X57390D01*
X57590D01*
X57490D01*
Y96760D01*
X57590Y96660D01*
X57889D02*
X58089D01*
X57989D01*
Y97060D01*
X57889D01*
X58389Y96660D02*
Y97060D01*
X58689D01*
X58789Y96960D01*
Y96660D01*
X58989Y97060D02*
Y96760D01*
X59089Y96660D01*
X59389D01*
Y96560D01*
X59289Y96460D01*
X59189D01*
X59389Y96660D02*
Y97060D01*
X59589Y97160D02*
X59689Y97260D01*
X59889D01*
X59989Y97160D01*
Y97060D01*
X59889Y96960D01*
X59989Y96860D01*
Y96760D01*
X59889Y96660D01*
X59689D01*
X59589Y96760D01*
Y96860D01*
X59689Y96960D01*
X59589Y97060D01*
Y97160D01*
X59689Y96960D02*
X59889D01*
X60589Y97260D02*
X60389Y97160D01*
X60189Y96960D01*
Y96760D01*
X60289Y96660D01*
X60489D01*
X60589Y96760D01*
Y96860D01*
X60489Y96960D01*
X60189D01*
X60789Y96660D02*
X60988D01*
X60888D01*
Y97260D01*
X60789Y97160D01*
X61288Y96660D02*
Y97060D01*
X61488Y97260D01*
X61688Y97060D01*
Y96660D01*
Y96960D01*
X61288D01*
X61888D02*
X62288D01*
X62488Y96660D02*
Y97260D01*
X62788D01*
X62888Y97160D01*
Y96960D01*
X62788Y96860D01*
X62488D01*
X63088Y97260D02*
Y96760D01*
X63188Y96660D01*
X63388D01*
X63488Y96760D01*
Y97260D01*
X65800Y95800D02*
X65300D01*
X65200Y95700D01*
Y95500D01*
X65300Y95400D01*
X65800D01*
Y95200D02*
Y94800D01*
X65700D01*
X65300Y95200D01*
X65200D01*
X104800Y69300D02*
X104700Y69400D01*
X104500D01*
X104400Y69300D01*
Y69200D01*
X104500Y69100D01*
X104700D01*
X104800Y69000D01*
Y68900D01*
X104700Y68800D01*
X104500D01*
X104400Y68900D01*
X105000Y69400D02*
Y68800D01*
X105400D01*
X105900Y69400D02*
X105700D01*
X105600Y69300D01*
Y68900D01*
X105700Y68800D01*
X105900D01*
X105999Y68900D01*
Y69300D01*
X105900Y69400D01*
X106199D02*
X106599D01*
X106399D01*
Y68800D01*
X106799Y69300D02*
X106899Y69400D01*
X107099D01*
X107199Y69300D01*
Y69200D01*
X107099Y69100D01*
X106999D01*
X107099D01*
X107199Y69000D01*
Y68900D01*
X107099Y68800D01*
X106899D01*
X106799Y68900D01*
X96800Y69300D02*
X96700Y69400D01*
X96500D01*
X96400Y69300D01*
Y69200D01*
X96500Y69100D01*
X96700D01*
X96800Y69000D01*
Y68900D01*
X96700Y68800D01*
X96500D01*
X96400Y68900D01*
X97000Y69400D02*
Y68800D01*
X97400D01*
X97900Y69400D02*
X97700D01*
X97600Y69300D01*
Y68900D01*
X97700Y68800D01*
X97900D01*
X97999Y68900D01*
Y69300D01*
X97900Y69400D01*
X98199D02*
X98599D01*
X98399D01*
Y68800D01*
X99199D02*
X98799D01*
X99199Y69200D01*
Y69300D01*
X99099Y69400D01*
X98899D01*
X98799Y69300D01*
X88900D02*
X88800Y69400D01*
X88600D01*
X88500Y69300D01*
Y69200D01*
X88600Y69100D01*
X88800D01*
X88900Y69000D01*
Y68900D01*
X88800Y68800D01*
X88600D01*
X88500Y68900D01*
X89100Y69400D02*
Y68800D01*
X89500D01*
X90000Y69400D02*
X89800D01*
X89700Y69300D01*
Y68900D01*
X89800Y68800D01*
X90000D01*
X90099Y68900D01*
Y69300D01*
X90000Y69400D01*
X90299D02*
X90699D01*
X90499D01*
Y68800D01*
X90899D02*
X91099D01*
X90999D01*
Y69400D01*
X90899Y69300D01*
X69000Y86400D02*
Y87000D01*
X69300D01*
X69400Y86900D01*
Y86700D01*
X69300Y86600D01*
X69000D01*
X69200D02*
X69400Y86400D01*
X70000Y87000D02*
X69600D01*
Y86700D01*
X69800Y86800D01*
X69900D01*
X70000Y86700D01*
Y86500D01*
X69900Y86400D01*
X69700D01*
X69600Y86500D01*
X65000Y85750D02*
Y86350D01*
X65300D01*
X65400Y86250D01*
Y86050D01*
X65300Y85950D01*
X65000D01*
X65200D02*
X65400Y85750D01*
X65900D02*
Y86350D01*
X65600Y86050D01*
X66000D01*
X63800Y77200D02*
Y77800D01*
X64100D01*
X64200Y77700D01*
Y77500D01*
X64100Y77400D01*
X63800D01*
X64000D02*
X64200Y77200D01*
X64400Y77700D02*
X64500Y77800D01*
X64700D01*
X64800Y77700D01*
Y77600D01*
X64700Y77500D01*
X64600D01*
X64700D01*
X64800Y77400D01*
Y77300D01*
X64700Y77200D01*
X64500D01*
X64400Y77300D01*
X67950Y77550D02*
Y78150D01*
X68250D01*
X68350Y78050D01*
Y77850D01*
X68250Y77750D01*
X67950D01*
X68150D02*
X68350Y77550D01*
X68950D02*
X68550D01*
X68950Y77950D01*
Y78050D01*
X68850Y78150D01*
X68650D01*
X68550Y78050D01*
X66100Y77550D02*
Y78150D01*
X66400D01*
X66500Y78050D01*
Y77850D01*
X66400Y77750D01*
X66100D01*
X66300D02*
X66500Y77550D01*
X66700D02*
X66900D01*
X66800D01*
Y78150D01*
X66700Y78050D01*
X65450Y72000D02*
X65250D01*
X65350D01*
Y71500D01*
X65250Y71400D01*
X65150D01*
X65050Y71500D01*
X66050Y72000D02*
X65650D01*
Y71700D01*
X65850Y71800D01*
X65950D01*
X66050Y71700D01*
Y71500D01*
X65950Y71400D01*
X65750D01*
X65650Y71500D01*
X67100Y99600D02*
X66900D01*
X67000D01*
Y99100D01*
X66900Y99000D01*
X66800D01*
X66700Y99100D01*
X67600Y99000D02*
Y99600D01*
X67300Y99300D01*
X67700D01*
X80170Y100160D02*
X79970D01*
X80070D01*
Y99660D01*
X79970Y99560D01*
X79870D01*
X79770Y99660D01*
X80370Y100060D02*
X80470Y100160D01*
X80670D01*
X80770Y100060D01*
Y99960D01*
X80670Y99860D01*
X80570D01*
X80670D01*
X80770Y99760D01*
Y99660D01*
X80670Y99560D01*
X80470D01*
X80370Y99660D01*
X48650Y99520D02*
X48450D01*
X48550D01*
Y99020D01*
X48450Y98920D01*
X48350D01*
X48250Y99020D01*
X49250Y98920D02*
X48850D01*
X49250Y99320D01*
Y99420D01*
X49150Y99520D01*
X48950D01*
X48850Y99420D01*
X40400Y100100D02*
X40200D01*
X40300D01*
Y99600D01*
X40200Y99500D01*
X40100D01*
X40000Y99600D01*
X40600Y99500D02*
X40800D01*
X40700D01*
Y100100D01*
X40600Y100000D01*
X53600Y97150D02*
X53700Y97250D01*
Y97450D01*
X53600Y97550D01*
X53200D01*
X53100Y97450D01*
Y97250D01*
X53200Y97150D01*
X53100Y96550D02*
Y96950D01*
X53500Y96550D01*
X53600D01*
X53700Y96650D01*
Y96850D01*
X53600Y96950D01*
X53100Y96050D02*
X53700D01*
X53400Y96350D01*
Y95951D01*
X47600Y95100D02*
X47500Y95200D01*
X47300D01*
X47200Y95100D01*
Y94700D01*
X47300Y94600D01*
X47500D01*
X47600Y94700D01*
X48200Y94600D02*
X47800D01*
X48200Y95000D01*
Y95100D01*
X48100Y95200D01*
X47900D01*
X47800Y95100D01*
X48400D02*
X48500Y95200D01*
X48700D01*
X48799Y95100D01*
Y95000D01*
X48700Y94900D01*
X48600D01*
X48700D01*
X48799Y94800D01*
Y94700D01*
X48700Y94600D01*
X48500D01*
X48400Y94700D01*
X40000Y95800D02*
X39900Y95900D01*
X39700D01*
X39600Y95800D01*
Y95400D01*
X39700Y95300D01*
X39900D01*
X40000Y95400D01*
X40600Y95300D02*
X40200D01*
X40600Y95700D01*
Y95800D01*
X40500Y95900D01*
X40300D01*
X40200Y95800D01*
X40800Y95300D02*
X41000D01*
X40900D01*
Y95900D01*
X40800Y95800D01*
X76200Y99900D02*
X76100Y100000D01*
X75900D01*
X75800Y99900D01*
Y99500D01*
X75900Y99400D01*
X76100D01*
X76200Y99500D01*
X76400Y99400D02*
X76600D01*
X76500D01*
Y100000D01*
X76400Y99900D01*
X76900Y99500D02*
X77000Y99400D01*
X77200D01*
X77300Y99500D01*
Y99900D01*
X77200Y100000D01*
X77000D01*
X76900Y99900D01*
Y99800D01*
X77000Y99700D01*
X77300D01*
X80183Y97405D02*
X80083Y97505D01*
X79883D01*
X79783Y97405D01*
Y97005D01*
X79883Y96905D01*
X80083D01*
X80183Y97005D01*
X80383Y96905D02*
X80583D01*
X80483D01*
Y97505D01*
X80383Y97405D01*
X80883D02*
X80983Y97505D01*
X81183D01*
X81283Y97405D01*
Y97305D01*
X81183Y97205D01*
X81283Y97105D01*
Y97005D01*
X81183Y96905D01*
X80983D01*
X80883Y97005D01*
Y97105D01*
X80983Y97205D01*
X80883Y97305D01*
Y97405D01*
X80983Y97205D02*
X81183D01*
X78850Y96050D02*
X78750Y96150D01*
X78550D01*
X78450Y96050D01*
Y95650D01*
X78550Y95550D01*
X78750D01*
X78850Y95650D01*
X79050Y95550D02*
X79250D01*
X79150D01*
Y96150D01*
X79050Y96050D01*
X79550Y96150D02*
X79950D01*
Y96050D01*
X79550Y95650D01*
Y95550D01*
X57790Y94850D02*
X57690Y94950D01*
X57490D01*
X57390Y94850D01*
Y94450D01*
X57490Y94350D01*
X57690D01*
X57790Y94450D01*
X57990Y94350D02*
X58190D01*
X58090D01*
Y94950D01*
X57990Y94850D01*
X58890Y94950D02*
X58690Y94850D01*
X58490Y94650D01*
Y94450D01*
X58590Y94350D01*
X58790D01*
X58890Y94450D01*
Y94550D01*
X58790Y94650D01*
X58490D01*
X69740Y99100D02*
X69640Y99200D01*
X69440D01*
X69340Y99100D01*
Y98700D01*
X69440Y98600D01*
X69640D01*
X69740Y98700D01*
X69940Y98600D02*
X70140D01*
X70040D01*
Y99200D01*
X69940Y99100D01*
X70840Y99200D02*
X70440D01*
Y98900D01*
X70640Y99000D01*
X70740D01*
X70840Y98900D01*
Y98700D01*
X70740Y98600D01*
X70540D01*
X70440Y98700D01*
X80100Y98300D02*
X80000Y98400D01*
X79800D01*
X79700Y98300D01*
Y97900D01*
X79800Y97800D01*
X80000D01*
X80100Y97900D01*
X80300Y97800D02*
X80500D01*
X80400D01*
Y98400D01*
X80300Y98300D01*
X81100Y97800D02*
Y98400D01*
X80800Y98100D01*
X81200D01*
X73720Y99610D02*
X73620Y99710D01*
X73420D01*
X73320Y99610D01*
Y99210D01*
X73420Y99110D01*
X73620D01*
X73720Y99210D01*
X73920Y99110D02*
X74120D01*
X74020D01*
Y99710D01*
X73920Y99610D01*
X74420D02*
X74520Y99710D01*
X74720D01*
X74820Y99610D01*
Y99510D01*
X74720Y99410D01*
X74620D01*
X74720D01*
X74820Y99310D01*
Y99210D01*
X74720Y99110D01*
X74520D01*
X74420Y99210D01*
X80580Y94550D02*
X80480Y94650D01*
X80280D01*
X80180Y94550D01*
Y94150D01*
X80280Y94050D01*
X80480D01*
X80580Y94150D01*
X80780Y94050D02*
X80980D01*
X80880D01*
Y94650D01*
X80780Y94550D01*
X81280Y94050D02*
X81480D01*
X81380D01*
Y94650D01*
X81280Y94550D01*
X74200Y70500D02*
X74100Y70600D01*
X73900D01*
X73800Y70500D01*
Y70100D01*
X73900Y70000D01*
X74100D01*
X74200Y70100D01*
X74400Y70000D02*
X74600D01*
X74500D01*
Y70600D01*
X74400Y70500D01*
X74900D02*
X75000Y70600D01*
X75200D01*
X75300Y70500D01*
Y70100D01*
X75200Y70000D01*
X75000D01*
X74900Y70100D01*
Y70500D01*
X79830Y70940D02*
X79730Y71040D01*
X79530D01*
X79430Y70940D01*
Y70540D01*
X79530Y70440D01*
X79730D01*
X79830Y70540D01*
X80030D02*
X80130Y70440D01*
X80330D01*
X80430Y70540D01*
Y70940D01*
X80330Y71040D01*
X80130D01*
X80030Y70940D01*
Y70840D01*
X80130Y70740D01*
X80430D01*
X78000Y78050D02*
X77900Y78150D01*
X77700D01*
X77600Y78050D01*
Y77650D01*
X77700Y77550D01*
X77900D01*
X78000Y77650D01*
X78200Y78050D02*
X78300Y78150D01*
X78500D01*
X78600Y78050D01*
Y77950D01*
X78500Y77850D01*
X78600Y77750D01*
Y77650D01*
X78500Y77550D01*
X78300D01*
X78200Y77650D01*
Y77750D01*
X78300Y77850D01*
X78200Y77950D01*
Y78050D01*
X78300Y77850D02*
X78500D01*
X74460Y77910D02*
X74360Y78010D01*
X74160D01*
X74060Y77910D01*
Y77510D01*
X74160Y77410D01*
X74360D01*
X74460Y77510D01*
X74660Y78010D02*
X75060D01*
Y77910D01*
X74660Y77510D01*
Y77410D01*
X43800Y71700D02*
X43700Y71800D01*
X43500D01*
X43400Y71700D01*
Y71300D01*
X43500Y71200D01*
X43700D01*
X43800Y71300D01*
X44400Y71800D02*
X44000D01*
Y71500D01*
X44200Y71600D01*
X44300D01*
X44400Y71500D01*
Y71300D01*
X44300Y71200D01*
X44100D01*
X44000Y71300D01*
X71500Y77600D02*
X71400Y77700D01*
X71200D01*
X71100Y77600D01*
Y77200D01*
X71200Y77100D01*
X71400D01*
X71500Y77200D01*
X71700Y77100D02*
X71900D01*
X71800D01*
Y77700D01*
X71700Y77600D01*
X82000Y95000D02*
Y94900D01*
X82200Y94700D01*
X82400Y94900D01*
Y95000D01*
X82200Y94700D02*
Y94400D01*
X83000D02*
X82600D01*
X83000Y94800D01*
Y94900D01*
X82900Y95000D01*
X82700D01*
X82600Y94900D01*
X47970Y70670D02*
X47870Y70770D01*
X47670D01*
X47570Y70670D01*
Y70270D01*
X47670Y70170D01*
X47870D01*
X47970Y70270D01*
X48170Y70770D02*
Y70670D01*
X48370Y70470D01*
X48570Y70670D01*
Y70770D01*
X48370Y70470D02*
Y70170D01*
X48770Y70770D02*
X49169D01*
Y70670D01*
X48770Y70270D01*
Y70170D01*
X49769Y70670D02*
X49669Y70770D01*
X49469D01*
X49369Y70670D01*
Y70270D01*
X49469Y70170D01*
X49669D01*
X49769Y70270D01*
X49969Y70170D02*
X50169D01*
X50069D01*
Y70770D01*
X49969Y70670D01*
X50469Y70270D02*
X50569Y70170D01*
X50769D01*
X50869Y70270D01*
Y70670D01*
X50769Y70770D01*
X50569D01*
X50469Y70670D01*
Y70570D01*
X50569Y70470D01*
X50869D01*
X51069Y70270D02*
X51169Y70170D01*
X51369D01*
X51469Y70270D01*
Y70670D01*
X51369Y70770D01*
X51169D01*
X51069Y70670D01*
Y70570D01*
X51169Y70470D01*
X51469D01*
X52069Y70670D02*
X51969Y70770D01*
X51769D01*
X51669Y70670D01*
Y70270D01*
X51769Y70170D01*
X51969D01*
X52069Y70270D01*
X52268Y70170D02*
Y70770D01*
X52668Y70170D01*
Y70770D01*
X52868Y70470D02*
X53268D01*
X53468Y70170D02*
X53668D01*
X53568D01*
Y70770D01*
X53468Y70670D01*
X54368Y70770D02*
X53968D01*
Y70470D01*
X54168Y70570D01*
X54268D01*
X54368Y70470D01*
Y70270D01*
X54268Y70170D01*
X54068D01*
X53968Y70270D01*
X54568Y70170D02*
Y70770D01*
X54868D01*
X54968Y70670D01*
Y70470D01*
X54868Y70370D01*
X54568D01*
X55168Y70770D02*
X55567Y70170D01*
Y70770D02*
X55168Y70170D01*
X56167Y70670D02*
X56067Y70770D01*
X55867D01*
X55767Y70670D01*
Y70270D01*
X55867Y70170D01*
X56067D01*
X56167Y70270D01*
X43800Y69400D02*
X44300D01*
X44400Y69500D01*
Y69700D01*
X44300Y69800D01*
X43800D01*
Y70400D02*
Y70000D01*
X44100D01*
X44000Y70200D01*
Y70300D01*
X44100Y70400D01*
X44300D01*
X44400Y70300D01*
Y70100D01*
X44300Y70000D01*
X47970Y75590D02*
X47870Y75690D01*
X47670D01*
X47570Y75590D01*
Y75190D01*
X47670Y75090D01*
X47870D01*
X47970Y75190D01*
X48170Y75690D02*
Y75590D01*
X48370Y75390D01*
X48570Y75590D01*
Y75690D01*
X48370Y75390D02*
Y75090D01*
X48770Y75690D02*
X49169D01*
Y75590D01*
X48770Y75190D01*
Y75090D01*
X49769Y75590D02*
X49669Y75690D01*
X49469D01*
X49369Y75590D01*
Y75190D01*
X49469Y75090D01*
X49669D01*
X49769Y75190D01*
X49969Y75090D02*
X50169D01*
X50069D01*
Y75690D01*
X49969Y75590D01*
X50469Y75190D02*
X50569Y75090D01*
X50769D01*
X50869Y75190D01*
Y75590D01*
X50769Y75690D01*
X50569D01*
X50469Y75590D01*
Y75490D01*
X50569Y75390D01*
X50869D01*
X51069Y75190D02*
X51169Y75090D01*
X51369D01*
X51469Y75190D01*
Y75590D01*
X51369Y75690D01*
X51169D01*
X51069Y75590D01*
Y75490D01*
X51169Y75390D01*
X51469D01*
X52069Y75590D02*
X51969Y75690D01*
X51769D01*
X51669Y75590D01*
Y75190D01*
X51769Y75090D01*
X51969D01*
X52069Y75190D01*
X52268Y75090D02*
Y75690D01*
X52668Y75090D01*
Y75690D01*
X52868Y75390D02*
X53268D01*
X53468Y75090D02*
X53668D01*
X53568D01*
Y75690D01*
X53468Y75590D01*
X54368Y75690D02*
X53968D01*
Y75390D01*
X54168Y75490D01*
X54268D01*
X54368Y75390D01*
Y75190D01*
X54268Y75090D01*
X54068D01*
X53968Y75190D01*
X54568Y75090D02*
Y75690D01*
X54868D01*
X54968Y75590D01*
Y75390D01*
X54868Y75290D01*
X54568D01*
X55168Y75690D02*
X55567Y75090D01*
Y75690D02*
X55168Y75090D01*
X56167Y75590D02*
X56067Y75690D01*
X55867D01*
X55767Y75590D01*
Y75190D01*
X55867Y75090D01*
X56067D01*
X56167Y75190D01*
X43800Y74400D02*
X44300D01*
X44400Y74500D01*
Y74700D01*
X44300Y74800D01*
X43800D01*
X44400Y75300D02*
X43800D01*
X44100Y75000D01*
Y75400D01*
X48160Y81700D02*
Y82100D01*
X48360Y82300D01*
X48560Y82100D01*
Y81700D01*
Y82000D01*
X48160D01*
X48760Y82300D02*
X49160D01*
X48960D01*
Y81700D01*
X49759D02*
X49360D01*
X49759Y82100D01*
Y82200D01*
X49660Y82300D01*
X49460D01*
X49360Y82200D01*
X49959D02*
X50059Y82300D01*
X50259D01*
X50359Y82200D01*
Y82100D01*
X50259Y82000D01*
X50359Y81900D01*
Y81800D01*
X50259Y81700D01*
X50059D01*
X49959Y81800D01*
Y81900D01*
X50059Y82000D01*
X49959Y82100D01*
Y82200D01*
X50059Y82000D02*
X50259D01*
X50959Y82200D02*
X50859Y82300D01*
X50659D01*
X50559Y82200D01*
Y81800D01*
X50659Y81700D01*
X50859D01*
X50959Y81800D01*
X51559Y82300D02*
X51359Y82200D01*
X51159Y82000D01*
Y81800D01*
X51259Y81700D01*
X51459D01*
X51559Y81800D01*
Y81900D01*
X51459Y82000D01*
X51159D01*
X52059Y81700D02*
Y82300D01*
X51759Y82000D01*
X52159D01*
X52359Y82300D02*
Y81700D01*
X52659D01*
X52759Y81800D01*
Y81900D01*
X52659Y82000D01*
X52359D01*
X52659D01*
X52759Y82100D01*
Y82200D01*
X52659Y82300D01*
X52359D01*
X52958Y82000D02*
X53358D01*
X53558Y81700D02*
X53758D01*
X53658D01*
Y82300D01*
X53558Y82200D01*
X54458Y82300D02*
X54058D01*
Y82000D01*
X54258Y82100D01*
X54358D01*
X54458Y82000D01*
Y81800D01*
X54358Y81700D01*
X54158D01*
X54058Y81800D01*
X54658Y81700D02*
Y82300D01*
X54958D01*
X55058Y82200D01*
Y82000D01*
X54958Y81900D01*
X54658D01*
X55258Y82300D02*
Y81800D01*
X55358Y81700D01*
X55558D01*
X55658Y81800D01*
Y82300D01*
X43400Y79400D02*
X43900D01*
X44000Y79500D01*
Y79700D01*
X43900Y79800D01*
X43400D01*
X43500Y80000D02*
X43400Y80100D01*
Y80300D01*
X43500Y80400D01*
X43600D01*
X43700Y80300D01*
Y80200D01*
Y80300D01*
X43800Y80400D01*
X43900D01*
X44000Y80300D01*
Y80100D01*
X43900Y80000D01*
X72000Y82300D02*
Y81700D01*
X72200Y81900D01*
X72400Y81700D01*
Y82300D01*
X73000D02*
X72800Y82200D01*
X72600Y82000D01*
Y81800D01*
X72700Y81700D01*
X72900D01*
X73000Y81800D01*
Y81900D01*
X72900Y82000D01*
X72600D01*
X73599Y82300D02*
X73200D01*
Y82000D01*
X73400Y82100D01*
X73500D01*
X73599Y82000D01*
Y81800D01*
X73500Y81700D01*
X73300D01*
X73200Y81800D01*
X74199Y82200D02*
X74099Y82300D01*
X73899D01*
X73799Y82200D01*
Y81800D01*
X73899Y81700D01*
X74099D01*
X74199Y81800D01*
X74399Y82200D02*
X74499Y82300D01*
X74699D01*
X74799Y82200D01*
Y81800D01*
X74699Y81700D01*
X74499D01*
X74399Y81800D01*
Y82200D01*
X75399Y81700D02*
X74999D01*
X75399Y82100D01*
Y82200D01*
X75299Y82300D01*
X75099D01*
X74999Y82200D01*
X75999D02*
X75899Y82300D01*
X75699D01*
X75599Y82200D01*
Y82100D01*
X75699Y82000D01*
X75899D01*
X75999Y81900D01*
Y81800D01*
X75899Y81700D01*
X75699D01*
X75599Y81800D01*
X62600Y79770D02*
X63100D01*
X63200Y79870D01*
Y80070D01*
X63100Y80170D01*
X62600D01*
X63200Y80770D02*
Y80370D01*
X62800Y80770D01*
X62700D01*
X62600Y80670D01*
Y80470D01*
X62700Y80370D01*
X43800Y76700D02*
X43700Y76800D01*
X43500D01*
X43400Y76700D01*
Y76300D01*
X43500Y76200D01*
X43700D01*
X43800Y76300D01*
X44300Y76200D02*
Y76800D01*
X44000Y76500D01*
X44400D01*
X82850Y77810D02*
X82750Y77910D01*
X82550D01*
X82450Y77810D01*
Y77410D01*
X82550Y77310D01*
X82750D01*
X82850Y77410D01*
X83450Y77310D02*
X83050D01*
X83450Y77710D01*
Y77810D01*
X83350Y77910D01*
X83150D01*
X83050Y77810D01*
X76600Y70920D02*
Y70420D01*
X76700Y70320D01*
X76900D01*
X77000Y70420D01*
Y70920D01*
X77600D02*
X77400Y70820D01*
X77200Y70620D01*
Y70420D01*
X77300Y70320D01*
X77500D01*
X77600Y70420D01*
Y70520D01*
X77500Y70620D01*
X77200D01*
X63400Y100700D02*
X63200D01*
X63300D01*
Y100200D01*
X63200Y100100D01*
X63100D01*
X63000Y100200D01*
X64000Y100700D02*
X63800Y100600D01*
X63600Y100400D01*
Y100200D01*
X63700Y100100D01*
X63900D01*
X64000Y100200D01*
Y100300D01*
X63900Y100400D01*
X63600D01*
X54250Y98750D02*
Y99350D01*
X54550D01*
X54650Y99250D01*
Y99050D01*
X54550Y98950D01*
X54250D01*
X54450D02*
X54650Y98750D01*
X54850Y99250D02*
X54950Y99350D01*
X55150D01*
X55250Y99250D01*
Y99150D01*
X55150Y99050D01*
X55250Y98950D01*
Y98850D01*
X55150Y98750D01*
X54950D01*
X54850Y98850D01*
Y98950D01*
X54950Y99050D01*
X54850Y99150D01*
Y99250D01*
X54950Y99050D02*
X55150D01*
X56850Y98800D02*
Y99400D01*
X57150D01*
X57250Y99300D01*
Y99100D01*
X57150Y99000D01*
X56850D01*
X57050D02*
X57250Y98800D01*
X57450Y98900D02*
X57550Y98800D01*
X57750D01*
X57850Y98900D01*
Y99300D01*
X57750Y99400D01*
X57550D01*
X57450Y99300D01*
Y99200D01*
X57550Y99100D01*
X57850D01*
X61260Y99350D02*
X61160Y99450D01*
X60960D01*
X60860Y99350D01*
Y98950D01*
X60960Y98850D01*
X61160D01*
X61260Y98950D01*
X61860Y98850D02*
X61460D01*
X61860Y99250D01*
Y99350D01*
X61760Y99450D01*
X61560D01*
X61460Y99350D01*
X62459Y99450D02*
X62260Y99350D01*
X62060Y99150D01*
Y98950D01*
X62160Y98850D01*
X62360D01*
X62459Y98950D01*
Y99050D01*
X62360Y99150D01*
X62060D01*
X40650Y94650D02*
Y94050D01*
X40950D01*
X41050Y94150D01*
Y94550D01*
X40950Y94650D01*
X40650D01*
X41650Y94050D02*
X41250D01*
X41650Y94450D01*
Y94550D01*
X41550Y94650D01*
X41350D01*
X41250Y94550D01*
X70000Y76000D02*
Y76600D01*
X70300D01*
X70400Y76500D01*
Y76300D01*
X70300Y76200D01*
X70000D01*
X70200D02*
X70400Y76000D01*
X70600D02*
X70800D01*
X70700D01*
Y76600D01*
X70600Y76500D01*
X71100D02*
X71200Y76600D01*
X71400D01*
X71500Y76500D01*
Y76100D01*
X71400Y76000D01*
X71200D01*
X71100Y76100D01*
Y76500D01*
X73950Y73400D02*
X73350D01*
Y73700D01*
X73450Y73800D01*
X73650D01*
X73750Y73700D01*
Y73400D01*
Y73600D02*
X73950Y73800D01*
Y74000D02*
Y74200D01*
Y74100D01*
X73350D01*
X73450Y74000D01*
X73950Y74500D02*
Y74700D01*
Y74600D01*
X73350D01*
X73450Y74500D01*
X47400Y87100D02*
Y86500D01*
X47700D01*
X47800Y86600D01*
Y87000D01*
X47700Y87100D01*
X47400D01*
X48000Y86500D02*
X48200D01*
X48100D01*
Y87100D01*
X48000Y87000D01*
X42950Y93050D02*
X42850Y93150D01*
X42650D01*
X42550Y93050D01*
Y92650D01*
X42650Y92550D01*
X42850D01*
X42950Y92650D01*
X43150Y92550D02*
X43350D01*
X43250D01*
Y93150D01*
X43150Y93050D01*
X44050Y92550D02*
X43650D01*
X44050Y92950D01*
Y93050D01*
X43950Y93150D01*
X43750D01*
X43650Y93050D01*
X49906Y95619D02*
Y96019D01*
X49706Y95819D02*
X50106D01*
X60300Y68200D02*
Y68800D01*
X60600D01*
X60700Y68700D01*
Y68500D01*
X60600Y68400D01*
X60300D01*
X60500D02*
X60700Y68200D01*
X61300Y68800D02*
X60900D01*
Y68200D01*
X61300D01*
X60900Y68500D02*
X61100D01*
X61899Y68700D02*
X61800Y68800D01*
X61600D01*
X61500Y68700D01*
Y68600D01*
X61600Y68500D01*
X61800D01*
X61899Y68400D01*
Y68300D01*
X61800Y68200D01*
X61600D01*
X61500Y68300D01*
X62499Y68800D02*
X62099D01*
Y68200D01*
X62499D01*
X62099Y68500D02*
X62299D01*
X62699Y68800D02*
X63099D01*
X62899D01*
Y68200D01*
X68200Y72000D02*
X68000D01*
X68100D01*
Y71500D01*
X68000Y71400D01*
X67900D01*
X67800Y71500D01*
X68400Y72000D02*
X68800D01*
X68600D01*
Y71400D01*
X69000D02*
Y71800D01*
X69200Y72000D01*
X69399Y71800D01*
Y71400D01*
Y71700D01*
X69000D01*
X69999Y71900D02*
X69899Y72000D01*
X69699D01*
X69599Y71900D01*
Y71500D01*
X69699Y71400D01*
X69899D01*
X69999Y71500D01*
Y71700D01*
X69799D01*
X68500Y96200D02*
Y96400D01*
Y96300D01*
X69100D01*
Y96200D01*
Y96400D01*
X68600Y97100D02*
X68500Y97000D01*
Y96800D01*
X68600Y96700D01*
X69000D01*
X69100Y96800D01*
Y97000D01*
X69000Y97100D01*
X68600Y97700D02*
X68500Y97600D01*
Y97400D01*
X68600Y97300D01*
X68700D01*
X68800Y97400D01*
Y97600D01*
X68900Y97700D01*
X69000D01*
X69100Y97600D01*
Y97400D01*
X69000Y97300D01*
X69100Y97899D02*
X68500D01*
Y98199D01*
X68600Y98299D01*
X68800D01*
X68900Y98199D01*
Y97899D01*
D26*
X71010Y75500D02*
G03*
X71010Y75500I-10J0D01*
G01*
D54*
X78460Y91858D02*
G03*
X78460Y91858I-118J0D01*
G01*
X79039Y74050D02*
G03*
X79039Y74050I-118J0D01*
G01*
X44917Y79852D02*
G03*
X44917Y79852I-118J0D01*
G01*
X64020Y79854D02*
G03*
X64020Y79854I-118J0D01*
G01*
X77569Y97144D02*
G03*
X77569Y97144I-118J0D01*
G01*
X45256Y69823D02*
G03*
X45256Y69823I-118J0D01*
G01*
Y74744D02*
G03*
X45256Y74744I-118J0D01*
G01*
X64684Y97511D02*
G03*
X64684Y97511I-118J0D01*
G01*
X81734Y73150D02*
G03*
X81734Y73150I-118J0D01*
G01*
X82484Y97150D02*
G03*
X82484Y97150I-118J0D01*
G01*
X64957Y92846D02*
G03*
X64957Y92846I-118J0D01*
G01*
D55*
X77544Y92400D02*
G03*
X77544Y92400I-49J0D01*
G01*
X79951Y74266D02*
G03*
X79951Y74266I-49J0D01*
G01*
X44943Y78997D02*
G03*
X44943Y78997I-49J0D01*
G01*
X64037Y79000D02*
G03*
X64037Y79000I-49J0D01*
G01*
X78028Y97995D02*
G03*
X78028Y97995I-49J0D01*
G01*
X44907Y68972D02*
G03*
X44907Y68972I-49J0D01*
G01*
Y73894D02*
G03*
X44907Y73894I-49J0D01*
G01*
X64902Y98361D02*
G03*
X64902Y98361I-49J0D01*
G01*
X60607Y72017D02*
G03*
X60607Y72017I-49J0D01*
G01*
X64861Y93700D02*
G03*
X64861Y93700I-49J0D01*
G01*
X42258Y96567D02*
G03*
X42258Y96567I-49J0D01*
G01*
D56*
X44406Y81747D02*
G03*
X44406Y82247I0J250D01*
G01*
X63508Y81750D02*
G03*
X63508Y82250I0J250D01*
G01*
X77845Y96745D02*
G03*
X77845Y96245I0J-250D01*
G01*
X44744Y70222D02*
G03*
X44744Y70722I0J250D01*
G01*
Y75144D02*
G03*
X44744Y75644I0J250D01*
G01*
X64959Y97111D02*
G03*
X64959Y96611I0J-250D01*
G01*
X62507Y71970D02*
G03*
X60893Y71970I-807J630D01*
G01*
X65233Y90950D02*
G03*
X65233Y90450I0J-250D01*
G01*
X47305Y86226D02*
G03*
X47305Y86226I-8J0D01*
G01*
X77948Y88748D02*
X81452D01*
X77948Y92252D02*
X81452D01*
Y88748D02*
Y92252D01*
X77948Y88748D02*
Y92252D01*
X74522Y74050D02*
X77000Y76528D01*
Y71572D02*
X79478Y74050D01*
X74522D02*
X77000Y71572D01*
Y76528D02*
X79478Y74050D01*
X59406Y79458D02*
Y84537D01*
X44406Y82247D02*
Y84537D01*
Y79458D02*
Y81747D01*
Y84537D02*
X59406D01*
X44406Y79458D02*
X59406D01*
X63508Y79461D02*
X84492D01*
X63508Y84539D02*
X84492D01*
X63508Y79461D02*
Y81750D01*
Y82250D02*
Y84539D01*
X84492Y79461D02*
Y84539D01*
X70089Y95452D02*
Y97538D01*
X77845Y95452D02*
Y96245D01*
Y96745D02*
Y97538D01*
X70089Y95452D02*
X77845D01*
X70089Y97538D02*
X77845D01*
X58996Y69429D02*
Y71516D01*
X44744Y70722D02*
Y71516D01*
Y69429D02*
Y70222D01*
Y71516D02*
X58996D01*
X44744Y69429D02*
X58996D01*
Y74350D02*
Y76437D01*
X44744Y75644D02*
Y76437D01*
Y74350D02*
Y75144D01*
Y76437D02*
X58996D01*
X44744Y74350D02*
X58996D01*
X54723Y95818D02*
Y97904D01*
X64959Y95818D02*
Y96611D01*
Y97111D02*
Y97904D01*
X54723Y95818D02*
X64959D01*
X54723Y97904D02*
X64959D01*
X67980Y100509D02*
X80830D01*
X67980D02*
Y103509D01*
X80830D01*
Y100509D02*
Y103509D01*
X81222Y74843D02*
X85278D01*
X81222Y72757D02*
X85278D01*
Y74843D01*
X81218Y72757D02*
Y74843D01*
X81968Y96757D02*
Y98843D01*
X86028Y96757D02*
Y98843D01*
X81972Y96757D02*
X86028D01*
X81972Y98843D02*
X86028D01*
X60893Y71970D02*
X62507D01*
X44367Y88161D02*
Y93239D01*
X65233Y88161D02*
Y90450D01*
Y90950D02*
Y93239D01*
X44367Y88161D02*
X65233D01*
X44367Y93239D02*
X65233D01*
X41953Y98122D02*
X46047D01*
Y96311D02*
Y98122D01*
X41953Y96311D02*
X46047D01*
X41953D02*
Y98122D01*
X41953Y97925D02*
X46047D01*
X46344Y86029D02*
Y86324D01*
Y86029D02*
X46720D01*
X46344Y87171D02*
X46720D01*
X46856Y86502D02*
Y86698D01*
X46344Y86876D02*
Y87171D01*
D57*
X66250Y98500D02*
X66500Y98750D01*
X66250Y98000D02*
X66500Y97750D01*
X66250Y97500D02*
X66500Y97750D01*
X66250Y97000D02*
X66500Y96750D01*
Y98750D02*
X68000D01*
X68250Y98500D01*
Y98000D02*
Y98500D01*
X68000Y97750D02*
X68250Y98000D01*
X68000Y97750D02*
X68250Y97500D01*
Y97000D02*
Y97500D01*
X68000Y96750D02*
X68250Y97000D01*
X66500Y97750D02*
X68000D01*
X66500Y96750D02*
X68000D01*
X66250Y97000D02*
Y97500D01*
Y98000D02*
Y98500D01*
Y96500D02*
X66500Y96750D01*
X66250Y96000D02*
X66500Y95750D01*
X68000Y96750D02*
X68250Y96500D01*
Y96000D02*
Y96500D01*
X68000Y95750D02*
X68250Y96000D01*
X66500Y95750D02*
X68000D01*
X66250Y96000D02*
Y96500D01*
D58*
X45800Y99300D02*
Y104900D01*
X41950D02*
X45800D01*
X41950Y101800D02*
Y104900D01*
Y99300D02*
X42850D01*
X41950Y104050D02*
X45800D01*
D59*
X42800Y94700D02*
X44800D01*
Y95700D01*
X42800D02*
X44800D01*
X42800Y94700D02*
Y95700D01*
X74600Y91050D02*
X74650Y91100D01*
Y91200D01*
X74600Y91250D01*
X74400D01*
X74350Y91200D01*
Y91100D01*
X74400Y91050D01*
X74650Y90950D02*
Y90750D01*
Y90850D01*
X74350D01*
X74600Y90450D02*
X74650Y90500D01*
Y90600D01*
X74600Y90650D01*
X74550D01*
X74500Y90600D01*
Y90500D01*
X74450Y90450D01*
X74400D01*
X74350Y90500D01*
Y90600D01*
X74400Y90650D01*
X73650Y91265D02*
Y91065D01*
Y91165D01*
X73350D01*
X73650Y90965D02*
X73350Y90765D01*
X73650D02*
X73350Y90965D01*
X73650Y90665D02*
X73350D01*
Y90515D01*
X73400Y90465D01*
X73600D01*
X73650Y90515D01*
Y90665D01*
X72350Y91250D02*
X72650D01*
Y91100D01*
X72600Y91050D01*
X72500D01*
X72450Y91100D01*
Y91250D01*
Y91150D02*
X72350Y91050D01*
X72650Y90950D02*
X72350Y90750D01*
X72650D02*
X72350Y90950D01*
X72650Y90650D02*
X72350D01*
Y90500D01*
X72400Y90450D01*
X72600D01*
X72650Y90500D01*
Y90650D01*
X71350Y91250D02*
X71650D01*
X71350Y91050D01*
X71650D01*
X71600Y90750D02*
X71650Y90800D01*
Y90900D01*
X71600Y90950D01*
X71400D01*
X71350Y90900D01*
Y90800D01*
X71400Y90750D01*
X70350Y91250D02*
X70650D01*
Y91100D01*
X70600Y91050D01*
X70500D01*
X70450Y91100D01*
Y91250D01*
Y91150D02*
X70350Y91050D01*
X70650Y90950D02*
Y90750D01*
Y90850D01*
X70350D01*
X70600Y90450D02*
X70650Y90500D01*
Y90600D01*
X70600Y90650D01*
X70550D01*
X70500Y90600D01*
Y90500D01*
X70450Y90450D01*
X70400D01*
X70350Y90500D01*
Y90600D01*
X70400Y90650D01*
X69600Y91050D02*
X69650Y91100D01*
Y91200D01*
X69600Y91250D01*
X69400D01*
X69350Y91200D01*
Y91100D01*
X69400Y91050D01*
X69500D01*
Y91150D01*
X69350Y90950D02*
X69650D01*
X69350Y90750D01*
X69650D01*
Y90650D02*
X69350D01*
Y90500D01*
X69400Y90450D01*
X69600D01*
X69650Y90500D01*
Y90650D01*
X82850Y69200D02*
Y69500D01*
X82700Y69350D01*
X82900D01*
X83000Y69450D02*
X83050Y69500D01*
X83150D01*
X83200Y69450D01*
Y69250D01*
X83150Y69200D01*
X83050D01*
X83000Y69250D01*
Y69450D01*
X83950Y69200D02*
Y69500D01*
X83800Y69350D01*
X84000D01*
X84250Y69200D02*
Y69500D01*
X84100Y69350D01*
X84300D01*
X82733Y68967D02*
X82700Y69000D01*
X82633D01*
X82600Y68967D01*
Y68833D01*
X82633Y68800D01*
X82700D01*
X82733Y68833D01*
X82800Y68800D02*
Y69000D01*
X82900D01*
X82933Y68967D01*
Y68900D01*
X82900Y68867D01*
X82800D01*
X83000Y69000D02*
Y68800D01*
X83133D01*
X83200Y69000D02*
Y68800D01*
X83300D01*
X83333Y68833D01*
Y68967D01*
X83300Y69000D01*
X83200D01*
X83733Y68967D02*
X83700Y69000D01*
X83633D01*
X83600Y68967D01*
Y68933D01*
X83633Y68900D01*
X83700D01*
X83733Y68867D01*
Y68833D01*
X83700Y68800D01*
X83633D01*
X83600Y68833D01*
X83800Y68733D02*
Y68933D01*
X83900D01*
X83933Y68900D01*
Y68833D01*
X83900Y68800D01*
X83800D01*
X84033Y68933D02*
X84100D01*
X84133Y68900D01*
Y68800D01*
X84033D01*
X84000Y68833D01*
X84033Y68867D01*
X84133D01*
X84199Y68933D02*
Y68800D01*
Y68867D01*
X84233Y68900D01*
X84266Y68933D01*
X84299D01*
X84499Y68800D02*
X84433D01*
X84399Y68833D01*
Y68900D01*
X84433Y68933D01*
X84499D01*
X84533Y68900D01*
Y68867D01*
X84399D01*
D60*
X42650Y95197D02*
D03*
D61*
X44950D02*
D03*
D62*
X43175Y95200D02*
D03*
M02*
