G04 Layer_Color=7318015*
%FSLAX24Y24*%
%MOIN*%
G70*
G01*
G75*
%ADD10C,0.0300*%
%ADD11R,0.0350X0.0394*%
%ADD12R,0.0433X0.0354*%
%ADD13O,0.0217X0.0571*%
%ADD14O,0.0571X0.0217*%
G04:AMPARAMS|DCode=15|XSize=21.7mil|YSize=57.1mil|CornerRadius=0mil|HoleSize=0mil|Usage=FLASHONLY|Rotation=225.000|XOffset=0mil|YOffset=0mil|HoleType=Round|Shape=Round|*
%AMOVALD15*
21,1,0.0354,0.0217,0.0000,0.0000,315.0*
1,1,0.0217,-0.0125,0.0125*
1,1,0.0217,0.0125,-0.0125*
%
%ADD15OVALD15*%

G04:AMPARAMS|DCode=16|XSize=21.7mil|YSize=57.1mil|CornerRadius=0mil|HoleSize=0mil|Usage=FLASHONLY|Rotation=315.000|XOffset=0mil|YOffset=0mil|HoleType=Round|Shape=Round|*
%AMOVALD16*
21,1,0.0354,0.0217,0.0000,0.0000,45.0*
1,1,0.0217,-0.0125,-0.0125*
1,1,0.0217,0.0125,0.0125*
%
%ADD16OVALD16*%

%ADD17R,0.0394X0.0350*%
G04:AMPARAMS|DCode=18|XSize=39.4mil|YSize=35mil|CornerRadius=0mil|HoleSize=0mil|Usage=FLASHONLY|Rotation=315.000|XOffset=0mil|YOffset=0mil|HoleType=Round|Shape=Rectangle|*
%AMROTATEDRECTD18*
4,1,4,-0.0263,0.0015,-0.0015,0.0263,0.0263,-0.0015,0.0015,-0.0263,-0.0263,0.0015,0.0*
%
%ADD18ROTATEDRECTD18*%

G04:AMPARAMS|DCode=19|XSize=39.4mil|YSize=35mil|CornerRadius=0mil|HoleSize=0mil|Usage=FLASHONLY|Rotation=45.000|XOffset=0mil|YOffset=0mil|HoleType=Round|Shape=Rectangle|*
%AMROTATEDRECTD19*
4,1,4,-0.0015,-0.0263,-0.0263,-0.0015,0.0015,0.0263,0.0263,0.0015,-0.0015,-0.0263,0.0*
%
%ADD19ROTATEDRECTD19*%

%ADD20R,0.0354X0.0433*%
%ADD21R,0.0354X0.0335*%
%ADD22R,0.0374X0.0315*%
%ADD23R,0.0315X0.0374*%
%ADD63R,0.0236X0.0197*%
D10*
X79070Y93930D02*
D03*
X82990Y89240D02*
D03*
X83495Y89555D02*
D03*
X82980Y89870D02*
D03*
X81275Y93575D02*
D03*
X80645Y93255D02*
D03*
X80330Y93570D02*
D03*
X76320Y89240D02*
D03*
X76055Y89555D02*
D03*
X76330Y89870D02*
D03*
D11*
X72100Y98900D02*
D03*
X71500D02*
D03*
X76767Y98895D02*
D03*
X76167D02*
D03*
X79300Y97100D02*
D03*
X78700D02*
D03*
X74270Y98710D02*
D03*
X73670D02*
D03*
X78700Y95050D02*
D03*
X79300D02*
D03*
X59550Y94650D02*
D03*
X60150D02*
D03*
X80700Y98900D02*
D03*
X80100D02*
D03*
X60350Y99150D02*
D03*
X59750D02*
D03*
X43900Y72400D02*
D03*
X44500D02*
D03*
X43700Y77200D02*
D03*
X44300D02*
D03*
X43700Y85000D02*
D03*
X44300D02*
D03*
X83250Y76700D02*
D03*
X82650D02*
D03*
X72150Y78100D02*
D03*
X71550D02*
D03*
X62300Y74100D02*
D03*
X61700D02*
D03*
X43400Y93700D02*
D03*
X44000D02*
D03*
D12*
X68500Y86495D02*
D03*
Y85905D02*
D03*
X66800Y95095D02*
D03*
Y94505D02*
D03*
X65500Y77555D02*
D03*
Y78145D02*
D03*
X67500Y77555D02*
D03*
Y78145D02*
D03*
X69500Y77555D02*
D03*
Y78145D02*
D03*
X66500Y86495D02*
D03*
Y85905D02*
D03*
D13*
X78125Y92705D02*
D03*
X78440D02*
D03*
X78755D02*
D03*
X79070D02*
D03*
X79385D02*
D03*
X79700D02*
D03*
X80015D02*
D03*
X80330D02*
D03*
X80645D02*
D03*
X80960D02*
D03*
X81275D02*
D03*
Y88295D02*
D03*
X80960D02*
D03*
X80645D02*
D03*
X80330D02*
D03*
X80015D02*
D03*
X79700D02*
D03*
X79385D02*
D03*
X79070D02*
D03*
X78755D02*
D03*
X78440D02*
D03*
X78125D02*
D03*
D14*
X81905Y92075D02*
D03*
Y91760D02*
D03*
Y91445D02*
D03*
Y91130D02*
D03*
Y90815D02*
D03*
Y90500D02*
D03*
Y90185D02*
D03*
Y89870D02*
D03*
Y89555D02*
D03*
Y89240D02*
D03*
Y88925D02*
D03*
X77495D02*
D03*
Y89240D02*
D03*
Y89555D02*
D03*
Y89870D02*
D03*
Y90185D02*
D03*
Y90500D02*
D03*
Y90815D02*
D03*
Y91130D02*
D03*
Y91445D02*
D03*
Y91760D02*
D03*
Y92075D02*
D03*
D15*
X79673Y73605D02*
D03*
X79450Y73382D02*
D03*
X79227Y73159D02*
D03*
X79004Y72936D02*
D03*
X78782Y72714D02*
D03*
X78559Y72491D02*
D03*
X78336Y72268D02*
D03*
X78114Y72046D02*
D03*
X77891Y71823D02*
D03*
X77668Y71600D02*
D03*
X77445Y71377D02*
D03*
X74327Y74495D02*
D03*
X74550Y74718D02*
D03*
X74773Y74941D02*
D03*
X74996Y75164D02*
D03*
X75218Y75386D02*
D03*
X75441Y75609D02*
D03*
X75664Y75832D02*
D03*
X75886Y76054D02*
D03*
X76109Y76277D02*
D03*
X76332Y76500D02*
D03*
X76555Y76723D02*
D03*
D16*
Y71377D02*
D03*
X76332Y71600D02*
D03*
X76109Y71823D02*
D03*
X75886Y72046D02*
D03*
X75664Y72268D02*
D03*
X75441Y72491D02*
D03*
X75218Y72714D02*
D03*
X74996Y72936D02*
D03*
X74773Y73159D02*
D03*
X74550Y73382D02*
D03*
X74327Y73605D02*
D03*
X77445Y76723D02*
D03*
X77668Y76500D02*
D03*
X77891Y76277D02*
D03*
X78114Y76054D02*
D03*
X78336Y75832D02*
D03*
X78559Y75609D02*
D03*
X78782Y75386D02*
D03*
X79004Y75164D02*
D03*
X79227Y74941D02*
D03*
X79450Y74718D02*
D03*
X79673Y74495D02*
D03*
D17*
X47800Y95700D02*
D03*
Y96300D02*
D03*
X103550Y71350D02*
D03*
Y70750D02*
D03*
X95550Y71350D02*
D03*
Y70750D02*
D03*
X87550Y71400D02*
D03*
Y70800D02*
D03*
X79850Y93600D02*
D03*
Y94200D02*
D03*
D18*
X74588Y71188D02*
D03*
X75012Y71612D02*
D03*
X78962Y77362D02*
D03*
X78538Y76938D02*
D03*
D19*
X80142Y71808D02*
D03*
X79718Y72232D02*
D03*
X74338Y76712D02*
D03*
X74762Y76288D02*
D03*
D20*
X73555Y71800D02*
D03*
X74145D02*
D03*
X58895Y99100D02*
D03*
X58305D02*
D03*
X55755D02*
D03*
X56345D02*
D03*
D21*
X41400Y95944D02*
D03*
Y96456D02*
D03*
D22*
X73600Y72534D02*
D03*
Y73066D02*
D03*
D23*
X69446Y76100D02*
D03*
X68954D02*
D03*
D63*
X46994Y86974D02*
D03*
Y86226D02*
D03*
X46206Y86600D02*
D03*
M02*
