G04 Layer_Physical_Order=1*
G04 Layer_Color=25308*
%FSAX24Y24*%
%MOIN*%
G70*
G01*
G75*
%ADD10R,0.0315X0.0374*%
%ADD11R,0.0374X0.0315*%
%ADD12R,0.0354X0.0335*%
%ADD13R,0.0350X0.0394*%
G04:AMPARAMS|DCode=14|XSize=39.4mil|YSize=35mil|CornerRadius=0mil|HoleSize=0mil|Usage=FLASHONLY|Rotation=225.000|XOffset=0mil|YOffset=0mil|HoleType=Round|Shape=Rectangle|*
%AMROTATEDRECTD14*
4,1,4,0.0015,0.0263,0.0263,0.0015,-0.0015,-0.0263,-0.0263,-0.0015,0.0015,0.0263,0.0*
%
%ADD14ROTATEDRECTD14*%

%ADD15R,0.0433X0.0354*%
%ADD16R,0.0354X0.0433*%
%ADD17R,0.0276X0.0236*%
G04:AMPARAMS|DCode=18|XSize=39.4mil|YSize=35mil|CornerRadius=0mil|HoleSize=0mil|Usage=FLASHONLY|Rotation=135.000|XOffset=0mil|YOffset=0mil|HoleType=Round|Shape=Rectangle|*
%AMROTATEDRECTD18*
4,1,4,0.0263,-0.0015,0.0015,-0.0263,-0.0263,0.0015,-0.0015,0.0263,0.0263,-0.0015,0.0*
%
%ADD18ROTATEDRECTD18*%

%ADD19R,0.0394X0.0350*%
G04:AMPARAMS|DCode=20|XSize=21.7mil|YSize=57.1mil|CornerRadius=0mil|HoleSize=0mil|Usage=FLASHONLY|Rotation=315.000|XOffset=0mil|YOffset=0mil|HoleType=Round|Shape=Round|*
%AMOVALD20*
21,1,0.0354,0.0217,0.0000,0.0000,45.0*
1,1,0.0217,-0.0125,-0.0125*
1,1,0.0217,0.0125,0.0125*
%
%ADD20OVALD20*%

G04:AMPARAMS|DCode=21|XSize=21.7mil|YSize=57.1mil|CornerRadius=0mil|HoleSize=0mil|Usage=FLASHONLY|Rotation=225.000|XOffset=0mil|YOffset=0mil|HoleType=Round|Shape=Round|*
%AMOVALD21*
21,1,0.0354,0.0217,0.0000,0.0000,315.0*
1,1,0.0217,-0.0125,0.0125*
1,1,0.0217,0.0125,-0.0125*
%
%ADD21OVALD21*%

%ADD22C,0.0100*%
%ADD23C,0.0200*%
%ADD24C,0.0300*%
%ADD25C,0.0600*%
%ADD26C,0.0433*%
%ADD27C,0.1191*%
%ADD28C,0.1190*%
%ADD29C,0.1091*%
%ADD30O,0.0600X0.0800*%
%ADD31R,0.0600X0.0800*%
%ADD32R,0.0591X0.0591*%
%ADD33C,0.0591*%
%ADD34R,0.0600X0.0600*%
%ADD35C,0.1969*%
%ADD36O,0.0344X0.0787*%
%ADD37R,0.0344X0.0787*%
%ADD38R,0.0433X0.0433*%
%ADD39P,0.0469X8X292.5*%
%ADD40C,0.0709*%
%ADD41R,0.0709X0.0709*%
%ADD42C,0.0787*%
%ADD43C,0.0748*%
%ADD44R,0.0600X0.0600*%
%ADD45C,0.0750*%
%ADD46R,0.0591X0.0591*%
%ADD47O,0.0591X0.0591*%
%ADD48C,0.0630*%
%ADD49R,0.0630X0.0630*%
%ADD50C,0.0200*%
%ADD51C,0.0300*%
D10*
X068954Y076100D02*
D03*
X069446D02*
D03*
D11*
X073600Y073066D02*
D03*
Y072534D02*
D03*
D12*
X041400Y096456D02*
D03*
Y095944D02*
D03*
D13*
X061700Y074100D02*
D03*
X062300D02*
D03*
X071550Y078100D02*
D03*
X072150D02*
D03*
X082650Y076700D02*
D03*
X083250D02*
D03*
X044300Y085000D02*
D03*
X043700D02*
D03*
X044300Y077200D02*
D03*
X043700D02*
D03*
X044500Y072400D02*
D03*
X043900D02*
D03*
X059750Y099150D02*
D03*
X060350D02*
D03*
X080800Y094800D02*
D03*
X081400D02*
D03*
X064900Y094500D02*
D03*
X064300D02*
D03*
X080100Y098900D02*
D03*
X080700D02*
D03*
X060150Y094650D02*
D03*
X059550D02*
D03*
X079000Y095050D02*
D03*
X078400D02*
D03*
X073670Y098710D02*
D03*
X074270D02*
D03*
X071500Y098900D02*
D03*
X072100D02*
D03*
X078567Y097095D02*
D03*
X079167D02*
D03*
X076167Y098895D02*
D03*
X076767D02*
D03*
D14*
X074762Y076288D02*
D03*
X074338Y076712D02*
D03*
X079718Y072232D02*
D03*
X080142Y071808D02*
D03*
D15*
X066500Y085905D02*
D03*
Y086495D02*
D03*
X069500Y078145D02*
D03*
Y077555D02*
D03*
X067500Y078145D02*
D03*
Y077555D02*
D03*
X065500Y078145D02*
D03*
Y077555D02*
D03*
X066800Y094505D02*
D03*
Y095095D02*
D03*
X068500Y085905D02*
D03*
Y086495D02*
D03*
D16*
X056345Y099100D02*
D03*
X055755D02*
D03*
X058305D02*
D03*
X058895D02*
D03*
X074145Y071800D02*
D03*
X073555D02*
D03*
D17*
X046206Y086600D02*
D03*
X046994Y086226D02*
D03*
Y086974D02*
D03*
D18*
X078538Y076938D02*
D03*
X078962Y077362D02*
D03*
X075012Y071612D02*
D03*
X074588Y071188D02*
D03*
D19*
X087550Y070800D02*
D03*
Y071400D02*
D03*
X095550Y070750D02*
D03*
Y071350D02*
D03*
X103550Y070750D02*
D03*
Y071350D02*
D03*
X047800Y096300D02*
D03*
Y095700D02*
D03*
D20*
X079673Y074495D02*
D03*
X079450Y074718D02*
D03*
X079227Y074941D02*
D03*
X079004Y075164D02*
D03*
X078782Y075386D02*
D03*
X078559Y075609D02*
D03*
X078336Y075832D02*
D03*
X078114Y076054D02*
D03*
X077891Y076277D02*
D03*
X077668Y076500D02*
D03*
X077445Y076723D02*
D03*
X074327Y073605D02*
D03*
X074550Y073382D02*
D03*
X074773Y073159D02*
D03*
X074996Y072936D02*
D03*
X075218Y072714D02*
D03*
X075441Y072491D02*
D03*
X075664Y072268D02*
D03*
X075886Y072046D02*
D03*
X076109Y071823D02*
D03*
X076332Y071600D02*
D03*
X076555Y071377D02*
D03*
D21*
Y076723D02*
D03*
X076332Y076500D02*
D03*
X076109Y076277D02*
D03*
X075886Y076054D02*
D03*
X075664Y075832D02*
D03*
X075441Y075609D02*
D03*
X075218Y075386D02*
D03*
X074996Y075164D02*
D03*
X074773Y074941D02*
D03*
X074550Y074718D02*
D03*
X074327Y074495D02*
D03*
X077445Y071377D02*
D03*
X077668Y071600D02*
D03*
X077891Y071823D02*
D03*
X078114Y072046D02*
D03*
X078336Y072268D02*
D03*
X078559Y072491D02*
D03*
X078782Y072714D02*
D03*
X079004Y072936D02*
D03*
X079227Y073159D02*
D03*
X079450Y073382D02*
D03*
X079673Y073605D02*
D03*
D22*
X087800Y079100D02*
X088450Y079750D01*
X086680Y079100D02*
X087800D01*
X086470Y078890D02*
X086680Y079100D01*
X086940Y078750D02*
X088800D01*
X086700Y078510D02*
X086940Y078750D01*
X086000Y082359D02*
Y099200D01*
X084881Y081240D02*
X086000Y082359D01*
X072510Y081240D02*
X084881D01*
X086160Y082292D02*
Y098186D01*
X084918Y081050D02*
X086160Y082292D01*
X086320Y082226D02*
Y097270D01*
X084984Y080890D02*
X086320Y082226D01*
X086480Y082160D02*
Y096430D01*
X085050Y080730D02*
X086480Y082160D01*
X086640Y082093D02*
Y095590D01*
X085117Y080570D02*
X086640Y082093D01*
X086800Y082027D02*
Y094750D01*
X085183Y080410D02*
X086800Y082027D01*
X086960Y081961D02*
Y093910D01*
X085249Y080250D02*
X086960Y081961D01*
X087120Y081895D02*
Y093070D01*
X085315Y080090D02*
X087120Y081895D01*
X087280Y081828D02*
Y092230D01*
X085382Y079930D02*
X087280Y081828D01*
X087440Y081762D02*
Y091390D01*
X085448Y079770D02*
X087440Y081762D01*
X087600Y081696D02*
Y090550D01*
X085514Y079610D02*
X087600Y081696D01*
X087760Y081630D02*
Y089710D01*
X085580Y079450D02*
X087760Y081630D01*
X087920Y081563D02*
Y088870D01*
X085647Y079290D02*
X087920Y081563D01*
X076150Y073200D02*
X076774D01*
X076100Y075000D02*
X077700D01*
X078300Y074400D01*
X077800Y072805D02*
Y073700D01*
Y072805D02*
X078336Y072268D01*
X077684Y074110D02*
X079960D01*
X076774Y073200D02*
X077684Y074110D01*
X077750Y073950D02*
X083400D01*
X077300Y073500D02*
X077750Y073950D01*
X077300Y072859D02*
Y073500D01*
Y072859D02*
X078114Y072046D01*
X079450Y074718D02*
X083500Y078768D01*
X079227Y074941D02*
X082500Y078214D01*
X078782Y075386D02*
X081500Y078105D01*
X075441Y072491D02*
X076150Y073200D01*
X072700Y076900D02*
X074300Y075300D01*
X074441Y074050D02*
X075000Y073491D01*
X074276Y074050D02*
X074441D01*
X071566Y076760D02*
X074276Y074050D01*
X071500Y076600D02*
X074411Y073689D01*
X074327Y074495D02*
X075273Y073550D01*
X074550Y074718D02*
X075368Y073900D01*
X075400Y074350D02*
X076500D01*
X075000Y074750D02*
X075400Y074350D01*
X072800Y077668D02*
X074961Y075507D01*
X075368Y073900D02*
X076400D01*
X075409Y074750D02*
X076750D01*
X074996Y075164D02*
X075409Y074750D01*
X072000Y076900D02*
X072700D01*
X070095Y078805D02*
X072000Y076900D01*
X070095Y078805D02*
Y079168D01*
X070500Y079573D01*
Y082400D01*
X058514Y084400D02*
X074388D01*
X057788Y084240D02*
X074740D01*
X056767Y084080D02*
X075580D01*
X056139Y083920D02*
X076420D01*
X055643Y083760D02*
X077260D01*
X055363Y083563D02*
X081063D01*
X056215Y083380D02*
X073116D01*
X056842Y083220D02*
X072908D01*
X057900Y083050D02*
X072852D01*
X071000Y082750D02*
X072510Y081240D01*
X068750Y082750D02*
X071000D01*
X068800Y081100D02*
Y082400D01*
X065500Y079500D02*
X068750Y082750D01*
X067500Y079800D02*
X068800Y081100D01*
X065500Y079000D02*
Y079500D01*
X073500Y078441D02*
X075886Y076054D01*
X073500Y078441D02*
Y079000D01*
X072800Y077668D02*
Y078700D01*
X075500Y077332D02*
Y079000D01*
Y077332D02*
X076332Y076500D01*
X082250Y073250D02*
X084000Y071500D01*
Y070000D02*
Y071500D01*
X082950Y070300D02*
X083000Y070000D01*
X082950Y070300D02*
Y072050D01*
X082100Y072900D02*
X082950Y072050D01*
X080027Y073250D02*
X082250D01*
X078730Y071130D02*
X080730D01*
X081060Y071460D02*
Y071790D01*
X080730Y071130D02*
X081060Y071460D01*
X080660Y071413D02*
Y071436D01*
X080537Y071290D02*
X080660Y071413D01*
X080514Y071290D02*
X080537D01*
X078640D02*
X080514D01*
X077600Y070000D02*
X078730Y071130D01*
X060050Y070000D02*
X077600D01*
X080660Y071436D02*
X080800Y071576D01*
X077510Y070160D02*
X078640Y071290D01*
X059984Y070160D02*
X077510D01*
X080800Y071576D02*
Y071586D01*
X079227Y073159D02*
X080800Y071586D01*
X078782Y072714D02*
X079195Y072300D01*
X080955Y071895D02*
X081060Y071790D01*
X079673Y073605D02*
X080027Y073250D01*
X079468Y073382D02*
X080955Y071895D01*
X079450Y073382D02*
X079468D01*
X079468Y073382D02*
X079468Y073382D01*
X085286Y078450D02*
X088240Y081404D01*
X083970Y085630D02*
X084520Y085080D01*
X084050Y078450D02*
X085286D01*
X084450Y081900D02*
Y085010D01*
X084520Y085080D01*
X085350Y082200D02*
Y089800D01*
X070000Y073500D02*
Y073700D01*
X069500Y074200D02*
X070000Y073700D01*
X069500Y074200D02*
Y076046D01*
X069446Y076100D02*
X069500Y076046D01*
X069000Y074500D02*
Y076054D01*
X066990Y076760D02*
X071566D01*
X074327Y073605D02*
X074411Y073689D01*
X062000Y076600D02*
X071500D01*
X065605Y078145D02*
X066990Y076760D01*
X059000Y079600D02*
X062000Y076600D01*
X070536Y073114D02*
Y073964D01*
X070000Y074500D02*
X070536Y073964D01*
X069000Y074500D02*
X069100D01*
X062341Y098361D02*
X063400Y097302D01*
X066698D01*
X066350Y097850D02*
X066750Y098250D01*
X063852Y097850D02*
X066350D01*
X067200Y097800D02*
X067750Y097250D01*
X067200Y097800D02*
Y098400D01*
X066850Y098750D02*
X067200Y098400D01*
X065900Y098750D02*
X066850D01*
X065511Y098361D02*
X065900Y098750D01*
X069645Y094505D02*
X070000Y094150D01*
X066800Y094505D02*
X069645D01*
X066750Y095145D02*
X066800Y095095D01*
X066750Y095145D02*
Y096250D01*
X059000Y079600D02*
Y082200D01*
X084740Y082220D02*
Y085390D01*
X084160Y082220D02*
Y085090D01*
X085010Y081970D02*
Y085440D01*
X083780Y085470D02*
X084160Y085090D01*
X084740Y085390D02*
X084750Y085400D01*
X084360Y085790D02*
X084750Y085400D01*
X084500Y085950D02*
X085010Y085440D01*
X085350Y089800D02*
X085350Y089800D01*
X090200Y101350D02*
X090800Y100750D01*
X088150Y101350D02*
X090200D01*
X071000Y074200D02*
X072810Y072390D01*
X074449D01*
X059250Y069879D02*
X059851Y070480D01*
X059410Y069813D02*
X059917Y070320D01*
X059410Y069213D02*
Y069813D01*
X059194Y068997D02*
X059410Y069213D01*
X059194Y068997D02*
X059194D01*
X058490Y068293D02*
Y068293D01*
X058487Y068290D02*
X058490Y068293D01*
X053110Y068290D02*
X058487D01*
X058490Y068293D02*
X059194Y068997D01*
X058421Y068450D02*
X059250Y069279D01*
X053250Y068450D02*
X058421D01*
X059250Y069279D02*
Y069879D01*
X052805Y068595D02*
X053110Y068290D01*
X052965Y068735D02*
X053250Y068450D01*
X053370Y071947D02*
Y071972D01*
X052965Y071541D02*
X053370Y071947D01*
X052965Y068735D02*
Y071541D01*
X052805Y068595D02*
Y071608D01*
X052775Y071805D02*
Y072140D01*
X052370Y071399D02*
X052775Y071805D01*
X052805Y071608D02*
X052950Y071753D01*
Y076474D01*
X053370Y068972D02*
Y071399D01*
X052950Y076474D02*
X053370Y076894D01*
X077789Y070763D02*
Y071343D01*
X077550Y070750D02*
Y071273D01*
X077445Y071377D02*
X077550Y071273D01*
X077668Y071463D02*
X077789Y071343D01*
X054370Y071399D02*
X054775Y071805D01*
X054370Y068972D02*
Y071399D01*
X053775Y071805D02*
Y072140D01*
X053370Y071399D02*
X053775Y071805D01*
X056890Y072453D02*
Y076413D01*
Y072453D02*
X057370Y071972D01*
X055906Y072437D02*
Y076378D01*
Y072437D02*
X056370Y071972D01*
X054775Y071805D02*
Y072140D01*
X054921Y072421D02*
Y076445D01*
Y072421D02*
X055370Y071972D01*
X052370Y068972D02*
Y071399D01*
X077668Y071463D02*
Y071600D01*
X064300Y094535D02*
X064315Y094550D01*
X071500Y079000D02*
X071515Y078985D01*
X044185Y085050D02*
X044237Y084997D01*
X072467Y093733D02*
Y094995D01*
Y093733D02*
X072500Y093700D01*
X070467Y093733D02*
Y094995D01*
Y093733D02*
X070500Y093700D01*
X074300D02*
X074500D01*
X073710Y093110D02*
X074300Y093700D01*
X072390Y093110D02*
X073710D01*
X072000Y093500D02*
X072390Y093110D01*
X072000Y093500D02*
Y094100D01*
X071467Y094633D02*
X072000Y094100D01*
X071467Y094633D02*
Y094995D01*
X073467D02*
X073500Y094962D01*
Y093700D02*
Y094962D01*
X077805Y075300D02*
X078336Y075832D01*
X077500Y075300D02*
X077805D01*
X079673Y074523D02*
X080150Y075000D01*
X079673Y074495D02*
Y074523D01*
X074449Y072390D02*
X074996Y072936D01*
X066500Y085000D02*
Y085755D01*
X058300Y087700D02*
Y087900D01*
X058360Y086350D02*
X064000D01*
X064500Y085000D02*
Y085850D01*
X064000Y086350D02*
X064400Y085950D01*
X066900Y088450D01*
Y088700D01*
X068200Y090000D01*
X077900D01*
X078500Y090600D01*
Y093600D01*
X078100Y072950D02*
X078559Y072491D01*
X061200Y072472D02*
Y072600D01*
X077750Y092950D02*
X078500Y093700D01*
X070400Y092950D02*
X077750D01*
X070000Y093350D02*
X070400Y092950D01*
X070000Y093350D02*
Y094150D01*
X081500Y087600D02*
Y087700D01*
Y088400D01*
X080080Y089820D02*
X081500Y088400D01*
X068267Y089820D02*
X080080D01*
X067060Y088613D02*
X068267Y089820D01*
X067060Y085787D02*
Y088613D01*
Y085787D02*
X067100Y085747D01*
Y085178D02*
Y085747D01*
X067095Y085173D02*
X067100Y085178D01*
X067095Y084832D02*
Y085173D01*
Y084832D02*
X067332Y084595D01*
X069668D01*
X070073Y085000D01*
X070500D01*
X083400Y073950D02*
X084750Y075300D01*
X080500Y087600D02*
Y087700D01*
Y088726D01*
X079566Y089660D02*
X080500Y088726D01*
X068334Y089660D02*
X079566D01*
X067220Y088546D02*
X068334Y089660D01*
X067220Y085854D02*
Y088546D01*
Y085854D02*
X067500Y085574D01*
Y085000D02*
Y085574D01*
X084750Y075300D02*
X084850Y075400D01*
X056300Y093700D02*
Y094402D01*
X055341Y095361D02*
X056300Y094402D01*
X057300Y093700D02*
Y094402D01*
X056341Y095361D02*
X057300Y094402D01*
X058300Y093700D02*
Y094402D01*
X057341Y095361D02*
X058300Y094402D01*
X058341Y094659D02*
X059300Y093700D01*
X058341Y094659D02*
Y095361D01*
X061341Y094741D02*
Y095361D01*
X060300Y093700D02*
X061341Y094741D01*
X062341D02*
Y095361D01*
X061300Y093700D02*
X062341Y094741D01*
X062300Y094320D02*
X063341Y095361D01*
X062300Y093700D02*
Y094320D01*
X063300D02*
X064341Y095361D01*
X063300Y093700D02*
Y094320D01*
X061341Y098361D02*
X063850Y095852D01*
Y095250D02*
Y095852D01*
X062850Y094250D02*
X063850Y095250D01*
X062850Y092500D02*
Y094250D01*
Y092500D02*
X064300Y091050D01*
Y087700D02*
Y091050D01*
X045300Y087506D02*
Y087700D01*
Y087506D02*
X046206Y086600D01*
X077467Y097995D02*
Y098695D01*
X077267Y098895D02*
X077467Y098695D01*
X076802Y098895D02*
X077267D01*
X075667D02*
X076132D01*
X075467Y098695D02*
X075667Y098895D01*
X075467Y097995D02*
Y098695D01*
X076867Y097095D02*
X078532D01*
X076467Y097495D02*
X076867Y097095D01*
X076467Y097495D02*
Y097995D01*
X069500Y078300D02*
Y079000D01*
X059378Y100398D02*
Y101674D01*
X064341Y098361D02*
X065511D01*
X063341D02*
X063852Y097850D01*
X058039Y100689D02*
X058561D01*
X056341Y098361D02*
Y098991D01*
X047020Y086200D02*
X047700D01*
X046994Y086226D02*
X047020Y086200D01*
X079500Y087700D02*
Y088050D01*
X078050Y089500D02*
X079500Y088050D01*
X068400Y089500D02*
X078050D01*
X067380Y088480D02*
X068400Y089500D01*
X067380Y085920D02*
Y088480D01*
Y085920D02*
X068000Y085300D01*
X067500Y079000D02*
Y079800D01*
Y078145D02*
Y079000D01*
X047300Y087700D02*
Y089100D01*
X048400Y090200D02*
X063900D01*
X079450Y092100D02*
X083050D01*
Y092150D02*
X085350Y089850D01*
X047300Y089100D02*
X048400Y090200D01*
X079450Y092100D02*
Y093450D01*
X079960Y074110D02*
X080450Y074600D01*
Y075350D01*
X081550Y076450D01*
X077260Y083760D02*
X078500Y085000D01*
X054406Y084997D02*
X055643Y083760D01*
X078500Y085000D02*
Y087600D01*
X053780Y082080D02*
X053950Y082250D01*
X053780Y079196D02*
Y082080D01*
Y079196D02*
X053811Y079165D01*
Y078829D02*
Y079165D01*
X053800Y078819D02*
X053811Y078829D01*
X053800Y077464D02*
Y078819D01*
Y077464D02*
X054370Y076894D01*
X053839Y072504D02*
X054370Y071972D01*
X053839Y072504D02*
Y076362D01*
X054370Y076894D01*
X077500Y085000D02*
Y087600D01*
X076420Y083920D02*
X077500Y085000D01*
X055406Y084654D02*
X056139Y083920D01*
X055406Y084654D02*
Y084997D01*
X054921Y076445D02*
X055370Y076894D01*
X054900Y077364D02*
Y082300D01*
Y077364D02*
X055370Y076894D01*
X076500Y085000D02*
Y087600D01*
X075580Y084080D02*
X076500Y085000D01*
X056406Y084441D02*
X056767Y084080D01*
X056406Y084441D02*
Y084997D01*
X055900Y077364D02*
Y082300D01*
Y077364D02*
X056370Y076894D01*
X055906Y076378D02*
X056370Y076843D01*
Y076894D01*
X075500Y085000D02*
Y087600D01*
X074740Y084240D02*
X075500Y085000D01*
X057406Y084622D02*
X057788Y084240D01*
X057406Y084622D02*
Y084997D01*
X056900Y077364D02*
Y082300D01*
Y077364D02*
X057370Y076894D01*
X056890Y076413D02*
X057370Y076894D01*
X074500Y085000D02*
Y087600D01*
Y084512D02*
Y085000D01*
X074388Y084400D02*
X074500Y084512D01*
X058406Y084508D02*
X058514Y084400D01*
X058406Y084508D02*
Y084997D01*
X057950Y078880D02*
Y082250D01*
Y078880D02*
X058370Y078460D01*
X057874Y076378D02*
X058370Y076874D01*
X057874Y072469D02*
Y076378D01*
Y072469D02*
X058370Y071972D01*
X073500Y085000D02*
Y087600D01*
X072500Y085000D02*
Y087600D01*
X071500Y085000D02*
Y087600D01*
X083250Y097050D02*
X085500Y099300D01*
X081700Y097050D02*
X083250D01*
X079150Y094500D02*
X081700Y097050D01*
X077300Y094500D02*
X079150D01*
X076500Y093700D02*
X077300Y094500D01*
X049000Y084592D02*
X049406Y084997D01*
X049000Y077500D02*
Y084592D01*
Y077500D02*
X049370Y077130D01*
Y076894D02*
Y077130D01*
X048917Y076441D02*
X049370Y076894D01*
X048917Y072425D02*
Y076441D01*
Y072425D02*
X049370Y071972D01*
X047900Y084492D02*
X048406Y084997D01*
X047900Y077364D02*
Y084492D01*
Y077364D02*
X048370Y076894D01*
X047933Y076457D02*
X048370Y076894D01*
X047933Y072409D02*
Y076457D01*
Y072409D02*
X048370Y071972D01*
X047406Y077299D02*
Y078997D01*
Y077299D02*
X047538D01*
X047775Y077062D01*
Y076726D02*
Y077062D01*
X047538Y076488D02*
X047775Y076726D01*
X047406Y076488D02*
X047538D01*
X047406Y073929D02*
Y076488D01*
X047370Y073894D02*
X047406Y073929D01*
X047370Y072546D02*
Y073894D01*
Y072546D02*
X047775Y072140D01*
Y071805D02*
Y072140D01*
X047370Y071399D02*
X047775Y071805D01*
X047370Y068972D02*
Y071399D01*
X048406Y077299D02*
Y078997D01*
Y077299D02*
X048538D01*
X048775Y077062D01*
Y076726D02*
Y077062D01*
X048538Y076488D02*
X048775Y076726D01*
X048406Y076488D02*
X048538D01*
X048406Y073929D02*
Y076488D01*
X048370Y073894D02*
X048406Y073929D01*
X048370Y072546D02*
Y073894D01*
Y072546D02*
X048775Y072140D01*
Y071805D02*
Y072140D01*
X048370Y071399D02*
X048775Y071805D01*
X048370Y068972D02*
Y071399D01*
X049370Y068972D02*
Y071399D01*
X049775Y071805D01*
Y072140D01*
X049370Y072546D02*
X049775Y072140D01*
X049370Y072546D02*
Y073894D01*
X049406Y076488D02*
X049538D01*
X049775Y076726D01*
Y077062D01*
X049406Y077431D02*
X049775Y077062D01*
X048300Y087700D02*
X049900Y086100D01*
X050370Y068972D02*
Y071399D01*
X050775Y071805D01*
Y072140D01*
X050370Y072546D02*
X050775Y072140D01*
X050370Y072546D02*
Y073894D01*
X050406Y076488D02*
X050538D01*
X050775Y076726D01*
Y077062D01*
X050538Y077299D02*
X050775Y077062D01*
X050406Y077299D02*
X050538D01*
X050406D02*
Y078997D01*
X051370Y068972D02*
Y071399D01*
X051775Y071805D01*
Y072140D01*
X051370Y072546D02*
X051775Y072140D01*
X051370Y072546D02*
Y073894D01*
X051406Y076488D02*
X051538D01*
X051775Y076726D01*
Y077062D01*
X051406Y077431D02*
X051775Y077062D01*
X059300Y087400D02*
Y087700D01*
X059080Y087180D02*
X059300Y087400D01*
X053080Y087180D02*
X059080D01*
X051900Y086000D02*
X053080Y087180D01*
X052370Y072546D02*
Y073894D01*
Y072546D02*
X052775Y072140D01*
X052406Y076488D02*
X052538D01*
X052775Y076726D01*
Y077062D01*
X052538Y077299D02*
X052775Y077062D01*
X052406Y077299D02*
X052538D01*
X060300Y087300D02*
Y087700D01*
X060020Y087020D02*
X060300Y087300D01*
X053920Y087020D02*
X060020D01*
X052900Y086000D02*
X053920Y087020D01*
X052900Y082700D02*
Y086000D01*
Y082700D02*
X053400Y082200D01*
Y081500D02*
Y082200D01*
X052406Y080506D02*
X053400Y081500D01*
X052406Y077299D02*
Y080506D01*
X079500Y085000D02*
X080450Y085950D01*
X084500D01*
X075273Y073550D02*
X076700D01*
X076850Y073700D01*
X080500Y085000D02*
X081290Y085790D01*
X084360D01*
X046850Y076374D02*
X047370Y076894D01*
X046850Y072492D02*
Y076374D01*
Y072492D02*
X047370Y071972D01*
X081500Y085000D02*
X082130Y085630D01*
X083970D01*
X045370Y072546D02*
Y073894D01*
Y072546D02*
X045775Y072140D01*
Y071805D02*
Y072140D01*
X045370Y071399D02*
X045775Y071805D01*
X045370Y068972D02*
Y071399D01*
X082500Y085000D02*
X082970Y085470D01*
X083780D01*
X081063Y083563D02*
X082500Y085000D01*
X054550Y082750D02*
X055363Y083563D01*
X054550Y081350D02*
Y082750D01*
X054200Y081000D02*
X054550Y081350D01*
X046406Y077299D02*
Y078997D01*
Y077299D02*
X046538D01*
X046775Y077062D01*
Y076726D02*
Y077062D01*
X046538Y076488D02*
X046775Y076726D01*
X046406Y076488D02*
X046538D01*
X046406Y073929D02*
Y076488D01*
X046370Y073894D02*
X046406Y073929D01*
X046370Y072546D02*
Y073894D01*
Y072546D02*
X046775Y072140D01*
Y071805D02*
Y072140D01*
X046370Y071399D02*
X046775Y071805D01*
X046370Y068972D02*
Y071399D01*
X053000Y081800D02*
X053100Y081900D01*
X052400Y081800D02*
X053000D01*
X049900Y077364D02*
X050370Y076894D01*
X049902Y072441D02*
X050370Y071972D01*
X049902Y072441D02*
Y076425D01*
X050370Y076894D01*
X052000Y077264D02*
X052370Y076894D01*
X051870Y076394D02*
X052370Y076894D01*
X051870Y072472D02*
Y076394D01*
Y072472D02*
X052370Y071972D01*
X068100Y093700D02*
X068500D01*
X064850Y090450D02*
X068100Y093700D01*
X064850Y087949D02*
Y090450D01*
Y087949D02*
X064865Y087934D01*
Y087289D02*
Y087934D01*
X064616Y087040D02*
X064865Y087289D01*
X061960Y087040D02*
X064616D01*
X061300Y087700D02*
X061960Y087040D01*
X060460Y086860D02*
X061300Y087700D01*
X054760Y086860D02*
X060460D01*
X053811Y085911D02*
X054760Y086860D01*
X053811Y084829D02*
Y085911D01*
X053600Y084619D02*
X053811Y084829D01*
X053600Y079192D02*
Y084619D01*
X053406Y078997D02*
X053600Y079192D01*
X053406Y077299D02*
Y078997D01*
Y077299D02*
X053538D01*
X053775Y077062D01*
Y076726D02*
Y077062D01*
X053538Y076488D02*
X053775Y076726D01*
X053406Y076488D02*
X053538D01*
X053370Y072546D02*
Y073894D01*
Y072546D02*
X053775Y072140D01*
X054406Y077299D02*
Y078997D01*
Y077299D02*
X054538D01*
X054775Y077062D01*
Y076726D02*
Y077062D01*
X054538Y076488D02*
X054775Y076726D01*
X054406Y076488D02*
X054538D01*
X053940Y079463D02*
X054406Y078997D01*
X053940Y079463D02*
Y081108D01*
X054210Y081378D01*
Y082358D01*
X053971Y082597D02*
X054210Y082358D01*
X053971Y082597D02*
Y085521D01*
X055150Y086700D01*
X062350D01*
X069000Y094200D02*
X069500Y093700D01*
X068350Y094200D02*
X069000D01*
X064690Y090540D02*
X068350Y094200D01*
X064690Y087883D02*
Y090540D01*
Y087883D02*
X064705Y087868D01*
Y087355D02*
Y087868D01*
X064550Y087200D02*
X064705Y087355D01*
X062800Y087200D02*
X064550D01*
X062300Y087700D02*
X062800Y087200D01*
X054370Y072546D02*
X054775Y072140D01*
X054370Y072546D02*
Y073894D01*
X059341Y094674D02*
X059515Y094500D01*
X064400Y085950D02*
X064500Y085850D01*
X057341Y098361D02*
X058192Y099212D01*
X059378Y100398D01*
X056341Y098991D02*
X058039Y100689D01*
X079350Y093550D02*
X079450Y093450D01*
X065500Y078145D02*
X065550D01*
X065605D01*
X065500Y078195D02*
Y079000D01*
X074773Y073159D02*
X075000Y073386D01*
Y073491D01*
X065500Y078195D02*
X065550Y078145D01*
X063850Y078100D02*
Y082450D01*
X074270Y098192D02*
X074467Y097995D01*
X074270Y098192D02*
Y098710D01*
X073467Y097995D02*
X073670Y098198D01*
Y098710D01*
X088800Y086750D02*
X090220D01*
X090630Y087160D01*
X088800Y085750D02*
X090220D01*
X090630Y086160D01*
X088800Y084750D02*
X090220D01*
X090630Y085160D01*
X088800Y083750D02*
X090220D01*
X090630Y084160D01*
X088800Y082750D02*
X090220D01*
X090630Y083160D01*
X088800Y081750D02*
X090220D01*
X090630Y082160D01*
X088800Y080750D02*
X090220D01*
X090630Y081160D01*
X088800Y079750D02*
X090220D01*
X090630Y080160D01*
X088800Y078750D02*
X090220D01*
X090630Y079160D01*
X088800Y077750D02*
X090220D01*
X090630Y078160D01*
X088800Y076750D02*
X090220D01*
X090630Y077160D01*
X088800Y075750D02*
X090220D01*
X090630Y076160D01*
X088800Y074750D02*
X090220D01*
X090630Y075160D01*
X088800Y073750D02*
X090220D01*
X090630Y074160D01*
X088800Y072750D02*
X090220D01*
X090630Y073160D01*
X088800Y087750D02*
X090220D01*
X090630Y088160D01*
X088800Y088750D02*
X090220D01*
X090630Y089160D01*
X088800Y089750D02*
X090220D01*
X090630Y090160D01*
X088800Y090750D02*
X090220D01*
X090630Y091160D01*
X088800Y091750D02*
X090220D01*
X090630Y092160D01*
X088800Y092750D02*
X090220D01*
X090630Y093160D01*
X088800Y093750D02*
X090220D01*
X090630Y094160D01*
X088800Y094750D02*
X090220D01*
X090630Y095160D01*
X088800Y096750D02*
X090220D01*
X090630Y097160D01*
X088800Y097750D02*
X090220D01*
X090630Y098160D01*
X088800Y099750D02*
X090220D01*
X090630Y100160D01*
X088800Y100750D02*
X090220D01*
X090630Y100340D01*
X098220Y086750D02*
X098630Y087160D01*
X098220Y085750D02*
X098630Y086160D01*
X096800Y084750D02*
X098220D01*
X098630Y085160D01*
X096800Y083750D02*
X098220D01*
X098630Y084160D01*
X096800Y082750D02*
X098220D01*
X098630Y083160D01*
X096800Y081750D02*
X098220D01*
X098630Y082160D01*
X096800Y080750D02*
X098220D01*
X098630Y081160D01*
X096800Y079750D02*
X098220D01*
X098630Y080160D01*
X096800Y078750D02*
X098220D01*
X098630Y079160D01*
X098220Y077750D02*
X098630Y078160D01*
X096800Y076750D02*
X098220D01*
X098630Y077160D01*
X098220Y075750D02*
X098630Y076160D01*
X098220Y074750D02*
X098630Y075160D01*
X098220Y073750D02*
X098630Y074160D01*
X096800Y072750D02*
X098220D01*
X098630Y073160D01*
X096800Y087750D02*
X098220D01*
X098630Y088160D01*
X096800Y088750D02*
X098220D01*
X098630Y089160D01*
X096800Y089750D02*
X098220D01*
X098630Y090160D01*
X096800Y090750D02*
X098220D01*
X098630Y091160D01*
X096800Y091750D02*
X098220D01*
X098630Y092160D01*
X096800Y092750D02*
X098220D01*
X098630Y093160D01*
X096800Y093750D02*
X098220D01*
X098630Y094160D01*
X096800Y094750D02*
X098220D01*
X098630Y095160D01*
X096800Y095750D02*
X098220D01*
X098630Y096160D01*
X096800Y096750D02*
X098220D01*
X098630Y097160D01*
X096800Y097750D02*
X098220D01*
X098630Y098160D01*
X096800Y098750D02*
X098220D01*
X098630Y099160D01*
X096800Y099750D02*
X098220D01*
X098630Y100160D01*
X083400Y078250D02*
X083500D01*
X084050Y078800D01*
X085409D01*
X088240Y082190D02*
X088800Y082750D01*
X068500Y085000D02*
Y085805D01*
Y085905D02*
X070005D01*
X070150Y086050D02*
X070550D01*
X070005Y085905D02*
X070150Y086050D01*
X055370Y068972D02*
Y071399D01*
Y072546D02*
Y073894D01*
X055406Y076488D02*
X055538D01*
X055370Y071399D02*
X055775Y071805D01*
Y072140D01*
X055370Y072546D02*
X055775Y072140D01*
X055538Y076488D02*
X055775Y076726D01*
Y077062D01*
X055406Y077299D02*
X055538D01*
X055775Y077062D01*
X055406Y077299D02*
Y082571D01*
X056215Y083380D01*
X088450Y079750D02*
X088800D01*
X073116Y083380D02*
X073228Y083268D01*
X056370Y068972D02*
Y071399D01*
Y072546D02*
Y073894D01*
X056406Y076488D02*
X056538D01*
X056370Y071399D02*
X056775Y071805D01*
Y072140D01*
X056370Y072546D02*
X056775Y072140D01*
X056538Y076488D02*
X056775Y076726D01*
Y077062D01*
X056406Y077299D02*
Y082783D01*
Y077299D02*
X056538D01*
X056775Y077062D01*
X056406Y082783D02*
X056842Y083220D01*
X072908D02*
X073121Y083008D01*
X074445D01*
X074508Y083071D01*
X057370Y068972D02*
Y071399D01*
Y072546D02*
Y073894D01*
X057406Y076488D02*
X057538D01*
X057370Y071399D02*
X057775Y071805D01*
Y072140D01*
X057370Y072546D02*
X057775Y072140D01*
X057538Y076488D02*
X057775Y076726D01*
Y077062D01*
X057538Y077299D02*
X057775Y077062D01*
X057406Y077299D02*
Y082556D01*
Y077299D02*
X057538D01*
X073091Y082811D02*
X074911D01*
X057406Y082556D02*
X057900Y083050D01*
X072852D02*
X073091Y082811D01*
X086950Y077750D02*
X088800D01*
X074911Y082811D02*
X075300Y083200D01*
X087150Y076750D02*
X088800D01*
X087340Y075750D02*
X088800D01*
X087510Y074750D02*
X088800D01*
X087650Y073750D02*
X088800D01*
X087850Y072750D02*
X088800D01*
X083600Y079000D02*
X083890Y079290D01*
X083500Y079000D02*
X083600D01*
X083890Y079290D02*
X085647D01*
X082500Y078214D02*
Y079000D01*
X082950Y079450D01*
X085580D01*
X081500Y078105D02*
Y079000D01*
X082110Y079610D01*
X085514D01*
X078559Y075609D02*
X080500Y077550D01*
Y079000D01*
X081270Y079770D01*
X085448D01*
X078114Y076054D02*
X078409Y076350D01*
X078550D01*
X079600Y077400D01*
Y078900D01*
X079500Y079000D02*
X079600Y078900D01*
X079500Y079000D02*
X080430Y079930D01*
X085382D01*
X077668Y076500D02*
X077950Y076782D01*
Y076900D01*
X078400Y077350D01*
Y078900D01*
X078500Y079000D01*
X079590Y080090D01*
X085315D01*
X077445Y076723D02*
X077600Y076877D01*
Y078900D01*
X077500Y079000D02*
X077600Y078900D01*
X077500Y079000D02*
X078750Y080250D01*
X085249D01*
X076400Y076877D02*
X076555Y076723D01*
X076400Y076877D02*
Y078900D01*
X076500Y079000D01*
X077910Y080410D01*
X085183D01*
X075500Y079000D02*
X077070Y080570D01*
X085117D01*
X074500Y077886D02*
Y079000D01*
Y077886D02*
X076109Y076277D01*
X074500Y079000D02*
X076230Y080730D01*
X085050D01*
X073500Y079000D02*
X075390Y080890D01*
X084984D01*
X072500Y079000D02*
X072800Y078700D01*
X072500Y079000D02*
X074550Y081050D01*
X084918D01*
X075082Y075386D02*
X075218D01*
X074961Y075507D02*
X075082Y075386D01*
X088724Y100750D02*
X088800D01*
X096800Y086750D02*
X098220D01*
X104800D02*
X105000D01*
X096800Y085750D02*
X098220D01*
X055406Y073800D02*
Y076488D01*
X056406Y073800D02*
Y076488D01*
X096800Y077750D02*
X098220D01*
X057406Y073800D02*
Y076488D01*
X058370Y076874D02*
Y078460D01*
X096800Y075750D02*
X098220D01*
X096800Y074750D02*
X098220D01*
X096800Y073750D02*
X098220D01*
X049406Y073800D02*
Y076488D01*
X050406Y073800D02*
Y076488D01*
X051406Y073800D02*
Y076488D01*
X052406Y073800D02*
Y076488D01*
X053406Y073800D02*
Y076488D01*
X054406Y073800D02*
Y076488D01*
X090630Y100160D02*
X090970D01*
X091380Y099750D01*
X096800D01*
X090630Y097160D02*
X090970D01*
X091380Y096750D01*
X096800D01*
X090630Y096160D02*
X090970D01*
X091380Y095750D01*
X096800D01*
X090630Y095160D02*
X090970D01*
X091380Y094750D01*
X096800D01*
X090630Y094160D02*
X090970D01*
X091380Y093750D01*
X096800D01*
X090630Y093160D02*
X090970D01*
X091380Y092750D01*
X096800D01*
X090630Y092160D02*
X090970D01*
X091380Y091750D01*
X096800D01*
X090630Y091160D02*
X090970D01*
X091380Y090750D01*
X096800D01*
X090630Y090160D02*
X090970D01*
X091380Y089750D01*
X096800D01*
X090630Y089160D02*
X090970D01*
X091380Y088750D01*
X096800D01*
X090630Y088160D02*
X090970D01*
X091380Y087750D01*
X096800D01*
X090630Y087160D02*
X090970D01*
X091380Y086750D01*
X096800D01*
X090630Y073160D02*
X090970D01*
X091380Y072750D01*
X096800D01*
X090630Y074160D02*
X090970D01*
X091380Y073750D01*
X096800D01*
X090630Y075160D02*
X090970D01*
X091380Y074750D01*
X096800D01*
X090630Y076160D02*
X090970D01*
X091380Y075750D01*
X096800D01*
X090630Y077160D02*
X090970D01*
X091380Y076750D01*
X096800D01*
X090630Y078160D02*
X090970D01*
X091380Y077750D01*
X096800D01*
X090630Y079160D02*
X090970D01*
X091380Y078750D01*
X096800D01*
X090630Y080160D02*
X090970D01*
X091380Y079750D01*
X096800D01*
X090630Y081160D02*
X090970D01*
X091380Y080750D01*
X096800D01*
X090630Y082160D02*
X090970D01*
X091380Y081750D01*
X096800D01*
X090630Y083160D02*
X090970D01*
X091380Y082750D01*
X096800D01*
X090630Y084160D02*
X090970D01*
X091380Y083750D01*
X096800D01*
X090630Y085160D02*
X090970D01*
X091380Y084750D01*
X096800D01*
X090630Y086160D02*
X090970D01*
X091380Y085750D01*
X096800D01*
X090800D02*
X091154D01*
X091564Y085340D01*
X098036D01*
X098446Y085750D01*
X090800Y084750D02*
X091154D01*
X091564Y084340D01*
X098036D01*
X098446Y084750D01*
X090800Y083750D02*
X091154D01*
X091564Y083340D01*
X098036D01*
X098446Y083750D01*
X090800Y082750D02*
X091154D01*
X091564Y082340D01*
X098036D01*
X098446Y082750D01*
X090800Y081750D02*
X091154D01*
X091564Y081340D01*
X098036D01*
X098446Y081750D01*
X090800Y080750D02*
X091154D01*
X091564Y080340D01*
X098036D01*
X098446Y080750D01*
X090800Y079750D02*
X091154D01*
X091564Y079340D01*
X098036D01*
X098446Y079750D01*
X090800Y078750D02*
X091154D01*
X091564Y078340D01*
X098036D01*
X098446Y078750D01*
X090800Y077750D02*
X091154D01*
X091564Y077340D01*
X098036D01*
X098446Y077750D01*
X090800Y076750D02*
X091154D01*
X091564Y076340D01*
X098036D01*
X098446Y076750D01*
X090800Y075750D02*
X091154D01*
X091564Y075340D01*
X098036D01*
X098446Y075750D01*
X090800Y074750D02*
X091154D01*
X091564Y074340D01*
X098036D01*
X098446Y074750D01*
X090800Y073750D02*
X091154D01*
X091564Y073340D01*
X098036D01*
X098446Y073750D01*
X090800Y072750D02*
X091154D01*
X091564Y072340D01*
X098036D01*
X098446Y072750D01*
X090800Y086750D02*
X091154D01*
X091564Y086340D01*
X098036D01*
X098446Y086750D01*
X090800Y087750D02*
X091154D01*
X091564Y087340D01*
X098036D01*
X098446Y087750D01*
X090800Y088750D02*
X091154D01*
X091564Y088340D01*
X098036D01*
X098446Y088750D01*
X090800Y089750D02*
X091154D01*
X091564Y089340D01*
X098036D01*
X098446Y089750D01*
X090800Y090750D02*
X091154D01*
X091564Y090340D01*
X098036D01*
X098446Y090750D01*
X090800Y091750D02*
X091154D01*
X091564Y091340D01*
X098036D01*
X098446Y091750D01*
X090800Y092750D02*
X091154D01*
X091564Y092340D01*
X098036D01*
X098446Y092750D01*
X090800Y093750D02*
X091154D01*
X091564Y093340D01*
X098036D01*
X098446Y093750D01*
X090800Y094750D02*
X091154D01*
X091564Y094340D01*
X098036D01*
X098446Y094750D01*
X090800Y095750D02*
X091154D01*
X091564Y095340D01*
X098036D01*
X098446Y095750D01*
X090800Y096750D02*
X091154D01*
X091564Y096340D01*
X098036D01*
X098446Y096750D01*
X091564Y097340D02*
X098036D01*
X098446Y097750D01*
X090800Y098750D02*
X091154D01*
X091564Y098340D01*
X098036D01*
X098446Y098750D01*
X090800Y099750D02*
X091154D01*
X091564Y099340D01*
X098036D01*
X098446Y099750D01*
X098630Y100160D02*
X098970D01*
X099380Y099750D01*
X104500D01*
X098630Y099160D02*
X098970D01*
X099380Y098750D01*
X104500D01*
X098630Y098160D02*
X098970D01*
X099380Y097750D01*
X104500D01*
X098630Y097160D02*
X098970D01*
X099380Y096750D01*
X104500D01*
X098630Y096160D02*
X098970D01*
X099380Y095750D01*
X104500D01*
X098630Y095160D02*
X098970D01*
X099380Y094750D01*
X104500D01*
X098630Y094160D02*
X098970D01*
X099380Y093750D01*
X104500D01*
X098630Y093160D02*
X098970D01*
X099380Y092750D01*
X104500D01*
X098630Y092160D02*
X098970D01*
X099380Y091750D01*
X104500D01*
X098630Y091160D02*
X098970D01*
X099380Y090750D01*
X104500D01*
X098630Y090160D02*
X098970D01*
X099380Y089750D01*
X104500D01*
X098630Y089160D02*
X098970D01*
X099380Y088750D01*
X104500D01*
X098630Y088160D02*
X098970D01*
X099380Y087750D01*
X104500D01*
X098630Y087160D02*
X098970D01*
X099380Y086750D01*
X104800D01*
X098630Y073160D02*
X098970D01*
X099380Y072750D01*
X104500D01*
X098630Y074160D02*
X098970D01*
X099380Y073750D01*
X104500D01*
X098630Y075160D02*
X098970D01*
X099380Y074750D01*
X104500D01*
X098630Y076160D02*
X098970D01*
X099380Y075750D01*
X104500D01*
X098630Y077160D02*
X098970D01*
X099380Y076750D01*
X104500D01*
X098630Y078160D02*
X098970D01*
X099380Y077750D01*
X104500D01*
X098630Y079160D02*
X098970D01*
X099380Y078750D01*
X104500D01*
X098630Y080160D02*
X098970D01*
X099380Y079750D01*
X104500D01*
X098630Y081160D02*
X098970D01*
X099380Y080750D01*
X104500D01*
X098630Y082160D02*
X098970D01*
X099380Y081750D01*
X104500D01*
X098630Y083160D02*
X098970D01*
X099380Y082750D01*
X104500D01*
X098630Y084160D02*
X098970D01*
X099380Y083750D01*
X104500D01*
X098630Y085160D02*
X098970D01*
X099380Y084750D01*
X104500D01*
X098630Y086160D02*
X098970D01*
X099380Y085750D01*
X104500D01*
X099154D02*
X099564Y085340D01*
X104970D01*
X105380Y085750D02*
X106500D01*
X104970Y085340D02*
X105380Y085750D01*
X099154Y084750D02*
X099564Y084340D01*
X104970D01*
X105380Y084750D02*
X106500D01*
X104970Y084340D02*
X105380Y084750D01*
X099154Y083750D02*
X099564Y083340D01*
X104970D01*
X105380Y083750D02*
X106500D01*
X104970Y083340D02*
X105380Y083750D01*
X099154Y082750D02*
X099564Y082340D01*
X104970D01*
X105380Y082750D02*
X106500D01*
X104970Y082340D02*
X105380Y082750D01*
X099154Y081750D02*
X099564Y081340D01*
X104970D01*
X105380Y081750D02*
X106500D01*
X104970Y081340D02*
X105380Y081750D01*
X099154Y080750D02*
X099564Y080340D01*
X104970D01*
X105380Y080750D02*
X106500D01*
X104970Y080340D02*
X105380Y080750D01*
X099154Y079750D02*
X099564Y079340D01*
X104970D01*
X105380Y079750D02*
X106500D01*
X104970Y079340D02*
X105380Y079750D01*
X099154Y078750D02*
X099564Y078340D01*
X104970D01*
X105380Y078750D02*
X106500D01*
X104970Y078340D02*
X105380Y078750D01*
X099154Y077750D02*
X099564Y077340D01*
X104970D01*
X105380Y077750D02*
X106500D01*
X104970Y077340D02*
X105380Y077750D01*
X099154Y076750D02*
X099564Y076340D01*
X104970D01*
X105380Y076750D02*
X106500D01*
X104970Y076340D02*
X105380Y076750D01*
X099154Y075750D02*
X099564Y075340D01*
X104970D01*
X105380Y075750D02*
X106500D01*
X104970Y075340D02*
X105380Y075750D01*
X099154Y074750D02*
X099564Y074340D01*
X104970D01*
X105380Y074750D02*
X106500D01*
X104970Y074340D02*
X105380Y074750D01*
X099154Y073750D02*
X099564Y073340D01*
X104970D01*
X105380Y073750D02*
X106500D01*
X104970Y073340D02*
X105380Y073750D01*
X099154Y072750D02*
X099564Y072340D01*
X104970D01*
X105380Y072750D02*
X106500D01*
X104970Y072340D02*
X105380Y072750D01*
Y086750D02*
X106500D01*
X104970Y086340D02*
X105380Y086750D01*
X099154D02*
X099564Y086340D01*
X104970D01*
X099154Y087750D02*
X099564Y087340D01*
X104970D01*
X105380Y087750D02*
X106500D01*
X104970Y087340D02*
X105380Y087750D01*
X099154Y088750D02*
X099564Y088340D01*
X104970D01*
X105380Y088750D02*
X106500D01*
X104970Y088340D02*
X105380Y088750D01*
X099154Y089750D02*
X099564Y089340D01*
X104970D01*
X105380Y089750D02*
X106500D01*
X104970Y089340D02*
X105380Y089750D01*
X099154Y090750D02*
X099564Y090340D01*
X104970D01*
X105380Y090750D02*
X106500D01*
X104970Y090340D02*
X105380Y090750D01*
X099154Y091750D02*
X099564Y091340D01*
X104970D01*
X105380Y091750D02*
X106500D01*
X104970Y091340D02*
X105380Y091750D01*
X099154Y092750D02*
X099564Y092340D01*
X104970D01*
X105380Y092750D02*
X106500D01*
X104970Y092340D02*
X105380Y092750D01*
X099154Y093750D02*
X099564Y093340D01*
X104970D01*
X105380Y093750D02*
X106500D01*
X104970Y093340D02*
X105380Y093750D01*
X099154Y094750D02*
X099564Y094340D01*
X104970D01*
X105380Y094750D02*
X106500D01*
X104970Y094340D02*
X105380Y094750D01*
X098800Y095750D02*
X099154D01*
X099564Y095340D01*
X104970D01*
X105380Y095750D02*
X106500D01*
X104970Y095340D02*
X105380Y095750D01*
X098800Y096750D02*
X099154D01*
X099564Y096340D01*
X104970D01*
X105380Y096750D02*
X106500D01*
X104970Y096340D02*
X105380Y096750D01*
X098800Y097750D02*
X099154D01*
X099564Y097340D01*
X104970D01*
X105380Y097750D02*
X106500D01*
X104970Y097340D02*
X105380Y097750D01*
X098800Y098750D02*
X099154D01*
X099564Y098340D01*
X104970D01*
X105380Y098750D02*
X106500D01*
X104970Y098340D02*
X105380Y098750D01*
X098800Y099750D02*
X099154D01*
X099564Y099340D01*
X104970D01*
X105380Y099750D02*
X106500D01*
X104970Y099340D02*
X105380Y099750D01*
X075430Y071400D02*
X075480Y071450D01*
Y071639D01*
X075886Y072046D01*
X075760Y071380D02*
Y071474D01*
X076109Y071823D01*
X076217Y071040D02*
X076555Y071377D01*
X074305Y071800D02*
X074760Y072255D01*
X075218Y072714D02*
X075264D01*
X074760Y072255D02*
X075218Y072714D01*
X045950Y068550D02*
X046530Y067970D01*
X058620D01*
X045950Y068550D02*
Y071552D01*
X058620Y067970D02*
X059730Y069080D01*
Y069680D01*
X060050Y070000D01*
X045950Y071552D02*
X046370Y071972D01*
X045965Y076488D02*
X046370Y076894D01*
X045965Y072378D02*
X046370Y071972D01*
X045965Y072378D02*
Y076488D01*
X051522Y068247D02*
X051639Y068130D01*
X058553D02*
X058671Y068247D01*
X051639Y068130D02*
X058553D01*
X050900Y068869D02*
X051522Y068247D01*
X050900Y068869D02*
Y071502D01*
X058671Y068247D02*
X059240Y068817D01*
X059570Y069147D01*
Y069746D01*
X059984Y070160D01*
X050886Y072457D02*
Y076409D01*
X050900Y071502D02*
X051370Y071972D01*
X050886Y072457D02*
X051370Y071972D01*
X050886Y076409D02*
X051370Y076894D01*
X050900Y077600D02*
X051370Y077130D01*
Y076894D02*
Y077130D01*
X050900Y077600D02*
Y084492D01*
X051406Y084997D01*
X098446Y085750D02*
X098800D01*
X099154D01*
X098446Y084750D02*
X098800D01*
X099154D01*
X098446Y083750D02*
X098800D01*
X099154D01*
X098446Y082750D02*
X098800D01*
X099154D01*
X098446Y081750D02*
X098800D01*
X099154D01*
X098446Y080750D02*
X098800D01*
X099154D01*
X098446Y079750D02*
X098800D01*
X099154D01*
X098446Y078750D02*
X098800D01*
X099154D01*
X098446Y077750D02*
X098800D01*
X099154D01*
X098446Y076750D02*
X098800D01*
X099154D01*
X098446Y075750D02*
X098800D01*
X099154D01*
X098446Y074750D02*
X098800D01*
X099154D01*
X098446Y073750D02*
X098800D01*
X099154D01*
X098446Y072750D02*
X098800D01*
X099154D01*
X098446Y086750D02*
X098800D01*
X099154D01*
X098446Y087750D02*
X098800D01*
X099154D01*
X098446Y088750D02*
X098800D01*
X099154D01*
X098446Y089750D02*
X098800D01*
X099154D01*
X098446Y090750D02*
X098800D01*
X099154D01*
X098446Y091750D02*
X098800D01*
X099154D01*
X098446Y092750D02*
X098800D01*
X099154D01*
X098446Y093750D02*
X098800D01*
X099154D01*
X098446Y094750D02*
X098800D01*
X099154D01*
X098446Y095750D02*
X098800D01*
X098446Y096750D02*
X098800D01*
X098446Y097750D02*
X098800D01*
X098446Y098750D02*
X098800D01*
X098446Y099750D02*
X098800D01*
X090630Y100340D02*
X090970D01*
X091380Y100750D01*
X096800D01*
X098220D01*
X098630Y100340D01*
X098050Y101500D02*
X098800Y100750D01*
X091500Y101500D02*
X098050D01*
X091000Y101000D02*
X091500Y101500D01*
X098630Y100340D02*
X098970D01*
X099380Y100750D01*
X104500D01*
X098800D02*
X099550Y101500D01*
X106000D01*
X090800Y097750D02*
X091154D01*
X091564Y097340D01*
X091380Y097750D02*
X096800D01*
X090630Y098160D02*
X090970D01*
X091380Y097750D01*
Y098750D02*
X096800D01*
X088800D02*
X090220D01*
X090970Y099160D02*
X091380Y098750D01*
X090220D02*
X090630Y099160D01*
X090970D01*
X090220Y095750D02*
X090630Y096160D01*
X088800Y095750D02*
X090220D01*
X070467Y097995D02*
Y098967D01*
X073000Y096462D02*
X074467Y094995D01*
X073000Y099750D02*
X073764Y100514D01*
Y102368D01*
X075000Y095462D02*
X075467Y094995D01*
X075000Y095462D02*
Y100250D01*
X074311Y100939D02*
X075000Y100250D01*
X073000Y096462D02*
Y099750D01*
X072467Y097995D02*
Y098633D01*
X072300Y098800D02*
X072467Y098633D01*
X073217Y101250D02*
Y102717D01*
X073500Y103000D01*
X075500D01*
X075750Y102750D01*
Y102571D02*
Y102750D01*
X075953Y101797D02*
Y102368D01*
Y101797D02*
X076500Y101250D01*
X106000Y101500D02*
X106568Y100932D01*
X106618D01*
X106800Y100750D01*
X049090Y101070D02*
Y101240D01*
Y101070D02*
X049100Y101060D01*
Y100650D02*
Y101060D01*
Y100650D02*
X049500Y100250D01*
X053300Y093700D02*
Y094474D01*
X053340Y094514D01*
X052300Y093700D02*
X053180Y094580D01*
X053500Y094500D02*
X054300Y093700D01*
X054300Y094700D02*
X055300Y093700D01*
X053700Y094700D02*
X054300D01*
X049900Y101060D02*
X049910Y101070D01*
X049900Y100850D02*
Y101060D01*
Y100850D02*
X050500Y100250D01*
X049910Y101070D02*
Y101690D01*
X050500Y101250D02*
Y101700D01*
X051000Y100500D02*
Y101700D01*
Y100500D02*
X051200Y100300D01*
X051450D01*
X051500Y101250D02*
Y101800D01*
X053700Y094700D02*
Y094895D01*
X053500Y094500D02*
Y094921D01*
X053340Y094514D02*
Y094987D01*
X053180Y094580D02*
Y095054D01*
X053440Y095314D01*
X053340Y094987D02*
X053600Y095247D01*
X053500Y094921D02*
X053760Y095181D01*
X053700Y094895D02*
X053920Y095115D01*
X053440Y095314D02*
Y098565D01*
X053600Y095247D02*
Y098631D01*
X053760Y095181D02*
Y098698D01*
X053920Y095115D02*
Y098764D01*
X048500Y100250D02*
X048567D01*
X049097Y099720D01*
X052964D02*
X053920Y098764D01*
X052898Y099560D02*
X053760Y098698D01*
X052831Y099400D02*
X053600Y098631D01*
X052765Y099240D02*
X053440Y098565D01*
X052633Y098920D02*
X053120Y098433D01*
X052500Y098600D02*
X052800Y098300D01*
X052566Y098760D02*
X052960Y098366D01*
X052699Y099080D02*
X053280Y098499D01*
X049097Y099720D02*
X052964D01*
X047900Y098600D02*
X052500D01*
X047966Y098760D02*
X052566D01*
X048033Y098920D02*
X052633D01*
X048099Y099080D02*
X052699D01*
X048165Y099240D02*
X052765D01*
X048231Y099400D02*
X052831D01*
X048298Y099560D02*
X052898D01*
X047290Y099436D02*
X047966Y098760D01*
X047450Y099503D02*
X048033Y098920D01*
X047610Y099569D02*
X048099Y099080D01*
X047770Y099635D02*
X048165Y099240D01*
X047930Y099701D02*
X048231Y099400D01*
X048090Y099768D02*
X048298Y099560D01*
X048090Y099768D02*
Y100840D01*
X048500Y101250D01*
X047130Y099370D02*
X047900Y098600D01*
X047130Y099370D02*
Y101630D01*
X047290Y099436D02*
Y101564D01*
X047450Y099503D02*
Y101497D01*
X047610Y099569D02*
Y101431D01*
X047770Y099635D02*
Y101365D01*
X047930Y099701D02*
Y101299D01*
X048670Y101660D02*
X049090Y101240D01*
X047960Y102460D02*
X050840D01*
X047290Y101564D02*
X048026Y102300D01*
X050400D01*
X051000Y101700D01*
X047450Y101497D02*
X048093Y102140D01*
X050060D01*
X050500Y101700D01*
X047610Y101431D02*
X048159Y101980D01*
X049620D01*
X049910Y101690D01*
X047770Y101365D02*
X048225Y101820D01*
X048930D01*
X049500Y101250D01*
X047930Y101299D02*
X048291Y101660D01*
X048670D01*
X047130Y101630D02*
X047960Y102460D01*
X050840D02*
X051500Y101800D01*
X048300Y093700D02*
Y093900D01*
X050600Y094000D02*
X051027D01*
X050300Y093700D02*
X050600Y094000D01*
X049760Y094160D02*
X050961D01*
X049300Y093700D02*
X049760Y094160D01*
X048300Y093900D02*
X048720Y094320D01*
X050894D01*
X052800Y096226D01*
Y098300D01*
X050961Y094160D02*
X052960Y096159D01*
Y098366D01*
X051027Y094000D02*
X053120Y096093D01*
Y098433D01*
X051300Y093700D02*
Y094000D01*
X053280Y095980D01*
Y098499D01*
X086000Y099200D02*
X088150Y101350D01*
X086160Y098186D02*
X088724Y100750D01*
X086320Y097270D02*
X088800Y099750D01*
X086480Y096430D02*
X088800Y098750D01*
X086640Y095590D02*
X088800Y097750D01*
X086800Y094750D02*
X088800Y096750D01*
X086960Y093910D02*
X088800Y095750D01*
X087120Y093070D02*
X088800Y094750D01*
X087280Y092230D02*
X088800Y093750D01*
X087440Y091390D02*
X088800Y092750D01*
X087600Y090550D02*
X088800Y091750D01*
X087760Y089710D02*
X088800Y090750D01*
X087920Y088870D02*
X088800Y089750D01*
X088080Y083030D02*
X088800Y083750D01*
X088080Y081471D02*
Y083030D01*
X085409Y078800D02*
X088080Y081471D01*
X088240Y081404D02*
Y082190D01*
X086200Y079138D02*
X088400Y081338D01*
Y081350D01*
X088800Y081750D01*
X086200Y078050D02*
Y079138D01*
X051900Y084718D02*
Y086000D01*
X051406Y084224D02*
X051900Y084718D01*
X051406Y077431D02*
Y084224D01*
X052000Y077264D02*
Y084592D01*
X052406Y084997D01*
X049406Y077431D02*
Y084231D01*
X049900Y084725D01*
Y086100D01*
Y077364D02*
Y084492D01*
X050406Y084997D01*
X083500Y078768D02*
Y079000D01*
X070536Y073114D02*
X072990Y070660D01*
X077346Y070320D02*
X077789Y070763D01*
X077280Y070480D02*
X077550Y070750D01*
X075392Y070660D02*
X076332Y071600D01*
X059917Y070320D02*
X077346D01*
X059851Y070480D02*
X077280D01*
X072990Y070660D02*
X075392D01*
X040600Y090000D02*
X040000D01*
X040300D01*
Y089600D01*
X040600D01*
X040000D01*
X040600Y089400D02*
Y089000D01*
Y089200D01*
X040000D01*
X040600Y088800D02*
Y088401D01*
Y088600D01*
X040000D01*
Y088201D02*
X040600D01*
Y087901D01*
X040500Y087801D01*
X040300D01*
X040200Y087901D01*
Y088201D01*
X040400Y087601D02*
Y087501D01*
X040300D01*
Y087601D01*
X040400D01*
X040100D02*
Y087501D01*
X040000D01*
Y087601D01*
X040100D01*
X040000Y087101D02*
X040400Y086701D01*
X040000Y086501D02*
X040400Y086101D01*
X040600Y085901D02*
X040000D01*
X040200Y085701D01*
X040000Y085501D01*
X040600D01*
Y085302D02*
X040000D01*
X040200Y085102D01*
X040000Y084902D01*
X040600D01*
Y084702D02*
X040000D01*
X040200Y084502D01*
X040000Y084302D01*
X040600D01*
X040000Y084102D02*
X040100D01*
Y084002D01*
X040000D01*
Y084102D01*
X040500Y083202D02*
X040600Y083302D01*
Y083502D01*
X040500Y083602D01*
X040100D01*
X040000Y083502D01*
Y083302D01*
X040100Y083202D01*
X040000Y083002D02*
X040400D01*
X040600Y082802D01*
X040400Y082602D01*
X040000D01*
X040300D01*
Y083002D01*
X040500Y082003D02*
X040600Y082103D01*
Y082302D01*
X040500Y082402D01*
X040100D01*
X040000Y082302D01*
Y082103D01*
X040100Y082003D01*
X040600Y081803D02*
Y081403D01*
Y081603D01*
X040000D01*
X040600Y081203D02*
X040100D01*
X040000Y081103D01*
Y080903D01*
X040100Y080803D01*
X040600D01*
X040000Y080603D02*
X040400D01*
X040600Y080403D01*
X040400Y080203D01*
X040000D01*
X040300D01*
Y080603D01*
X040000Y080003D02*
X040600D01*
Y079703D01*
X040500Y079603D01*
X040300D01*
X040200Y079703D01*
Y080003D01*
Y079803D02*
X040000Y079603D01*
Y079403D02*
X040100D01*
Y079303D01*
X040000D01*
Y079403D01*
Y078904D02*
X040600D01*
X040000Y078504D01*
X040600D01*
Y077904D02*
Y078304D01*
X040000D01*
Y077904D01*
X040300Y078304D02*
Y078104D01*
X040600Y077704D02*
Y077304D01*
Y077504D01*
X040000D01*
D23*
X079004Y075164D02*
X079441Y075600D01*
X080167Y071783D02*
X080450Y071500D01*
X074234Y073066D02*
X074550Y073382D01*
X074068Y072900D02*
X074234Y073066D01*
X073600D02*
X074234D01*
X077877Y071823D02*
X077891D01*
X077400Y072300D02*
X077877Y071823D01*
X081235Y099300D02*
X082500D01*
X080835Y098900D02*
X081235Y099300D01*
X082615Y076165D02*
Y076700D01*
X081750Y075300D02*
X082615Y076165D01*
X081435Y093765D02*
Y094750D01*
X075050Y076000D02*
X075441Y075609D01*
X079004Y072936D02*
X079014D01*
X079613Y072337D01*
X075664Y072264D02*
Y072268D01*
X075087Y071687D02*
X075664Y072264D01*
X060000Y099800D02*
X060341Y099459D01*
X059237Y099800D02*
X060000D01*
X058895Y099459D02*
X059237Y099800D01*
X058895Y099100D02*
Y099459D01*
X055755Y099100D02*
Y099745D01*
X059341Y094674D02*
Y095361D01*
X068500Y086495D02*
Y087000D01*
X071515Y078100D02*
Y078985D01*
X044741Y076894D02*
X045370D01*
X044435Y077200D02*
X044741Y076894D01*
X044812Y071972D02*
X045370D01*
X044535Y072250D02*
X044812Y071972D01*
X059341Y098361D02*
X059715Y098735D01*
X060341Y094650D02*
Y095361D01*
X064985Y094500D02*
X065550D01*
X079202Y095652D02*
Y097936D01*
X079035Y095485D02*
X079202Y095652D01*
X079035Y095050D02*
Y095485D01*
X042950Y085050D02*
X043515D01*
X043765Y072450D02*
Y072965D01*
X078937Y077337D02*
X079200Y077600D01*
Y077900D01*
X079300Y078000D01*
X074000Y077050D02*
X074280Y076770D01*
X072200Y077500D02*
Y078085D01*
X072185Y078100D02*
X072200Y078085D01*
X074280Y076770D02*
X074380Y076670D01*
X075664Y075832D02*
X076100Y075395D01*
X074500Y071100D02*
X074563Y071163D01*
X083285Y076700D02*
X084035Y075950D01*
X085350D01*
X085700Y075600D01*
Y073250D02*
Y075600D01*
X084750Y072300D02*
X085700Y073250D01*
X044237Y084997D02*
X045406D01*
X064300Y093700D02*
Y094535D01*
X060341Y098361D02*
Y099459D01*
X077467Y094995D02*
X078449D01*
X059715Y098735D02*
Y099150D01*
X074450Y071150D02*
X074500Y071100D01*
X080150Y094750D02*
X080765D01*
X079202Y097936D02*
X080165Y098900D01*
X074400Y071100D02*
X074450Y071150D01*
X074000Y071100D02*
X074400D01*
X066500Y086495D02*
Y087100D01*
X065500Y077000D02*
Y077555D01*
X069145Y077200D02*
X069500Y077555D01*
X067855Y077200D02*
X069145D01*
X067500Y077555D02*
X067855Y077200D01*
X074762Y076288D02*
X075050Y076000D01*
X078538Y076924D02*
Y076938D01*
X078250Y076636D02*
X078538Y076924D01*
X077891Y076277D02*
X078250Y076636D01*
X043700Y077200D02*
Y077700D01*
X073500Y071745D02*
X073550Y071695D01*
Y071150D02*
Y071695D01*
D24*
X042655Y100572D02*
X044039Y101956D01*
X047800Y097784D02*
X050600D01*
X043616D02*
X047800D01*
Y096300D02*
Y097784D01*
X041400Y098800D02*
Y099861D01*
Y096456D02*
Y098800D01*
X042600D01*
X043616Y097784D01*
X042110Y100572D02*
X042655D01*
X043616Y097784D02*
X044000Y097400D01*
X047800Y095700D02*
X050484D01*
X046700D02*
X047800D01*
X045400Y097000D02*
X046700Y095700D01*
X045000Y097000D02*
X045400D01*
X044000D02*
Y097400D01*
X041400Y099861D02*
X042110Y100572D01*
X042050Y095800D02*
Y096050D01*
Y095200D02*
Y095800D01*
X041456D02*
X042050D01*
Y096050D02*
X043000Y097000D01*
X062300Y073600D02*
Y074100D01*
X062200Y073500D02*
X062300Y073600D01*
X062200Y072600D02*
Y073500D01*
X061700Y072600D02*
Y074100D01*
X104800Y070750D02*
X106750D01*
X104800Y071750D02*
X106800D01*
X096800Y070750D02*
X098750D01*
X096800Y071750D02*
X098800D01*
X088800Y070750D02*
X090800D01*
X088800Y071750D02*
X090800D01*
X087550Y070750D02*
X088800D01*
X095550D02*
X096800D01*
X095550Y070750D02*
X095550Y070750D01*
X095550Y071350D02*
X095950Y071750D01*
X096800D01*
X087550Y071400D02*
X087900Y071750D01*
X088800D01*
X103550Y070750D02*
X104800D01*
X103550Y070750D02*
X103550Y070750D01*
X103950Y071750D02*
X104800D01*
X103550Y071350D02*
X103950Y071750D01*
X071500Y098900D02*
Y100628D01*
X072122Y101250D01*
D25*
X083000Y070000D02*
D03*
X106800Y100750D02*
D03*
X104800Y099750D02*
D03*
X106800D02*
D03*
X104800Y098750D02*
D03*
X106800D02*
D03*
X104800Y097750D02*
D03*
X106800D02*
D03*
X104800Y096750D02*
D03*
X106800D02*
D03*
X104800Y095750D02*
D03*
X106800D02*
D03*
X104800Y094750D02*
D03*
X106800D02*
D03*
X104800Y093750D02*
D03*
X106800D02*
D03*
X104800Y092750D02*
D03*
X106800D02*
D03*
X104800Y091750D02*
D03*
X106800D02*
D03*
X104800Y090750D02*
D03*
X106800D02*
D03*
X104800Y089750D02*
D03*
X106800D02*
D03*
X104800Y088750D02*
D03*
X106800D02*
D03*
X104800Y087750D02*
D03*
X106800D02*
D03*
X104800Y086750D02*
D03*
X106800D02*
D03*
X104800Y085750D02*
D03*
X106800D02*
D03*
X104800Y084750D02*
D03*
X106800D02*
D03*
X104800Y083750D02*
D03*
X106800D02*
D03*
X104800Y082750D02*
D03*
X106800D02*
D03*
X104800Y081750D02*
D03*
X106800D02*
D03*
X104800Y080750D02*
D03*
X106800D02*
D03*
X104800Y079750D02*
D03*
X106800D02*
D03*
X104800Y078750D02*
D03*
X106800D02*
D03*
X104800Y077750D02*
D03*
X106800D02*
D03*
X104800Y076750D02*
D03*
X106800D02*
D03*
X104800Y075750D02*
D03*
X106800D02*
D03*
X104800Y074750D02*
D03*
X106800D02*
D03*
X104800Y073750D02*
D03*
X106800D02*
D03*
X104800Y072750D02*
D03*
X106800D02*
D03*
X104800Y071750D02*
D03*
X106800D02*
D03*
X104800Y070750D02*
D03*
X106800D02*
D03*
X098800Y100750D02*
D03*
X096800Y099750D02*
D03*
X098800D02*
D03*
X096800Y098750D02*
D03*
X098800D02*
D03*
X096800Y097750D02*
D03*
X098800D02*
D03*
X096800Y096750D02*
D03*
X098800D02*
D03*
X096800Y095750D02*
D03*
X098800D02*
D03*
X096800Y094750D02*
D03*
X098800D02*
D03*
X096800Y093750D02*
D03*
X098800D02*
D03*
X096800Y092750D02*
D03*
X098800D02*
D03*
X096800Y091750D02*
D03*
X098800D02*
D03*
X096800Y090750D02*
D03*
X098800D02*
D03*
X096800Y089750D02*
D03*
X098800D02*
D03*
X096800Y088750D02*
D03*
X098800D02*
D03*
X096800Y087750D02*
D03*
X098800D02*
D03*
X096800Y086750D02*
D03*
X098800D02*
D03*
X096800Y085750D02*
D03*
X098800D02*
D03*
X096800Y084750D02*
D03*
X098800D02*
D03*
X096800Y083750D02*
D03*
X098800D02*
D03*
X096800Y082750D02*
D03*
X098800D02*
D03*
X096800Y081750D02*
D03*
X098800D02*
D03*
X096800Y080750D02*
D03*
X098800D02*
D03*
X096800Y079750D02*
D03*
X098800D02*
D03*
X096800Y078750D02*
D03*
X098800D02*
D03*
X096800Y077750D02*
D03*
X098800D02*
D03*
X096800Y076750D02*
D03*
X098800D02*
D03*
X096800Y075750D02*
D03*
X098800D02*
D03*
X096800Y074750D02*
D03*
X098800D02*
D03*
X096800Y073750D02*
D03*
X098800D02*
D03*
X096800Y072750D02*
D03*
X098800D02*
D03*
X096800Y071750D02*
D03*
X098800D02*
D03*
X096800Y070750D02*
D03*
X098800D02*
D03*
X088800Y099750D02*
D03*
Y098750D02*
D03*
Y097750D02*
D03*
Y096750D02*
D03*
Y095750D02*
D03*
Y094750D02*
D03*
Y093750D02*
D03*
Y092750D02*
D03*
Y091750D02*
D03*
Y090750D02*
D03*
Y089750D02*
D03*
Y088750D02*
D03*
Y087750D02*
D03*
Y086750D02*
D03*
Y072750D02*
D03*
Y073750D02*
D03*
Y074750D02*
D03*
Y075750D02*
D03*
Y076750D02*
D03*
Y077750D02*
D03*
Y078750D02*
D03*
Y079750D02*
D03*
Y080750D02*
D03*
Y081750D02*
D03*
Y082750D02*
D03*
Y083750D02*
D03*
Y084750D02*
D03*
Y085750D02*
D03*
X090800Y100750D02*
D03*
Y099750D02*
D03*
Y098750D02*
D03*
Y097750D02*
D03*
Y096750D02*
D03*
Y095750D02*
D03*
Y094750D02*
D03*
Y093750D02*
D03*
Y092750D02*
D03*
Y091750D02*
D03*
Y090750D02*
D03*
Y089750D02*
D03*
Y088750D02*
D03*
Y087750D02*
D03*
Y086750D02*
D03*
Y085750D02*
D03*
Y084750D02*
D03*
Y083750D02*
D03*
Y082750D02*
D03*
Y081750D02*
D03*
Y080750D02*
D03*
Y079750D02*
D03*
Y078750D02*
D03*
Y077750D02*
D03*
Y076750D02*
D03*
Y075750D02*
D03*
Y074750D02*
D03*
Y073750D02*
D03*
Y072750D02*
D03*
X088800Y071750D02*
D03*
X090800D02*
D03*
X088800Y070750D02*
D03*
X090800D02*
D03*
X084000Y070000D02*
D03*
X048500Y101250D02*
D03*
X049500Y100250D02*
D03*
Y101250D02*
D03*
X050500Y100250D02*
D03*
Y101250D02*
D03*
X051500Y100250D02*
D03*
Y101250D02*
D03*
X052500Y100250D02*
D03*
Y101250D02*
D03*
X053500Y100250D02*
D03*
Y101250D02*
D03*
X054500Y100250D02*
D03*
Y101250D02*
D03*
D26*
X058561Y100689D02*
D03*
Y101674D02*
D03*
X059378D02*
D03*
X060412D02*
D03*
X061239D02*
D03*
Y100689D02*
D03*
D27*
X057333Y102894D02*
D03*
D28*
X059900Y103150D02*
D03*
D29*
X062467Y102894D02*
D03*
D30*
X045000Y097000D02*
D03*
X044000D02*
D03*
D31*
X043000D02*
D03*
D32*
X064300Y093700D02*
D03*
X082500Y096300D02*
D03*
X081750Y072300D02*
D03*
X064341Y098361D02*
D03*
X045370Y073894D02*
D03*
Y068972D02*
D03*
X077467Y097995D02*
D03*
X064500Y079000D02*
D03*
X081500Y093700D02*
D03*
D33*
X063300D02*
D03*
X062300D02*
D03*
X061300D02*
D03*
X060300D02*
D03*
X059300D02*
D03*
X058300D02*
D03*
X057300D02*
D03*
X056300D02*
D03*
X055300D02*
D03*
X054300D02*
D03*
X053300D02*
D03*
X052300D02*
D03*
X051300D02*
D03*
X050300D02*
D03*
X049300D02*
D03*
X048300D02*
D03*
X047300D02*
D03*
X046300D02*
D03*
X045300D02*
D03*
X064300Y087700D02*
D03*
X063300D02*
D03*
X062300D02*
D03*
X061300D02*
D03*
X060300D02*
D03*
X059300D02*
D03*
X058300D02*
D03*
X057300D02*
D03*
X056300D02*
D03*
X055300D02*
D03*
X054300D02*
D03*
X053300D02*
D03*
X052300D02*
D03*
X051300D02*
D03*
X050300D02*
D03*
X049300D02*
D03*
X048300D02*
D03*
X047300D02*
D03*
X046300D02*
D03*
X045300D02*
D03*
X085500Y099300D02*
D03*
X082500D02*
D03*
X085500Y096300D02*
D03*
X084750Y072300D02*
D03*
X081750Y075300D02*
D03*
X084750D02*
D03*
X063341Y098361D02*
D03*
X062341D02*
D03*
X061341D02*
D03*
X060341D02*
D03*
X059341D02*
D03*
X058341D02*
D03*
X057341D02*
D03*
X056341D02*
D03*
X055341D02*
D03*
X064341Y095361D02*
D03*
X063341D02*
D03*
X062341D02*
D03*
X061341D02*
D03*
X060341D02*
D03*
X059341D02*
D03*
X058341D02*
D03*
X057341D02*
D03*
X056341D02*
D03*
X055341D02*
D03*
X046370Y073894D02*
D03*
X047370D02*
D03*
X048370D02*
D03*
X049370D02*
D03*
X050370D02*
D03*
X051370D02*
D03*
X052370D02*
D03*
X053370D02*
D03*
X054370D02*
D03*
X055370D02*
D03*
X056370D02*
D03*
X057370D02*
D03*
X058370D02*
D03*
X045370Y076894D02*
D03*
X046370D02*
D03*
X047370D02*
D03*
X048370D02*
D03*
X049370D02*
D03*
X050370D02*
D03*
X051370D02*
D03*
X052370D02*
D03*
X053370D02*
D03*
X054370D02*
D03*
X055370D02*
D03*
X056370D02*
D03*
X057370D02*
D03*
X058370D02*
D03*
X046370Y068972D02*
D03*
X047370D02*
D03*
X048370D02*
D03*
X049370D02*
D03*
X050370D02*
D03*
X051370D02*
D03*
X052370D02*
D03*
X053370D02*
D03*
X054370D02*
D03*
X055370D02*
D03*
X056370D02*
D03*
X057370D02*
D03*
X058370D02*
D03*
X045370Y071972D02*
D03*
X046370D02*
D03*
X047370D02*
D03*
X048370D02*
D03*
X049370D02*
D03*
X050370D02*
D03*
X051370D02*
D03*
X052370D02*
D03*
X053370D02*
D03*
X054370D02*
D03*
X055370D02*
D03*
X056370D02*
D03*
X057370D02*
D03*
X058370D02*
D03*
X076467Y097995D02*
D03*
X075467D02*
D03*
X074467D02*
D03*
X073467D02*
D03*
X072467D02*
D03*
X071467D02*
D03*
X070467D02*
D03*
X077467Y094995D02*
D03*
X076467D02*
D03*
X075467D02*
D03*
X074467D02*
D03*
X073467D02*
D03*
X072467D02*
D03*
X071467D02*
D03*
X070467D02*
D03*
X083500Y085000D02*
D03*
X082500D02*
D03*
X081500D02*
D03*
X080500D02*
D03*
X079500D02*
D03*
X078500D02*
D03*
X077500D02*
D03*
X076500D02*
D03*
X075500D02*
D03*
X074500D02*
D03*
X073500D02*
D03*
X072500D02*
D03*
X071500D02*
D03*
X070500D02*
D03*
X069500D02*
D03*
X068500D02*
D03*
X067500D02*
D03*
X066500D02*
D03*
X065500D02*
D03*
X064500D02*
D03*
X083500Y079000D02*
D03*
X082500D02*
D03*
X081500D02*
D03*
X080500D02*
D03*
X079500D02*
D03*
X078500D02*
D03*
X077500D02*
D03*
X076500D02*
D03*
X075500D02*
D03*
X074500D02*
D03*
X073500D02*
D03*
X072500D02*
D03*
X071500D02*
D03*
X070500D02*
D03*
X069500D02*
D03*
X068500D02*
D03*
X067500D02*
D03*
X066500D02*
D03*
X065500D02*
D03*
X080500Y093700D02*
D03*
X079500D02*
D03*
X078500D02*
D03*
X077500D02*
D03*
X076500D02*
D03*
X075500D02*
D03*
X074500D02*
D03*
X073500D02*
D03*
X072500D02*
D03*
X071500D02*
D03*
X070500D02*
D03*
X069500D02*
D03*
X068500D02*
D03*
X081500Y087700D02*
D03*
X080500D02*
D03*
X079500D02*
D03*
X078500D02*
D03*
X077500D02*
D03*
X076500D02*
D03*
X075500D02*
D03*
X074500D02*
D03*
X073500D02*
D03*
X072500D02*
D03*
X071500D02*
D03*
X070500D02*
D03*
X069500D02*
D03*
X068500D02*
D03*
D34*
X104800Y100750D02*
D03*
X096800D02*
D03*
X088800D02*
D03*
D35*
X108000Y103000D02*
D03*
X065000Y068000D02*
D03*
Y103000D02*
D03*
X086000Y068000D02*
D03*
Y103000D02*
D03*
X108000Y068000D02*
D03*
X040000Y068000D02*
D03*
Y103000D02*
D03*
X079230Y101809D02*
D03*
X069392D02*
D03*
X044039Y101956D02*
D03*
X042110Y100572D02*
D03*
X044033Y099594D02*
D03*
D36*
X062200Y072600D02*
D03*
X061700D02*
D03*
D37*
X061200D02*
D03*
D38*
X067750Y096250D02*
D03*
D39*
X066750D02*
D03*
X067750Y097250D02*
D03*
X066750D02*
D03*
X067750Y098250D02*
D03*
X066750D02*
D03*
D40*
X067000Y073500D02*
D03*
Y074500D02*
D03*
X068000Y073500D02*
D03*
Y074500D02*
D03*
X069000Y073500D02*
D03*
Y074500D02*
D03*
X070000Y073500D02*
D03*
Y074500D02*
D03*
X071000Y073500D02*
D03*
D41*
Y074500D02*
D03*
D42*
X060400Y069400D02*
D03*
X062959D02*
D03*
Y071172D02*
D03*
X060400D02*
D03*
D43*
X076500Y101250D02*
D03*
X075953Y102368D02*
D03*
X075406Y101250D02*
D03*
X074858Y102368D02*
D03*
X074311Y101250D02*
D03*
X073764Y102368D02*
D03*
X073217Y101250D02*
D03*
X072669Y102368D02*
D03*
X072122Y101250D02*
D03*
D44*
X048500Y100250D02*
D03*
D45*
X045550Y095200D02*
D03*
X042050D02*
D03*
D46*
X045406Y078997D02*
D03*
D47*
X046406D02*
D03*
X047406D02*
D03*
X048406D02*
D03*
X049406D02*
D03*
X050406D02*
D03*
X051406D02*
D03*
X052406D02*
D03*
X053406D02*
D03*
X054406D02*
D03*
X055406D02*
D03*
X056406D02*
D03*
X057406D02*
D03*
X058406D02*
D03*
X045406Y084997D02*
D03*
X046406D02*
D03*
X047406D02*
D03*
X048406D02*
D03*
X049406D02*
D03*
X050406D02*
D03*
X051406D02*
D03*
X052406D02*
D03*
X053406D02*
D03*
X054406D02*
D03*
X055406D02*
D03*
X056406D02*
D03*
X057406D02*
D03*
X058406D02*
D03*
D48*
X050600Y097784D02*
D03*
D49*
Y095816D02*
D03*
D50*
X085010Y081900D02*
D03*
X076100Y075000D02*
D03*
X078300Y074400D02*
D03*
X077800Y073700D02*
D03*
X074300Y075300D02*
D03*
X070500Y082400D02*
D03*
X068800D02*
D03*
X082100Y072900D02*
D03*
X079195Y072300D02*
D03*
X079350Y072600D02*
D03*
X080800Y071586D02*
D03*
X080450Y071500D02*
D03*
X080955Y071895D02*
D03*
X084050Y078450D02*
D03*
X084450Y081900D02*
D03*
X085350Y082200D02*
D03*
X074068Y072900D02*
D03*
X059000Y082200D02*
D03*
X084160Y082220D02*
D03*
X084740D02*
D03*
X055755Y099745D02*
D03*
X068500Y087000D02*
D03*
X077500Y075300D02*
D03*
X080150Y075000D02*
D03*
X078100Y072950D02*
D03*
X063850Y078100D02*
D03*
Y082450D02*
D03*
X047700Y086200D02*
D03*
X068000Y085300D02*
D03*
X063900Y090200D02*
D03*
X079450Y092100D02*
D03*
X065550Y094500D02*
D03*
X080150Y094750D02*
D03*
X042950Y085050D02*
D03*
X043765Y072965D02*
D03*
X079300Y078000D02*
D03*
X079441Y075600D02*
D03*
X076100Y075395D02*
D03*
X074000Y077050D02*
D03*
X072200Y077500D02*
D03*
X053950Y082250D02*
D03*
X054900Y082300D02*
D03*
X055900D02*
D03*
X056900D02*
D03*
X057950Y082250D02*
D03*
X076850Y073700D02*
D03*
X076400Y073900D02*
D03*
X076750Y074750D02*
D03*
X054200Y081000D02*
D03*
X053100Y081900D02*
D03*
X052400Y081800D02*
D03*
X062350Y086700D02*
D03*
X076500Y074350D02*
D03*
X074000Y071100D02*
D03*
X058350Y086350D02*
D03*
X081550Y076400D02*
D03*
X066500Y087100D02*
D03*
X065500Y077000D02*
D03*
X068500Y077200D02*
D03*
X075050Y076000D02*
D03*
X077400Y072300D02*
D03*
X079202Y096500D02*
D03*
X078250Y076636D02*
D03*
X075300Y071900D02*
D03*
X083400Y078250D02*
D03*
X086200Y078050D02*
D03*
X070550Y086050D02*
D03*
X086470Y078890D02*
D03*
X073228Y083268D02*
D03*
X086700Y078510D02*
D03*
X074508Y083071D02*
D03*
X086950Y077750D02*
D03*
X075300Y083200D02*
D03*
X087150Y076750D02*
D03*
X087320Y075770D02*
D03*
X087480Y074780D02*
D03*
X087640Y073760D02*
D03*
X075430Y071400D02*
D03*
X075760Y071380D02*
D03*
X076217Y071040D02*
D03*
X074760Y072255D02*
D03*
X043700Y077700D02*
D03*
X073550Y071150D02*
D03*
D51*
X087780Y072730D02*
D03*
M02*
