G04 Layer_Color=8150272*
%FSAX23Y23*%
%MOIN*%
G70*
G01*
G75*
%ADD63C,0.036*%
%ADD78C,0.077*%
%ADD79R,0.069X0.069*%
%ADD80C,0.069*%
%ADD81O,0.065X0.065*%
%ADD82R,0.065X0.065*%
%ADD83R,0.065X0.065*%
%ADD84C,0.065*%
%ADD85C,0.203*%
%ADD86C,0.066*%
%ADD87R,0.066X0.066*%
%ADD88C,0.081*%
%ADD89R,0.077X0.077*%
%ADD90P,0.053X8X292.5*%
%ADD91R,0.049X0.049*%
%ADD92R,0.040X0.085*%
%ADD93O,0.040X0.085*%
%ADD94R,0.066X0.066*%
%ADD95R,0.066X0.086*%
%ADD96O,0.066X0.086*%
%ADD97C,0.115*%
%ADD98C,0.125*%
%ADD99C,0.125*%
%ADD100C,0.049*%
%ADD101C,0.075*%
%ADD102C,0.081*%
%ADD103C,0.026*%
D63*
X08778Y07273D02*
D03*
X05930Y07850D02*
D03*
X04695D02*
D03*
D78*
X06950Y09203D02*
D03*
X07050D02*
D03*
X07150D02*
D03*
X07250D02*
D03*
X07350D02*
D03*
X07450D02*
D03*
X07100Y07350D02*
D03*
X07000Y07450D02*
D03*
Y07350D02*
D03*
X06900Y07450D02*
D03*
Y07350D02*
D03*
X06800Y07450D02*
D03*
Y07350D02*
D03*
X06700Y07450D02*
D03*
Y07350D02*
D03*
D79*
X05060Y09582D02*
D03*
D80*
Y09778D02*
D03*
D81*
X05841Y08500D02*
D03*
X05741D02*
D03*
X05641D02*
D03*
X05541D02*
D03*
X05441D02*
D03*
X05341D02*
D03*
X05241D02*
D03*
X05141D02*
D03*
X05041D02*
D03*
X04941D02*
D03*
X04841D02*
D03*
X04741D02*
D03*
X04641D02*
D03*
X04541D02*
D03*
X05841Y07900D02*
D03*
X05741D02*
D03*
X05641D02*
D03*
X05541D02*
D03*
X05441D02*
D03*
X05341D02*
D03*
X05241D02*
D03*
X05141D02*
D03*
X05041D02*
D03*
X04941D02*
D03*
X04841D02*
D03*
X04741D02*
D03*
X04641D02*
D03*
D82*
X04541D02*
D03*
D83*
X06450Y07900D02*
D03*
X07747Y09799D02*
D03*
X04537Y06897D02*
D03*
Y07389D02*
D03*
X06434Y09836D02*
D03*
X08175Y07230D02*
D03*
X08250Y09630D02*
D03*
X06430Y09370D02*
D03*
D84*
X06550Y07900D02*
D03*
X06650D02*
D03*
X06750D02*
D03*
X06850D02*
D03*
X06950D02*
D03*
X07050D02*
D03*
X07150D02*
D03*
X07250D02*
D03*
X07350D02*
D03*
X07450D02*
D03*
X07550D02*
D03*
X07650D02*
D03*
X07750D02*
D03*
X07850D02*
D03*
X07950D02*
D03*
X08050D02*
D03*
X08150D02*
D03*
X08250D02*
D03*
X08350D02*
D03*
X06450Y08500D02*
D03*
X06550D02*
D03*
X06650D02*
D03*
X06750D02*
D03*
X06850D02*
D03*
X06950D02*
D03*
X07050D02*
D03*
X07150D02*
D03*
X07250D02*
D03*
X07350D02*
D03*
X07450D02*
D03*
X07550D02*
D03*
X07650D02*
D03*
X07750D02*
D03*
X07850D02*
D03*
X07950D02*
D03*
X08050D02*
D03*
X08150D02*
D03*
X08250D02*
D03*
X08350D02*
D03*
X07047Y09499D02*
D03*
X07147D02*
D03*
X07247D02*
D03*
X07347D02*
D03*
X07447D02*
D03*
X07547D02*
D03*
X07647D02*
D03*
X07747D02*
D03*
X07047Y09799D02*
D03*
X07147D02*
D03*
X07247D02*
D03*
X07347D02*
D03*
X07447D02*
D03*
X07547D02*
D03*
X07647D02*
D03*
X05837Y07197D02*
D03*
X05737D02*
D03*
X05637D02*
D03*
X05537D02*
D03*
X05437D02*
D03*
X05337D02*
D03*
X05237D02*
D03*
X05137D02*
D03*
X05037D02*
D03*
X04937D02*
D03*
X04837D02*
D03*
X04737D02*
D03*
X04637D02*
D03*
X04537D02*
D03*
X05837Y06897D02*
D03*
X05737D02*
D03*
X05637D02*
D03*
X05537D02*
D03*
X05437D02*
D03*
X05337D02*
D03*
X05237D02*
D03*
X05137D02*
D03*
X05037D02*
D03*
X04937D02*
D03*
X04837D02*
D03*
X04737D02*
D03*
X04637D02*
D03*
X05837Y07689D02*
D03*
X05737D02*
D03*
X05637D02*
D03*
X05537D02*
D03*
X05437D02*
D03*
X05337D02*
D03*
X05237D02*
D03*
X05137D02*
D03*
X05037D02*
D03*
X04937D02*
D03*
X04837D02*
D03*
X04737D02*
D03*
X04637D02*
D03*
X04537D02*
D03*
X05837Y07389D02*
D03*
X05737D02*
D03*
X05637D02*
D03*
X05537D02*
D03*
X05437D02*
D03*
X05337D02*
D03*
X05237D02*
D03*
X05137D02*
D03*
X05037D02*
D03*
X04937D02*
D03*
X04837D02*
D03*
X04737D02*
D03*
X04637D02*
D03*
X05534Y09536D02*
D03*
X05634D02*
D03*
X05734D02*
D03*
X05834D02*
D03*
X05934D02*
D03*
X06034D02*
D03*
X06134D02*
D03*
X06234D02*
D03*
X06334D02*
D03*
X06434D02*
D03*
X05534Y09836D02*
D03*
X05634D02*
D03*
X05734D02*
D03*
X05834D02*
D03*
X05934D02*
D03*
X06034D02*
D03*
X06134D02*
D03*
X06234D02*
D03*
X06334D02*
D03*
X08475Y07530D02*
D03*
X08175D02*
D03*
X08475Y07230D02*
D03*
X08550Y09630D02*
D03*
X08250Y09930D02*
D03*
X08550D02*
D03*
X04530Y08770D02*
D03*
X04630D02*
D03*
X04730D02*
D03*
X04830D02*
D03*
X04930D02*
D03*
X05030D02*
D03*
X05130D02*
D03*
X05230D02*
D03*
X05330D02*
D03*
X05430D02*
D03*
X05530D02*
D03*
X05630D02*
D03*
X05730D02*
D03*
X05830D02*
D03*
X05930D02*
D03*
X06030D02*
D03*
X06130D02*
D03*
X06230D02*
D03*
X06330D02*
D03*
X06430D02*
D03*
X04530Y09370D02*
D03*
X04630D02*
D03*
X04730D02*
D03*
X04830D02*
D03*
X04930D02*
D03*
X05030D02*
D03*
X05130D02*
D03*
X05230D02*
D03*
X05330D02*
D03*
X05430D02*
D03*
X05530D02*
D03*
X05630D02*
D03*
X05730D02*
D03*
X05830D02*
D03*
X05930D02*
D03*
X06030D02*
D03*
X06130D02*
D03*
X06230D02*
D03*
X06330D02*
D03*
D85*
X04403Y09959D02*
D03*
X04211Y10057D02*
D03*
X04404Y10196D02*
D03*
X06939Y10181D02*
D03*
X07923D02*
D03*
X04000Y10300D02*
D03*
Y06800D02*
D03*
X10800Y06800D02*
D03*
X08600Y10300D02*
D03*
Y06800D02*
D03*
X06500Y10300D02*
D03*
Y06800D02*
D03*
X10800Y10300D02*
D03*
D86*
X05450Y10125D02*
D03*
Y10025D02*
D03*
X05350Y10125D02*
D03*
Y10025D02*
D03*
X05250Y10125D02*
D03*
Y10025D02*
D03*
X05150Y10125D02*
D03*
Y10025D02*
D03*
X05050Y10125D02*
D03*
Y10025D02*
D03*
X04950Y10125D02*
D03*
Y10025D02*
D03*
X04850Y10125D02*
D03*
X08400Y07000D02*
D03*
X09080Y07075D02*
D03*
X08880D02*
D03*
X09080Y07175D02*
D03*
X08880D02*
D03*
X09080Y07275D02*
D03*
Y07375D02*
D03*
Y07475D02*
D03*
Y07575D02*
D03*
Y07675D02*
D03*
Y07775D02*
D03*
Y07875D02*
D03*
Y07975D02*
D03*
Y08075D02*
D03*
Y08175D02*
D03*
Y08275D02*
D03*
Y08375D02*
D03*
Y08475D02*
D03*
Y08575D02*
D03*
Y08675D02*
D03*
Y08775D02*
D03*
Y08875D02*
D03*
Y08975D02*
D03*
Y09075D02*
D03*
Y09175D02*
D03*
Y09275D02*
D03*
Y09375D02*
D03*
Y09475D02*
D03*
Y09575D02*
D03*
Y09675D02*
D03*
Y09775D02*
D03*
Y09875D02*
D03*
Y09975D02*
D03*
Y10075D02*
D03*
X08880Y08575D02*
D03*
Y08475D02*
D03*
Y08375D02*
D03*
Y08275D02*
D03*
Y08175D02*
D03*
Y08075D02*
D03*
Y07975D02*
D03*
Y07875D02*
D03*
Y07775D02*
D03*
Y07675D02*
D03*
Y07575D02*
D03*
Y07475D02*
D03*
Y07375D02*
D03*
Y07275D02*
D03*
Y08675D02*
D03*
Y08775D02*
D03*
Y08875D02*
D03*
Y08975D02*
D03*
Y09075D02*
D03*
Y09175D02*
D03*
Y09275D02*
D03*
Y09375D02*
D03*
Y09475D02*
D03*
Y09575D02*
D03*
Y09675D02*
D03*
Y09775D02*
D03*
Y09875D02*
D03*
Y09975D02*
D03*
X09880Y07075D02*
D03*
X09680D02*
D03*
X09880Y07175D02*
D03*
X09680D02*
D03*
X09880Y07275D02*
D03*
X09680D02*
D03*
X09880Y07375D02*
D03*
X09680D02*
D03*
X09880Y07475D02*
D03*
X09680D02*
D03*
X09880Y07575D02*
D03*
X09680D02*
D03*
X09880Y07675D02*
D03*
X09680D02*
D03*
X09880Y07775D02*
D03*
X09680D02*
D03*
X09880Y07875D02*
D03*
X09680D02*
D03*
X09880Y07975D02*
D03*
X09680D02*
D03*
X09880Y08075D02*
D03*
X09680D02*
D03*
X09880Y08175D02*
D03*
X09680D02*
D03*
X09880Y08275D02*
D03*
X09680D02*
D03*
X09880Y08375D02*
D03*
X09680D02*
D03*
X09880Y08475D02*
D03*
X09680D02*
D03*
X09880Y08575D02*
D03*
X09680D02*
D03*
X09880Y08675D02*
D03*
X09680D02*
D03*
X09880Y08775D02*
D03*
X09680D02*
D03*
X09880Y08875D02*
D03*
X09680D02*
D03*
X09880Y08975D02*
D03*
X09680D02*
D03*
X09880Y09075D02*
D03*
X09680D02*
D03*
X09880Y09175D02*
D03*
X09680D02*
D03*
X09880Y09275D02*
D03*
X09680D02*
D03*
X09880Y09375D02*
D03*
X09680D02*
D03*
X09880Y09475D02*
D03*
X09680D02*
D03*
X09880Y09575D02*
D03*
X09680D02*
D03*
X09880Y09675D02*
D03*
X09680D02*
D03*
X09880Y09775D02*
D03*
X09680D02*
D03*
X09880Y09875D02*
D03*
X09680D02*
D03*
X09880Y09975D02*
D03*
X09680D02*
D03*
X09880Y10075D02*
D03*
X10680Y07075D02*
D03*
X10480D02*
D03*
X10680Y07175D02*
D03*
X10480D02*
D03*
X10680Y07275D02*
D03*
X10480D02*
D03*
X10680Y07375D02*
D03*
X10480D02*
D03*
X10680Y07475D02*
D03*
X10480D02*
D03*
X10680Y07575D02*
D03*
X10480D02*
D03*
X10680Y07675D02*
D03*
X10480D02*
D03*
X10680Y07775D02*
D03*
X10480D02*
D03*
X10680Y07875D02*
D03*
X10480D02*
D03*
X10680Y07975D02*
D03*
X10480D02*
D03*
X10680Y08075D02*
D03*
X10480D02*
D03*
X10680Y08175D02*
D03*
X10480D02*
D03*
X10680Y08275D02*
D03*
X10480D02*
D03*
X10680Y08375D02*
D03*
X10480D02*
D03*
X10680Y08475D02*
D03*
X10480D02*
D03*
X10680Y08575D02*
D03*
X10480D02*
D03*
X10680Y08675D02*
D03*
X10480D02*
D03*
X10680Y08775D02*
D03*
X10480D02*
D03*
X10680Y08875D02*
D03*
X10480D02*
D03*
X10680Y08975D02*
D03*
X10480D02*
D03*
X10680Y09075D02*
D03*
X10480D02*
D03*
X10680Y09175D02*
D03*
X10480D02*
D03*
X10680Y09275D02*
D03*
X10480D02*
D03*
X10680Y09375D02*
D03*
X10480D02*
D03*
X10680Y09475D02*
D03*
X10480D02*
D03*
X10680Y09575D02*
D03*
X10480D02*
D03*
X10680Y09675D02*
D03*
X10480D02*
D03*
X10680Y09775D02*
D03*
X10480D02*
D03*
X10680Y09875D02*
D03*
X10480D02*
D03*
X10680Y09975D02*
D03*
X10480D02*
D03*
X10680Y10075D02*
D03*
X08300Y07000D02*
D03*
D87*
X04850Y10025D02*
D03*
D88*
X07212Y10125D02*
D03*
X07267Y10237D02*
D03*
X07322Y10125D02*
D03*
X07376Y10237D02*
D03*
X07431Y10125D02*
D03*
X07486Y10237D02*
D03*
X07541Y10125D02*
D03*
X07595Y10237D02*
D03*
X07650Y10125D02*
D03*
D89*
X07100Y07450D02*
D03*
D90*
X06675Y09825D02*
D03*
X06775D02*
D03*
X06675Y09725D02*
D03*
X06775D02*
D03*
X06675Y09625D02*
D03*
D91*
X06775D02*
D03*
D92*
X06120Y07260D02*
D03*
D93*
X06170D02*
D03*
X06220D02*
D03*
D94*
X08880Y10075D02*
D03*
X09680D02*
D03*
X10480D02*
D03*
D95*
X04300Y09700D02*
D03*
D96*
X04400D02*
D03*
X04500D02*
D03*
D97*
X06247Y10289D02*
D03*
D98*
X05990Y10315D02*
D03*
D99*
X05733Y10289D02*
D03*
D100*
X06124Y10069D02*
D03*
Y10167D02*
D03*
X06041D02*
D03*
X05938D02*
D03*
X05856D02*
D03*
Y10069D02*
D03*
D101*
X06040Y06935D02*
D03*
X06296D02*
D03*
Y07112D02*
D03*
X06040D02*
D03*
D102*
X04205Y09520D02*
D03*
X04555D02*
D03*
D103*
X07397Y09050D02*
D03*
X08450Y07670D02*
D03*
X08100Y09330D02*
D03*
X07700Y09400D02*
D03*
X07150Y09950D02*
D03*
X07022Y08628D02*
D03*
X08127D02*
D03*
X07200Y08650D02*
D03*
X08095D02*
D03*
X07385Y08675D02*
D03*
X08065D02*
D03*
X07560Y08700D02*
D03*
X08033Y08702D02*
D03*
X07425Y08725D02*
D03*
X07875D02*
D03*
X07200Y08750D02*
D03*
X07845D02*
D03*
X07025Y08735D02*
D03*
X07813Y08777D02*
D03*
X07400Y07307D02*
D03*
X06750Y08630D02*
D03*
X06970D02*
D03*
X06930Y08605D02*
D03*
X07355Y07115D02*
D03*
X04370Y07770D02*
D03*
X07476Y07226D02*
D03*
X07622Y07104D02*
D03*
X07576Y07138D02*
D03*
X07543Y07140D02*
D03*
X08764Y07376D02*
D03*
X08748Y07478D02*
D03*
X08732Y07577D02*
D03*
X08715Y07675D02*
D03*
X07530Y08320D02*
D03*
X08695Y07775D02*
D03*
X07451Y08307D02*
D03*
X08670Y07851D02*
D03*
X07323Y08327D02*
D03*
X08647Y07889D02*
D03*
X08620Y07805D02*
D03*
X08340Y07825D02*
D03*
X07530Y07190D02*
D03*
X07825Y07664D02*
D03*
X07740Y07230D02*
D03*
X07505Y07600D02*
D03*
X06850Y07720D02*
D03*
X06550Y07700D02*
D03*
X06650Y08710D02*
D03*
X08155Y07640D02*
D03*
X07400Y07110D02*
D03*
X07650Y07435D02*
D03*
X05240Y08180D02*
D03*
X05310Y08190D02*
D03*
X05420Y08100D02*
D03*
X07675Y07475D02*
D03*
X07640Y07390D02*
D03*
X07685Y07370D02*
D03*
X05795Y08225D02*
D03*
X05690Y08230D02*
D03*
X05590D02*
D03*
X05490D02*
D03*
X05395Y08225D02*
D03*
X07220Y07750D02*
D03*
X07400Y07705D02*
D03*
X07610Y07540D02*
D03*
X07944Y07560D02*
D03*
X07930Y07800D02*
D03*
X04377Y07297D02*
D03*
X06555Y09450D02*
D03*
X06385Y08245D02*
D03*
Y07810D02*
D03*
X07810Y07295D02*
D03*
X08015Y07500D02*
D03*
X07750Y07530D02*
D03*
X06850Y08700D02*
D03*
X05575Y09975D02*
D03*
X08474Y08222D02*
D03*
X08416D02*
D03*
X05900Y08220D02*
D03*
X08535D02*
D03*
X08445Y08190D02*
D03*
X08405Y07845D02*
D03*
X08096Y07189D02*
D03*
X08045Y07150D02*
D03*
X08080Y07159D02*
D03*
X07935Y07260D02*
D03*
X07920Y07230D02*
D03*
X08210Y07290D02*
D03*
X06880Y08240D02*
D03*
X07050D02*
D03*
X07430Y07530D02*
D03*
X07780Y07370D02*
D03*
X07830Y07440D02*
D03*
X07610Y07500D02*
D03*
X08501Y08190D02*
D03*
X07970Y09320D02*
D03*
X08001D02*
D03*
X07955Y09890D02*
D03*
X07920Y09750D02*
D03*
X07980Y09505D02*
D03*
X07985Y09460D02*
D03*
X07955Y08760D02*
D03*
X07692Y08893D02*
D03*
X07680Y09145D02*
D03*
X07687Y09207D02*
D03*
X07813Y09323D02*
D03*
X07876Y09339D02*
D03*
X07939Y09371D02*
D03*
X08355Y09115D02*
D03*
X08260Y09050D02*
D03*
X08305Y09083D02*
D03*
X08420Y09175D02*
D03*
X08165Y09390D02*
D03*
X06395Y08725D02*
D03*
X06680Y09395D02*
D03*
X05535Y08645D02*
D03*
X05165D02*
D03*
X06005Y08540D02*
D03*
X06430Y08995D02*
D03*
X04325Y08505D02*
D03*
X04295Y09370D02*
D03*
M02*
