G04 Layer_Color=128*
%FSLAX24Y24*%
%MOIN*%
G70*
G01*
G75*
%ADD59C,0.0050*%
D59*
X107409Y103000D02*
X108591D01*
X108000Y102409D02*
Y103591D01*
X66573Y98250D02*
X66927D01*
X66750Y98073D02*
Y98427D01*
X67573Y98250D02*
X67927D01*
X67750Y98073D02*
Y98427D01*
X66573Y97250D02*
X66927D01*
X66750Y97073D02*
Y97427D01*
X67573Y97250D02*
X67927D01*
X67750Y97073D02*
Y97427D01*
X66573Y96250D02*
X66927D01*
X66750Y96073D02*
Y96427D01*
X67573Y96250D02*
X67927D01*
X67750Y96073D02*
Y96427D01*
X69299Y92030D02*
X69701D01*
X69500Y91829D02*
Y92230D01*
X70299Y92030D02*
X70701D01*
X70500Y91829D02*
Y92230D01*
X71299Y92030D02*
X71701D01*
X71500Y91829D02*
Y92230D01*
X72299Y92030D02*
X72701D01*
X72500Y91829D02*
Y92230D01*
X73299Y92030D02*
X73701D01*
X73500Y91829D02*
Y92230D01*
X74299Y92030D02*
X74701D01*
X74500Y91829D02*
Y92230D01*
X50443Y95816D02*
X50757D01*
X50600Y95658D02*
Y95973D01*
X50443Y97784D02*
X50757D01*
X50600Y97627D02*
Y97942D01*
X58228Y84997D02*
X58583D01*
X58406Y84820D02*
Y85174D01*
X57228Y84997D02*
X57583D01*
X57406Y84820D02*
Y85174D01*
X56228Y84997D02*
X56583D01*
X56406Y84820D02*
Y85174D01*
X55228Y84997D02*
X55583D01*
X55406Y84820D02*
Y85174D01*
X54228Y84997D02*
X54583D01*
X54406Y84820D02*
Y85174D01*
X53228Y84997D02*
X53583D01*
X53406Y84820D02*
Y85174D01*
X52228Y84997D02*
X52583D01*
X52406Y84820D02*
Y85174D01*
X51228Y84997D02*
X51583D01*
X51406Y84820D02*
Y85174D01*
X50228Y84997D02*
X50583D01*
X50406Y84820D02*
Y85174D01*
X49228Y84997D02*
X49583D01*
X49406Y84820D02*
Y85174D01*
X48228Y84997D02*
X48583D01*
X48406Y84820D02*
Y85174D01*
X47228Y84997D02*
X47583D01*
X47406Y84820D02*
Y85174D01*
X46228Y84997D02*
X46583D01*
X46406Y84820D02*
Y85174D01*
X45228Y84997D02*
X45583D01*
X45406Y84820D02*
Y85174D01*
X58228Y78997D02*
X58583D01*
X58406Y78820D02*
Y79174D01*
X57228Y78997D02*
X57583D01*
X57406Y78820D02*
Y79174D01*
X56228Y78997D02*
X56583D01*
X56406Y78820D02*
Y79174D01*
X55228Y78997D02*
X55583D01*
X55406Y78820D02*
Y79174D01*
X54228Y78997D02*
X54583D01*
X54406Y78820D02*
Y79174D01*
X53228Y78997D02*
X53583D01*
X53406Y78820D02*
Y79174D01*
X52228Y78997D02*
X52583D01*
X52406Y78820D02*
Y79174D01*
X51228Y78997D02*
X51583D01*
X51406Y78820D02*
Y79174D01*
X50228Y78997D02*
X50583D01*
X50406Y78820D02*
Y79174D01*
X49228Y78997D02*
X49583D01*
X49406Y78820D02*
Y79174D01*
X48228Y78997D02*
X48583D01*
X48406Y78820D02*
Y79174D01*
X47228Y78997D02*
X47583D01*
X47406Y78820D02*
Y79174D01*
X46228Y78997D02*
X46583D01*
X46406Y78820D02*
Y79174D01*
X45228Y78997D02*
X45583D01*
X45406Y78820D02*
Y79174D01*
X64323Y79000D02*
X64677D01*
X64500Y78823D02*
Y79177D01*
X65323Y79000D02*
X65677D01*
X65500Y78823D02*
Y79177D01*
X66323Y79000D02*
X66677D01*
X66500Y78823D02*
Y79177D01*
X67323Y79000D02*
X67677D01*
X67500Y78823D02*
Y79177D01*
X68323Y79000D02*
X68677D01*
X68500Y78823D02*
Y79177D01*
X69323Y79000D02*
X69677D01*
X69500Y78823D02*
Y79177D01*
X70323Y79000D02*
X70677D01*
X70500Y78823D02*
Y79177D01*
X71323Y79000D02*
X71677D01*
X71500Y78823D02*
Y79177D01*
X72323Y79000D02*
X72677D01*
X72500Y78823D02*
Y79177D01*
X73323Y79000D02*
X73677D01*
X73500Y78823D02*
Y79177D01*
X74323Y79000D02*
X74677D01*
X74500Y78823D02*
Y79177D01*
X75323Y79000D02*
X75677D01*
X75500Y78823D02*
Y79177D01*
X76323Y79000D02*
X76677D01*
X76500Y78823D02*
Y79177D01*
X77323Y79000D02*
X77677D01*
X77500Y78823D02*
Y79177D01*
X78323Y79000D02*
X78677D01*
X78500Y78823D02*
Y79177D01*
X79323Y79000D02*
X79677D01*
X79500Y78823D02*
Y79177D01*
X80323Y79000D02*
X80677D01*
X80500Y78823D02*
Y79177D01*
X81323Y79000D02*
X81677D01*
X81500Y78823D02*
Y79177D01*
X82323Y79000D02*
X82677D01*
X82500Y78823D02*
Y79177D01*
X83323Y79000D02*
X83677D01*
X83500Y78823D02*
Y79177D01*
X64323Y85000D02*
X64677D01*
X64500Y84823D02*
Y85177D01*
X65323Y85000D02*
X65677D01*
X65500Y84823D02*
Y85177D01*
X66323Y85000D02*
X66677D01*
X66500Y84823D02*
Y85177D01*
X67323Y85000D02*
X67677D01*
X67500Y84823D02*
Y85177D01*
X68323Y85000D02*
X68677D01*
X68500Y84823D02*
Y85177D01*
X69323Y85000D02*
X69677D01*
X69500Y84823D02*
Y85177D01*
X70323Y85000D02*
X70677D01*
X70500Y84823D02*
Y85177D01*
X71323Y85000D02*
X71677D01*
X71500Y84823D02*
Y85177D01*
X72323Y85000D02*
X72677D01*
X72500Y84823D02*
Y85177D01*
X73323Y85000D02*
X73677D01*
X73500Y84823D02*
Y85177D01*
X74323Y85000D02*
X74677D01*
X74500Y84823D02*
Y85177D01*
X75323Y85000D02*
X75677D01*
X75500Y84823D02*
Y85177D01*
X76323Y85000D02*
X76677D01*
X76500Y84823D02*
Y85177D01*
X77323Y85000D02*
X77677D01*
X77500Y84823D02*
Y85177D01*
X78323Y85000D02*
X78677D01*
X78500Y84823D02*
Y85177D01*
X79323Y85000D02*
X79677D01*
X79500Y84823D02*
Y85177D01*
X80323Y85000D02*
X80677D01*
X80500Y84823D02*
Y85177D01*
X81323Y85000D02*
X81677D01*
X81500Y84823D02*
Y85177D01*
X82323Y85000D02*
X82677D01*
X82500Y84823D02*
Y85177D01*
X83323Y85000D02*
X83677D01*
X83500Y84823D02*
Y85177D01*
X70290Y94995D02*
X70644D01*
X70467Y94818D02*
Y95172D01*
X71290Y94995D02*
X71644D01*
X71467Y94818D02*
Y95172D01*
X72290Y94995D02*
X72644D01*
X72467Y94818D02*
Y95172D01*
X73290Y94995D02*
X73644D01*
X73467Y94818D02*
Y95172D01*
X74290Y94995D02*
X74644D01*
X74467Y94818D02*
Y95172D01*
X75290Y94995D02*
X75644D01*
X75467Y94818D02*
Y95172D01*
X76290Y94995D02*
X76644D01*
X76467Y94818D02*
Y95172D01*
X77290Y94995D02*
X77644D01*
X77467Y94818D02*
Y95172D01*
X70290Y97995D02*
X70644D01*
X70467Y97818D02*
Y98172D01*
X71290Y97995D02*
X71644D01*
X71467Y97818D02*
Y98172D01*
X72290Y97995D02*
X72644D01*
X72467Y97818D02*
Y98172D01*
X73290Y97995D02*
X73644D01*
X73467Y97818D02*
Y98172D01*
X74290Y97995D02*
X74644D01*
X74467Y97818D02*
Y98172D01*
X75290Y97995D02*
X75644D01*
X75467Y97818D02*
Y98172D01*
X76290Y97995D02*
X76644D01*
X76467Y97818D02*
Y98172D01*
X77290Y97995D02*
X77644D01*
X77467Y97818D02*
Y98172D01*
X58193Y71972D02*
X58547D01*
X58370Y71795D02*
Y72150D01*
X57193Y71972D02*
X57547D01*
X57370Y71795D02*
Y72150D01*
X56193Y71972D02*
X56547D01*
X56370Y71795D02*
Y72150D01*
X55193Y71972D02*
X55547D01*
X55370Y71795D02*
Y72150D01*
X54193Y71972D02*
X54547D01*
X54370Y71795D02*
Y72150D01*
X53193Y71972D02*
X53547D01*
X53370Y71795D02*
Y72150D01*
X52193Y71972D02*
X52547D01*
X52370Y71795D02*
Y72150D01*
X51193Y71972D02*
X51547D01*
X51370Y71795D02*
Y72150D01*
X50193Y71972D02*
X50547D01*
X50370Y71795D02*
Y72150D01*
X49193Y71972D02*
X49547D01*
X49370Y71795D02*
Y72150D01*
X48193Y71972D02*
X48547D01*
X48370Y71795D02*
Y72150D01*
X47193Y71972D02*
X47547D01*
X47370Y71795D02*
Y72150D01*
X46193Y71972D02*
X46547D01*
X46370Y71795D02*
Y72150D01*
X45193Y71972D02*
X45547D01*
X45370Y71795D02*
Y72150D01*
X58193Y68972D02*
X58547D01*
X58370Y68795D02*
Y69150D01*
X57193Y68972D02*
X57547D01*
X57370Y68795D02*
Y69150D01*
X56193Y68972D02*
X56547D01*
X56370Y68795D02*
Y69150D01*
X55193Y68972D02*
X55547D01*
X55370Y68795D02*
Y69150D01*
X54193Y68972D02*
X54547D01*
X54370Y68795D02*
Y69150D01*
X53193Y68972D02*
X53547D01*
X53370Y68795D02*
Y69150D01*
X52193Y68972D02*
X52547D01*
X52370Y68795D02*
Y69150D01*
X51193Y68972D02*
X51547D01*
X51370Y68795D02*
Y69150D01*
X50193Y68972D02*
X50547D01*
X50370Y68795D02*
Y69150D01*
X49193Y68972D02*
X49547D01*
X49370Y68795D02*
Y69150D01*
X48193Y68972D02*
X48547D01*
X48370Y68795D02*
Y69150D01*
X47193Y68972D02*
X47547D01*
X47370Y68795D02*
Y69150D01*
X46193Y68972D02*
X46547D01*
X46370Y68795D02*
Y69150D01*
X45193Y68972D02*
X45547D01*
X45370Y68795D02*
Y69150D01*
X58193Y76894D02*
X58547D01*
X58370Y76717D02*
Y77071D01*
X57193Y76894D02*
X57547D01*
X57370Y76717D02*
Y77071D01*
X56193Y76894D02*
X56547D01*
X56370Y76717D02*
Y77071D01*
X55193Y76894D02*
X55547D01*
X55370Y76717D02*
Y77071D01*
X54193Y76894D02*
X54547D01*
X54370Y76717D02*
Y77071D01*
X53193Y76894D02*
X53547D01*
X53370Y76717D02*
Y77071D01*
X52193Y76894D02*
X52547D01*
X52370Y76717D02*
Y77071D01*
X51193Y76894D02*
X51547D01*
X51370Y76717D02*
Y77071D01*
X50193Y76894D02*
X50547D01*
X50370Y76717D02*
Y77071D01*
X49193Y76894D02*
X49547D01*
X49370Y76717D02*
Y77071D01*
X48193Y76894D02*
X48547D01*
X48370Y76717D02*
Y77071D01*
X47193Y76894D02*
X47547D01*
X47370Y76717D02*
Y77071D01*
X46193Y76894D02*
X46547D01*
X46370Y76717D02*
Y77071D01*
X45193Y76894D02*
X45547D01*
X45370Y76717D02*
Y77071D01*
X58193Y73894D02*
X58547D01*
X58370Y73717D02*
Y74071D01*
X57193Y73894D02*
X57547D01*
X57370Y73717D02*
Y74071D01*
X56193Y73894D02*
X56547D01*
X56370Y73717D02*
Y74071D01*
X55193Y73894D02*
X55547D01*
X55370Y73717D02*
Y74071D01*
X54193Y73894D02*
X54547D01*
X54370Y73717D02*
Y74071D01*
X53193Y73894D02*
X53547D01*
X53370Y73717D02*
Y74071D01*
X52193Y73894D02*
X52547D01*
X52370Y73717D02*
Y74071D01*
X51193Y73894D02*
X51547D01*
X51370Y73717D02*
Y74071D01*
X50193Y73894D02*
X50547D01*
X50370Y73717D02*
Y74071D01*
X49193Y73894D02*
X49547D01*
X49370Y73717D02*
Y74071D01*
X48193Y73894D02*
X48547D01*
X48370Y73717D02*
Y74071D01*
X47193Y73894D02*
X47547D01*
X47370Y73717D02*
Y74071D01*
X46193Y73894D02*
X46547D01*
X46370Y73717D02*
Y74071D01*
X45193Y73894D02*
X45547D01*
X45370Y73717D02*
Y74071D01*
X55164Y95361D02*
X55518D01*
X55341Y95184D02*
Y95538D01*
X56164Y95361D02*
X56518D01*
X56341Y95184D02*
Y95538D01*
X57164Y95361D02*
X57518D01*
X57341Y95184D02*
Y95538D01*
X58164Y95361D02*
X58518D01*
X58341Y95184D02*
Y95538D01*
X59164Y95361D02*
X59518D01*
X59341Y95184D02*
Y95538D01*
X60164Y95361D02*
X60518D01*
X60341Y95184D02*
Y95538D01*
X61164Y95361D02*
X61518D01*
X61341Y95184D02*
Y95538D01*
X62164Y95361D02*
X62518D01*
X62341Y95184D02*
Y95538D01*
X63164Y95361D02*
X63518D01*
X63341Y95184D02*
Y95538D01*
X64164Y95361D02*
X64518D01*
X64341Y95184D02*
Y95538D01*
X55164Y98361D02*
X55518D01*
X55341Y98184D02*
Y98538D01*
X56164Y98361D02*
X56518D01*
X56341Y98184D02*
Y98538D01*
X57164Y98361D02*
X57518D01*
X57341Y98184D02*
Y98538D01*
X58164Y98361D02*
X58518D01*
X58341Y98184D02*
Y98538D01*
X59164Y98361D02*
X59518D01*
X59341Y98184D02*
Y98538D01*
X60164Y98361D02*
X60518D01*
X60341Y98184D02*
Y98538D01*
X61164Y98361D02*
X61518D01*
X61341Y98184D02*
Y98538D01*
X62164Y98361D02*
X62518D01*
X62341Y98184D02*
Y98538D01*
X63164Y98361D02*
X63518D01*
X63341Y98184D02*
Y98538D01*
X64164Y98361D02*
X64518D01*
X64341Y98184D02*
Y98538D01*
X43332Y99594D02*
X44734D01*
X44033Y98893D02*
Y100294D01*
X41510Y100572D02*
X42711D01*
X42110Y99971D02*
Y101172D01*
X43439Y101956D02*
X44640D01*
X44039Y101355D02*
Y102556D01*
X54300Y101250D02*
X54700D01*
X54500Y101050D02*
Y101450D01*
X54300Y100250D02*
X54700D01*
X54500Y100050D02*
Y100450D01*
X53300Y101250D02*
X53700D01*
X53500Y101050D02*
Y101450D01*
X53300Y100250D02*
X53700D01*
X53500Y100050D02*
Y100450D01*
X52300Y101250D02*
X52700D01*
X52500Y101050D02*
Y101450D01*
X52300Y100250D02*
X52700D01*
X52500Y100050D02*
Y100450D01*
X51300Y101250D02*
X51700D01*
X51500Y101050D02*
Y101450D01*
X51300Y100250D02*
X51700D01*
X51500Y100050D02*
Y100450D01*
X50300Y101250D02*
X50700D01*
X50500Y101050D02*
Y101450D01*
X50300Y100250D02*
X50700D01*
X50500Y100050D02*
Y100450D01*
X49300Y101250D02*
X49700D01*
X49500Y101050D02*
Y101450D01*
X49300Y100250D02*
X49700D01*
X49500Y100050D02*
Y100450D01*
X48300Y101250D02*
X48700D01*
X48500Y101050D02*
Y101450D01*
X48300Y100250D02*
X48700D01*
X48500Y100050D02*
Y100450D01*
X71925Y101250D02*
X72319D01*
X72122Y101053D02*
Y101447D01*
X72472Y102368D02*
X72866D01*
X72669Y102171D02*
Y102565D01*
X73020Y101250D02*
X73413D01*
X73217Y101053D02*
Y101447D01*
X73567Y102368D02*
X73961D01*
X73764Y102171D02*
Y102565D01*
X74114Y101250D02*
X74508D01*
X74311Y101053D02*
Y101447D01*
X74661Y102368D02*
X75055D01*
X74858Y102171D02*
Y102565D01*
X75209Y101250D02*
X75602D01*
X75406Y101053D02*
Y101447D01*
X75756Y102368D02*
X76150D01*
X75953Y102171D02*
Y102565D01*
X76303Y101250D02*
X76697D01*
X76500Y101053D02*
Y101447D01*
X68742Y101809D02*
X70041D01*
X69392Y101159D02*
Y102459D01*
X78581Y101809D02*
X79880D01*
X79230Y101159D02*
Y102459D01*
X83823Y70000D02*
X84177D01*
X84000Y69823D02*
Y70177D01*
X84573Y75300D02*
X84927D01*
X84750Y75123D02*
Y75477D01*
X81573Y75300D02*
X81927D01*
X81750Y75123D02*
Y75477D01*
X84573Y72300D02*
X84927D01*
X84750Y72123D02*
Y72477D01*
X81573Y72300D02*
X81927D01*
X81750Y72123D02*
Y72477D01*
X70803Y74500D02*
X71197D01*
X71000Y74303D02*
Y74697D01*
X70803Y73500D02*
X71197D01*
X71000Y73303D02*
Y73697D01*
X69803Y74500D02*
X70197D01*
X70000Y74303D02*
Y74697D01*
X69803Y73500D02*
X70197D01*
X70000Y73303D02*
Y73697D01*
X68803Y74500D02*
X69197D01*
X69000Y74303D02*
Y74697D01*
X68803Y73500D02*
X69197D01*
X69000Y73303D02*
Y73697D01*
X67803Y74500D02*
X68197D01*
X68000Y74303D02*
Y74697D01*
X67803Y73500D02*
X68197D01*
X68000Y73303D02*
Y73697D01*
X66803Y74500D02*
X67197D01*
X67000Y74303D02*
Y74697D01*
X66803Y73500D02*
X67197D01*
X67000Y73303D02*
Y73697D01*
X82323Y96300D02*
X82677D01*
X82500Y96123D02*
Y96477D01*
X85323Y96300D02*
X85677D01*
X85500Y96123D02*
Y96477D01*
X82323Y99300D02*
X82677D01*
X82500Y99123D02*
Y99477D01*
X85323Y99300D02*
X85677D01*
X85500Y99123D02*
Y99477D01*
X39409Y103000D02*
X40591D01*
X40000Y102409D02*
Y103591D01*
X39409Y68000D02*
X40591D01*
X40000Y67409D02*
Y68591D01*
X107409Y68000D02*
X108591D01*
X108000Y67409D02*
Y68591D01*
X85409Y103000D02*
X86591D01*
X86000Y102409D02*
Y103591D01*
X85409Y68000D02*
X86591D01*
X86000Y67409D02*
Y68591D01*
X64409Y103000D02*
X65591D01*
X65000Y102409D02*
Y103591D01*
X64409Y68000D02*
X65591D01*
X65000Y67409D02*
Y68591D01*
X61052Y72600D02*
X61348D01*
X61200Y72452D02*
Y72748D01*
X61552Y72600D02*
X61848D01*
X61700Y72452D02*
Y72748D01*
X62052Y72600D02*
X62348D01*
X62200Y72452D02*
Y72748D01*
X90650Y70750D02*
X90950D01*
X90800Y70600D02*
Y70900D01*
X88650Y70750D02*
X88950D01*
X88800Y70600D02*
Y70900D01*
X90650Y71750D02*
X90950D01*
X90800Y71600D02*
Y71900D01*
X88650Y71750D02*
X88950D01*
X88800Y71600D02*
Y71900D01*
X90650Y72750D02*
X90950D01*
X90800Y72600D02*
Y72900D01*
X90650Y73750D02*
X90950D01*
X90800Y73600D02*
Y73900D01*
X90650Y74750D02*
X90950D01*
X90800Y74600D02*
Y74900D01*
X90650Y75750D02*
X90950D01*
X90800Y75600D02*
Y75900D01*
X90650Y76750D02*
X90950D01*
X90800Y76600D02*
Y76900D01*
X90650Y77750D02*
X90950D01*
X90800Y77600D02*
Y77900D01*
X90650Y78750D02*
X90950D01*
X90800Y78600D02*
Y78900D01*
X90650Y79750D02*
X90950D01*
X90800Y79600D02*
Y79900D01*
X90650Y80750D02*
X90950D01*
X90800Y80600D02*
Y80900D01*
X90650Y81750D02*
X90950D01*
X90800Y81600D02*
Y81900D01*
X90650Y82750D02*
X90950D01*
X90800Y82600D02*
Y82900D01*
X90650Y83750D02*
X90950D01*
X90800Y83600D02*
Y83900D01*
X90650Y84750D02*
X90950D01*
X90800Y84600D02*
Y84900D01*
X90650Y85750D02*
X90950D01*
X90800Y85600D02*
Y85900D01*
X90650Y86750D02*
X90950D01*
X90800Y86600D02*
Y86900D01*
X90650Y87750D02*
X90950D01*
X90800Y87600D02*
Y87900D01*
X90650Y88750D02*
X90950D01*
X90800Y88600D02*
Y88900D01*
X90650Y89750D02*
X90950D01*
X90800Y89600D02*
Y89900D01*
X90650Y90750D02*
X90950D01*
X90800Y90600D02*
Y90900D01*
X90650Y91750D02*
X90950D01*
X90800Y91600D02*
Y91900D01*
X90650Y92750D02*
X90950D01*
X90800Y92600D02*
Y92900D01*
X90650Y93750D02*
X90950D01*
X90800Y93600D02*
Y93900D01*
X90650Y94750D02*
X90950D01*
X90800Y94600D02*
Y94900D01*
X90650Y95750D02*
X90950D01*
X90800Y95600D02*
Y95900D01*
X90650Y96750D02*
X90950D01*
X90800Y96600D02*
Y96900D01*
X90650Y97750D02*
X90950D01*
X90800Y97600D02*
Y97900D01*
X90650Y98750D02*
X90950D01*
X90800Y98600D02*
Y98900D01*
X90650Y99750D02*
X90950D01*
X90800Y99600D02*
Y99900D01*
X90650Y100750D02*
X90950D01*
X90800Y100600D02*
Y100900D01*
X88650Y85750D02*
X88950D01*
X88800Y85600D02*
Y85900D01*
X88650Y84750D02*
X88950D01*
X88800Y84600D02*
Y84900D01*
X88650Y83750D02*
X88950D01*
X88800Y83600D02*
Y83900D01*
X88650Y82750D02*
X88950D01*
X88800Y82600D02*
Y82900D01*
X88650Y81750D02*
X88950D01*
X88800Y81600D02*
Y81900D01*
X88650Y80750D02*
X88950D01*
X88800Y80600D02*
Y80900D01*
X88650Y79750D02*
X88950D01*
X88800Y79600D02*
Y79900D01*
X88650Y78750D02*
X88950D01*
X88800Y78600D02*
Y78900D01*
X88650Y77750D02*
X88950D01*
X88800Y77600D02*
Y77900D01*
X88650Y76750D02*
X88950D01*
X88800Y76600D02*
Y76900D01*
X88650Y75750D02*
X88950D01*
X88800Y75600D02*
Y75900D01*
X88650Y74750D02*
X88950D01*
X88800Y74600D02*
Y74900D01*
X88650Y73750D02*
X88950D01*
X88800Y73600D02*
Y73900D01*
X88650Y72750D02*
X88950D01*
X88800Y72600D02*
Y72900D01*
X88650Y86750D02*
X88950D01*
X88800Y86600D02*
Y86900D01*
X88650Y87750D02*
X88950D01*
X88800Y87600D02*
Y87900D01*
X88650Y88750D02*
X88950D01*
X88800Y88600D02*
Y88900D01*
X88650Y89750D02*
X88950D01*
X88800Y89600D02*
Y89900D01*
X88650Y90750D02*
X88950D01*
X88800Y90600D02*
Y90900D01*
X88650Y91750D02*
X88950D01*
X88800Y91600D02*
Y91900D01*
X88650Y92750D02*
X88950D01*
X88800Y92600D02*
Y92900D01*
X88650Y93750D02*
X88950D01*
X88800Y93600D02*
Y93900D01*
X88650Y94750D02*
X88950D01*
X88800Y94600D02*
Y94900D01*
X88650Y95750D02*
X88950D01*
X88800Y95600D02*
Y95900D01*
X88650Y96750D02*
X88950D01*
X88800Y96600D02*
Y96900D01*
X88650Y97750D02*
X88950D01*
X88800Y97600D02*
Y97900D01*
X88650Y98750D02*
X88950D01*
X88800Y98600D02*
Y98900D01*
X88650Y99750D02*
X88950D01*
X88800Y99600D02*
Y99900D01*
X88650Y100750D02*
X88950D01*
X88800Y100600D02*
Y100900D01*
X98650Y70750D02*
X98950D01*
X98800Y70600D02*
Y70900D01*
X96650Y70750D02*
X96950D01*
X96800Y70600D02*
Y70900D01*
X98650Y71750D02*
X98950D01*
X98800Y71600D02*
Y71900D01*
X96650Y71750D02*
X96950D01*
X96800Y71600D02*
Y71900D01*
X98650Y72750D02*
X98950D01*
X98800Y72600D02*
Y72900D01*
X96650Y72750D02*
X96950D01*
X96800Y72600D02*
Y72900D01*
X98650Y73750D02*
X98950D01*
X98800Y73600D02*
Y73900D01*
X96650Y73750D02*
X96950D01*
X96800Y73600D02*
Y73900D01*
X98650Y74750D02*
X98950D01*
X98800Y74600D02*
Y74900D01*
X96650Y74750D02*
X96950D01*
X96800Y74600D02*
Y74900D01*
X98650Y75750D02*
X98950D01*
X98800Y75600D02*
Y75900D01*
X96650Y75750D02*
X96950D01*
X96800Y75600D02*
Y75900D01*
X98650Y76750D02*
X98950D01*
X98800Y76600D02*
Y76900D01*
X96650Y76750D02*
X96950D01*
X96800Y76600D02*
Y76900D01*
X98650Y77750D02*
X98950D01*
X98800Y77600D02*
Y77900D01*
X96650Y77750D02*
X96950D01*
X96800Y77600D02*
Y77900D01*
X98650Y78750D02*
X98950D01*
X98800Y78600D02*
Y78900D01*
X96650Y78750D02*
X96950D01*
X96800Y78600D02*
Y78900D01*
X98650Y79750D02*
X98950D01*
X98800Y79600D02*
Y79900D01*
X96650Y79750D02*
X96950D01*
X96800Y79600D02*
Y79900D01*
X98650Y80750D02*
X98950D01*
X98800Y80600D02*
Y80900D01*
X96650Y80750D02*
X96950D01*
X96800Y80600D02*
Y80900D01*
X98650Y81750D02*
X98950D01*
X98800Y81600D02*
Y81900D01*
X96650Y81750D02*
X96950D01*
X96800Y81600D02*
Y81900D01*
X98650Y82750D02*
X98950D01*
X98800Y82600D02*
Y82900D01*
X96650Y82750D02*
X96950D01*
X96800Y82600D02*
Y82900D01*
X98650Y83750D02*
X98950D01*
X98800Y83600D02*
Y83900D01*
X96650Y83750D02*
X96950D01*
X96800Y83600D02*
Y83900D01*
X98650Y84750D02*
X98950D01*
X98800Y84600D02*
Y84900D01*
X96650Y84750D02*
X96950D01*
X96800Y84600D02*
Y84900D01*
X98650Y85750D02*
X98950D01*
X98800Y85600D02*
Y85900D01*
X96650Y85750D02*
X96950D01*
X96800Y85600D02*
Y85900D01*
X98650Y86750D02*
X98950D01*
X98800Y86600D02*
Y86900D01*
X96650Y86750D02*
X96950D01*
X96800Y86600D02*
Y86900D01*
X98650Y87750D02*
X98950D01*
X98800Y87600D02*
Y87900D01*
X96650Y87750D02*
X96950D01*
X96800Y87600D02*
Y87900D01*
X98650Y88750D02*
X98950D01*
X98800Y88600D02*
Y88900D01*
X96650Y88750D02*
X96950D01*
X96800Y88600D02*
Y88900D01*
X98650Y89750D02*
X98950D01*
X98800Y89600D02*
Y89900D01*
X96650Y89750D02*
X96950D01*
X96800Y89600D02*
Y89900D01*
X98650Y90750D02*
X98950D01*
X98800Y90600D02*
Y90900D01*
X96650Y90750D02*
X96950D01*
X96800Y90600D02*
Y90900D01*
X98650Y91750D02*
X98950D01*
X98800Y91600D02*
Y91900D01*
X96650Y91750D02*
X96950D01*
X96800Y91600D02*
Y91900D01*
X98650Y92750D02*
X98950D01*
X98800Y92600D02*
Y92900D01*
X96650Y92750D02*
X96950D01*
X96800Y92600D02*
Y92900D01*
X98650Y93750D02*
X98950D01*
X98800Y93600D02*
Y93900D01*
X96650Y93750D02*
X96950D01*
X96800Y93600D02*
Y93900D01*
X98650Y94750D02*
X98950D01*
X98800Y94600D02*
Y94900D01*
X96650Y94750D02*
X96950D01*
X96800Y94600D02*
Y94900D01*
X98650Y95750D02*
X98950D01*
X98800Y95600D02*
Y95900D01*
X96650Y95750D02*
X96950D01*
X96800Y95600D02*
Y95900D01*
X98650Y96750D02*
X98950D01*
X98800Y96600D02*
Y96900D01*
X96650Y96750D02*
X96950D01*
X96800Y96600D02*
Y96900D01*
X98650Y97750D02*
X98950D01*
X98800Y97600D02*
Y97900D01*
X96650Y97750D02*
X96950D01*
X96800Y97600D02*
Y97900D01*
X98650Y98750D02*
X98950D01*
X98800Y98600D02*
Y98900D01*
X96650Y98750D02*
X96950D01*
X96800Y98600D02*
Y98900D01*
X98650Y99750D02*
X98950D01*
X98800Y99600D02*
Y99900D01*
X96650Y99750D02*
X96950D01*
X96800Y99600D02*
Y99900D01*
X98650Y100750D02*
X98950D01*
X98800Y100600D02*
Y100900D01*
X96650Y100750D02*
X96950D01*
X96800Y100600D02*
Y100900D01*
X106650Y70750D02*
X106950D01*
X106800Y70600D02*
Y70900D01*
X104650Y70750D02*
X104950D01*
X104800Y70600D02*
Y70900D01*
X106650Y71750D02*
X106950D01*
X106800Y71600D02*
Y71900D01*
X104650Y71750D02*
X104950D01*
X104800Y71600D02*
Y71900D01*
X106650Y72750D02*
X106950D01*
X106800Y72600D02*
Y72900D01*
X104650Y72750D02*
X104950D01*
X104800Y72600D02*
Y72900D01*
X106650Y73750D02*
X106950D01*
X106800Y73600D02*
Y73900D01*
X104650Y73750D02*
X104950D01*
X104800Y73600D02*
Y73900D01*
X106650Y74750D02*
X106950D01*
X106800Y74600D02*
Y74900D01*
X104650Y74750D02*
X104950D01*
X104800Y74600D02*
Y74900D01*
X106650Y75750D02*
X106950D01*
X106800Y75600D02*
Y75900D01*
X104650Y75750D02*
X104950D01*
X104800Y75600D02*
Y75900D01*
X106650Y76750D02*
X106950D01*
X106800Y76600D02*
Y76900D01*
X104650Y76750D02*
X104950D01*
X104800Y76600D02*
Y76900D01*
X106650Y77750D02*
X106950D01*
X106800Y77600D02*
Y77900D01*
X104650Y77750D02*
X104950D01*
X104800Y77600D02*
Y77900D01*
X106650Y78750D02*
X106950D01*
X106800Y78600D02*
Y78900D01*
X104650Y78750D02*
X104950D01*
X104800Y78600D02*
Y78900D01*
X106650Y79750D02*
X106950D01*
X106800Y79600D02*
Y79900D01*
X104650Y79750D02*
X104950D01*
X104800Y79600D02*
Y79900D01*
X106650Y80750D02*
X106950D01*
X106800Y80600D02*
Y80900D01*
X104650Y80750D02*
X104950D01*
X104800Y80600D02*
Y80900D01*
X106650Y81750D02*
X106950D01*
X106800Y81600D02*
Y81900D01*
X104650Y81750D02*
X104950D01*
X104800Y81600D02*
Y81900D01*
X106650Y82750D02*
X106950D01*
X106800Y82600D02*
Y82900D01*
X104650Y82750D02*
X104950D01*
X104800Y82600D02*
Y82900D01*
X106650Y83750D02*
X106950D01*
X106800Y83600D02*
Y83900D01*
X104650Y83750D02*
X104950D01*
X104800Y83600D02*
Y83900D01*
X106650Y84750D02*
X106950D01*
X106800Y84600D02*
Y84900D01*
X104650Y84750D02*
X104950D01*
X104800Y84600D02*
Y84900D01*
X106650Y85750D02*
X106950D01*
X106800Y85600D02*
Y85900D01*
X104650Y85750D02*
X104950D01*
X104800Y85600D02*
Y85900D01*
X106650Y86750D02*
X106950D01*
X106800Y86600D02*
Y86900D01*
X104650Y86750D02*
X104950D01*
X104800Y86600D02*
Y86900D01*
X106650Y87750D02*
X106950D01*
X106800Y87600D02*
Y87900D01*
X104650Y87750D02*
X104950D01*
X104800Y87600D02*
Y87900D01*
X106650Y88750D02*
X106950D01*
X106800Y88600D02*
Y88900D01*
X104650Y88750D02*
X104950D01*
X104800Y88600D02*
Y88900D01*
X106650Y89750D02*
X106950D01*
X106800Y89600D02*
Y89900D01*
X104650Y89750D02*
X104950D01*
X104800Y89600D02*
Y89900D01*
X106650Y90750D02*
X106950D01*
X106800Y90600D02*
Y90900D01*
X104650Y90750D02*
X104950D01*
X104800Y90600D02*
Y90900D01*
X106650Y91750D02*
X106950D01*
X106800Y91600D02*
Y91900D01*
X104650Y91750D02*
X104950D01*
X104800Y91600D02*
Y91900D01*
X106650Y92750D02*
X106950D01*
X106800Y92600D02*
Y92900D01*
X104650Y92750D02*
X104950D01*
X104800Y92600D02*
Y92900D01*
X106650Y93750D02*
X106950D01*
X106800Y93600D02*
Y93900D01*
X104650Y93750D02*
X104950D01*
X104800Y93600D02*
Y93900D01*
X106650Y94750D02*
X106950D01*
X106800Y94600D02*
Y94900D01*
X104650Y94750D02*
X104950D01*
X104800Y94600D02*
Y94900D01*
X106650Y95750D02*
X106950D01*
X106800Y95600D02*
Y95900D01*
X104650Y95750D02*
X104950D01*
X104800Y95600D02*
Y95900D01*
X106650Y96750D02*
X106950D01*
X106800Y96600D02*
Y96900D01*
X104650Y96750D02*
X104950D01*
X104800Y96600D02*
Y96900D01*
X106650Y97750D02*
X106950D01*
X106800Y97600D02*
Y97900D01*
X104650Y97750D02*
X104950D01*
X104800Y97600D02*
Y97900D01*
X106650Y98750D02*
X106950D01*
X106800Y98600D02*
Y98900D01*
X104650Y98750D02*
X104950D01*
X104800Y98600D02*
Y98900D01*
X106650Y99750D02*
X106950D01*
X106800Y99600D02*
Y99900D01*
X104650Y99750D02*
X104950D01*
X104800Y99600D02*
Y99900D01*
X106650Y100750D02*
X106950D01*
X106800Y100600D02*
Y100900D01*
X104650Y100750D02*
X104950D01*
X104800Y100600D02*
Y100900D01*
X45123Y87700D02*
X45477D01*
X45300Y87523D02*
Y87877D01*
X46123Y87700D02*
X46477D01*
X46300Y87523D02*
Y87877D01*
X47123Y87700D02*
X47477D01*
X47300Y87523D02*
Y87877D01*
X48123Y87700D02*
X48477D01*
X48300Y87523D02*
Y87877D01*
X49123Y87700D02*
X49477D01*
X49300Y87523D02*
Y87877D01*
X50123Y87700D02*
X50477D01*
X50300Y87523D02*
Y87877D01*
X51123Y87700D02*
X51477D01*
X51300Y87523D02*
Y87877D01*
X52123Y87700D02*
X52477D01*
X52300Y87523D02*
Y87877D01*
X53123Y87700D02*
X53477D01*
X53300Y87523D02*
Y87877D01*
X54123Y87700D02*
X54477D01*
X54300Y87523D02*
Y87877D01*
X55123Y87700D02*
X55477D01*
X55300Y87523D02*
Y87877D01*
X56123Y87700D02*
X56477D01*
X56300Y87523D02*
Y87877D01*
X57123Y87700D02*
X57477D01*
X57300Y87523D02*
Y87877D01*
X58123Y87700D02*
X58477D01*
X58300Y87523D02*
Y87877D01*
X59123Y87700D02*
X59477D01*
X59300Y87523D02*
Y87877D01*
X60123Y87700D02*
X60477D01*
X60300Y87523D02*
Y87877D01*
X61123Y87700D02*
X61477D01*
X61300Y87523D02*
Y87877D01*
X62123Y87700D02*
X62477D01*
X62300Y87523D02*
Y87877D01*
X63123Y87700D02*
X63477D01*
X63300Y87523D02*
Y87877D01*
X64123Y87700D02*
X64477D01*
X64300Y87523D02*
Y87877D01*
X45123Y93700D02*
X45477D01*
X45300Y93523D02*
Y93877D01*
X46123Y93700D02*
X46477D01*
X46300Y93523D02*
Y93877D01*
X47123Y93700D02*
X47477D01*
X47300Y93523D02*
Y93877D01*
X48123Y93700D02*
X48477D01*
X48300Y93523D02*
Y93877D01*
X49123Y93700D02*
X49477D01*
X49300Y93523D02*
Y93877D01*
X50123Y93700D02*
X50477D01*
X50300Y93523D02*
Y93877D01*
X51123Y93700D02*
X51477D01*
X51300Y93523D02*
Y93877D01*
X52123Y93700D02*
X52477D01*
X52300Y93523D02*
Y93877D01*
X53123Y93700D02*
X53477D01*
X53300Y93523D02*
Y93877D01*
X54123Y93700D02*
X54477D01*
X54300Y93523D02*
Y93877D01*
X55123Y93700D02*
X55477D01*
X55300Y93523D02*
Y93877D01*
X56123Y93700D02*
X56477D01*
X56300Y93523D02*
Y93877D01*
X57123Y93700D02*
X57477D01*
X57300Y93523D02*
Y93877D01*
X58123Y93700D02*
X58477D01*
X58300Y93523D02*
Y93877D01*
X59123Y93700D02*
X59477D01*
X59300Y93523D02*
Y93877D01*
X60123Y93700D02*
X60477D01*
X60300Y93523D02*
Y93877D01*
X61123Y93700D02*
X61477D01*
X61300Y93523D02*
Y93877D01*
X62123Y93700D02*
X62477D01*
X62300Y93523D02*
Y93877D01*
X63123Y93700D02*
X63477D01*
X63300Y93523D02*
Y93877D01*
X64123Y93700D02*
X64477D01*
X64300Y93523D02*
Y93877D01*
X42800Y97000D02*
X43200D01*
X43000Y96800D02*
Y97200D01*
X43800Y97000D02*
X44200D01*
X44000Y96800D02*
Y97200D01*
X44800Y97000D02*
X45200D01*
X45000Y96800D02*
Y97200D01*
X62069Y102894D02*
X62865D01*
X62467Y102496D02*
Y103293D01*
X59500Y103150D02*
X60300D01*
X59900Y102750D02*
Y103550D01*
X56935Y102894D02*
X57731D01*
X57333Y102496D02*
Y103293D01*
X61089Y100689D02*
X61389D01*
X61239Y100539D02*
Y100839D01*
X61089Y101674D02*
X61389D01*
X61239Y101524D02*
Y101824D01*
X60262Y101674D02*
X60562D01*
X60412Y101524D02*
Y101824D01*
X59228Y101674D02*
X59528D01*
X59378Y101524D02*
Y101824D01*
X58411Y101674D02*
X58711D01*
X58561Y101524D02*
Y101824D01*
X58411Y100689D02*
X58711D01*
X58561Y100539D02*
Y100839D01*
X82823Y70000D02*
X83177D01*
X83000Y69823D02*
Y70177D01*
X60205Y69350D02*
X60595D01*
X60400Y69155D02*
Y69545D01*
X62764Y69350D02*
X63154D01*
X62959Y69155D02*
Y69545D01*
X62764Y71122D02*
X63154D01*
X62959Y70927D02*
Y71317D01*
X60205Y71122D02*
X60595D01*
X60400Y70927D02*
Y71317D01*
X41845Y95200D02*
X42255D01*
X42050Y94995D02*
Y95405D01*
X45345Y95200D02*
X45755D01*
X45550Y94995D02*
Y95405D01*
X73905Y90500D02*
X74035D01*
X73970Y90435D02*
Y90565D01*
X84435Y76700D02*
X84565D01*
X84500Y76635D02*
Y76765D01*
X80935Y93300D02*
X81065D01*
X81000Y93235D02*
Y93365D01*
X76935Y94000D02*
X77065D01*
X77000Y93935D02*
Y94065D01*
X71435Y99500D02*
X71565D01*
X71500Y99435D02*
Y99565D01*
X70160Y86275D02*
X70290D01*
X70225Y86210D02*
Y86340D01*
X81210Y86275D02*
X81340D01*
X81275Y86210D02*
Y86340D01*
X71935Y86500D02*
X72065D01*
X72000Y86435D02*
Y86565D01*
X80885Y86500D02*
X81015D01*
X80950Y86435D02*
Y86565D01*
X73785Y86750D02*
X73915D01*
X73850Y86685D02*
Y86815D01*
X80585Y86750D02*
X80715D01*
X80650Y86685D02*
Y86815D01*
X75535Y87000D02*
X75665D01*
X75600Y86935D02*
Y87065D01*
X80265Y87020D02*
X80395D01*
X80330Y86955D02*
Y87085D01*
X74185Y87250D02*
X74315D01*
X74250Y87185D02*
Y87315D01*
X78685Y87250D02*
X78815D01*
X78750Y87185D02*
Y87315D01*
X71935Y87500D02*
X72065D01*
X72000Y87435D02*
Y87565D01*
X78385Y87500D02*
X78515D01*
X78450Y87435D02*
Y87565D01*
X70185Y87350D02*
X70315D01*
X70250Y87285D02*
Y87415D01*
X78060Y87775D02*
X78190D01*
X78125Y87710D02*
Y87840D01*
X73935Y73066D02*
X74065D01*
X74000Y73001D02*
Y73131D01*
X67435Y86300D02*
X67565D01*
X67500Y86235D02*
Y86365D01*
X69635Y86300D02*
X69765D01*
X69700Y86235D02*
Y86365D01*
X69235Y86050D02*
X69365D01*
X69300Y85985D02*
Y86115D01*
X73485Y71150D02*
X73615D01*
X73550Y71085D02*
Y71215D01*
X43635Y77700D02*
X43765D01*
X43700Y77635D02*
Y77765D01*
X74695Y72255D02*
X74825D01*
X74760Y72190D02*
Y72320D01*
X76152Y71040D02*
X76282D01*
X76217Y70975D02*
Y71105D01*
X75695Y71380D02*
X75825D01*
X75760Y71315D02*
Y71445D01*
X75365Y71400D02*
X75495D01*
X75430Y71335D02*
Y71465D01*
X87715Y72730D02*
X87845D01*
X87780Y72665D02*
Y72795D01*
X87575Y73760D02*
X87705D01*
X87640Y73695D02*
Y73825D01*
X87415Y74780D02*
X87545D01*
X87480Y74715D02*
Y74845D01*
X87255Y75770D02*
X87385D01*
X87320Y75705D02*
Y75835D01*
X87085Y76750D02*
X87215D01*
X87150Y76685D02*
Y76815D01*
X75235Y83200D02*
X75365D01*
X75300Y83135D02*
Y83265D01*
X86885Y77750D02*
X87015D01*
X86950Y77685D02*
Y77815D01*
X74443Y83071D02*
X74573D01*
X74508Y83006D02*
Y83136D01*
X86635Y78510D02*
X86765D01*
X86700Y78445D02*
Y78575D01*
X73163Y83268D02*
X73293D01*
X73228Y83203D02*
Y83333D01*
X86405Y78890D02*
X86535D01*
X86470Y78825D02*
Y78955D01*
X86135Y78050D02*
X86265D01*
X86200Y77985D02*
Y78115D01*
X83335Y78250D02*
X83465D01*
X83400Y78185D02*
Y78315D01*
X75235Y71900D02*
X75365D01*
X75300Y71835D02*
Y71965D01*
X78185Y76636D02*
X78315D01*
X78250Y76571D02*
Y76701D01*
X77335Y72300D02*
X77465D01*
X77400Y72235D02*
Y72365D01*
X74985Y76000D02*
X75115D01*
X75050Y75935D02*
Y76065D01*
X68435Y77200D02*
X68565D01*
X68500Y77135D02*
Y77265D01*
X65435Y77000D02*
X65565D01*
X65500Y76935D02*
Y77065D01*
X66435Y87100D02*
X66565D01*
X66500Y87035D02*
Y87165D01*
X81485Y76400D02*
X81615D01*
X81550Y76335D02*
Y76465D01*
X73935Y71100D02*
X74065D01*
X74000Y71035D02*
Y71165D01*
X76435Y74350D02*
X76565D01*
X76500Y74285D02*
Y74415D01*
X52335Y81800D02*
X52465D01*
X52400Y81735D02*
Y81865D01*
X53035Y81900D02*
X53165D01*
X53100Y81835D02*
Y81965D01*
X54135Y81000D02*
X54265D01*
X54200Y80935D02*
Y81065D01*
X76685Y74750D02*
X76815D01*
X76750Y74685D02*
Y74815D01*
X76335Y73900D02*
X76465D01*
X76400Y73835D02*
Y73965D01*
X76785Y73700D02*
X76915D01*
X76850Y73635D02*
Y73765D01*
X57885Y82250D02*
X58015D01*
X57950Y82185D02*
Y82315D01*
X56835Y82300D02*
X56965D01*
X56900Y82235D02*
Y82365D01*
X55835Y82300D02*
X55965D01*
X55900Y82235D02*
Y82365D01*
X54835Y82300D02*
X54965D01*
X54900Y82235D02*
Y82365D01*
X53885Y82250D02*
X54015D01*
X53950Y82185D02*
Y82315D01*
X72135Y77500D02*
X72265D01*
X72200Y77435D02*
Y77565D01*
X73935Y77050D02*
X74065D01*
X74000Y76985D02*
Y77115D01*
X76035Y75395D02*
X76165D01*
X76100Y75330D02*
Y75460D01*
X79376Y75600D02*
X79506D01*
X79441Y75535D02*
Y75665D01*
X79235Y78000D02*
X79365D01*
X79300Y77935D02*
Y78065D01*
X43700Y72965D02*
X43830D01*
X43765Y72900D02*
Y73030D01*
X65485Y94500D02*
X65615D01*
X65550Y94435D02*
Y94565D01*
X63785Y82450D02*
X63915D01*
X63850Y82385D02*
Y82515D01*
X63785Y78100D02*
X63915D01*
X63850Y78035D02*
Y78165D01*
X78035Y72950D02*
X78165D01*
X78100Y72885D02*
Y73015D01*
X80085Y75000D02*
X80215D01*
X80150Y74935D02*
Y75065D01*
X77435Y75300D02*
X77565D01*
X77500Y75235D02*
Y75365D01*
X68435Y87000D02*
X68565D01*
X68500Y86935D02*
Y87065D01*
X55690Y99745D02*
X55820D01*
X55755Y99680D02*
Y99810D01*
X84675Y82220D02*
X84805D01*
X84740Y82155D02*
Y82285D01*
X84095Y82220D02*
X84225D01*
X84160Y82155D02*
Y82285D01*
X58935Y82200D02*
X59065D01*
X59000Y82135D02*
Y82265D01*
X85285Y82200D02*
X85415D01*
X85350Y82135D02*
Y82265D01*
X84385Y81900D02*
X84515D01*
X84450Y81835D02*
Y81965D01*
X83985Y78450D02*
X84115D01*
X84050Y78385D02*
Y78515D01*
X80890Y71895D02*
X81020D01*
X80955Y71830D02*
Y71960D01*
X80385Y71500D02*
X80515D01*
X80450Y71435D02*
Y71565D01*
X80735Y71586D02*
X80865D01*
X80800Y71521D02*
Y71651D01*
X79285Y72600D02*
X79415D01*
X79350Y72535D02*
Y72665D01*
X79130Y72300D02*
X79260D01*
X79195Y72235D02*
Y72365D01*
X82035Y72900D02*
X82165D01*
X82100Y72835D02*
Y72965D01*
X68735Y82400D02*
X68865D01*
X68800Y82335D02*
Y82465D01*
X70435Y82400D02*
X70565D01*
X70500Y82335D02*
Y82465D01*
X74235Y75300D02*
X74365D01*
X74300Y75235D02*
Y75365D01*
X77735Y73700D02*
X77865D01*
X77800Y73635D02*
Y73765D01*
X78235Y74400D02*
X78365D01*
X78300Y74335D02*
Y74465D01*
X76035Y75000D02*
X76165D01*
X76100Y74935D02*
Y75065D01*
X84945Y81900D02*
X85075D01*
X85010Y81835D02*
Y81965D01*
X79635Y93200D02*
X79765D01*
X79700Y93135D02*
Y93265D01*
X79950Y93200D02*
X80080D01*
X80015Y93135D02*
Y93265D01*
X79485Y98900D02*
X79615D01*
X79550Y98835D02*
Y98965D01*
X79137Y97500D02*
X79267D01*
X79202Y97435D02*
Y97565D01*
X79735Y95050D02*
X79865D01*
X79800Y94985D02*
Y95115D01*
X79785Y94600D02*
X79915D01*
X79850Y94535D02*
Y94665D01*
X79485Y87600D02*
X79615D01*
X79550Y87535D02*
Y87665D01*
X76860Y88925D02*
X76990D01*
X76925Y88860D02*
Y88990D01*
X76735Y91450D02*
X76865D01*
X76800Y91385D02*
Y91515D01*
X76810Y92075D02*
X76940D01*
X76875Y92010D02*
Y92140D01*
X78060Y93225D02*
X78190D01*
X78125Y93160D02*
Y93290D01*
X78690Y93395D02*
X78820D01*
X78755Y93330D02*
Y93460D01*
X79320Y93715D02*
X79450D01*
X79385Y93650D02*
Y93780D01*
X83485Y91150D02*
X83615D01*
X83550Y91085D02*
Y91215D01*
X82535Y90500D02*
X82665D01*
X82600Y90435D02*
Y90565D01*
X82985Y90830D02*
X83115D01*
X83050Y90765D02*
Y90895D01*
X84135Y91750D02*
X84265D01*
X84200Y91685D02*
Y91815D01*
X81585Y93900D02*
X81715D01*
X81650Y93835D02*
Y93965D01*
X63885Y87250D02*
X64015D01*
X63950Y87185D02*
Y87315D01*
X66735Y93950D02*
X66865D01*
X66800Y93885D02*
Y94015D01*
X55285Y86450D02*
X55415D01*
X55350Y86385D02*
Y86515D01*
X51585Y86450D02*
X51715D01*
X51650Y86385D02*
Y86515D01*
X59985Y85400D02*
X60115D01*
X60050Y85335D02*
Y85465D01*
X64235Y89950D02*
X64365D01*
X64300Y89885D02*
Y90015D01*
X59225Y78500D02*
X59375D01*
X59300Y78425D02*
Y78575D01*
X46875Y78500D02*
X47025D01*
X46950Y78425D02*
Y78575D01*
X43185Y85050D02*
X43315D01*
X43250Y84985D02*
Y85115D01*
X42885Y93700D02*
X43015D01*
X42950Y93635D02*
Y93765D01*
M02*
