G04 Layer_Color=15132400*
%FSAX24Y24*%
%MOIN*%
G70*
G01*
G75*
%ADD22C,0.0100*%
%ADD23C,0.0200*%
%ADD52C,0.0098*%
%ADD53C,0.0079*%
%ADD54C,0.0236*%
%ADD55C,0.0060*%
%ADD56C,0.0250*%
%ADD57C,0.0050*%
%ADD58R,0.0250X0.1000*%
%ADD59R,0.0299X0.0255*%
%ADD60R,0.0300X0.0255*%
G36*
X074735Y103109D02*
X074026D01*
X074380Y103463D01*
X074735Y103109D01*
D02*
G37*
D22*
X065500Y098250D02*
G03*
X065500Y098250I-000050J000000D01*
G01*
X047600Y099250D02*
G03*
X047600Y099250I-000100J000000D01*
G01*
X052632Y096800D02*
G03*
X052632Y096800I-002032J000000D01*
G01*
X057144Y100000D02*
Y102194D01*
Y103606D02*
Y105000D01*
X062656Y100000D02*
Y102244D01*
Y103550D02*
Y105000D01*
X057144D02*
X062656D01*
X057144Y100000D02*
X062656D01*
X104050Y101750D02*
X107550D01*
Y069750D02*
Y101750D01*
X104050Y069750D02*
X107550D01*
X104050D02*
Y101750D01*
X096050D02*
X099550D01*
Y069750D02*
Y101750D01*
X096050Y069750D02*
X099550D01*
X096050D02*
Y101750D01*
X088050D02*
X091550D01*
Y069750D02*
Y101750D01*
X088050Y069750D02*
X091550D01*
X088050D02*
Y101750D01*
X062000Y073950D02*
Y074250D01*
X074444Y076394D02*
X074656Y076606D01*
X064866Y072228D02*
X073134D01*
X064866Y075772D02*
X073134D01*
Y072228D02*
Y075772D01*
X064866Y072228D02*
Y075772D01*
X060498Y069991D02*
Y070581D01*
X060991Y071467D02*
X062368D01*
X062861Y069991D02*
Y070581D01*
X060991Y069105D02*
X062368D01*
X071850Y077950D02*
Y078250D01*
X082950Y076550D02*
Y076850D01*
X044000Y084850D02*
Y085150D01*
Y077050D02*
Y077350D01*
X044200Y072250D02*
Y072550D01*
X078644Y077256D02*
X078856Y077044D01*
X079824Y071914D02*
X080036Y072126D01*
X074694Y071506D02*
X074906Y071294D01*
X060050Y099000D02*
Y099300D01*
X081100Y094650D02*
Y094950D01*
X064600Y094350D02*
Y094650D01*
X080400Y098750D02*
Y099050D01*
X059850Y094500D02*
Y094800D01*
X078700Y094900D02*
Y095200D01*
X073970Y098560D02*
Y098860D01*
X071800Y098750D02*
Y099050D01*
X078867Y096945D02*
Y097245D01*
X087400Y071100D02*
X087700D01*
X095400Y071050D02*
X095700D01*
X103400D02*
X103700D01*
X056500Y099750D02*
Y105050D01*
X046500D02*
X056500D01*
X046500Y099750D02*
Y105050D01*
Y099750D02*
X056500D01*
Y102250D01*
X046500D02*
X056500D01*
X047650Y096000D02*
X047950D01*
X076467Y098745D02*
Y099045D01*
X073950Y073400D02*
X073350D01*
Y073700D01*
X073450Y073800D01*
X073650D01*
X073750Y073700D01*
Y073400D01*
Y073600D02*
X073950Y073800D01*
Y074000D02*
Y074200D01*
Y074100D01*
X073350D01*
X073450Y074000D01*
X073950Y074500D02*
Y074700D01*
Y074600D01*
X073350D01*
X073450Y074500D01*
X070000Y076000D02*
Y076600D01*
X070300D01*
X070400Y076500D01*
Y076300D01*
X070300Y076200D01*
X070000D01*
X070200D02*
X070400Y076000D01*
X070600D02*
X070800D01*
X070700D01*
Y076600D01*
X070600Y076500D01*
X071100D02*
X071200Y076600D01*
X071400D01*
X071500Y076500D01*
Y076100D01*
X071400Y076000D01*
X071200D01*
X071100Y076100D01*
Y076500D01*
X043300Y094360D02*
Y093760D01*
X043600D01*
X043700Y093860D01*
Y094260D01*
X043600Y094360D01*
X043300D01*
X044300Y093760D02*
X043900D01*
X044300Y094160D01*
Y094260D01*
X044200Y094360D01*
X044000D01*
X043900Y094260D01*
X061260Y099350D02*
X061160Y099450D01*
X060960D01*
X060860Y099350D01*
Y098950D01*
X060960Y098850D01*
X061160D01*
X061260Y098950D01*
X061860Y098850D02*
X061460D01*
X061860Y099250D01*
Y099350D01*
X061760Y099450D01*
X061560D01*
X061460Y099350D01*
X062459Y099450D02*
X062260Y099350D01*
X062060Y099150D01*
Y098950D01*
X062160Y098850D01*
X062360D01*
X062459Y098950D01*
Y099050D01*
X062360Y099150D01*
X062060D01*
X056850Y098800D02*
Y099400D01*
X057150D01*
X057250Y099300D01*
Y099100D01*
X057150Y099000D01*
X056850D01*
X057050D02*
X057250Y098800D01*
X057450Y098900D02*
X057550Y098800D01*
X057750D01*
X057850Y098900D01*
Y099300D01*
X057750Y099400D01*
X057550D01*
X057450Y099300D01*
Y099200D01*
X057550Y099100D01*
X057850D01*
X054250Y098750D02*
Y099350D01*
X054550D01*
X054650Y099250D01*
Y099050D01*
X054550Y098950D01*
X054250D01*
X054450D02*
X054650Y098750D01*
X054850Y099250D02*
X054950Y099350D01*
X055150D01*
X055250Y099250D01*
Y099150D01*
X055150Y099050D01*
X055250Y098950D01*
Y098850D01*
X055150Y098750D01*
X054950D01*
X054850Y098850D01*
Y098950D01*
X054950Y099050D01*
X054850Y099150D01*
Y099250D01*
X054950Y099050D02*
X055150D01*
X063400Y100700D02*
X063200D01*
X063300D01*
Y100200D01*
X063200Y100100D01*
X063100D01*
X063000Y100200D01*
X064000Y100700D02*
X063800Y100600D01*
X063600Y100400D01*
Y100200D01*
X063700Y100100D01*
X063900D01*
X064000Y100200D01*
Y100300D01*
X063900Y100400D01*
X063600D01*
X076600Y070920D02*
Y070420D01*
X076700Y070320D01*
X076900D01*
X077000Y070420D01*
Y070920D01*
X077600D02*
X077400Y070820D01*
X077200Y070620D01*
Y070420D01*
X077300Y070320D01*
X077500D01*
X077600Y070420D01*
Y070520D01*
X077500Y070620D01*
X077200D01*
X082850Y077810D02*
X082750Y077910D01*
X082550D01*
X082450Y077810D01*
Y077410D01*
X082550Y077310D01*
X082750D01*
X082850Y077410D01*
X083450Y077310D02*
X083050D01*
X083450Y077710D01*
Y077810D01*
X083350Y077910D01*
X083150D01*
X083050Y077810D01*
X043800Y076700D02*
X043700Y076800D01*
X043500D01*
X043400Y076700D01*
Y076300D01*
X043500Y076200D01*
X043700D01*
X043800Y076300D01*
X044300Y076200D02*
Y076800D01*
X044000Y076500D01*
X044400D01*
X072000Y082300D02*
Y081700D01*
X072200Y081900D01*
X072400Y081700D01*
Y082300D01*
X073000D02*
X072800Y082200D01*
X072600Y082000D01*
Y081800D01*
X072700Y081700D01*
X072900D01*
X073000Y081800D01*
Y081900D01*
X072900Y082000D01*
X072600D01*
X073599Y082300D02*
X073200D01*
Y082000D01*
X073400Y082100D01*
X073500D01*
X073599Y082000D01*
Y081800D01*
X073500Y081700D01*
X073300D01*
X073200Y081800D01*
X074199Y082200D02*
X074099Y082300D01*
X073899D01*
X073799Y082200D01*
Y081800D01*
X073899Y081700D01*
X074099D01*
X074199Y081800D01*
X074399Y082200D02*
X074499Y082300D01*
X074699D01*
X074799Y082200D01*
Y081800D01*
X074699Y081700D01*
X074499D01*
X074399Y081800D01*
Y082200D01*
X075399Y081700D02*
X074999D01*
X075399Y082100D01*
Y082200D01*
X075299Y082300D01*
X075099D01*
X074999Y082200D01*
X075999D02*
X075899Y082300D01*
X075699D01*
X075599Y082200D01*
Y082100D01*
X075699Y082000D01*
X075899D01*
X075999Y081900D01*
Y081800D01*
X075899Y081700D01*
X075699D01*
X075599Y081800D01*
X062600Y079770D02*
X063100D01*
X063200Y079870D01*
Y080070D01*
X063100Y080170D01*
X062600D01*
X063200Y080770D02*
Y080370D01*
X062800Y080770D01*
X062700D01*
X062600Y080670D01*
Y080470D01*
X062700Y080370D01*
X048160Y081700D02*
Y082100D01*
X048360Y082300D01*
X048560Y082100D01*
Y081700D01*
Y082000D01*
X048160D01*
X048760Y082300D02*
X049160D01*
X048960D01*
Y081700D01*
X049759D02*
X049360D01*
X049759Y082100D01*
Y082200D01*
X049660Y082300D01*
X049460D01*
X049360Y082200D01*
X049959D02*
X050059Y082300D01*
X050259D01*
X050359Y082200D01*
Y082100D01*
X050259Y082000D01*
X050359Y081900D01*
Y081800D01*
X050259Y081700D01*
X050059D01*
X049959Y081800D01*
Y081900D01*
X050059Y082000D01*
X049959Y082100D01*
Y082200D01*
X050059Y082000D02*
X050259D01*
X050959Y082200D02*
X050859Y082300D01*
X050659D01*
X050559Y082200D01*
Y081800D01*
X050659Y081700D01*
X050859D01*
X050959Y081800D01*
X051559Y082300D02*
X051359Y082200D01*
X051159Y082000D01*
Y081800D01*
X051259Y081700D01*
X051459D01*
X051559Y081800D01*
Y081900D01*
X051459Y082000D01*
X051159D01*
X052059Y081700D02*
Y082300D01*
X051759Y082000D01*
X052159D01*
X052359Y082300D02*
Y081700D01*
X052659D01*
X052759Y081800D01*
Y081900D01*
X052659Y082000D01*
X052359D01*
X052659D01*
X052759Y082100D01*
Y082200D01*
X052659Y082300D01*
X052359D01*
X052958Y082000D02*
X053358D01*
X053558Y081700D02*
X053758D01*
X053658D01*
Y082300D01*
X053558Y082200D01*
X054458Y082300D02*
X054058D01*
Y082000D01*
X054258Y082100D01*
X054358D01*
X054458Y082000D01*
Y081800D01*
X054358Y081700D01*
X054158D01*
X054058Y081800D01*
X054658Y081700D02*
Y082300D01*
X054958D01*
X055058Y082200D01*
Y082000D01*
X054958Y081900D01*
X054658D01*
X055258Y082300D02*
Y081800D01*
X055358Y081700D01*
X055558D01*
X055658Y081800D01*
Y082300D01*
X043400Y079400D02*
X043900D01*
X044000Y079500D01*
Y079700D01*
X043900Y079800D01*
X043400D01*
X043500Y080000D02*
X043400Y080100D01*
Y080300D01*
X043500Y080400D01*
X043600D01*
X043700Y080300D01*
Y080200D01*
Y080300D01*
X043800Y080400D01*
X043900D01*
X044000Y080300D01*
Y080100D01*
X043900Y080000D01*
X047970Y075590D02*
X047870Y075690D01*
X047670D01*
X047570Y075590D01*
Y075190D01*
X047670Y075090D01*
X047870D01*
X047970Y075190D01*
X048170Y075690D02*
Y075590D01*
X048370Y075390D01*
X048570Y075590D01*
Y075690D01*
X048370Y075390D02*
Y075090D01*
X048770Y075690D02*
X049169D01*
Y075590D01*
X048770Y075190D01*
Y075090D01*
X049769Y075590D02*
X049669Y075690D01*
X049469D01*
X049369Y075590D01*
Y075190D01*
X049469Y075090D01*
X049669D01*
X049769Y075190D01*
X049969Y075090D02*
X050169D01*
X050069D01*
Y075690D01*
X049969Y075590D01*
X050469Y075190D02*
X050569Y075090D01*
X050769D01*
X050869Y075190D01*
Y075590D01*
X050769Y075690D01*
X050569D01*
X050469Y075590D01*
Y075490D01*
X050569Y075390D01*
X050869D01*
X051069Y075190D02*
X051169Y075090D01*
X051369D01*
X051469Y075190D01*
Y075590D01*
X051369Y075690D01*
X051169D01*
X051069Y075590D01*
Y075490D01*
X051169Y075390D01*
X051469D01*
X052069Y075590D02*
X051969Y075690D01*
X051769D01*
X051669Y075590D01*
Y075190D01*
X051769Y075090D01*
X051969D01*
X052069Y075190D01*
X052268Y075090D02*
Y075690D01*
X052668Y075090D01*
Y075690D01*
X052868Y075390D02*
X053268D01*
X053468Y075090D02*
X053668D01*
X053568D01*
Y075690D01*
X053468Y075590D01*
X054368Y075690D02*
X053968D01*
Y075390D01*
X054168Y075490D01*
X054268D01*
X054368Y075390D01*
Y075190D01*
X054268Y075090D01*
X054068D01*
X053968Y075190D01*
X054568Y075090D02*
Y075690D01*
X054868D01*
X054968Y075590D01*
Y075390D01*
X054868Y075290D01*
X054568D01*
X055168Y075690D02*
X055567Y075090D01*
Y075690D02*
X055168Y075090D01*
X056167Y075590D02*
X056067Y075690D01*
X055867D01*
X055767Y075590D01*
Y075190D01*
X055867Y075090D01*
X056067D01*
X056167Y075190D01*
X043800Y074400D02*
X044300D01*
X044400Y074500D01*
Y074700D01*
X044300Y074800D01*
X043800D01*
X044400Y075300D02*
X043800D01*
X044100Y075000D01*
Y075400D01*
X047970Y070670D02*
X047870Y070770D01*
X047670D01*
X047570Y070670D01*
Y070270D01*
X047670Y070170D01*
X047870D01*
X047970Y070270D01*
X048170Y070770D02*
Y070670D01*
X048370Y070470D01*
X048570Y070670D01*
Y070770D01*
X048370Y070470D02*
Y070170D01*
X048770Y070770D02*
X049169D01*
Y070670D01*
X048770Y070270D01*
Y070170D01*
X049769Y070670D02*
X049669Y070770D01*
X049469D01*
X049369Y070670D01*
Y070270D01*
X049469Y070170D01*
X049669D01*
X049769Y070270D01*
X049969Y070170D02*
X050169D01*
X050069D01*
Y070770D01*
X049969Y070670D01*
X050469Y070270D02*
X050569Y070170D01*
X050769D01*
X050869Y070270D01*
Y070670D01*
X050769Y070770D01*
X050569D01*
X050469Y070670D01*
Y070570D01*
X050569Y070470D01*
X050869D01*
X051069Y070270D02*
X051169Y070170D01*
X051369D01*
X051469Y070270D01*
Y070670D01*
X051369Y070770D01*
X051169D01*
X051069Y070670D01*
Y070570D01*
X051169Y070470D01*
X051469D01*
X052069Y070670D02*
X051969Y070770D01*
X051769D01*
X051669Y070670D01*
Y070270D01*
X051769Y070170D01*
X051969D01*
X052069Y070270D01*
X052268Y070170D02*
Y070770D01*
X052668Y070170D01*
Y070770D01*
X052868Y070470D02*
X053268D01*
X053468Y070170D02*
X053668D01*
X053568D01*
Y070770D01*
X053468Y070670D01*
X054368Y070770D02*
X053968D01*
Y070470D01*
X054168Y070570D01*
X054268D01*
X054368Y070470D01*
Y070270D01*
X054268Y070170D01*
X054068D01*
X053968Y070270D01*
X054568Y070170D02*
Y070770D01*
X054868D01*
X054968Y070670D01*
Y070470D01*
X054868Y070370D01*
X054568D01*
X055168Y070770D02*
X055567Y070170D01*
Y070770D02*
X055168Y070170D01*
X056167Y070670D02*
X056067Y070770D01*
X055867D01*
X055767Y070670D01*
Y070270D01*
X055867Y070170D01*
X056067D01*
X056167Y070270D01*
X043800Y069400D02*
X044300D01*
X044400Y069500D01*
Y069700D01*
X044300Y069800D01*
X043800D01*
Y070400D02*
Y070000D01*
X044100D01*
X044000Y070200D01*
Y070300D01*
X044100Y070400D01*
X044300D01*
X044400Y070300D01*
Y070100D01*
X044300Y070000D01*
X082000Y095000D02*
Y094900D01*
X082200Y094700D01*
X082400Y094900D01*
Y095000D01*
X082200Y094700D02*
Y094400D01*
X083000D02*
X082600D01*
X083000Y094800D01*
Y094900D01*
X082900Y095000D01*
X082700D01*
X082600Y094900D01*
X073050Y091000D02*
Y090400D01*
X073250Y090600D01*
X073450Y090400D01*
Y091000D01*
X074050D02*
X073850Y090900D01*
X073650Y090700D01*
Y090500D01*
X073750Y090400D01*
X073950D01*
X074050Y090500D01*
Y090600D01*
X073950Y090700D01*
X073650D01*
X074649Y091000D02*
X074250D01*
Y090700D01*
X074450Y090800D01*
X074550D01*
X074649Y090700D01*
Y090500D01*
X074550Y090400D01*
X074350D01*
X074250Y090500D01*
X075249Y090900D02*
X075149Y091000D01*
X074949D01*
X074849Y090900D01*
Y090500D01*
X074949Y090400D01*
X075149D01*
X075249Y090500D01*
X075849Y091000D02*
X075449D01*
Y090700D01*
X075649Y090800D01*
X075749D01*
X075849Y090700D01*
Y090500D01*
X075749Y090400D01*
X075549D01*
X075449Y090500D01*
X076049Y090400D02*
X076249D01*
X076149D01*
Y091000D01*
X076049Y090900D01*
X076549Y090400D02*
Y091000D01*
X076949Y090400D01*
Y091000D01*
X083800Y093200D02*
X083300D01*
X083200Y093100D01*
Y092900D01*
X083300Y092800D01*
X083800D01*
X083300Y092600D02*
X083200Y092500D01*
Y092300D01*
X083300Y092200D01*
X083700D01*
X083800Y092300D01*
Y092500D01*
X083700Y092600D01*
X083600D01*
X083500Y092500D01*
Y092200D01*
X071500Y077600D02*
X071400Y077700D01*
X071200D01*
X071100Y077600D01*
Y077200D01*
X071200Y077100D01*
X071400D01*
X071500Y077200D01*
X071700Y077100D02*
X071900D01*
X071800D01*
Y077700D01*
X071700Y077600D01*
X043800Y071700D02*
X043700Y071800D01*
X043500D01*
X043400Y071700D01*
Y071300D01*
X043500Y071200D01*
X043700D01*
X043800Y071300D01*
X044400Y071800D02*
X044000D01*
Y071500D01*
X044200Y071600D01*
X044300D01*
X044400Y071500D01*
Y071300D01*
X044300Y071200D01*
X044100D01*
X044000Y071300D01*
X074460Y077910D02*
X074360Y078010D01*
X074160D01*
X074060Y077910D01*
Y077510D01*
X074160Y077410D01*
X074360D01*
X074460Y077510D01*
X074660Y078010D02*
X075060D01*
Y077910D01*
X074660Y077510D01*
Y077410D01*
X078000Y078050D02*
X077900Y078150D01*
X077700D01*
X077600Y078050D01*
Y077650D01*
X077700Y077550D01*
X077900D01*
X078000Y077650D01*
X078200Y078050D02*
X078300Y078150D01*
X078500D01*
X078600Y078050D01*
Y077950D01*
X078500Y077850D01*
X078600Y077750D01*
Y077650D01*
X078500Y077550D01*
X078300D01*
X078200Y077650D01*
Y077750D01*
X078300Y077850D01*
X078200Y077950D01*
Y078050D01*
X078300Y077850D02*
X078500D01*
X079830Y070940D02*
X079730Y071040D01*
X079530D01*
X079430Y070940D01*
Y070540D01*
X079530Y070440D01*
X079730D01*
X079830Y070540D01*
X080030D02*
X080130Y070440D01*
X080330D01*
X080430Y070540D01*
Y070940D01*
X080330Y071040D01*
X080130D01*
X080030Y070940D01*
Y070840D01*
X080130Y070740D01*
X080430D01*
X074200Y070500D02*
X074100Y070600D01*
X073900D01*
X073800Y070500D01*
Y070100D01*
X073900Y070000D01*
X074100D01*
X074200Y070100D01*
X074400Y070000D02*
X074600D01*
X074500D01*
Y070600D01*
X074400Y070500D01*
X074900D02*
X075000Y070600D01*
X075200D01*
X075300Y070500D01*
Y070100D01*
X075200Y070000D01*
X075000D01*
X074900Y070100D01*
Y070500D01*
X080400Y095700D02*
X080300Y095800D01*
X080100D01*
X080000Y095700D01*
Y095300D01*
X080100Y095200D01*
X080300D01*
X080400Y095300D01*
X080600Y095200D02*
X080800D01*
X080700D01*
Y095800D01*
X080600Y095700D01*
X081100Y095200D02*
X081300D01*
X081200D01*
Y095800D01*
X081100Y095700D01*
X062540Y094700D02*
X062440Y094800D01*
X062240D01*
X062140Y094700D01*
Y094300D01*
X062240Y094200D01*
X062440D01*
X062540Y094300D01*
X062740Y094200D02*
X062940D01*
X062840D01*
Y094800D01*
X062740Y094700D01*
X063640Y094200D02*
X063240D01*
X063640Y094600D01*
Y094700D01*
X063540Y094800D01*
X063340D01*
X063240Y094700D01*
X073720Y099610D02*
X073620Y099710D01*
X073420D01*
X073320Y099610D01*
Y099210D01*
X073420Y099110D01*
X073620D01*
X073720Y099210D01*
X073920Y099110D02*
X074120D01*
X074020D01*
Y099710D01*
X073920Y099610D01*
X074420D02*
X074520Y099710D01*
X074720D01*
X074820Y099610D01*
Y099510D01*
X074720Y099410D01*
X074620D01*
X074720D01*
X074820Y099310D01*
Y099210D01*
X074720Y099110D01*
X074520D01*
X074420Y099210D01*
X080100Y098300D02*
X080000Y098400D01*
X079800D01*
X079700Y098300D01*
Y097900D01*
X079800Y097800D01*
X080000D01*
X080100Y097900D01*
X080300Y097800D02*
X080500D01*
X080400D01*
Y098400D01*
X080300Y098300D01*
X081100Y097800D02*
Y098400D01*
X080800Y098100D01*
X081200D01*
X069740Y099100D02*
X069640Y099200D01*
X069440D01*
X069340Y099100D01*
Y098700D01*
X069440Y098600D01*
X069640D01*
X069740Y098700D01*
X069940Y098600D02*
X070140D01*
X070040D01*
Y099200D01*
X069940Y099100D01*
X070840Y099200D02*
X070440D01*
Y098900D01*
X070640Y099000D01*
X070740D01*
X070840Y098900D01*
Y098700D01*
X070740Y098600D01*
X070540D01*
X070440Y098700D01*
X057790Y094850D02*
X057690Y094950D01*
X057490D01*
X057390Y094850D01*
Y094450D01*
X057490Y094350D01*
X057690D01*
X057790Y094450D01*
X057990Y094350D02*
X058190D01*
X058090D01*
Y094950D01*
X057990Y094850D01*
X058890Y094950D02*
X058690Y094850D01*
X058490Y094650D01*
Y094450D01*
X058590Y094350D01*
X058790D01*
X058890Y094450D01*
Y094550D01*
X058790Y094650D01*
X058490D01*
X078550Y096050D02*
X078450Y096150D01*
X078250D01*
X078150Y096050D01*
Y095650D01*
X078250Y095550D01*
X078450D01*
X078550Y095650D01*
X078750Y095550D02*
X078950D01*
X078850D01*
Y096150D01*
X078750Y096050D01*
X079250Y096150D02*
X079650D01*
Y096050D01*
X079250Y095650D01*
Y095550D01*
X080050Y097400D02*
X079950Y097500D01*
X079750D01*
X079650Y097400D01*
Y097000D01*
X079750Y096900D01*
X079950D01*
X080050Y097000D01*
X080250Y096900D02*
X080450D01*
X080350D01*
Y097500D01*
X080250Y097400D01*
X080750D02*
X080850Y097500D01*
X081050D01*
X081150Y097400D01*
Y097300D01*
X081050Y097200D01*
X081150Y097100D01*
Y097000D01*
X081050Y096900D01*
X080850D01*
X080750Y097000D01*
Y097100D01*
X080850Y097200D01*
X080750Y097300D01*
Y097400D01*
X080850Y097200D02*
X081050D01*
X076200Y099900D02*
X076100Y100000D01*
X075900D01*
X075800Y099900D01*
Y099500D01*
X075900Y099400D01*
X076100D01*
X076200Y099500D01*
X076400Y099400D02*
X076600D01*
X076500D01*
Y100000D01*
X076400Y099900D01*
X076900Y099500D02*
X077000Y099400D01*
X077200D01*
X077300Y099500D01*
Y099900D01*
X077200Y100000D01*
X077000D01*
X076900Y099900D01*
Y099800D01*
X077000Y099700D01*
X077300D01*
X040600Y095300D02*
X040500Y095400D01*
X040300D01*
X040200Y095300D01*
Y094900D01*
X040300Y094800D01*
X040500D01*
X040600Y094900D01*
X041200Y094800D02*
X040800D01*
X041200Y095200D01*
Y095300D01*
X041100Y095400D01*
X040900D01*
X040800Y095300D01*
X041400Y094800D02*
X041600D01*
X041500D01*
Y095400D01*
X041400Y095300D01*
X047600Y095100D02*
X047500Y095200D01*
X047300D01*
X047200Y095100D01*
Y094700D01*
X047300Y094600D01*
X047500D01*
X047600Y094700D01*
X048200Y094600D02*
X047800D01*
X048200Y095000D01*
Y095100D01*
X048100Y095200D01*
X047900D01*
X047800Y095100D01*
X048400D02*
X048500Y095200D01*
X048700D01*
X048799Y095100D01*
Y095000D01*
X048700Y094900D01*
X048600D01*
X048700D01*
X048799Y094800D01*
Y094700D01*
X048700Y094600D01*
X048500D01*
X048400Y094700D01*
X053600Y097150D02*
X053700Y097250D01*
Y097450D01*
X053600Y097550D01*
X053200D01*
X053100Y097450D01*
Y097250D01*
X053200Y097150D01*
X053100Y096550D02*
Y096950D01*
X053500Y096550D01*
X053600D01*
X053700Y096650D01*
Y096850D01*
X053600Y096950D01*
X053100Y096050D02*
X053700D01*
X053400Y096350D01*
Y095951D01*
X047400Y087100D02*
Y086500D01*
X047700D01*
X047800Y086600D01*
Y087000D01*
X047700Y087100D01*
X047400D01*
X048000Y086500D02*
X048200D01*
X048100D01*
Y087100D01*
X048000Y087000D01*
X040400Y100100D02*
X040200D01*
X040300D01*
Y099600D01*
X040200Y099500D01*
X040100D01*
X040000Y099600D01*
X040600Y099500D02*
X040800D01*
X040700D01*
Y100100D01*
X040600Y100000D01*
X048650Y099520D02*
X048450D01*
X048550D01*
Y099020D01*
X048450Y098920D01*
X048350D01*
X048250Y099020D01*
X049250Y098920D02*
X048850D01*
X049250Y099320D01*
Y099420D01*
X049150Y099520D01*
X048950D01*
X048850Y099420D01*
X080170Y100160D02*
X079970D01*
X080070D01*
Y099660D01*
X079970Y099560D01*
X079870D01*
X079770Y099660D01*
X080370Y100060D02*
X080470Y100160D01*
X080670D01*
X080770Y100060D01*
Y099960D01*
X080670Y099860D01*
X080570D01*
X080670D01*
X080770Y099760D01*
Y099660D01*
X080670Y099560D01*
X080470D01*
X080370Y099660D01*
X067100Y099600D02*
X066900D01*
X067000D01*
Y099100D01*
X066900Y099000D01*
X066800D01*
X066700Y099100D01*
X067600Y099000D02*
Y099600D01*
X067300Y099300D01*
X067700D01*
X065450Y072000D02*
X065250D01*
X065350D01*
Y071500D01*
X065250Y071400D01*
X065150D01*
X065050Y071500D01*
X066050Y072000D02*
X065650D01*
Y071700D01*
X065850Y071800D01*
X065950D01*
X066050Y071700D01*
Y071500D01*
X065950Y071400D01*
X065750D01*
X065650Y071500D01*
X066100Y077550D02*
Y078150D01*
X066400D01*
X066500Y078050D01*
Y077850D01*
X066400Y077750D01*
X066100D01*
X066300D02*
X066500Y077550D01*
X066700D02*
X066900D01*
X066800D01*
Y078150D01*
X066700Y078050D01*
X067950Y077550D02*
Y078150D01*
X068250D01*
X068350Y078050D01*
Y077850D01*
X068250Y077750D01*
X067950D01*
X068150D02*
X068350Y077550D01*
X068950D02*
X068550D01*
X068950Y077950D01*
Y078050D01*
X068850Y078150D01*
X068650D01*
X068550Y078050D01*
X063800Y077200D02*
Y077800D01*
X064100D01*
X064200Y077700D01*
Y077500D01*
X064100Y077400D01*
X063800D01*
X064000D02*
X064200Y077200D01*
X064400Y077700D02*
X064500Y077800D01*
X064700D01*
X064800Y077700D01*
Y077600D01*
X064700Y077500D01*
X064600D01*
X064700D01*
X064800Y077400D01*
Y077300D01*
X064700Y077200D01*
X064500D01*
X064400Y077300D01*
X065000Y085750D02*
Y086350D01*
X065300D01*
X065400Y086250D01*
Y086050D01*
X065300Y085950D01*
X065000D01*
X065200D02*
X065400Y085750D01*
X065900D02*
Y086350D01*
X065600Y086050D01*
X066000D01*
X069220Y085900D02*
Y086500D01*
X069520D01*
X069620Y086400D01*
Y086200D01*
X069520Y086100D01*
X069220D01*
X069420D02*
X069620Y085900D01*
X070220Y086500D02*
X069820D01*
Y086200D01*
X070020Y086300D01*
X070120D01*
X070220Y086200D01*
Y086000D01*
X070120Y085900D01*
X069920D01*
X069820Y086000D01*
X088900Y069300D02*
X088800Y069400D01*
X088600D01*
X088500Y069300D01*
Y069200D01*
X088600Y069100D01*
X088800D01*
X088900Y069000D01*
Y068900D01*
X088800Y068800D01*
X088600D01*
X088500Y068900D01*
X089100Y069400D02*
Y068800D01*
X089500D01*
X090000Y069400D02*
X089800D01*
X089700Y069300D01*
Y068900D01*
X089800Y068800D01*
X090000D01*
X090099Y068900D01*
Y069300D01*
X090000Y069400D01*
X090299D02*
X090699D01*
X090499D01*
Y068800D01*
X090899D02*
X091099D01*
X090999D01*
Y069400D01*
X090899Y069300D01*
X096800D02*
X096700Y069400D01*
X096500D01*
X096400Y069300D01*
Y069200D01*
X096500Y069100D01*
X096700D01*
X096800Y069000D01*
Y068900D01*
X096700Y068800D01*
X096500D01*
X096400Y068900D01*
X097000Y069400D02*
Y068800D01*
X097400D01*
X097900Y069400D02*
X097700D01*
X097600Y069300D01*
Y068900D01*
X097700Y068800D01*
X097900D01*
X097999Y068900D01*
Y069300D01*
X097900Y069400D01*
X098199D02*
X098599D01*
X098399D01*
Y068800D01*
X099199D02*
X098799D01*
X099199Y069200D01*
Y069300D01*
X099099Y069400D01*
X098899D01*
X098799Y069300D01*
X104800D02*
X104700Y069400D01*
X104500D01*
X104400Y069300D01*
Y069200D01*
X104500Y069100D01*
X104700D01*
X104800Y069000D01*
Y068900D01*
X104700Y068800D01*
X104500D01*
X104400Y068900D01*
X105000Y069400D02*
Y068800D01*
X105400D01*
X105900Y069400D02*
X105700D01*
X105600Y069300D01*
Y068900D01*
X105700Y068800D01*
X105900D01*
X105999Y068900D01*
Y069300D01*
X105900Y069400D01*
X106199D02*
X106599D01*
X106399D01*
Y068800D01*
X106799Y069300D02*
X106899Y069400D01*
X107099D01*
X107199Y069300D01*
Y069200D01*
X107099Y069100D01*
X106999D01*
X107099D01*
X107199Y069000D01*
Y068900D01*
X107099Y068800D01*
X106899D01*
X106799Y068900D01*
X056190Y096660D02*
Y097060D01*
X056390Y097260D01*
X056590Y097060D01*
Y096660D01*
Y096960D01*
X056190D01*
X056790Y097260D02*
X057190D01*
X056990D01*
Y096660D01*
X057490Y097160D02*
Y097060D01*
X057390D01*
X057590D01*
X057490D01*
Y096760D01*
X057590Y096660D01*
X057889D02*
X058089D01*
X057989D01*
Y097060D01*
X057889D01*
X058389Y096660D02*
Y097060D01*
X058689D01*
X058789Y096960D01*
Y096660D01*
X058989Y097060D02*
Y096760D01*
X059089Y096660D01*
X059389D01*
Y096560D01*
X059289Y096460D01*
X059189D01*
X059389Y096660D02*
Y097060D01*
X059589Y097160D02*
X059689Y097260D01*
X059889D01*
X059989Y097160D01*
Y097060D01*
X059889Y096960D01*
X059989Y096860D01*
Y096760D01*
X059889Y096660D01*
X059689D01*
X059589Y096760D01*
Y096860D01*
X059689Y096960D01*
X059589Y097060D01*
Y097160D01*
X059689Y096960D02*
X059889D01*
X060589Y097260D02*
X060389Y097160D01*
X060189Y096960D01*
Y096760D01*
X060289Y096660D01*
X060489D01*
X060589Y096760D01*
Y096860D01*
X060489Y096960D01*
X060189D01*
X060789Y096660D02*
X060988D01*
X060888D01*
Y097260D01*
X060789Y097160D01*
X061288Y096660D02*
Y097060D01*
X061488Y097260D01*
X061688Y097060D01*
Y096660D01*
Y096960D01*
X061288D01*
X061888D02*
X062288D01*
X062488Y096660D02*
Y097260D01*
X062788D01*
X062888Y097160D01*
Y096960D01*
X062788Y096860D01*
X062488D01*
X063088Y097260D02*
Y096760D01*
X063188Y096660D01*
X063388D01*
X063488Y096760D01*
Y097260D01*
X065800Y095800D02*
X065300D01*
X065200Y095700D01*
Y095500D01*
X065300Y095400D01*
X065800D01*
Y095200D02*
Y094800D01*
X065700D01*
X065300Y095200D01*
X065200D01*
X052800Y091000D02*
Y090400D01*
X053000Y090600D01*
X053200Y090400D01*
Y091000D01*
X053800D02*
X053600Y090900D01*
X053400Y090700D01*
Y090500D01*
X053500Y090400D01*
X053700D01*
X053800Y090500D01*
Y090600D01*
X053700Y090700D01*
X053400D01*
X054399Y091000D02*
X054000D01*
Y090700D01*
X054200Y090800D01*
X054300D01*
X054399Y090700D01*
Y090500D01*
X054300Y090400D01*
X054100D01*
X054000Y090500D01*
X054999Y090900D02*
X054899Y091000D01*
X054699D01*
X054599Y090900D01*
Y090500D01*
X054699Y090400D01*
X054899D01*
X054999Y090500D01*
X055599Y090400D02*
X055199D01*
X055599Y090800D01*
Y090900D01*
X055499Y091000D01*
X055299D01*
X055199Y090900D01*
X056199Y090400D02*
X055799D01*
X056199Y090800D01*
Y090900D01*
X056099Y091000D01*
X055899D01*
X055799Y090900D01*
X056399Y090400D02*
Y091000D01*
X056799Y090400D01*
Y091000D01*
X066400Y093200D02*
X065900D01*
X065800Y093100D01*
Y092900D01*
X065900Y092800D01*
X066400D01*
X065800Y092600D02*
Y092400D01*
Y092500D01*
X066400D01*
X066300Y092600D01*
Y092100D02*
X066400Y092000D01*
Y091800D01*
X066300Y091700D01*
X065900D01*
X065800Y091800D01*
Y092000D01*
X065900Y092100D01*
X066300D01*
X039800Y096400D02*
X040300D01*
X040400Y096500D01*
Y096700D01*
X040300Y096800D01*
X039800D01*
X040400Y097000D02*
Y097200D01*
Y097100D01*
X039800D01*
X039900Y097000D01*
X040400Y097500D02*
Y097700D01*
Y097600D01*
X039800D01*
X039900Y097500D01*
X084600Y071000D02*
Y070900D01*
X084800Y070700D01*
X085000Y070900D01*
Y071000D01*
X084800Y070700D02*
Y070400D01*
X085200D02*
X085400D01*
X085300D01*
Y071000D01*
X085200Y070900D01*
X071970Y096190D02*
Y096790D01*
X072170Y096590D01*
X072370Y096790D01*
Y096190D01*
X072570D02*
Y096590D01*
X072770Y096790D01*
X072970Y096590D01*
Y096190D01*
Y096490D01*
X072570D01*
X073170Y096790D02*
X073569Y096190D01*
Y096790D02*
X073170Y096190D01*
X074169D02*
X073769D01*
X074169Y096590D01*
Y096690D01*
X074069Y096790D01*
X073869D01*
X073769Y096690D01*
X074369D02*
X074469Y096790D01*
X074669D01*
X074769Y096690D01*
Y096590D01*
X074669Y096490D01*
X074569D01*
X074669D01*
X074769Y096390D01*
Y096290D01*
X074669Y096190D01*
X074469D01*
X074369Y096290D01*
X075369Y096190D02*
X074969D01*
X075369Y096590D01*
Y096690D01*
X075269Y096790D01*
X075069D01*
X074969Y096690D01*
X075569Y096190D02*
Y096790D01*
X075969Y096190D01*
Y096790D01*
X078950Y098800D02*
X078450D01*
X078350Y098700D01*
Y098500D01*
X078450Y098400D01*
X078950D01*
X078850Y098200D02*
X078950Y098100D01*
Y097900D01*
X078850Y097800D01*
X078750D01*
X078650Y097900D01*
X078550Y097800D01*
X078450D01*
X078350Y097900D01*
Y098100D01*
X078450Y098200D01*
X078550D01*
X078650Y098100D01*
X078750Y098200D01*
X078850D01*
X078650Y098100D02*
Y097900D01*
X067350Y094850D02*
Y095450D01*
X067650D01*
X067750Y095350D01*
Y095150D01*
X067650Y095050D01*
X067350D01*
X067550D02*
X067750Y094850D01*
X068350Y095450D02*
X068150Y095350D01*
X067950Y095150D01*
Y094950D01*
X068050Y094850D01*
X068250D01*
X068350Y094950D01*
Y095050D01*
X068250Y095150D01*
X067950D01*
X072050Y071150D02*
Y071750D01*
X072350D01*
X072450Y071650D01*
Y071450D01*
X072350Y071350D01*
X072050D01*
X072250D02*
X072450Y071150D01*
X072650Y071750D02*
X073050D01*
Y071650D01*
X072650Y071250D01*
Y071150D01*
X043400Y084500D02*
X043300Y084600D01*
X043100D01*
X043000Y084500D01*
Y084100D01*
X043100Y084000D01*
X043300D01*
X043400Y084100D01*
X043600Y084500D02*
X043700Y084600D01*
X043900D01*
X044000Y084500D01*
Y084400D01*
X043900Y084300D01*
X043800D01*
X043900D01*
X044000Y084200D01*
Y084100D01*
X043900Y084000D01*
X043700D01*
X043600Y084100D01*
X063260Y074300D02*
X063160Y074400D01*
X062960D01*
X062860Y074300D01*
Y073900D01*
X062960Y073800D01*
X063160D01*
X063260Y073900D01*
X063860Y074400D02*
X063660Y074300D01*
X063460Y074100D01*
Y073900D01*
X063560Y073800D01*
X063760D01*
X063860Y073900D01*
Y074000D01*
X063760Y074100D01*
X063460D01*
X063060Y073090D02*
Y072590D01*
X063160Y072490D01*
X063360D01*
X063460Y072590D01*
Y073090D01*
X063660Y072490D02*
X063860D01*
X063760D01*
Y073090D01*
X063660Y072990D01*
X086550Y070200D02*
X086450Y070300D01*
X086250D01*
X086150Y070200D01*
Y069800D01*
X086250Y069700D01*
X086450D01*
X086550Y069800D01*
X087150Y069700D02*
X086750D01*
X087150Y070100D01*
Y070200D01*
X087050Y070300D01*
X086850D01*
X086750Y070200D01*
X087350D02*
X087450Y070300D01*
X087650D01*
X087749Y070200D01*
Y069800D01*
X087650Y069700D01*
X087450D01*
X087350Y069800D01*
Y070200D01*
X093750Y071250D02*
X093650Y071350D01*
X093450D01*
X093350Y071250D01*
Y070850D01*
X093450Y070750D01*
X093650D01*
X093750Y070850D01*
X094350Y070750D02*
X093950D01*
X094350Y071150D01*
Y071250D01*
X094250Y071350D01*
X094050D01*
X093950Y071250D01*
X094949Y070750D02*
X094550D01*
X094949Y071150D01*
Y071250D01*
X094850Y071350D01*
X094650D01*
X094550Y071250D01*
X101750D02*
X101650Y071350D01*
X101450D01*
X101350Y071250D01*
Y070850D01*
X101450Y070750D01*
X101650D01*
X101750Y070850D01*
X102350Y070750D02*
X101950D01*
X102350Y071150D01*
Y071250D01*
X102250Y071350D01*
X102050D01*
X101950Y071250D01*
X102949Y071350D02*
X102550D01*
Y071050D01*
X102750Y071150D01*
X102850D01*
X102949Y071050D01*
Y070850D01*
X102850Y070750D01*
X102650D01*
X102550Y070850D01*
X068500Y096200D02*
Y096400D01*
Y096300D01*
X069100D01*
Y096200D01*
Y096400D01*
X068600Y097100D02*
X068500Y097000D01*
Y096800D01*
X068600Y096700D01*
X069000D01*
X069100Y096800D01*
Y097000D01*
X069000Y097100D01*
X068600Y097700D02*
X068500Y097600D01*
Y097400D01*
X068600Y097300D01*
X068700D01*
X068800Y097400D01*
Y097600D01*
X068900Y097700D01*
X069000D01*
X069100Y097600D01*
Y097400D01*
X069000Y097300D01*
X069100Y097899D02*
X068500D01*
Y098199D01*
X068600Y098299D01*
X068800D01*
X068900Y098199D01*
Y097899D01*
X068200Y072000D02*
X068000D01*
X068100D01*
Y071500D01*
X068000Y071400D01*
X067900D01*
X067800Y071500D01*
X068400Y072000D02*
X068800D01*
X068600D01*
Y071400D01*
X069000D02*
Y071800D01*
X069200Y072000D01*
X069399Y071800D01*
Y071400D01*
Y071700D01*
X069000D01*
X069999Y071900D02*
X069899Y072000D01*
X069699D01*
X069599Y071900D01*
Y071500D01*
X069699Y071400D01*
X069899D01*
X069999Y071500D01*
Y071700D01*
X069799D01*
X060300Y068200D02*
Y068800D01*
X060600D01*
X060700Y068700D01*
Y068500D01*
X060600Y068400D01*
X060300D01*
X060500D02*
X060700Y068200D01*
X061300Y068800D02*
X060900D01*
Y068200D01*
X061300D01*
X060900Y068500D02*
X061100D01*
X061899Y068700D02*
X061800Y068800D01*
X061600D01*
X061500Y068700D01*
Y068600D01*
X061600Y068500D01*
X061800D01*
X061899Y068400D01*
Y068300D01*
X061800Y068200D01*
X061600D01*
X061500Y068300D01*
X062499Y068800D02*
X062099D01*
Y068200D01*
X062499D01*
X062099Y068500D02*
X062299D01*
X062699Y068800D02*
X063099D01*
X062899D01*
Y068200D01*
X049906Y095619D02*
Y096019D01*
X049706Y095819D02*
X050106D01*
D23*
X071010Y075500D02*
G03*
X071010Y075500I-000010J000000D01*
G01*
D52*
X042258Y096567D02*
G03*
X042258Y096567I-000049J000000D01*
G01*
X064861Y093700D02*
G03*
X064861Y093700I-000049J000000D01*
G01*
X060607Y072017D02*
G03*
X060607Y072017I-000049J000000D01*
G01*
X064902Y098361D02*
G03*
X064902Y098361I-000049J000000D01*
G01*
X044907Y073894D02*
G03*
X044907Y073894I-000049J000000D01*
G01*
Y068972D02*
G03*
X044907Y068972I-000049J000000D01*
G01*
X078028Y097995D02*
G03*
X078028Y097995I-000049J000000D01*
G01*
X064037Y079000D02*
G03*
X064037Y079000I-000049J000000D01*
G01*
X044943Y078997D02*
G03*
X044943Y078997I-000049J000000D01*
G01*
X082061Y093700D02*
G03*
X082061Y093700I-000049J000000D01*
G01*
X079951Y074266D02*
G03*
X079951Y074266I-000049J000000D01*
G01*
D53*
X065233Y090950D02*
G03*
X065233Y090450I000000J-000250D01*
G01*
X062507Y071970D02*
G03*
X060893Y071970I-000807J000630D01*
G01*
X047305Y086226D02*
G03*
X047305Y086226I-000008J000000D01*
G01*
X064959Y097111D02*
G03*
X064959Y096611I000000J-000250D01*
G01*
X044744Y075144D02*
G03*
X044744Y075644I000000J000250D01*
G01*
Y070222D02*
G03*
X044744Y070722I000000J000250D01*
G01*
X077845Y096745D02*
G03*
X077845Y096245I000000J-000250D01*
G01*
X063508Y081750D02*
G03*
X063508Y082250I000000J000250D01*
G01*
X044406Y081747D02*
G03*
X044406Y082247I000000J000250D01*
G01*
X082835Y090950D02*
G03*
X082835Y090450I000000J-000250D01*
G01*
X041953Y097925D02*
X046047D01*
X041953Y096311D02*
Y098122D01*
X041953Y096311D02*
X046047D01*
Y098122D01*
X041953D02*
X046047D01*
X044367Y093239D02*
X065233D01*
X044367Y088161D02*
X065233D01*
Y090950D02*
Y093239D01*
Y088161D02*
Y090450D01*
X044367Y088161D02*
Y093239D01*
X060893Y071970D02*
X062507D01*
X081972Y098843D02*
X086028D01*
X081972Y096757D02*
X086028D01*
Y098843D01*
X081968Y096757D02*
Y098843D01*
X046344Y086876D02*
Y087171D01*
X046856Y086502D02*
Y086698D01*
X046344Y087171D02*
X046720D01*
X046344Y086029D02*
X046720D01*
X046344D02*
Y086324D01*
X081218Y072757D02*
Y074843D01*
X085278Y072757D02*
Y074843D01*
X081222Y072757D02*
X085278D01*
X081222Y074843D02*
X085278D01*
X080830Y100509D02*
Y103509D01*
X067980D02*
X080830D01*
X067980Y100509D02*
Y103509D01*
Y100509D02*
X080830D01*
X054723Y097904D02*
X064959D01*
X054723Y095818D02*
X064959D01*
Y097111D02*
Y097904D01*
Y095818D02*
Y096611D01*
X054723Y095818D02*
Y097904D01*
X044744Y074350D02*
X058996D01*
X044744Y076437D02*
X058996D01*
X044744Y074350D02*
Y075144D01*
Y075644D02*
Y076437D01*
X058996Y074350D02*
Y076437D01*
X044744Y069429D02*
X058996D01*
X044744Y071516D02*
X058996D01*
X044744Y069429D02*
Y070222D01*
Y070722D02*
Y071516D01*
X058996Y069429D02*
Y071516D01*
X070089Y097538D02*
X077845D01*
X070089Y095452D02*
X077845D01*
Y096745D02*
Y097538D01*
Y095452D02*
Y096245D01*
X070089Y095452D02*
Y097538D01*
X084492Y079461D02*
Y084539D01*
X063508Y082250D02*
Y084539D01*
Y079461D02*
Y081750D01*
Y084539D02*
X084492D01*
X063508Y079461D02*
X084492D01*
X044406Y079458D02*
X059406D01*
X044406Y084537D02*
X059406D01*
X044406Y079458D02*
Y081747D01*
Y082247D02*
Y084537D01*
X059406Y079458D02*
Y084537D01*
X067165Y093239D02*
X082835D01*
X067165Y088161D02*
X082835D01*
Y090950D02*
Y093239D01*
Y088161D02*
Y090450D01*
X067165Y088161D02*
Y093239D01*
X077000Y076528D02*
X079478Y074050D01*
X074522D02*
X077000Y071572D01*
X079478Y074050D01*
X074522D02*
X077000Y076528D01*
D54*
X064957Y092846D02*
G03*
X064957Y092846I-000118J000000D01*
G01*
X082484Y097150D02*
G03*
X082484Y097150I-000118J000000D01*
G01*
X081734Y073150D02*
G03*
X081734Y073150I-000118J000000D01*
G01*
X064684Y097511D02*
G03*
X064684Y097511I-000118J000000D01*
G01*
X045256Y074744D02*
G03*
X045256Y074744I-000118J000000D01*
G01*
Y069823D02*
G03*
X045256Y069823I-000118J000000D01*
G01*
X077569Y097144D02*
G03*
X077569Y097144I-000118J000000D01*
G01*
X064020Y079854D02*
G03*
X064020Y079854I-000118J000000D01*
G01*
X044917Y079852D02*
G03*
X044917Y079852I-000118J000000D01*
G01*
X082559Y092846D02*
G03*
X082559Y092846I-000118J000000D01*
G01*
X079039Y074050D02*
G03*
X079039Y074050I-000118J000000D01*
G01*
D55*
X066250Y096000D02*
Y096500D01*
X066500Y095750D02*
X068000D01*
X068250Y096000D01*
Y096500D01*
X068000Y096750D02*
X068250Y096500D01*
X066250Y096000D02*
X066500Y095750D01*
X066250Y096500D02*
X066500Y096750D01*
X066250Y098000D02*
Y098500D01*
Y097000D02*
Y097500D01*
X066500Y096750D02*
X068000D01*
X066500Y097750D02*
X068000D01*
Y096750D02*
X068250Y097000D01*
Y097500D01*
X068000Y097750D02*
X068250Y097500D01*
X068000Y097750D02*
X068250Y098000D01*
Y098500D01*
X068000Y098750D02*
X068250Y098500D01*
X066500Y098750D02*
X068000D01*
X066250Y097000D02*
X066500Y096750D01*
X066250Y097500D02*
X066500Y097750D01*
X066250Y098000D02*
X066500Y097750D01*
X066250Y098500D02*
X066500Y098750D01*
D56*
X041950Y104050D02*
X045800D01*
X041950Y099300D02*
X042850D01*
X041950Y101800D02*
Y104900D01*
X045800D01*
Y099300D02*
Y104900D01*
D57*
X042800Y094700D02*
Y095700D01*
X044800D01*
Y094700D02*
Y095700D01*
X042800Y094700D02*
X044800D01*
X082733Y068967D02*
X082700Y069000D01*
X082633D01*
X082600Y068967D01*
Y068833D01*
X082633Y068800D01*
X082700D01*
X082733Y068833D01*
X082800Y068800D02*
Y069000D01*
X082900D01*
X082933Y068967D01*
Y068900D01*
X082900Y068867D01*
X082800D01*
X083000Y069000D02*
Y068800D01*
X083133D01*
X083200Y069000D02*
Y068800D01*
X083300D01*
X083333Y068833D01*
Y068967D01*
X083300Y069000D01*
X083200D01*
X083733Y068967D02*
X083700Y069000D01*
X083633D01*
X083600Y068967D01*
Y068933D01*
X083633Y068900D01*
X083700D01*
X083733Y068867D01*
Y068833D01*
X083700Y068800D01*
X083633D01*
X083600Y068833D01*
X083800Y068733D02*
Y068933D01*
X083900D01*
X083933Y068900D01*
Y068833D01*
X083900Y068800D01*
X083800D01*
X084033Y068933D02*
X084100D01*
X084133Y068900D01*
Y068800D01*
X084033D01*
X084000Y068833D01*
X084033Y068867D01*
X084133D01*
X084199Y068933D02*
Y068800D01*
Y068867D01*
X084233Y068900D01*
X084266Y068933D01*
X084299D01*
X084499Y068800D02*
X084433D01*
X084399Y068833D01*
Y068900D01*
X084433Y068933D01*
X084499D01*
X084533Y068900D01*
Y068867D01*
X084399D01*
X083950Y069200D02*
Y069500D01*
X083800Y069350D01*
X084000D01*
X084250Y069200D02*
Y069500D01*
X084100Y069350D01*
X084300D01*
X082850Y069200D02*
Y069500D01*
X082700Y069350D01*
X082900D01*
X083000Y069450D02*
X083050Y069500D01*
X083150D01*
X083200Y069450D01*
Y069250D01*
X083150Y069200D01*
X083050D01*
X083000Y069250D01*
Y069450D01*
D58*
X043175Y095200D02*
D03*
D59*
X044950Y095197D02*
D03*
D60*
X042650D02*
D03*
M02*
