G04 Layer_Physical_Order=4*
G04 Layer_Color=11436288*
%FSAX24Y24*%
%MOIN*%
G70*
G01*
G75*
%ADD22C,0.0100*%
%ADD24C,0.0300*%
%ADD25C,0.0600*%
%ADD26C,0.0433*%
%ADD27C,0.1191*%
%ADD28C,0.1190*%
%ADD29C,0.1091*%
%ADD30O,0.0600X0.0800*%
%ADD31R,0.0600X0.0800*%
%ADD32R,0.0591X0.0591*%
%ADD33C,0.0591*%
%ADD34R,0.0600X0.0600*%
%ADD35C,0.1969*%
%ADD36O,0.0344X0.0787*%
%ADD37R,0.0344X0.0787*%
%ADD38R,0.0433X0.0433*%
%ADD39P,0.0469X8X292.5*%
%ADD40C,0.0709*%
%ADD41R,0.0709X0.0709*%
%ADD42C,0.0787*%
%ADD43C,0.0748*%
%ADD44R,0.0600X0.0600*%
%ADD45C,0.0750*%
%ADD46R,0.0591X0.0591*%
%ADD47O,0.0591X0.0591*%
%ADD48C,0.0630*%
%ADD49R,0.0630X0.0630*%
%ADD50C,0.0200*%
%ADD51C,0.0300*%
D22*
X086520Y086050D02*
X088230Y087760D01*
X070550Y086050D02*
X086520D01*
X084990Y077913D02*
X085010Y077933D01*
Y081900D01*
X074300Y075300D02*
X074600Y075000D01*
X076100D01*
X074874Y074500D02*
X076203D01*
X077003Y075300D02*
X077500D01*
X076203Y074500D02*
X077003Y075300D01*
X074364Y075010D02*
X074874Y074500D01*
X078300Y074200D02*
Y074400D01*
X077800Y073700D02*
X078300Y074200D01*
X080000Y075000D02*
X080150D01*
X078400Y073400D02*
X080000Y075000D01*
X076250Y073400D02*
X078400D01*
X075686Y073964D02*
X076250Y073400D01*
X074415Y072950D02*
X078100D01*
X074155Y072690D02*
X074415Y072950D01*
X077521Y074750D02*
X079971Y077200D01*
X076750Y074750D02*
X077521D01*
X077587Y074590D02*
X080037Y077040D01*
X076958Y074590D02*
X077587D01*
X076718Y074350D02*
X076958Y074590D01*
X080104Y076880D02*
X083750D01*
X077654Y074430D02*
X080104Y076880D01*
X077024Y074430D02*
X077654D01*
X076494Y073900D02*
X077024Y074430D01*
X080170Y076720D02*
X083817D01*
X077720Y074270D02*
X080170Y076720D01*
X077420Y074270D02*
X077720D01*
X076850Y073700D02*
X077420Y074270D01*
X076400Y073900D02*
X076494D01*
X069510Y075010D02*
X074364D01*
X070500Y082400D02*
X070500Y082400D01*
Y085000D01*
X068410Y082190D02*
X072190D01*
X067500Y083100D02*
X068410Y082190D01*
X072190D02*
X072500Y082500D01*
X068800Y082400D02*
Y083700D01*
X068000Y084500D02*
X068800Y083700D01*
X067500Y083100D02*
Y085000D01*
X072500Y082500D02*
X085182D01*
X081150Y072900D02*
X082100D01*
X080550Y072300D02*
X081150Y072900D01*
X079195Y072300D02*
X080550D01*
X076375Y070430D02*
X081259D01*
X076441Y070590D02*
X081193D01*
X076507Y070750D02*
X081126D01*
X081874Y071045D02*
X087967D01*
X081259Y070430D02*
X081874Y071045D01*
X081807Y071205D02*
X087901D01*
X081193Y070590D02*
X081807Y071205D01*
X081741Y071365D02*
X087835D01*
X081126Y070750D02*
X081741Y071365D01*
X081675Y071525D02*
X087769D01*
X081060Y070910D02*
X081675Y071525D01*
X078240Y070910D02*
X081060D01*
X080800Y071586D02*
X080898Y071685D01*
X087411D01*
X076450Y072700D02*
X078240Y070910D01*
X088230Y072730D02*
Y072986D01*
X087395Y071895D02*
X088230Y072730D01*
X088390Y072664D02*
Y072920D01*
X087411Y071685D02*
X088390Y072664D01*
X080955Y071895D02*
X087395D01*
X088017Y071095D02*
X088485D01*
X087967Y071045D02*
X088017Y071095D01*
X087951Y071255D02*
X088418D01*
X087901Y071205D02*
X087951Y071255D01*
X087885Y071415D02*
X087995D01*
X087835Y071365D02*
X087885Y071415D01*
X087769Y071525D02*
X088584Y072340D01*
X087995Y071415D02*
X088390Y071810D01*
X088418Y071255D02*
X088504Y071340D01*
X088485Y071095D02*
X088570Y071180D01*
X085350Y078027D02*
Y082200D01*
X084730Y077860D02*
Y082210D01*
X083750Y076880D02*
X084730Y077860D01*
X084050Y078450D02*
Y078500D01*
X084040Y078510D02*
X084050Y078500D01*
X084160Y081422D02*
X084290Y081292D01*
Y077880D02*
Y081292D01*
Y077880D02*
X084294Y077876D01*
X083618Y077200D02*
X084294Y077876D01*
X084450Y077946D02*
Y081900D01*
Y077946D02*
X084520Y077876D01*
X085518Y082500D02*
X086200Y081818D01*
X085182Y082500D02*
X085518D01*
X085182Y082500D02*
X085182Y082500D01*
X085584Y082660D02*
X086470Y081774D01*
X073836Y082660D02*
X085584D01*
X085650Y082820D02*
X086760Y081710D01*
X085717Y082980D02*
X086960Y081737D01*
X085783Y083140D02*
X087210Y081713D01*
X085849Y083300D02*
X087410Y081739D01*
X077200Y083300D02*
X085849D01*
X085915Y083460D02*
X087580Y081795D01*
X078040Y083460D02*
X085915D01*
X085982Y083620D02*
X087740Y081862D01*
X078880Y083620D02*
X085982D01*
X085990Y083838D02*
X087900Y081928D01*
X085990Y083838D02*
X085990D01*
X085933Y083780D02*
X085990Y083838D01*
X079720Y083780D02*
X085933D01*
X085926Y084000D02*
X086054D01*
X085866Y083940D02*
X085926Y084000D01*
X079987Y083940D02*
X085866D01*
X085860Y084160D02*
X085860D01*
X085800Y084100D02*
X085860Y084160D01*
X080400Y084100D02*
X085800D01*
X081240Y084260D02*
X085734D01*
X082080Y084420D02*
X085667D01*
X085601Y084580D02*
X088091Y087070D01*
X082920Y084580D02*
X085601D01*
X087900Y073652D02*
Y081928D01*
X087740Y074672D02*
Y081862D01*
X087580Y075662D02*
Y081795D01*
X087410Y075860D02*
Y081739D01*
X087210Y076810D02*
Y081713D01*
X086960Y077760D02*
Y081737D01*
X086760Y078570D02*
Y081710D01*
X086470Y078890D02*
Y081774D01*
X086200Y078050D02*
Y081818D01*
X088091Y087070D02*
X088390Y087369D01*
X088091Y087070D02*
X088091D01*
X088157Y086910D02*
X088800Y087553D01*
X088157Y086910D02*
X088157D01*
X085667Y084420D02*
X088157Y086910D01*
X085734Y084260D02*
X088224Y086750D01*
X085860Y084160D02*
X087450Y085750D01*
X086114Y083940D02*
X087990D01*
X086054Y084000D02*
X086114Y083940D01*
X076360Y083140D02*
X085783D01*
X075520Y082980D02*
X085717D01*
X074759Y082820D02*
X085650D01*
X064600Y073800D02*
X065710Y072690D01*
X074155D01*
X057402Y096300D02*
X066700D01*
X059000Y082200D02*
Y085470D01*
X053470D02*
X059000D01*
X052090Y096520D02*
Y100430D01*
X046865Y094265D02*
X049835D01*
X052090Y096520D01*
X084160Y081422D02*
Y082220D01*
X084990Y077913D02*
X085000Y077903D01*
X084730Y082210D02*
X084740Y082220D01*
X083817Y076720D02*
X085000Y077903D01*
X085350Y078027D02*
X085350Y078027D01*
X061595Y073800D02*
X064600D01*
X061200Y073405D02*
X061595Y073800D01*
X061200Y072600D02*
Y073405D01*
X060400Y071800D02*
X061200Y072600D01*
X060400Y071172D02*
Y071800D01*
Y069400D02*
Y071172D01*
X064600Y073800D02*
Y077350D01*
X063850Y078100D02*
X064600Y077350D01*
X067636Y073964D02*
X075686D01*
X067100Y074500D02*
X067636Y073964D01*
X067000Y074500D02*
X067100D01*
X069000D02*
X069510Y075010D01*
X058300Y087700D02*
X058350Y087650D01*
Y086350D02*
Y087650D01*
Y086350D02*
X058360Y086340D01*
X063850Y082450D02*
Y084350D01*
X064500Y085000D01*
X053406Y085406D02*
X053470Y085470D01*
X053406Y084997D02*
Y085406D01*
X046300Y087700D02*
X048470Y089870D01*
X079530D01*
X081500Y087900D01*
Y087700D02*
Y087900D01*
Y087600D02*
Y087700D01*
X051110Y089710D02*
X078390D01*
X049300Y087900D02*
X051110Y089710D01*
X055341Y098361D02*
X057402Y096300D01*
X079500Y087700D02*
Y088050D01*
X078000Y089550D02*
X079500Y088050D01*
X051350Y089550D02*
X078000D01*
X049750Y087950D02*
X051350Y089550D01*
X049750Y086700D02*
Y087950D01*
X049250Y086200D02*
X049750Y086700D01*
X047700Y086200D02*
X049250D01*
X068000Y084500D02*
Y085300D01*
X079450Y090850D02*
Y092100D01*
X063900Y090200D02*
X078800D01*
X079450Y090850D01*
X081550Y076400D02*
Y076450D01*
Y076400D02*
X083723D01*
X085350Y078027D01*
X078500Y087600D02*
Y087700D01*
X054150Y084742D02*
X054406Y084997D01*
X054150Y082450D02*
Y084742D01*
X053950Y082250D02*
X054150Y082450D01*
X078500Y087700D02*
Y088100D01*
X077220Y089380D02*
X078500Y088100D01*
X051480Y089380D02*
X077220D01*
X050300Y088200D02*
X051480Y089380D01*
X050300Y087700D02*
Y088200D01*
X077500Y087600D02*
Y087700D01*
X054900Y084492D02*
X055406Y084997D01*
X054900Y082300D02*
Y084492D01*
X077500Y087700D02*
Y088100D01*
X076380Y089220D02*
X077500Y088100D01*
X052320Y089220D02*
X076380D01*
X051300Y088200D02*
X052320Y089220D01*
X051300Y087700D02*
Y088200D01*
X076500Y087600D02*
Y087700D01*
X055900Y084492D02*
X056406Y084997D01*
X055900Y082300D02*
Y084492D01*
X076500Y087700D02*
Y088100D01*
X075540Y089060D02*
X076500Y088100D01*
X053260Y089060D02*
X075540D01*
X052300Y088100D02*
X053260Y089060D01*
X052300Y087700D02*
Y088100D01*
X075500Y087600D02*
Y087700D01*
X056900Y084492D02*
X057406Y084997D01*
X056900Y082300D02*
Y084492D01*
X075500Y087700D02*
Y088100D01*
X074700Y088900D02*
X075500Y088100D01*
X054100Y088900D02*
X074700D01*
X053300Y088100D02*
X054100Y088900D01*
X053300Y087700D02*
Y088100D01*
X074500Y087600D02*
Y087700D01*
X057950Y084542D02*
X058406Y084997D01*
X057950Y082250D02*
Y084542D01*
X074500Y087700D02*
Y088100D01*
X073860Y088740D02*
X074500Y088100D01*
X054940Y088740D02*
X073860D01*
X054300Y088100D02*
X054940Y088740D01*
X054300Y087700D02*
Y088100D01*
X073500Y087800D02*
Y088000D01*
X072920Y088580D02*
X073500Y088000D01*
X055580Y088580D02*
X072920D01*
X055300Y088300D02*
X055580Y088580D01*
X055300Y087700D02*
Y088300D01*
X072500Y087600D02*
Y087700D01*
Y088100D01*
X072180Y088420D02*
X072500Y088100D01*
X056620Y088420D02*
X072180D01*
X056300Y088100D02*
X056620Y088420D01*
X056300Y087700D02*
Y088100D01*
X071500Y087600D02*
Y087700D01*
Y088200D01*
X071440Y088260D02*
X071500Y088200D01*
X057460Y088260D02*
X071440D01*
X057300Y088100D02*
X057460Y088260D01*
X057300Y087700D02*
Y088100D01*
X081335Y079000D02*
X081500D01*
X049684Y081320D02*
X053926D01*
X049406Y081598D02*
X049684Y081320D01*
X049406Y081598D02*
Y084997D01*
X054308Y081260D02*
X054460Y081108D01*
X054092Y081260D02*
X054308D01*
X053992Y081160D02*
X054092Y081260D01*
X049618Y081160D02*
X053992D01*
X049478Y081300D02*
X049618Y081160D01*
X048720Y081300D02*
X049478D01*
X048406Y081614D02*
X048720Y081300D01*
X048406Y081614D02*
Y084997D01*
X077770Y080730D02*
X079500Y079000D01*
X049138Y080730D02*
X077770D01*
X047406Y078997D02*
X049138Y080730D01*
X078500Y079000D02*
Y079374D01*
X077304Y080570D02*
X078500Y079374D01*
X049978Y080570D02*
X077304D01*
X048406Y078997D02*
X049978Y080570D01*
X076090Y080410D02*
X077500Y079000D01*
X050882Y080410D02*
X076090D01*
X049470Y078997D02*
X050882Y080410D01*
X049406Y078997D02*
X049470D01*
X075250Y080250D02*
X076500Y079000D01*
X052432Y080250D02*
X075250D01*
X052421Y080239D02*
X052432Y080250D01*
X051648Y080239D02*
X052421D01*
X050406Y078997D02*
X051648Y080239D01*
X074410Y080090D02*
X075500Y079000D01*
X052498Y080090D02*
X074410D01*
X051406Y078997D02*
X052498Y080090D01*
X073570Y079930D02*
X074500Y079000D01*
X053338Y079930D02*
X073570D01*
X052406Y078997D02*
X053338Y079930D01*
X080037Y077040D02*
X083684D01*
X084520Y077876D01*
X079971Y077200D02*
X083618D01*
X047300Y081000D02*
X054200D01*
X046406Y080106D02*
X047300Y081000D01*
X046406Y078997D02*
Y080106D01*
X083303Y079000D02*
X083500D01*
X053360Y081640D02*
X053793D01*
X053100Y081900D02*
X053360Y081640D01*
X051092Y081800D02*
X052400D01*
X050406Y082486D02*
X051092Y081800D01*
X050406Y082486D02*
Y084997D01*
X082486Y079000D02*
X082500D01*
X053294Y081480D02*
X053860D01*
X053154Y081620D02*
X053294Y081480D01*
X052980Y081620D02*
X053154D01*
X052406Y082194D02*
X052980Y081620D01*
X052406Y082194D02*
Y084997D01*
X053505Y078997D02*
X054278Y079770D01*
X072730D01*
X073500Y079000D01*
X071901Y079599D02*
X072500Y079000D01*
X055008Y079599D02*
X071901D01*
X054406Y078997D02*
X055008Y079599D01*
X062350Y086700D02*
Y087550D01*
X051055Y093634D02*
Y093700D01*
X076500Y074350D02*
X076697D01*
X048000Y083100D02*
Y085362D01*
X048268Y085630D01*
X079870D02*
X080500Y085000D01*
X048268Y085630D02*
X079870D01*
X080500Y085000D02*
X081240Y084260D01*
X088224Y086750D02*
X088800D01*
X079500Y085000D02*
X080400Y084100D01*
X087450Y085750D02*
X088800D01*
X070500Y085000D02*
X070900Y085400D01*
X071327D01*
X071332Y085405D01*
X079095Y084832D02*
X079987Y083940D01*
X087990D02*
X088800Y084750D01*
X078745Y085405D02*
X079095Y085055D01*
Y084832D02*
Y085055D01*
X071332Y085405D02*
X078745D01*
X068200Y078300D02*
X083350D01*
X067500Y079000D02*
X068200Y078300D01*
X083350D02*
X083400Y078250D01*
X070000Y078500D02*
X083282D01*
X069500Y079000D02*
X070000Y078500D01*
X083282D02*
X083292Y078510D01*
X084040D01*
X084750Y075300D02*
Y075400D01*
X086200Y076850D01*
Y078050D01*
X071500Y084996D02*
Y085000D01*
X073228Y083268D02*
X073836Y082660D01*
X071500Y084996D02*
X073228Y083268D01*
X086700Y078510D02*
X086760Y078570D01*
X072579Y085000D02*
X074508Y083071D01*
X074759Y082820D01*
X086950Y077750D02*
X086960Y077760D01*
X073500Y085000D02*
X075300Y083200D01*
X075520Y082980D01*
X074500Y085000D02*
X076360Y083140D01*
X075500Y085000D02*
X077200Y083300D01*
X087480Y074780D02*
Y075562D01*
X087580Y075662D01*
X076500Y085000D02*
X078040Y083460D01*
X087640Y073760D02*
Y074572D01*
X087740Y074672D01*
X077500Y085000D02*
X078880Y083620D01*
X087780Y072730D02*
X087810Y072760D01*
Y073562D01*
X087900Y073652D01*
X078500Y085000D02*
X079720Y083780D01*
X045370Y073894D02*
Y074270D01*
X047811Y083137D02*
Y085437D01*
X048164Y085790D01*
X081110D01*
X081500Y085000D02*
X082080Y084420D01*
X081500Y085000D02*
Y085400D01*
X081110Y085790D02*
X081500Y085400D01*
X088800Y087553D02*
Y087750D01*
X082500Y085000D02*
X082920Y084580D01*
X080500Y093700D02*
X080950Y094150D01*
X086200D01*
X088800Y096750D01*
X078390Y089710D02*
X080500Y087600D01*
X055299Y068996D02*
X055406Y068890D01*
X062250Y087650D02*
X062350Y087550D01*
X076224Y070510D02*
X076295D01*
X075430Y071304D02*
X076224Y070510D01*
X076295D02*
X076375Y070430D01*
X075430Y071304D02*
Y071400D01*
X088570Y071180D02*
X089036D01*
X090020Y072164D01*
X076290Y070670D02*
X076361D01*
X075760Y071200D02*
X076290Y070670D01*
X076361D02*
X076441Y070590D01*
X075760Y071200D02*
Y071380D01*
X088504Y071340D02*
X088970D01*
X089850Y072220D01*
X076217Y071040D02*
X076507Y070750D01*
X088390Y071920D02*
X088630Y072160D01*
X088390Y071810D02*
Y071920D01*
X088630Y072160D02*
X089016D01*
X089690Y072834D01*
X074760Y072255D02*
X075205Y072700D01*
X076450D01*
X088584Y072340D02*
X088970D01*
X089530Y072900D01*
X088230Y072986D02*
X088584Y073340D01*
X088970D01*
X088390Y072920D02*
X088630Y073160D01*
X089016D01*
X090800Y098540D02*
Y098750D01*
Y098540D02*
X091210Y098130D01*
X090970Y097340D02*
X091210Y097580D01*
Y098130D01*
X078500Y093700D02*
X079110Y094310D01*
X085780D01*
X088810Y097340D01*
X088970D01*
X089210Y097580D01*
Y097740D01*
X090390Y098920D01*
Y099190D01*
X090800Y099600D01*
Y099750D01*
X089530Y072900D02*
Y073448D01*
X089690Y072834D02*
Y073381D01*
X090140Y094090D02*
X090800Y094750D01*
X090020Y072164D02*
Y073259D01*
X090300Y093250D02*
X090800Y093750D01*
X089850Y072220D02*
Y073315D01*
X088800Y088330D02*
Y088750D01*
X088390Y087369D02*
Y087920D01*
X088800Y088330D01*
X088230Y087760D02*
Y088870D01*
X088520Y089160D01*
X088970D01*
X089210Y088920D01*
Y088790D02*
Y088920D01*
X088970Y073340D02*
X089500Y073870D01*
X089016Y073160D02*
X089660Y073804D01*
X089530Y073448D02*
X089820Y073738D01*
X089690Y073381D02*
X089980Y073671D01*
X089850Y073315D02*
X090140Y073605D01*
X090020Y073259D02*
X090300Y073539D01*
Y093250D01*
X090140Y073605D02*
Y094090D01*
X089980Y073671D02*
Y094930D01*
X089820Y073738D02*
Y095770D01*
X089210Y088790D02*
X089250Y088750D01*
Y081200D02*
Y088750D01*
X088800Y080750D02*
X089250Y081200D01*
X089980Y094930D02*
X090800Y095750D01*
X089500Y073870D02*
Y096450D01*
X090800Y097750D01*
X090630Y097340D02*
X090970D01*
X090623Y097347D02*
X090630Y097340D01*
X090623Y097347D02*
X090623D01*
X089660Y096384D02*
X090623Y097347D01*
X089660Y073804D02*
Y096384D01*
X089820Y095770D02*
X090800Y096750D01*
X070467Y097995D02*
X070962Y097500D01*
X071750D01*
X072000Y097750D01*
X074750Y100500D02*
X074858Y100608D01*
Y102368D01*
X074750Y100250D02*
X075406Y100906D01*
Y101250D01*
X072000Y097750D02*
Y098250D01*
X074000Y100250D01*
X074750D01*
X071467Y097995D02*
X073972Y100500D01*
X074750D01*
X052500Y096400D02*
Y100250D01*
X050205Y094105D02*
X052500Y096400D01*
X052090Y100430D02*
X052100Y100440D01*
Y100850D01*
X052500Y101250D01*
X046300Y093700D02*
X046400D01*
X046500Y093800D01*
Y093900D01*
X046865Y094265D01*
X047200Y093700D02*
X047545D01*
X047200D02*
X047605Y094105D01*
X050205D01*
X087320Y075770D02*
X087410Y075860D01*
X087150Y076750D02*
X087210Y076810D01*
X080763Y081540D02*
X083303Y079000D01*
X080106Y081380D02*
X082486Y079000D01*
X079115Y081220D02*
X081335Y079000D01*
X053793Y081640D02*
X053893Y081740D01*
X053860Y081480D02*
X053960Y081580D01*
X053926Y081320D02*
X054026Y081420D01*
X054707Y081540D02*
X080763D01*
X054507Y081740D02*
X054707Y081540D01*
X053893Y081740D02*
X054507D01*
X054640Y081380D02*
X080106D01*
X054440Y081580D02*
X054640Y081380D01*
X053960Y081580D02*
X054440D01*
X054574Y081220D02*
X079115D01*
X054374Y081420D02*
X054574Y081220D01*
X054026Y081420D02*
X054374D01*
X078440Y081060D02*
X080500Y079000D01*
X054460Y081060D02*
Y081108D01*
Y081060D02*
X078440D01*
X044900Y074740D02*
X045370Y074270D01*
X044900Y074740D02*
Y080226D01*
X047811Y083137D01*
X045900Y078364D02*
X047370Y076894D01*
X045900Y078364D02*
Y081000D01*
X048000Y083100D01*
D24*
X045550Y095200D02*
Y098850D01*
X044806Y099594D02*
X045550Y098850D01*
D25*
X083000Y070000D02*
D03*
X106800Y100750D02*
D03*
X104800Y099750D02*
D03*
X106800D02*
D03*
X104800Y098750D02*
D03*
X106800D02*
D03*
X104800Y097750D02*
D03*
X106800D02*
D03*
X104800Y096750D02*
D03*
X106800D02*
D03*
X104800Y095750D02*
D03*
X106800D02*
D03*
X104800Y094750D02*
D03*
X106800D02*
D03*
X104800Y093750D02*
D03*
X106800D02*
D03*
X104800Y092750D02*
D03*
X106800D02*
D03*
X104800Y091750D02*
D03*
X106800D02*
D03*
X104800Y090750D02*
D03*
X106800D02*
D03*
X104800Y089750D02*
D03*
X106800D02*
D03*
X104800Y088750D02*
D03*
X106800D02*
D03*
X104800Y087750D02*
D03*
X106800D02*
D03*
X104800Y086750D02*
D03*
X106800D02*
D03*
X104800Y085750D02*
D03*
X106800D02*
D03*
X104800Y084750D02*
D03*
X106800D02*
D03*
X104800Y083750D02*
D03*
X106800D02*
D03*
X104800Y082750D02*
D03*
X106800D02*
D03*
X104800Y081750D02*
D03*
X106800D02*
D03*
X104800Y080750D02*
D03*
X106800D02*
D03*
X104800Y079750D02*
D03*
X106800D02*
D03*
X104800Y078750D02*
D03*
X106800D02*
D03*
X104800Y077750D02*
D03*
X106800D02*
D03*
X104800Y076750D02*
D03*
X106800D02*
D03*
X104800Y075750D02*
D03*
X106800D02*
D03*
X104800Y074750D02*
D03*
X106800D02*
D03*
X104800Y073750D02*
D03*
X106800D02*
D03*
X104800Y072750D02*
D03*
X106800D02*
D03*
X104800Y071750D02*
D03*
X106800D02*
D03*
X104800Y070750D02*
D03*
X106800D02*
D03*
X098800Y100750D02*
D03*
X096800Y099750D02*
D03*
X098800D02*
D03*
X096800Y098750D02*
D03*
X098800D02*
D03*
X096800Y097750D02*
D03*
X098800D02*
D03*
X096800Y096750D02*
D03*
X098800D02*
D03*
X096800Y095750D02*
D03*
X098800D02*
D03*
X096800Y094750D02*
D03*
X098800D02*
D03*
X096800Y093750D02*
D03*
X098800D02*
D03*
X096800Y092750D02*
D03*
X098800D02*
D03*
X096800Y091750D02*
D03*
X098800D02*
D03*
X096800Y090750D02*
D03*
X098800D02*
D03*
X096800Y089750D02*
D03*
X098800D02*
D03*
X096800Y088750D02*
D03*
X098800D02*
D03*
X096800Y087750D02*
D03*
X098800D02*
D03*
X096800Y086750D02*
D03*
X098800D02*
D03*
X096800Y085750D02*
D03*
X098800D02*
D03*
X096800Y084750D02*
D03*
X098800D02*
D03*
X096800Y083750D02*
D03*
X098800D02*
D03*
X096800Y082750D02*
D03*
X098800D02*
D03*
X096800Y081750D02*
D03*
X098800D02*
D03*
X096800Y080750D02*
D03*
X098800D02*
D03*
X096800Y079750D02*
D03*
X098800D02*
D03*
X096800Y078750D02*
D03*
X098800D02*
D03*
X096800Y077750D02*
D03*
X098800D02*
D03*
X096800Y076750D02*
D03*
X098800D02*
D03*
X096800Y075750D02*
D03*
X098800D02*
D03*
X096800Y074750D02*
D03*
X098800D02*
D03*
X096800Y073750D02*
D03*
X098800D02*
D03*
X096800Y072750D02*
D03*
X098800D02*
D03*
X096800Y071750D02*
D03*
X098800D02*
D03*
X096800Y070750D02*
D03*
X098800D02*
D03*
X088800Y099750D02*
D03*
Y098750D02*
D03*
Y097750D02*
D03*
Y096750D02*
D03*
Y095750D02*
D03*
Y094750D02*
D03*
Y093750D02*
D03*
Y092750D02*
D03*
Y091750D02*
D03*
Y090750D02*
D03*
Y089750D02*
D03*
Y088750D02*
D03*
Y087750D02*
D03*
Y086750D02*
D03*
Y072750D02*
D03*
Y073750D02*
D03*
Y074750D02*
D03*
Y075750D02*
D03*
Y076750D02*
D03*
Y077750D02*
D03*
Y078750D02*
D03*
Y079750D02*
D03*
Y080750D02*
D03*
Y081750D02*
D03*
Y082750D02*
D03*
Y083750D02*
D03*
Y084750D02*
D03*
Y085750D02*
D03*
X090800Y100750D02*
D03*
Y099750D02*
D03*
Y098750D02*
D03*
Y097750D02*
D03*
Y096750D02*
D03*
Y095750D02*
D03*
Y094750D02*
D03*
Y093750D02*
D03*
Y092750D02*
D03*
Y091750D02*
D03*
Y090750D02*
D03*
Y089750D02*
D03*
Y088750D02*
D03*
Y087750D02*
D03*
Y086750D02*
D03*
Y085750D02*
D03*
Y084750D02*
D03*
Y083750D02*
D03*
Y082750D02*
D03*
Y081750D02*
D03*
Y080750D02*
D03*
Y079750D02*
D03*
Y078750D02*
D03*
Y077750D02*
D03*
Y076750D02*
D03*
Y075750D02*
D03*
Y074750D02*
D03*
Y073750D02*
D03*
Y072750D02*
D03*
X088800Y071750D02*
D03*
X090800D02*
D03*
X088800Y070750D02*
D03*
X090800D02*
D03*
X084000Y070000D02*
D03*
X048500Y101250D02*
D03*
X049500Y100250D02*
D03*
Y101250D02*
D03*
X050500Y100250D02*
D03*
Y101250D02*
D03*
X051500Y100250D02*
D03*
Y101250D02*
D03*
X052500Y100250D02*
D03*
Y101250D02*
D03*
X053500Y100250D02*
D03*
Y101250D02*
D03*
X054500Y100250D02*
D03*
Y101250D02*
D03*
D26*
X058561Y100689D02*
D03*
Y101674D02*
D03*
X059378D02*
D03*
X060412D02*
D03*
X061239D02*
D03*
Y100689D02*
D03*
D27*
X057333Y102894D02*
D03*
D28*
X059900Y103150D02*
D03*
D29*
X062467Y102894D02*
D03*
D30*
X045000Y097000D02*
D03*
X044000D02*
D03*
D31*
X043000D02*
D03*
D32*
X064300Y093700D02*
D03*
X082500Y096300D02*
D03*
X081750Y072300D02*
D03*
X064341Y098361D02*
D03*
X045370Y073894D02*
D03*
Y068972D02*
D03*
X077467Y097995D02*
D03*
X064500Y079000D02*
D03*
X081500Y093700D02*
D03*
D33*
X063300D02*
D03*
X062300D02*
D03*
X061300D02*
D03*
X060300D02*
D03*
X059300D02*
D03*
X058300D02*
D03*
X057300D02*
D03*
X056300D02*
D03*
X055300D02*
D03*
X054300D02*
D03*
X053300D02*
D03*
X052300D02*
D03*
X051300D02*
D03*
X050300D02*
D03*
X049300D02*
D03*
X048300D02*
D03*
X047300D02*
D03*
X046300D02*
D03*
X045300D02*
D03*
X064300Y087700D02*
D03*
X063300D02*
D03*
X062300D02*
D03*
X061300D02*
D03*
X060300D02*
D03*
X059300D02*
D03*
X058300D02*
D03*
X057300D02*
D03*
X056300D02*
D03*
X055300D02*
D03*
X054300D02*
D03*
X053300D02*
D03*
X052300D02*
D03*
X051300D02*
D03*
X050300D02*
D03*
X049300D02*
D03*
X048300D02*
D03*
X047300D02*
D03*
X046300D02*
D03*
X045300D02*
D03*
X085500Y099300D02*
D03*
X082500D02*
D03*
X085500Y096300D02*
D03*
X084750Y072300D02*
D03*
X081750Y075300D02*
D03*
X084750D02*
D03*
X063341Y098361D02*
D03*
X062341D02*
D03*
X061341D02*
D03*
X060341D02*
D03*
X059341D02*
D03*
X058341D02*
D03*
X057341D02*
D03*
X056341D02*
D03*
X055341D02*
D03*
X064341Y095361D02*
D03*
X063341D02*
D03*
X062341D02*
D03*
X061341D02*
D03*
X060341D02*
D03*
X059341D02*
D03*
X058341D02*
D03*
X057341D02*
D03*
X056341D02*
D03*
X055341D02*
D03*
X046370Y073894D02*
D03*
X047370D02*
D03*
X048370D02*
D03*
X049370D02*
D03*
X050370D02*
D03*
X051370D02*
D03*
X052370D02*
D03*
X053370D02*
D03*
X054370D02*
D03*
X055370D02*
D03*
X056370D02*
D03*
X057370D02*
D03*
X058370D02*
D03*
X045370Y076894D02*
D03*
X046370D02*
D03*
X047370D02*
D03*
X048370D02*
D03*
X049370D02*
D03*
X050370D02*
D03*
X051370D02*
D03*
X052370D02*
D03*
X053370D02*
D03*
X054370D02*
D03*
X055370D02*
D03*
X056370D02*
D03*
X057370D02*
D03*
X058370D02*
D03*
X046370Y068972D02*
D03*
X047370D02*
D03*
X048370D02*
D03*
X049370D02*
D03*
X050370D02*
D03*
X051370D02*
D03*
X052370D02*
D03*
X053370D02*
D03*
X054370D02*
D03*
X055370D02*
D03*
X056370D02*
D03*
X057370D02*
D03*
X058370D02*
D03*
X045370Y071972D02*
D03*
X046370D02*
D03*
X047370D02*
D03*
X048370D02*
D03*
X049370D02*
D03*
X050370D02*
D03*
X051370D02*
D03*
X052370D02*
D03*
X053370D02*
D03*
X054370D02*
D03*
X055370D02*
D03*
X056370D02*
D03*
X057370D02*
D03*
X058370D02*
D03*
X076467Y097995D02*
D03*
X075467D02*
D03*
X074467D02*
D03*
X073467D02*
D03*
X072467D02*
D03*
X071467D02*
D03*
X070467D02*
D03*
X077467Y094995D02*
D03*
X076467D02*
D03*
X075467D02*
D03*
X074467D02*
D03*
X073467D02*
D03*
X072467D02*
D03*
X071467D02*
D03*
X070467D02*
D03*
X083500Y085000D02*
D03*
X082500D02*
D03*
X081500D02*
D03*
X080500D02*
D03*
X079500D02*
D03*
X078500D02*
D03*
X077500D02*
D03*
X076500D02*
D03*
X075500D02*
D03*
X074500D02*
D03*
X073500D02*
D03*
X072500D02*
D03*
X071500D02*
D03*
X070500D02*
D03*
X069500D02*
D03*
X068500D02*
D03*
X067500D02*
D03*
X066500D02*
D03*
X065500D02*
D03*
X064500D02*
D03*
X083500Y079000D02*
D03*
X082500D02*
D03*
X081500D02*
D03*
X080500D02*
D03*
X079500D02*
D03*
X078500D02*
D03*
X077500D02*
D03*
X076500D02*
D03*
X075500D02*
D03*
X074500D02*
D03*
X073500D02*
D03*
X072500D02*
D03*
X071500D02*
D03*
X070500D02*
D03*
X069500D02*
D03*
X068500D02*
D03*
X067500D02*
D03*
X066500D02*
D03*
X065500D02*
D03*
X080500Y093700D02*
D03*
X079500D02*
D03*
X078500D02*
D03*
X077500D02*
D03*
X076500D02*
D03*
X075500D02*
D03*
X074500D02*
D03*
X073500D02*
D03*
X072500D02*
D03*
X071500D02*
D03*
X070500D02*
D03*
X069500D02*
D03*
X068500D02*
D03*
X081500Y087700D02*
D03*
X080500D02*
D03*
X079500D02*
D03*
X078500D02*
D03*
X077500D02*
D03*
X076500D02*
D03*
X075500D02*
D03*
X074500D02*
D03*
X073500D02*
D03*
X072500D02*
D03*
X071500D02*
D03*
X070500D02*
D03*
X069500D02*
D03*
X068500D02*
D03*
D34*
X104800Y100750D02*
D03*
X096800D02*
D03*
X088800D02*
D03*
D35*
X108000Y103000D02*
D03*
X065000Y068000D02*
D03*
Y103000D02*
D03*
X086000Y068000D02*
D03*
Y103000D02*
D03*
X108000Y068000D02*
D03*
X040000Y068000D02*
D03*
Y103000D02*
D03*
X079230Y101809D02*
D03*
X069392D02*
D03*
X044039Y101956D02*
D03*
X042110Y100572D02*
D03*
X044033Y099594D02*
D03*
D36*
X062200Y072600D02*
D03*
X061700D02*
D03*
D37*
X061200D02*
D03*
D38*
X067750Y096250D02*
D03*
D39*
X066750D02*
D03*
X067750Y097250D02*
D03*
X066750D02*
D03*
X067750Y098250D02*
D03*
X066750D02*
D03*
D40*
X067000Y073500D02*
D03*
Y074500D02*
D03*
X068000Y073500D02*
D03*
Y074500D02*
D03*
X069000Y073500D02*
D03*
Y074500D02*
D03*
X070000Y073500D02*
D03*
Y074500D02*
D03*
X071000Y073500D02*
D03*
D41*
Y074500D02*
D03*
D42*
X060400Y069400D02*
D03*
X062959D02*
D03*
Y071172D02*
D03*
X060400D02*
D03*
D43*
X076500Y101250D02*
D03*
X075953Y102368D02*
D03*
X075406Y101250D02*
D03*
X074858Y102368D02*
D03*
X074311Y101250D02*
D03*
X073764Y102368D02*
D03*
X073217Y101250D02*
D03*
X072669Y102368D02*
D03*
X072122Y101250D02*
D03*
D44*
X048500Y100250D02*
D03*
D45*
X045550Y095200D02*
D03*
X042050D02*
D03*
D46*
X045406Y078997D02*
D03*
D47*
X046406D02*
D03*
X047406D02*
D03*
X048406D02*
D03*
X049406D02*
D03*
X050406D02*
D03*
X051406D02*
D03*
X052406D02*
D03*
X053406D02*
D03*
X054406D02*
D03*
X055406D02*
D03*
X056406D02*
D03*
X057406D02*
D03*
X058406D02*
D03*
X045406Y084997D02*
D03*
X046406D02*
D03*
X047406D02*
D03*
X048406D02*
D03*
X049406D02*
D03*
X050406D02*
D03*
X051406D02*
D03*
X052406D02*
D03*
X053406D02*
D03*
X054406D02*
D03*
X055406D02*
D03*
X056406D02*
D03*
X057406D02*
D03*
X058406D02*
D03*
D48*
X050600Y097784D02*
D03*
D49*
Y095816D02*
D03*
D50*
X085010Y081900D02*
D03*
X076100Y075000D02*
D03*
X078300Y074400D02*
D03*
X077800Y073700D02*
D03*
X074300Y075300D02*
D03*
X070500Y082400D02*
D03*
X068800D02*
D03*
X082100Y072900D02*
D03*
X079195Y072300D02*
D03*
X079350Y072600D02*
D03*
X080800Y071586D02*
D03*
X080450Y071500D02*
D03*
X080955Y071895D02*
D03*
X084050Y078450D02*
D03*
X084450Y081900D02*
D03*
X085350Y082200D02*
D03*
X074068Y072900D02*
D03*
X059000Y082200D02*
D03*
X084160Y082220D02*
D03*
X084740D02*
D03*
X055755Y099745D02*
D03*
X068500Y087000D02*
D03*
X077500Y075300D02*
D03*
X080150Y075000D02*
D03*
X078100Y072950D02*
D03*
X063850Y078100D02*
D03*
Y082450D02*
D03*
X047700Y086200D02*
D03*
X068000Y085300D02*
D03*
X063900Y090200D02*
D03*
X079450Y092100D02*
D03*
X065550Y094500D02*
D03*
X080150Y094750D02*
D03*
X042950Y085050D02*
D03*
X043765Y072965D02*
D03*
X079300Y078000D02*
D03*
X079441Y075600D02*
D03*
X076100Y075395D02*
D03*
X074000Y077050D02*
D03*
X072200Y077500D02*
D03*
X053950Y082250D02*
D03*
X054900Y082300D02*
D03*
X055900D02*
D03*
X056900D02*
D03*
X057950Y082250D02*
D03*
X076850Y073700D02*
D03*
X076400Y073900D02*
D03*
X076750Y074750D02*
D03*
X054200Y081000D02*
D03*
X053100Y081900D02*
D03*
X052400Y081800D02*
D03*
X062350Y086700D02*
D03*
X076500Y074350D02*
D03*
X074000Y071100D02*
D03*
X058350Y086350D02*
D03*
X081550Y076400D02*
D03*
X066500Y087100D02*
D03*
X065500Y077000D02*
D03*
X068500Y077200D02*
D03*
X075050Y076000D02*
D03*
X077400Y072300D02*
D03*
X079202Y096500D02*
D03*
X078250Y076636D02*
D03*
X075300Y071900D02*
D03*
X083400Y078250D02*
D03*
X086200Y078050D02*
D03*
X070550Y086050D02*
D03*
X086470Y078890D02*
D03*
X073228Y083268D02*
D03*
X086700Y078510D02*
D03*
X074508Y083071D02*
D03*
X086950Y077750D02*
D03*
X075300Y083200D02*
D03*
X087150Y076750D02*
D03*
X087320Y075770D02*
D03*
X087480Y074780D02*
D03*
X087640Y073760D02*
D03*
X075430Y071400D02*
D03*
X075760Y071380D02*
D03*
X076217Y071040D02*
D03*
X074760Y072255D02*
D03*
X043700Y077700D02*
D03*
X073550Y071150D02*
D03*
D51*
X087780Y072730D02*
D03*
M02*
