G04 Layer_Color=15132400*
%FSAX23Y23*%
%MOIN*%
G70*
G01*
G75*
%ADD25C,0.010*%
%ADD26C,0.020*%
%ADD54C,0.024*%
%ADD55C,0.010*%
%ADD56C,0.008*%
%ADD57C,0.025*%
%ADD58C,0.006*%
%ADD59C,0.005*%
%ADD60R,0.030X0.026*%
%ADD61R,0.030X0.026*%
%ADD62R,0.025X0.100*%
G36*
X07473Y10311D02*
X07403D01*
X07438Y10346D01*
X07473Y10311D01*
D02*
G37*
D25*
X06955Y09275D02*
G03*
X06955Y09275I-00005J00000D01*
G01*
X05263Y09680D02*
G03*
X05263Y09680I-00203J00000D01*
G01*
X04760Y09925D02*
G03*
X04760Y09925I-00010J00000D01*
G01*
X06550Y09825D02*
G03*
X06550Y09825I-00005J00000D01*
G01*
X07180Y09875D02*
Y09905D01*
X07647Y09874D02*
Y09904D01*
X04765Y09600D02*
X04795D01*
X04650Y10225D02*
X05650D01*
Y09975D02*
Y10225D01*
X04650Y09975D02*
X05650D01*
X04650D02*
Y10505D01*
X05650D01*
Y09975D02*
Y10505D01*
X10340Y07105D02*
X10370D01*
X09540D02*
X09570D01*
X08740Y07110D02*
X08770D01*
X07900Y09695D02*
Y09725D01*
X07397Y09856D02*
Y09886D01*
X07900Y09490D02*
Y09520D01*
X05985Y09450D02*
Y09480D01*
X08040Y09875D02*
Y09905D01*
X07970Y09390D02*
X08000D01*
X06005Y09900D02*
Y09930D01*
X07469Y07151D02*
X07491Y07129D01*
X07982Y07191D02*
X08004Y07213D01*
X07864Y07726D02*
X07886Y07704D01*
X04420Y07225D02*
Y07255D01*
X04400Y07705D02*
Y07735D01*
Y08485D02*
Y08515D01*
X08295Y07655D02*
Y07685D01*
X07185Y07795D02*
Y07825D01*
X06487Y07223D02*
Y07577D01*
X07313Y07223D02*
Y07577D01*
X06487D02*
X07313D01*
X06487Y07223D02*
X07313D01*
X07444Y07639D02*
X07466Y07661D01*
X06200Y07395D02*
Y07425D01*
X08805Y06975D02*
Y10175D01*
Y06975D02*
X09155D01*
Y10175D01*
X08805D02*
X09155D01*
X09605Y06975D02*
Y10175D01*
Y06975D02*
X09955D01*
Y10175D01*
X09605D02*
X09955D01*
X10405Y06975D02*
Y10175D01*
Y06975D02*
X10755D01*
Y10175D01*
X10405D02*
X10755D01*
X05714Y10000D02*
X06266D01*
X05714Y10500D02*
X06266D01*
Y10355D02*
Y10500D01*
Y10000D02*
Y10224D01*
X05714Y10361D02*
Y10500D01*
Y10000D02*
Y10219D01*
X06050Y06994D02*
Y07053D01*
X06099Y07142D02*
X06237D01*
X06286Y06994D02*
Y07053D01*
X06099Y06905D02*
X06237D01*
X04370Y09355D02*
Y09385D01*
X07030Y09010D02*
Y08960D01*
X07040Y08950D01*
X07060D01*
X07070Y08960D01*
Y09010D01*
X07090Y08950D02*
Y08990D01*
X07110Y09010D01*
X07130Y08990D01*
Y08950D01*
Y08980D01*
X07090D01*
X07150Y08950D02*
Y09010D01*
X07180D01*
X07190Y09000D01*
Y08980D01*
X07180Y08970D01*
X07150D01*
X07170D02*
X07190Y08950D01*
X07210Y09010D02*
X07250D01*
X07230D01*
Y08950D01*
X07370D02*
X07330D01*
X07370Y08990D01*
Y09000D01*
X07360Y09010D01*
X07340D01*
X07330Y09000D01*
X06920Y09360D02*
X06900D01*
X06910D01*
Y09310D01*
X06900Y09300D01*
X06890D01*
X06880Y09310D01*
X06940Y09360D02*
X06980D01*
Y09350D01*
X06940Y09310D01*
Y09300D01*
X07727Y09392D02*
Y09342D01*
X07737Y09332D01*
X07757D01*
X07767Y09342D01*
Y09392D01*
X07787Y09342D02*
X07797Y09332D01*
X07817D01*
X07827Y09342D01*
Y09382D01*
X07817Y09392D01*
X07797D01*
X07787Y09382D01*
Y09372D01*
X07797Y09362D01*
X07827D01*
X10175Y07125D02*
X10165Y07135D01*
X10145D01*
X10135Y07125D01*
Y07085D01*
X10145Y07075D01*
X10165D01*
X10175Y07085D01*
X10235Y07075D02*
X10195D01*
X10235Y07115D01*
Y07125D01*
X10225Y07135D01*
X10205D01*
X10195Y07125D01*
X10295Y07135D02*
X10255D01*
Y07105D01*
X10275Y07115D01*
X10285D01*
X10295Y07105D01*
Y07085D01*
X10285Y07075D01*
X10265D01*
X10255Y07085D01*
X09375Y07125D02*
X09365Y07135D01*
X09345D01*
X09335Y07125D01*
Y07085D01*
X09345Y07075D01*
X09365D01*
X09375Y07085D01*
X09435Y07075D02*
X09395D01*
X09435Y07115D01*
Y07125D01*
X09425Y07135D01*
X09405D01*
X09395Y07125D01*
X09495Y07075D02*
X09455D01*
X09495Y07115D01*
Y07125D01*
X09485Y07135D01*
X09465D01*
X09455Y07125D01*
X08655Y07020D02*
X08645Y07030D01*
X08625D01*
X08615Y07020D01*
Y06980D01*
X08625Y06970D01*
X08645D01*
X08655Y06980D01*
X08715Y06970D02*
X08675D01*
X08715Y07010D01*
Y07020D01*
X08705Y07030D01*
X08685D01*
X08675Y07020D01*
X08735D02*
X08745Y07030D01*
X08765D01*
X08775Y07020D01*
Y06980D01*
X08765Y06970D01*
X08745D01*
X08735Y06980D01*
Y07020D01*
X06306Y07309D02*
Y07259D01*
X06316Y07249D01*
X06336D01*
X06346Y07259D01*
Y07309D01*
X06366Y07249D02*
X06386D01*
X06376D01*
Y07309D01*
X06366Y07299D01*
X06326Y07430D02*
X06316Y07440D01*
X06296D01*
X06286Y07430D01*
Y07390D01*
X06296Y07380D01*
X06316D01*
X06326Y07390D01*
X06386Y07440D02*
X06366Y07430D01*
X06346Y07410D01*
Y07390D01*
X06356Y07380D01*
X06376D01*
X06386Y07390D01*
Y07400D01*
X06376Y07410D01*
X06346D01*
X04340Y08450D02*
X04330Y08460D01*
X04310D01*
X04300Y08450D01*
Y08410D01*
X04310Y08400D01*
X04330D01*
X04340Y08410D01*
X04360Y08450D02*
X04370Y08460D01*
X04390D01*
X04400Y08450D01*
Y08440D01*
X04390Y08430D01*
X04380D01*
X04390D01*
X04400Y08420D01*
Y08410D01*
X04390Y08400D01*
X04370D01*
X04360Y08410D01*
X07205Y07115D02*
Y07175D01*
X07235D01*
X07245Y07165D01*
Y07145D01*
X07235Y07135D01*
X07205D01*
X07225D02*
X07245Y07115D01*
X07265Y07175D02*
X07305D01*
Y07165D01*
X07265Y07125D01*
Y07115D01*
X06735Y09485D02*
Y09545D01*
X06765D01*
X06775Y09535D01*
Y09515D01*
X06765Y09505D01*
X06735D01*
X06755D02*
X06775Y09485D01*
X06835Y09545D02*
X06815Y09535D01*
X06795Y09515D01*
Y09495D01*
X06805Y09485D01*
X06825D01*
X06835Y09495D01*
Y09505D01*
X06825Y09515D01*
X06795D01*
X07197Y09619D02*
Y09679D01*
X07217Y09659D01*
X07237Y09679D01*
Y09619D01*
X07257D02*
Y09659D01*
X07277Y09679D01*
X07297Y09659D01*
Y09619D01*
Y09649D01*
X07257D01*
X07317Y09679D02*
X07357Y09619D01*
Y09679D02*
X07317Y09619D01*
X07417D02*
X07377D01*
X07417Y09659D01*
Y09669D01*
X07407Y09679D01*
X07387D01*
X07377Y09669D01*
X07437D02*
X07447Y09679D01*
X07467D01*
X07477Y09669D01*
Y09659D01*
X07467Y09649D01*
X07457D01*
X07467D01*
X07477Y09639D01*
Y09629D01*
X07467Y09619D01*
X07447D01*
X07437Y09629D01*
X07537Y09619D02*
X07497D01*
X07537Y09659D01*
Y09669D01*
X07527Y09679D01*
X07507D01*
X07497Y09669D01*
X07557Y09619D02*
Y09679D01*
X07597Y09619D01*
Y09679D01*
X07895Y09880D02*
X07845D01*
X07835Y09870D01*
Y09850D01*
X07845Y09840D01*
X07895D01*
X07885Y09820D02*
X07895Y09810D01*
Y09790D01*
X07885Y09780D01*
X07875D01*
X07865Y09790D01*
X07855Y09780D01*
X07845D01*
X07835Y09790D01*
Y09810D01*
X07845Y09820D01*
X07855D01*
X07865Y09810D01*
X07875Y09820D01*
X07885D01*
X07865Y09810D02*
Y09790D01*
X08460Y07100D02*
Y07090D01*
X08480Y07070D01*
X08500Y07090D01*
Y07100D01*
X08480Y07070D02*
Y07040D01*
X08520D02*
X08540D01*
X08530D01*
Y07100D01*
X08520Y07090D01*
X03990Y09705D02*
X04040D01*
X04050Y09715D01*
Y09735D01*
X04040Y09745D01*
X03990D01*
X04050Y09765D02*
Y09785D01*
Y09775D01*
X03990D01*
X04000Y09765D01*
X04050Y09815D02*
Y09835D01*
Y09825D01*
X03990D01*
X04000Y09815D01*
X05280Y09100D02*
Y09040D01*
X05300Y09060D01*
X05320Y09040D01*
Y09100D01*
X05380D02*
X05360Y09090D01*
X05340Y09070D01*
Y09050D01*
X05350Y09040D01*
X05370D01*
X05380Y09050D01*
Y09060D01*
X05370Y09070D01*
X05340D01*
X05440Y09100D02*
X05400D01*
Y09070D01*
X05420Y09080D01*
X05430D01*
X05440Y09070D01*
Y09050D01*
X05430Y09040D01*
X05410D01*
X05400Y09050D01*
X05500Y09090D02*
X05490Y09100D01*
X05470D01*
X05460Y09090D01*
Y09050D01*
X05470Y09040D01*
X05490D01*
X05500Y09050D01*
X05560Y09040D02*
X05520D01*
X05560Y09080D01*
Y09090D01*
X05550Y09100D01*
X05530D01*
X05520Y09090D01*
X05620Y09040D02*
X05580D01*
X05620Y09080D01*
Y09090D01*
X05610Y09100D01*
X05590D01*
X05580Y09090D01*
X05640Y09040D02*
Y09100D01*
X05680Y09040D01*
Y09100D01*
X06640Y09320D02*
X06590D01*
X06580Y09310D01*
Y09290D01*
X06590Y09280D01*
X06640D01*
X06580Y09260D02*
Y09240D01*
Y09250D01*
X06640D01*
X06630Y09260D01*
Y09210D02*
X06640Y09200D01*
Y09180D01*
X06630Y09170D01*
X06590D01*
X06580Y09180D01*
Y09200D01*
X06590Y09210D01*
X06630D01*
X05619Y09666D02*
Y09706D01*
X05639Y09726D01*
X05659Y09706D01*
Y09666D01*
Y09696D01*
X05619D01*
X05679Y09726D02*
X05719D01*
X05699D01*
Y09666D01*
X05749Y09716D02*
Y09706D01*
X05739D01*
X05759D01*
X05749D01*
Y09676D01*
X05759Y09666D01*
X05789D02*
X05809D01*
X05799D01*
Y09706D01*
X05789D01*
X05839Y09666D02*
Y09706D01*
X05869D01*
X05879Y09696D01*
Y09666D01*
X05899Y09706D02*
Y09676D01*
X05909Y09666D01*
X05939D01*
Y09656D01*
X05929Y09646D01*
X05919D01*
X05939Y09666D02*
Y09706D01*
X05959Y09716D02*
X05969Y09726D01*
X05989D01*
X05999Y09716D01*
Y09706D01*
X05989Y09696D01*
X05999Y09686D01*
Y09676D01*
X05989Y09666D01*
X05969D01*
X05959Y09676D01*
Y09686D01*
X05969Y09696D01*
X05959Y09706D01*
Y09716D01*
X05969Y09696D02*
X05989D01*
X06059Y09726D02*
X06039Y09716D01*
X06019Y09696D01*
Y09676D01*
X06029Y09666D01*
X06049D01*
X06059Y09676D01*
Y09686D01*
X06049Y09696D01*
X06019D01*
X06079Y09666D02*
X06099D01*
X06089D01*
Y09726D01*
X06079Y09716D01*
X06129Y09666D02*
Y09706D01*
X06149Y09726D01*
X06169Y09706D01*
Y09666D01*
Y09696D01*
X06129D01*
X06189D02*
X06229D01*
X06249Y09666D02*
Y09726D01*
X06279D01*
X06289Y09716D01*
Y09696D01*
X06279Y09686D01*
X06249D01*
X06309Y09726D02*
Y09676D01*
X06319Y09666D01*
X06339D01*
X06349Y09676D01*
Y09726D01*
X06580Y09580D02*
X06530D01*
X06520Y09570D01*
Y09550D01*
X06530Y09540D01*
X06580D01*
Y09520D02*
Y09480D01*
X06570D01*
X06530Y09520D01*
X06520D01*
X10480Y06930D02*
X10470Y06940D01*
X10450D01*
X10440Y06930D01*
Y06920D01*
X10450Y06910D01*
X10470D01*
X10480Y06900D01*
Y06890D01*
X10470Y06880D01*
X10450D01*
X10440Y06890D01*
X10500Y06940D02*
Y06880D01*
X10540D01*
X10590Y06940D02*
X10570D01*
X10560Y06930D01*
Y06890D01*
X10570Y06880D01*
X10590D01*
X10600Y06890D01*
Y06930D01*
X10590Y06940D01*
X10620D02*
X10660D01*
X10640D01*
Y06880D01*
X10680Y06930D02*
X10690Y06940D01*
X10710D01*
X10720Y06930D01*
Y06920D01*
X10710Y06910D01*
X10700D01*
X10710D01*
X10720Y06900D01*
Y06890D01*
X10710Y06880D01*
X10690D01*
X10680Y06890D01*
X09680Y06930D02*
X09670Y06940D01*
X09650D01*
X09640Y06930D01*
Y06920D01*
X09650Y06910D01*
X09670D01*
X09680Y06900D01*
Y06890D01*
X09670Y06880D01*
X09650D01*
X09640Y06890D01*
X09700Y06940D02*
Y06880D01*
X09740D01*
X09790Y06940D02*
X09770D01*
X09760Y06930D01*
Y06890D01*
X09770Y06880D01*
X09790D01*
X09800Y06890D01*
Y06930D01*
X09790Y06940D01*
X09820D02*
X09860D01*
X09840D01*
Y06880D01*
X09920D02*
X09880D01*
X09920Y06920D01*
Y06930D01*
X09910Y06940D01*
X09890D01*
X09880Y06930D01*
X08890D02*
X08880Y06940D01*
X08860D01*
X08850Y06930D01*
Y06920D01*
X08860Y06910D01*
X08880D01*
X08890Y06900D01*
Y06890D01*
X08880Y06880D01*
X08860D01*
X08850Y06890D01*
X08910Y06940D02*
Y06880D01*
X08950D01*
X09000Y06940D02*
X08980D01*
X08970Y06930D01*
Y06890D01*
X08980Y06880D01*
X09000D01*
X09010Y06890D01*
Y06930D01*
X09000Y06940D01*
X09030D02*
X09070D01*
X09050D01*
Y06880D01*
X09090D02*
X09110D01*
X09100D01*
Y06940D01*
X09090Y06930D01*
X06900Y08640D02*
Y08700D01*
X06930D01*
X06940Y08690D01*
Y08670D01*
X06930Y08660D01*
X06900D01*
X06920D02*
X06940Y08640D01*
X07000Y08700D02*
X06960D01*
Y08670D01*
X06980Y08680D01*
X06990D01*
X07000Y08670D01*
Y08650D01*
X06990Y08640D01*
X06970D01*
X06960Y08650D01*
X06500Y08575D02*
Y08635D01*
X06530D01*
X06540Y08625D01*
Y08605D01*
X06530Y08595D01*
X06500D01*
X06520D02*
X06540Y08575D01*
X06590D02*
Y08635D01*
X06560Y08605D01*
X06600D01*
X06380Y07720D02*
Y07780D01*
X06410D01*
X06420Y07770D01*
Y07750D01*
X06410Y07740D01*
X06380D01*
X06400D02*
X06420Y07720D01*
X06440Y07770D02*
X06450Y07780D01*
X06470D01*
X06480Y07770D01*
Y07760D01*
X06470Y07750D01*
X06460D01*
X06470D01*
X06480Y07740D01*
Y07730D01*
X06470Y07720D01*
X06450D01*
X06440Y07730D01*
X06795Y07755D02*
Y07815D01*
X06825D01*
X06835Y07805D01*
Y07785D01*
X06825Y07775D01*
X06795D01*
X06815D02*
X06835Y07755D01*
X06895D02*
X06855D01*
X06895Y07795D01*
Y07805D01*
X06885Y07815D01*
X06865D01*
X06855Y07805D01*
X06610Y07755D02*
Y07815D01*
X06640D01*
X06650Y07805D01*
Y07785D01*
X06640Y07775D01*
X06610D01*
X06630D02*
X06650Y07755D01*
X06670D02*
X06690D01*
X06680D01*
Y07815D01*
X06670Y07805D01*
X06545Y07200D02*
X06525D01*
X06535D01*
Y07150D01*
X06525Y07140D01*
X06515D01*
X06505Y07150D01*
X06605Y07200D02*
X06565D01*
Y07170D01*
X06585Y07180D01*
X06595D01*
X06605Y07170D01*
Y07150D01*
X06595Y07140D01*
X06575D01*
X06565Y07150D01*
X06710Y09960D02*
X06690D01*
X06700D01*
Y09910D01*
X06690Y09900D01*
X06680D01*
X06670Y09910D01*
X06760Y09900D02*
Y09960D01*
X06730Y09930D01*
X06770D01*
X08017Y10016D02*
X07997D01*
X08007D01*
Y09966D01*
X07997Y09956D01*
X07987D01*
X07977Y09966D01*
X08037Y10006D02*
X08047Y10016D01*
X08067D01*
X08077Y10006D01*
Y09996D01*
X08067Y09986D01*
X08057D01*
X08067D01*
X08077Y09976D01*
Y09966D01*
X08067Y09956D01*
X08047D01*
X08037Y09966D01*
X04865Y09952D02*
X04845D01*
X04855D01*
Y09902D01*
X04845Y09892D01*
X04835D01*
X04825Y09902D01*
X04925Y09892D02*
X04885D01*
X04925Y09932D01*
Y09942D01*
X04915Y09952D01*
X04895D01*
X04885Y09942D01*
X04040Y10010D02*
X04020D01*
X04030D01*
Y09960D01*
X04020Y09950D01*
X04010D01*
X04000Y09960D01*
X04060Y09950D02*
X04080D01*
X04070D01*
Y10010D01*
X04060Y10000D01*
X05360Y09715D02*
X05370Y09725D01*
Y09745D01*
X05360Y09755D01*
X05320D01*
X05310Y09745D01*
Y09725D01*
X05320Y09715D01*
X05310Y09655D02*
Y09695D01*
X05350Y09655D01*
X05360D01*
X05370Y09665D01*
Y09685D01*
X05360Y09695D01*
X05310Y09605D02*
X05370D01*
X05340Y09635D01*
Y09595D01*
X04760Y09510D02*
X04750Y09520D01*
X04730D01*
X04720Y09510D01*
Y09470D01*
X04730Y09460D01*
X04750D01*
X04760Y09470D01*
X04820Y09460D02*
X04780D01*
X04820Y09500D01*
Y09510D01*
X04810Y09520D01*
X04790D01*
X04780Y09510D01*
X04840D02*
X04850Y09520D01*
X04870D01*
X04880Y09510D01*
Y09500D01*
X04870Y09490D01*
X04860D01*
X04870D01*
X04880Y09480D01*
Y09470D01*
X04870Y09460D01*
X04850D01*
X04840Y09470D01*
X04000Y09580D02*
X03990Y09590D01*
X03970D01*
X03960Y09580D01*
Y09540D01*
X03970Y09530D01*
X03990D01*
X04000Y09540D01*
X04060Y09530D02*
X04020D01*
X04060Y09570D01*
Y09580D01*
X04050Y09590D01*
X04030D01*
X04020Y09580D01*
X04080Y09530D02*
X04100D01*
X04090D01*
Y09590D01*
X04080Y09580D01*
X07620Y09990D02*
X07610Y10000D01*
X07590D01*
X07580Y09990D01*
Y09950D01*
X07590Y09940D01*
X07610D01*
X07620Y09950D01*
X07640Y09940D02*
X07660D01*
X07650D01*
Y10000D01*
X07640Y09990D01*
X07690Y09950D02*
X07700Y09940D01*
X07720D01*
X07730Y09950D01*
Y09990D01*
X07720Y10000D01*
X07700D01*
X07690Y09990D01*
Y09980D01*
X07700Y09970D01*
X07730D01*
X08018Y09740D02*
X08008Y09750D01*
X07988D01*
X07978Y09740D01*
Y09701D01*
X07988Y09691D01*
X08008D01*
X08018Y09701D01*
X08038Y09691D02*
X08058D01*
X08048D01*
Y09750D01*
X08038Y09740D01*
X08088D02*
X08098Y09750D01*
X08118D01*
X08128Y09740D01*
Y09730D01*
X08118Y09721D01*
X08128Y09711D01*
Y09701D01*
X08118Y09691D01*
X08098D01*
X08088Y09701D01*
Y09711D01*
X08098Y09721D01*
X08088Y09730D01*
Y09740D01*
X08098Y09721D02*
X08118D01*
X07885Y09605D02*
X07875Y09615D01*
X07855D01*
X07845Y09605D01*
Y09565D01*
X07855Y09555D01*
X07875D01*
X07885Y09565D01*
X07905Y09555D02*
X07925D01*
X07915D01*
Y09615D01*
X07905Y09605D01*
X07955Y09615D02*
X07995D01*
Y09605D01*
X07955Y09565D01*
Y09555D01*
X05779Y09485D02*
X05769Y09495D01*
X05749D01*
X05739Y09485D01*
Y09445D01*
X05749Y09435D01*
X05769D01*
X05779Y09445D01*
X05799Y09435D02*
X05819D01*
X05809D01*
Y09495D01*
X05799Y09485D01*
X05889Y09495D02*
X05869Y09485D01*
X05849Y09465D01*
Y09445D01*
X05859Y09435D01*
X05879D01*
X05889Y09445D01*
Y09455D01*
X05879Y09465D01*
X05849D01*
X06974Y09910D02*
X06964Y09920D01*
X06944D01*
X06934Y09910D01*
Y09870D01*
X06944Y09860D01*
X06964D01*
X06974Y09870D01*
X06994Y09860D02*
X07014D01*
X07004D01*
Y09920D01*
X06994Y09910D01*
X07084Y09920D02*
X07044D01*
Y09890D01*
X07064Y09900D01*
X07074D01*
X07084Y09890D01*
Y09870D01*
X07074Y09860D01*
X07054D01*
X07044Y09870D01*
X08010Y09830D02*
X08000Y09840D01*
X07980D01*
X07970Y09830D01*
Y09790D01*
X07980Y09780D01*
X08000D01*
X08010Y09790D01*
X08030Y09780D02*
X08050D01*
X08040D01*
Y09840D01*
X08030Y09830D01*
X08110Y09780D02*
Y09840D01*
X08080Y09810D01*
X08120D01*
X07372Y09961D02*
X07362Y09971D01*
X07342D01*
X07332Y09961D01*
Y09921D01*
X07342Y09911D01*
X07362D01*
X07372Y09921D01*
X07392Y09911D02*
X07412D01*
X07402D01*
Y09971D01*
X07392Y09961D01*
X07442D02*
X07452Y09971D01*
X07472D01*
X07482Y09961D01*
Y09951D01*
X07472Y09941D01*
X07462D01*
X07472D01*
X07482Y09931D01*
Y09921D01*
X07472Y09911D01*
X07452D01*
X07442Y09921D01*
X08058Y09455D02*
X08048Y09465D01*
X08028D01*
X08018Y09455D01*
Y09415D01*
X08028Y09405D01*
X08048D01*
X08058Y09415D01*
X08078Y09405D02*
X08098D01*
X08088D01*
Y09465D01*
X08078Y09455D01*
X08128Y09405D02*
X08148D01*
X08138D01*
Y09465D01*
X08128Y09455D01*
X07420Y07050D02*
X07410Y07060D01*
X07390D01*
X07380Y07050D01*
Y07010D01*
X07390Y07000D01*
X07410D01*
X07420Y07010D01*
X07440Y07000D02*
X07460D01*
X07450D01*
Y07060D01*
X07440Y07050D01*
X07490D02*
X07500Y07060D01*
X07520D01*
X07530Y07050D01*
Y07010D01*
X07520Y07000D01*
X07500D01*
X07490Y07010D01*
Y07050D01*
X07983Y07094D02*
X07973Y07104D01*
X07953D01*
X07943Y07094D01*
Y07054D01*
X07953Y07044D01*
X07973D01*
X07983Y07054D01*
X08003D02*
X08013Y07044D01*
X08033D01*
X08043Y07054D01*
Y07094D01*
X08033Y07104D01*
X08013D01*
X08003Y07094D01*
Y07084D01*
X08013Y07074D01*
X08043D01*
X07800Y07805D02*
X07790Y07815D01*
X07770D01*
X07760Y07805D01*
Y07765D01*
X07770Y07755D01*
X07790D01*
X07800Y07765D01*
X07820Y07805D02*
X07830Y07815D01*
X07850D01*
X07860Y07805D01*
Y07795D01*
X07850Y07785D01*
X07860Y07775D01*
Y07765D01*
X07850Y07755D01*
X07830D01*
X07820Y07765D01*
Y07775D01*
X07830Y07785D01*
X07820Y07795D01*
Y07805D01*
X07830Y07785D02*
X07850D01*
X07446Y07791D02*
X07436Y07801D01*
X07416D01*
X07406Y07791D01*
Y07751D01*
X07416Y07741D01*
X07436D01*
X07446Y07751D01*
X07466Y07801D02*
X07506D01*
Y07791D01*
X07466Y07751D01*
Y07741D01*
X04380Y07170D02*
X04370Y07180D01*
X04350D01*
X04340Y07170D01*
Y07130D01*
X04350Y07120D01*
X04370D01*
X04380Y07130D01*
X04440Y07180D02*
X04400D01*
Y07150D01*
X04420Y07160D01*
X04430D01*
X04440Y07150D01*
Y07130D01*
X04430Y07120D01*
X04410D01*
X04400Y07130D01*
X07150Y07760D02*
X07140Y07770D01*
X07120D01*
X07110Y07760D01*
Y07720D01*
X07120Y07710D01*
X07140D01*
X07150Y07720D01*
X07170Y07710D02*
X07190D01*
X07180D01*
Y07770D01*
X07170Y07760D01*
X08200Y09500D02*
Y09490D01*
X08220Y09470D01*
X08240Y09490D01*
Y09500D01*
X08220Y09470D02*
Y09440D01*
X08300D02*
X08260D01*
X08300Y09480D01*
Y09490D01*
X08290Y09500D01*
X08270D01*
X08260Y09490D01*
X04797Y07067D02*
X04787Y07077D01*
X04767D01*
X04757Y07067D01*
Y07027D01*
X04767Y07017D01*
X04787D01*
X04797Y07027D01*
X04817Y07077D02*
Y07067D01*
X04837Y07047D01*
X04857Y07067D01*
Y07077D01*
X04837Y07047D02*
Y07017D01*
X04877Y07077D02*
X04917D01*
Y07067D01*
X04877Y07027D01*
Y07017D01*
X04977Y07067D02*
X04967Y07077D01*
X04947D01*
X04937Y07067D01*
Y07027D01*
X04947Y07017D01*
X04967D01*
X04977Y07027D01*
X04997Y07017D02*
X05017D01*
X05007D01*
Y07077D01*
X04997Y07067D01*
X05047Y07027D02*
X05057Y07017D01*
X05077D01*
X05087Y07027D01*
Y07067D01*
X05077Y07077D01*
X05057D01*
X05047Y07067D01*
Y07057D01*
X05057Y07047D01*
X05087D01*
X05107Y07027D02*
X05117Y07017D01*
X05137D01*
X05147Y07027D01*
Y07067D01*
X05137Y07077D01*
X05117D01*
X05107Y07067D01*
Y07057D01*
X05117Y07047D01*
X05147D01*
X05207Y07067D02*
X05197Y07077D01*
X05177D01*
X05167Y07067D01*
Y07027D01*
X05177Y07017D01*
X05197D01*
X05207Y07027D01*
X05227Y07017D02*
Y07077D01*
X05267Y07017D01*
Y07077D01*
X05287Y07047D02*
X05327D01*
X05347Y07017D02*
X05367D01*
X05357D01*
Y07077D01*
X05347Y07067D01*
X05437Y07077D02*
X05397D01*
Y07047D01*
X05417Y07057D01*
X05427D01*
X05437Y07047D01*
Y07027D01*
X05427Y07017D01*
X05407D01*
X05397Y07027D01*
X05457Y07017D02*
Y07077D01*
X05487D01*
X05497Y07067D01*
Y07047D01*
X05487Y07037D01*
X05457D01*
X05517Y07077D02*
X05557Y07017D01*
Y07077D02*
X05517Y07017D01*
X05617Y07067D02*
X05607Y07077D01*
X05587D01*
X05577Y07067D01*
Y07027D01*
X05587Y07017D01*
X05607D01*
X05617Y07027D01*
X04380Y06940D02*
X04430D01*
X04440Y06950D01*
Y06970D01*
X04430Y06980D01*
X04380D01*
Y07040D02*
Y07000D01*
X04410D01*
X04400Y07020D01*
Y07030D01*
X04410Y07040D01*
X04430D01*
X04440Y07030D01*
Y07010D01*
X04430Y07000D01*
X04797Y07559D02*
X04787Y07569D01*
X04767D01*
X04757Y07559D01*
Y07519D01*
X04767Y07509D01*
X04787D01*
X04797Y07519D01*
X04817Y07569D02*
Y07559D01*
X04837Y07539D01*
X04857Y07559D01*
Y07569D01*
X04837Y07539D02*
Y07509D01*
X04877Y07569D02*
X04917D01*
Y07559D01*
X04877Y07519D01*
Y07509D01*
X04977Y07559D02*
X04967Y07569D01*
X04947D01*
X04937Y07559D01*
Y07519D01*
X04947Y07509D01*
X04967D01*
X04977Y07519D01*
X04997Y07509D02*
X05017D01*
X05007D01*
Y07569D01*
X04997Y07559D01*
X05047Y07519D02*
X05057Y07509D01*
X05077D01*
X05087Y07519D01*
Y07559D01*
X05077Y07569D01*
X05057D01*
X05047Y07559D01*
Y07549D01*
X05057Y07539D01*
X05087D01*
X05107Y07519D02*
X05117Y07509D01*
X05137D01*
X05147Y07519D01*
Y07559D01*
X05137Y07569D01*
X05117D01*
X05107Y07559D01*
Y07549D01*
X05117Y07539D01*
X05147D01*
X05207Y07559D02*
X05197Y07569D01*
X05177D01*
X05167Y07559D01*
Y07519D01*
X05177Y07509D01*
X05197D01*
X05207Y07519D01*
X05227Y07509D02*
Y07569D01*
X05267Y07509D01*
Y07569D01*
X05287Y07539D02*
X05327D01*
X05347Y07509D02*
X05367D01*
X05357D01*
Y07569D01*
X05347Y07559D01*
X05437Y07569D02*
X05397D01*
Y07539D01*
X05417Y07549D01*
X05427D01*
X05437Y07539D01*
Y07519D01*
X05427Y07509D01*
X05407D01*
X05397Y07519D01*
X05457Y07509D02*
Y07569D01*
X05487D01*
X05497Y07559D01*
Y07539D01*
X05487Y07529D01*
X05457D01*
X05517Y07569D02*
X05557Y07509D01*
Y07569D02*
X05517Y07509D01*
X05617Y07559D02*
X05607Y07569D01*
X05587D01*
X05577Y07559D01*
Y07519D01*
X05587Y07509D01*
X05607D01*
X05617Y07519D01*
X04380Y07440D02*
X04430D01*
X04440Y07450D01*
Y07470D01*
X04430Y07480D01*
X04380D01*
X04440Y07530D02*
X04380D01*
X04410Y07500D01*
Y07540D01*
X04816Y08170D02*
Y08210D01*
X04836Y08230D01*
X04856Y08210D01*
Y08170D01*
Y08200D01*
X04816D01*
X04876Y08230D02*
X04916D01*
X04896D01*
Y08170D01*
X04976D02*
X04936D01*
X04976Y08210D01*
Y08220D01*
X04966Y08230D01*
X04946D01*
X04936Y08220D01*
X04996D02*
X05006Y08230D01*
X05026D01*
X05036Y08220D01*
Y08210D01*
X05026Y08200D01*
X05036Y08190D01*
Y08180D01*
X05026Y08170D01*
X05006D01*
X04996Y08180D01*
Y08190D01*
X05006Y08200D01*
X04996Y08210D01*
Y08220D01*
X05006Y08200D02*
X05026D01*
X05096Y08220D02*
X05086Y08230D01*
X05066D01*
X05056Y08220D01*
Y08180D01*
X05066Y08170D01*
X05086D01*
X05096Y08180D01*
X05156Y08230D02*
X05136Y08220D01*
X05116Y08200D01*
Y08180D01*
X05126Y08170D01*
X05146D01*
X05156Y08180D01*
Y08190D01*
X05146Y08200D01*
X05116D01*
X05206Y08170D02*
Y08230D01*
X05176Y08200D01*
X05216D01*
X05236Y08230D02*
Y08170D01*
X05266D01*
X05276Y08180D01*
Y08190D01*
X05266Y08200D01*
X05236D01*
X05266D01*
X05276Y08210D01*
Y08220D01*
X05266Y08230D01*
X05236D01*
X05296Y08200D02*
X05336D01*
X05356Y08170D02*
X05376D01*
X05366D01*
Y08230D01*
X05356Y08220D01*
X05446Y08230D02*
X05406D01*
Y08200D01*
X05426Y08210D01*
X05436D01*
X05446Y08200D01*
Y08180D01*
X05436Y08170D01*
X05416D01*
X05406Y08180D01*
X05466Y08170D02*
Y08230D01*
X05496D01*
X05506Y08220D01*
Y08200D01*
X05496Y08190D01*
X05466D01*
X05526Y08230D02*
Y08180D01*
X05536Y08170D01*
X05556D01*
X05566Y08180D01*
Y08230D01*
X04340Y07940D02*
X04390D01*
X04400Y07950D01*
Y07970D01*
X04390Y07980D01*
X04340D01*
X04350Y08000D02*
X04340Y08010D01*
Y08030D01*
X04350Y08040D01*
X04360D01*
X04370Y08030D01*
Y08020D01*
Y08030D01*
X04380Y08040D01*
X04390D01*
X04400Y08030D01*
Y08010D01*
X04390Y08000D01*
X07200Y08230D02*
Y08170D01*
X07220Y08190D01*
X07240Y08170D01*
Y08230D01*
X07300D02*
X07280Y08220D01*
X07260Y08200D01*
Y08180D01*
X07270Y08170D01*
X07290D01*
X07300Y08180D01*
Y08190D01*
X07290Y08200D01*
X07260D01*
X07360Y08230D02*
X07320D01*
Y08200D01*
X07340Y08210D01*
X07350D01*
X07360Y08200D01*
Y08180D01*
X07350Y08170D01*
X07330D01*
X07320Y08180D01*
X07420Y08220D02*
X07410Y08230D01*
X07390D01*
X07380Y08220D01*
Y08180D01*
X07390Y08170D01*
X07410D01*
X07420Y08180D01*
X07440Y08220D02*
X07450Y08230D01*
X07470D01*
X07480Y08220D01*
Y08180D01*
X07470Y08170D01*
X07450D01*
X07440Y08180D01*
Y08220D01*
X07540Y08170D02*
X07500D01*
X07540Y08210D01*
Y08220D01*
X07530Y08230D01*
X07510D01*
X07500Y08220D01*
X07600D02*
X07590Y08230D01*
X07570D01*
X07560Y08220D01*
Y08210D01*
X07570Y08200D01*
X07590D01*
X07600Y08190D01*
Y08180D01*
X07590Y08170D01*
X07570D01*
X07560Y08180D01*
X06260Y07977D02*
X06310D01*
X06320Y07987D01*
Y08007D01*
X06310Y08017D01*
X06260D01*
X06320Y08077D02*
Y08037D01*
X06280Y08077D01*
X06270D01*
X06260Y08067D01*
Y08047D01*
X06270Y08037D01*
X04380Y07670D02*
X04370Y07680D01*
X04350D01*
X04340Y07670D01*
Y07630D01*
X04350Y07620D01*
X04370D01*
X04380Y07630D01*
X04430Y07620D02*
Y07680D01*
X04400Y07650D01*
X04440D01*
X08285Y07781D02*
X08275Y07791D01*
X08255D01*
X08245Y07781D01*
Y07741D01*
X08255Y07731D01*
X08275D01*
X08285Y07741D01*
X08345Y07731D02*
X08305D01*
X08345Y07771D01*
Y07781D01*
X08335Y07791D01*
X08315D01*
X08305Y07781D01*
X07660Y07092D02*
Y07042D01*
X07670Y07032D01*
X07690D01*
X07700Y07042D01*
Y07092D01*
X07760D02*
X07740Y07082D01*
X07720Y07062D01*
Y07042D01*
X07730Y07032D01*
X07750D01*
X07760Y07042D01*
Y07052D01*
X07750Y07062D01*
X07720D01*
X06340Y10070D02*
X06320D01*
X06330D01*
Y10020D01*
X06320Y10010D01*
X06310D01*
X06300Y10020D01*
X06400Y10070D02*
X06380Y10060D01*
X06360Y10040D01*
Y10020D01*
X06370Y10010D01*
X06390D01*
X06400Y10020D01*
Y10030D01*
X06390Y10040D01*
X06360D01*
X05425Y09875D02*
Y09935D01*
X05455D01*
X05465Y09925D01*
Y09905D01*
X05455Y09895D01*
X05425D01*
X05445D02*
X05465Y09875D01*
X05485Y09925D02*
X05495Y09935D01*
X05515D01*
X05525Y09925D01*
Y09915D01*
X05515Y09905D01*
X05525Y09895D01*
Y09885D01*
X05515Y09875D01*
X05495D01*
X05485Y09885D01*
Y09895D01*
X05495Y09905D01*
X05485Y09915D01*
Y09925D01*
X05495Y09905D02*
X05515D01*
X05685Y09880D02*
Y09940D01*
X05715D01*
X05725Y09930D01*
Y09910D01*
X05715Y09900D01*
X05685D01*
X05705D02*
X05725Y09880D01*
X05745Y09890D02*
X05755Y09880D01*
X05775D01*
X05785Y09890D01*
Y09930D01*
X05775Y09940D01*
X05755D01*
X05745Y09930D01*
Y09920D01*
X05755Y09910D01*
X05785D01*
X06126Y09935D02*
X06116Y09945D01*
X06096D01*
X06086Y09935D01*
Y09895D01*
X06096Y09885D01*
X06116D01*
X06126Y09895D01*
X06186Y09885D02*
X06146D01*
X06186Y09925D01*
Y09935D01*
X06176Y09945D01*
X06156D01*
X06146Y09935D01*
X06246Y09945D02*
X06226Y09935D01*
X06206Y09915D01*
Y09895D01*
X06216Y09885D01*
X06236D01*
X06246Y09895D01*
Y09905D01*
X06236Y09915D01*
X06206D01*
X04065Y09465D02*
Y09405D01*
X04095D01*
X04105Y09415D01*
Y09455D01*
X04095Y09465D01*
X04065D01*
X04165Y09405D02*
X04125D01*
X04165Y09445D01*
Y09455D01*
X04155Y09465D01*
X04135D01*
X04125Y09455D01*
X07000Y07600D02*
Y07660D01*
X07030D01*
X07040Y07650D01*
Y07630D01*
X07030Y07620D01*
X07000D01*
X07020D02*
X07040Y07600D01*
X07060D02*
X07080D01*
X07070D01*
Y07660D01*
X07060Y07650D01*
X07110D02*
X07120Y07660D01*
X07140D01*
X07150Y07650D01*
Y07610D01*
X07140Y07600D01*
X07120D01*
X07110Y07610D01*
Y07650D01*
X07395Y07340D02*
X07335D01*
Y07370D01*
X07345Y07380D01*
X07365D01*
X07375Y07370D01*
Y07340D01*
Y07360D02*
X07395Y07380D01*
Y07400D02*
Y07420D01*
Y07410D01*
X07335D01*
X07345Y07400D01*
X07395Y07450D02*
Y07470D01*
Y07460D01*
X07335D01*
X07345Y07450D01*
X04740Y08710D02*
Y08650D01*
X04770D01*
X04780Y08660D01*
Y08700D01*
X04770Y08710D01*
X04740D01*
X04800Y08650D02*
X04820D01*
X04810D01*
Y08710D01*
X04800Y08700D01*
X04295Y09305D02*
X04285Y09315D01*
X04265D01*
X04255Y09305D01*
Y09265D01*
X04265Y09255D01*
X04285D01*
X04295Y09265D01*
X04315Y09255D02*
X04335D01*
X04325D01*
Y09315D01*
X04315Y09305D01*
X04405Y09255D02*
X04365D01*
X04405Y09295D01*
Y09305D01*
X04395Y09315D01*
X04375D01*
X04365Y09305D01*
X04991Y09562D02*
Y09602D01*
X04971Y09582D02*
X05011D01*
X06030Y06820D02*
Y06880D01*
X06060D01*
X06070Y06870D01*
Y06850D01*
X06060Y06840D01*
X06030D01*
X06050D02*
X06070Y06820D01*
X06130Y06880D02*
X06090D01*
Y06820D01*
X06130D01*
X06090Y06850D02*
X06110D01*
X06190Y06870D02*
X06180Y06880D01*
X06160D01*
X06150Y06870D01*
Y06860D01*
X06160Y06850D01*
X06180D01*
X06190Y06840D01*
Y06830D01*
X06180Y06820D01*
X06160D01*
X06150Y06830D01*
X06250Y06880D02*
X06210D01*
Y06820D01*
X06250D01*
X06210Y06850D02*
X06230D01*
X06270Y06880D02*
X06310D01*
X06290D01*
Y06820D01*
X06820Y07200D02*
X06800D01*
X06810D01*
Y07150D01*
X06800Y07140D01*
X06790D01*
X06780Y07150D01*
X06840Y07200D02*
X06880D01*
X06860D01*
Y07140D01*
X06900D02*
Y07180D01*
X06920Y07200D01*
X06940Y07180D01*
Y07140D01*
Y07170D01*
X06900D01*
X07000Y07190D02*
X06990Y07200D01*
X06970D01*
X06960Y07190D01*
Y07150D01*
X06970Y07140D01*
X06990D01*
X07000Y07150D01*
Y07170D01*
X06980D01*
X06850Y09620D02*
Y09640D01*
Y09630D01*
X06910D01*
Y09620D01*
Y09640D01*
X06860Y09710D02*
X06850Y09700D01*
Y09680D01*
X06860Y09670D01*
X06900D01*
X06910Y09680D01*
Y09700D01*
X06900Y09710D01*
X06860Y09770D02*
X06850Y09760D01*
Y09740D01*
X06860Y09730D01*
X06870D01*
X06880Y09740D01*
Y09760D01*
X06890Y09770D01*
X06900D01*
X06910Y09760D01*
Y09740D01*
X06900Y09730D01*
X06910Y09790D02*
X06850D01*
Y09820D01*
X06860Y09830D01*
X06880D01*
X06890Y09820D01*
Y09790D01*
D26*
X07101Y07550D02*
G03*
X07101Y07550I-00001J00000D01*
G01*
D54*
X07846Y09186D02*
G03*
X07846Y09186I-00012J00000D01*
G01*
X07904Y07405D02*
G03*
X07904Y07405I-00012J00000D01*
G01*
X04492Y07985D02*
G03*
X04492Y07985I-00012J00000D01*
G01*
X06402Y07985D02*
G03*
X06402Y07985I-00012J00000D01*
G01*
X07757Y09714D02*
G03*
X07757Y09714I-00012J00000D01*
G01*
X04526Y06982D02*
G03*
X04526Y06982I-00012J00000D01*
G01*
Y07474D02*
G03*
X04526Y07474I-00012J00000D01*
G01*
X06468Y09751D02*
G03*
X06468Y09751I-00012J00000D01*
G01*
X08173Y07315D02*
G03*
X08173Y07315I-00012J00000D01*
G01*
X08248Y09715D02*
G03*
X08248Y09715I-00012J00000D01*
G01*
X06496Y09285D02*
G03*
X06496Y09285I-00012J00000D01*
G01*
D55*
X07754Y09240D02*
G03*
X07754Y09240I-00005J00000D01*
G01*
X07995Y07427D02*
G03*
X07995Y07427I-00005J00000D01*
G01*
X04494Y07900D02*
G03*
X04494Y07900I-00005J00000D01*
G01*
X06404Y07900D02*
G03*
X06404Y07900I-00005J00000D01*
G01*
X07803Y09799D02*
G03*
X07803Y09799I-00005J00000D01*
G01*
X04491Y06897D02*
G03*
X04491Y06897I-00005J00000D01*
G01*
Y07389D02*
G03*
X04491Y07389I-00005J00000D01*
G01*
X06490Y09836D02*
G03*
X06490Y09836I-00005J00000D01*
G01*
X06061Y07202D02*
G03*
X06061Y07202I-00005J00000D01*
G01*
X06486Y09370D02*
G03*
X06486Y09370I-00005J00000D01*
G01*
X04226Y09657D02*
G03*
X04226Y09657I-00005J00000D01*
G01*
D56*
X04441Y08175D02*
G03*
X04441Y08225I00000J00025D01*
G01*
X06351Y08175D02*
G03*
X06351Y08225I00000J00025D01*
G01*
X07784Y09674D02*
G03*
X07784Y09624I00000J-00025D01*
G01*
X04474Y07022D02*
G03*
X04474Y07072I00000J00025D01*
G01*
Y07514D02*
G03*
X04474Y07564I00000J00025D01*
G01*
X06496Y09711D02*
G03*
X06496Y09661I00000J-00025D01*
G01*
X06251Y07197D02*
G03*
X06089Y07197I-00081J00063D01*
G01*
X06523Y09095D02*
G03*
X06523Y09045I00000J-00025D01*
G01*
X04730Y08623D02*
G03*
X04730Y08623I-00001J00000D01*
G01*
X07795Y08875D02*
X08145D01*
X07795Y09225D02*
X08145D01*
Y08875D02*
Y09225D01*
X07795Y08875D02*
Y09225D01*
X07452Y07405D02*
X07700Y07653D01*
Y07157D02*
X07948Y07405D01*
X07452D02*
X07700Y07157D01*
Y07653D02*
X07948Y07405D01*
X05941Y07946D02*
Y08454D01*
X04441Y08225D02*
Y08454D01*
Y07946D02*
Y08175D01*
Y08454D02*
X05941D01*
X04441Y07946D02*
X05941D01*
X06351Y07946D02*
X08449D01*
X06351Y08454D02*
X08449D01*
X06351Y07946D02*
Y08175D01*
Y08225D02*
Y08454D01*
X08449Y07946D02*
Y08454D01*
X07009Y09545D02*
Y09754D01*
X07784Y09545D02*
Y09624D01*
Y09674D02*
Y09754D01*
X07009Y09545D02*
X07784D01*
X07009Y09754D02*
X07784D01*
X05900Y06943D02*
Y07152D01*
X04474Y07072D02*
Y07152D01*
Y06943D02*
Y07022D01*
Y07152D02*
X05900D01*
X04474Y06943D02*
X05900D01*
Y07435D02*
Y07644D01*
X04474Y07564D02*
Y07644D01*
Y07435D02*
Y07514D01*
Y07644D02*
X05900D01*
X04474Y07435D02*
X05900D01*
X05472Y09582D02*
Y09790D01*
X06496Y09582D02*
Y09661D01*
Y09711D02*
Y09790D01*
X05472Y09582D02*
X06496D01*
X05472Y09790D02*
X06496D01*
X06798Y10051D02*
X08083D01*
X06798D02*
Y10351D01*
X08083D01*
Y10051D02*
Y10351D01*
X08122Y07484D02*
X08528D01*
X08122Y07276D02*
X08528D01*
Y07484D01*
X08122Y07276D02*
Y07484D01*
X08197Y09676D02*
Y09884D01*
X08603Y09676D02*
Y09884D01*
X08197Y09676D02*
X08603D01*
X08197Y09884D02*
X08603D01*
X06089Y07197D02*
X06251D01*
X04437Y08816D02*
Y09324D01*
X06523Y08816D02*
Y09045D01*
Y09095D02*
Y09324D01*
X04437Y08816D02*
X06523D01*
X04437Y09324D02*
X06523D01*
X04195Y09812D02*
X04605D01*
Y09631D02*
Y09812D01*
X04195Y09631D02*
X04605D01*
X04195D02*
Y09812D01*
X04195Y09793D02*
X04605D01*
X04634Y08603D02*
Y08632D01*
Y08603D02*
X04672D01*
X04634Y08717D02*
X04672D01*
X04686Y08650D02*
Y08670D01*
X04634Y08688D02*
Y08717D01*
D57*
X04580Y09930D02*
Y10490D01*
X04195D02*
X04580D01*
X04195Y10180D02*
Y10490D01*
Y09930D02*
X04285D01*
X04195Y10405D02*
X04580D01*
D58*
X06625Y09850D02*
X06650Y09875D01*
X06625Y09800D02*
X06650Y09775D01*
X06625Y09750D02*
X06650Y09775D01*
X06625Y09700D02*
X06650Y09675D01*
Y09875D02*
X06800D01*
X06825Y09850D01*
Y09800D02*
Y09850D01*
X06800Y09775D02*
X06825Y09800D01*
X06800Y09775D02*
X06825Y09750D01*
Y09700D02*
Y09750D01*
X06800Y09675D02*
X06825Y09700D01*
X06650Y09775D02*
X06800D01*
X06650Y09675D02*
X06800D01*
X06625Y09700D02*
Y09750D01*
Y09800D02*
Y09850D01*
Y09650D02*
X06650Y09675D01*
X06625Y09600D02*
X06650Y09575D01*
X06800Y09675D02*
X06825Y09650D01*
Y09600D02*
Y09650D01*
X06800Y09575D02*
X06825Y09600D01*
X06650Y09575D02*
X06800D01*
X06625Y09600D02*
Y09650D01*
D59*
X04280Y09470D02*
X04480D01*
Y09570D01*
X04280D02*
X04480D01*
X04280Y09470D02*
Y09570D01*
X07460Y09105D02*
X07465Y09110D01*
Y09120D01*
X07460Y09125D01*
X07440D01*
X07435Y09120D01*
Y09110D01*
X07440Y09105D01*
X07465Y09095D02*
Y09075D01*
Y09085D01*
X07435D01*
X07460Y09045D02*
X07465Y09050D01*
Y09060D01*
X07460Y09065D01*
X07455D01*
X07450Y09060D01*
Y09050D01*
X07445Y09045D01*
X07440D01*
X07435Y09050D01*
Y09060D01*
X07440Y09065D01*
X07365Y09126D02*
Y09106D01*
Y09116D01*
X07335D01*
X07365Y09096D02*
X07335Y09076D01*
X07365D02*
X07335Y09096D01*
X07365Y09066D02*
X07335D01*
Y09052D01*
X07340Y09047D01*
X07360D01*
X07365Y09052D01*
Y09066D01*
X07235Y09125D02*
X07265D01*
Y09110D01*
X07260Y09105D01*
X07250D01*
X07245Y09110D01*
Y09125D01*
Y09115D02*
X07235Y09105D01*
X07265Y09095D02*
X07235Y09075D01*
X07265D02*
X07235Y09095D01*
X07265Y09065D02*
X07235D01*
Y09050D01*
X07240Y09045D01*
X07260D01*
X07265Y09050D01*
Y09065D01*
X07135Y09125D02*
X07165D01*
X07135Y09105D01*
X07165D01*
X07160Y09075D02*
X07165Y09080D01*
Y09090D01*
X07160Y09095D01*
X07140D01*
X07135Y09090D01*
Y09080D01*
X07140Y09075D01*
X07035Y09125D02*
X07065D01*
Y09110D01*
X07060Y09105D01*
X07050D01*
X07045Y09110D01*
Y09125D01*
Y09115D02*
X07035Y09105D01*
X07065Y09095D02*
Y09075D01*
Y09085D01*
X07035D01*
X07060Y09045D02*
X07065Y09050D01*
Y09060D01*
X07060Y09065D01*
X07055D01*
X07050Y09060D01*
Y09050D01*
X07045Y09045D01*
X07040D01*
X07035Y09050D01*
Y09060D01*
X07040Y09065D01*
X06960Y09105D02*
X06965Y09110D01*
Y09120D01*
X06960Y09125D01*
X06940D01*
X06935Y09120D01*
Y09110D01*
X06940Y09105D01*
X06950D01*
Y09115D01*
X06935Y09095D02*
X06965D01*
X06935Y09075D01*
X06965D01*
Y09065D02*
X06935D01*
Y09050D01*
X06940Y09045D01*
X06960D01*
X06965Y09050D01*
Y09065D01*
X08285Y06920D02*
Y06950D01*
X08270Y06935D01*
X08290D01*
X08300Y06945D02*
X08305Y06950D01*
X08315D01*
X08320Y06945D01*
Y06925D01*
X08315Y06920D01*
X08305D01*
X08300Y06925D01*
Y06945D01*
X08395Y06920D02*
Y06950D01*
X08380Y06935D01*
X08400D01*
X08425Y06920D02*
Y06950D01*
X08410Y06935D01*
X08430D01*
X08273Y06897D02*
X08270Y06900D01*
X08263D01*
X08260Y06897D01*
Y06883D01*
X08263Y06880D01*
X08270D01*
X08273Y06883D01*
X08280Y06880D02*
Y06900D01*
X08290D01*
X08293Y06897D01*
Y06890D01*
X08290Y06887D01*
X08280D01*
X08300Y06900D02*
Y06880D01*
X08313D01*
X08320Y06900D02*
Y06880D01*
X08330D01*
X08333Y06883D01*
Y06897D01*
X08330Y06900D01*
X08320D01*
X08373Y06897D02*
X08370Y06900D01*
X08363D01*
X08360Y06897D01*
Y06893D01*
X08363Y06890D01*
X08370D01*
X08373Y06887D01*
Y06883D01*
X08370Y06880D01*
X08363D01*
X08360Y06883D01*
X08380Y06873D02*
Y06893D01*
X08390D01*
X08393Y06890D01*
Y06883D01*
X08390Y06880D01*
X08380D01*
X08403Y06893D02*
X08410D01*
X08413Y06890D01*
Y06880D01*
X08403D01*
X08400Y06883D01*
X08403Y06887D01*
X08413D01*
X08420Y06893D02*
Y06880D01*
Y06887D01*
X08423Y06890D01*
X08427Y06893D01*
X08430D01*
X08450Y06880D02*
X08443D01*
X08440Y06883D01*
Y06890D01*
X08443Y06893D01*
X08450D01*
X08453Y06890D01*
Y06887D01*
X08440D01*
D60*
X04265Y09520D02*
D03*
D61*
X04495D02*
D03*
D62*
X04317Y09520D02*
D03*
M02*
